G04 #@! TF.GenerationSoftware,KiCad,Pcbnew,(5.1.5)-3*
G04 #@! TF.CreationDate,2021-05-17T18:43:42+02:00*
G04 #@! TF.ProjectId,MK2EE,4d4b3245-452e-46b6-9963-61645f706362,1*
G04 #@! TF.SameCoordinates,Original*
G04 #@! TF.FileFunction,Paste,Bot*
G04 #@! TF.FilePolarity,Positive*
%FSLAX46Y46*%
G04 Gerber Fmt 4.6, Leading zero omitted, Abs format (unit mm)*
G04 Created by KiCad (PCBNEW (5.1.5)-3) date 2021-05-17 18:43:42*
%MOMM*%
%LPD*%
G04 APERTURE LIST*
%ADD10C,0.010000*%
%ADD11C,0.100000*%
G04 APERTURE END LIST*
D10*
G36*
X251195000Y-94305000D02*
G01*
X252945000Y-94305000D01*
X252945000Y-94055000D01*
X251195000Y-94055000D01*
X251195000Y-94305000D01*
G37*
X251195000Y-94305000D02*
X252945000Y-94305000D01*
X252945000Y-94055000D01*
X251195000Y-94055000D01*
X251195000Y-94305000D01*
G36*
X251195000Y-94955000D02*
G01*
X252945000Y-94955000D01*
X252945000Y-94705000D01*
X251195000Y-94705000D01*
X251195000Y-94955000D01*
G37*
X251195000Y-94955000D02*
X252945000Y-94955000D01*
X252945000Y-94705000D01*
X251195000Y-94705000D01*
X251195000Y-94955000D01*
G36*
X251195000Y-95605000D02*
G01*
X252945000Y-95605000D01*
X252945000Y-95355000D01*
X251195000Y-95355000D01*
X251195000Y-95605000D01*
G37*
X251195000Y-95605000D02*
X252945000Y-95605000D01*
X252945000Y-95355000D01*
X251195000Y-95355000D01*
X251195000Y-95605000D01*
G36*
X251195000Y-96255000D02*
G01*
X252945000Y-96255000D01*
X252945000Y-96005000D01*
X251195000Y-96005000D01*
X251195000Y-96255000D01*
G37*
X251195000Y-96255000D02*
X252945000Y-96255000D01*
X252945000Y-96005000D01*
X251195000Y-96005000D01*
X251195000Y-96255000D01*
G36*
X251195000Y-96905000D02*
G01*
X252945000Y-96905000D01*
X252945000Y-96655000D01*
X251195000Y-96655000D01*
X251195000Y-96905000D01*
G37*
X251195000Y-96905000D02*
X252945000Y-96905000D01*
X252945000Y-96655000D01*
X251195000Y-96655000D01*
X251195000Y-96905000D01*
G36*
X251195000Y-97555000D02*
G01*
X252945000Y-97555000D01*
X252945000Y-97305000D01*
X251195000Y-97305000D01*
X251195000Y-97555000D01*
G37*
X251195000Y-97555000D02*
X252945000Y-97555000D01*
X252945000Y-97305000D01*
X251195000Y-97305000D01*
X251195000Y-97555000D01*
G36*
X251195000Y-98205000D02*
G01*
X252945000Y-98205000D01*
X252945000Y-97955000D01*
X251195000Y-97955000D01*
X251195000Y-98205000D01*
G37*
X251195000Y-98205000D02*
X252945000Y-98205000D01*
X252945000Y-97955000D01*
X251195000Y-97955000D01*
X251195000Y-98205000D01*
G36*
X245395000Y-94305000D02*
G01*
X247145000Y-94305000D01*
X247145000Y-94055000D01*
X245395000Y-94055000D01*
X245395000Y-94305000D01*
G37*
X245395000Y-94305000D02*
X247145000Y-94305000D01*
X247145000Y-94055000D01*
X245395000Y-94055000D01*
X245395000Y-94305000D01*
G36*
X245395000Y-94955000D02*
G01*
X247145000Y-94955000D01*
X247145000Y-94705000D01*
X245395000Y-94705000D01*
X245395000Y-94955000D01*
G37*
X245395000Y-94955000D02*
X247145000Y-94955000D01*
X247145000Y-94705000D01*
X245395000Y-94705000D01*
X245395000Y-94955000D01*
G36*
X245395000Y-95605000D02*
G01*
X247145000Y-95605000D01*
X247145000Y-95355000D01*
X245395000Y-95355000D01*
X245395000Y-95605000D01*
G37*
X245395000Y-95605000D02*
X247145000Y-95605000D01*
X247145000Y-95355000D01*
X245395000Y-95355000D01*
X245395000Y-95605000D01*
G36*
X245395000Y-96255000D02*
G01*
X247145000Y-96255000D01*
X247145000Y-96005000D01*
X245395000Y-96005000D01*
X245395000Y-96255000D01*
G37*
X245395000Y-96255000D02*
X247145000Y-96255000D01*
X247145000Y-96005000D01*
X245395000Y-96005000D01*
X245395000Y-96255000D01*
G36*
X245395000Y-96905000D02*
G01*
X247145000Y-96905000D01*
X247145000Y-96655000D01*
X245395000Y-96655000D01*
X245395000Y-96905000D01*
G37*
X245395000Y-96905000D02*
X247145000Y-96905000D01*
X247145000Y-96655000D01*
X245395000Y-96655000D01*
X245395000Y-96905000D01*
G36*
X245395000Y-97555000D02*
G01*
X247145000Y-97555000D01*
X247145000Y-97305000D01*
X245395000Y-97305000D01*
X245395000Y-97555000D01*
G37*
X245395000Y-97555000D02*
X247145000Y-97555000D01*
X247145000Y-97305000D01*
X245395000Y-97305000D01*
X245395000Y-97555000D01*
G36*
X245395000Y-98205000D02*
G01*
X247145000Y-98205000D01*
X247145000Y-97955000D01*
X245395000Y-97955000D01*
X245395000Y-98205000D01*
G37*
X245395000Y-98205000D02*
X247145000Y-98205000D01*
X247145000Y-97955000D01*
X245395000Y-97955000D01*
X245395000Y-98205000D01*
G36*
X251195000Y-98855000D02*
G01*
X252945000Y-98855000D01*
X252945000Y-98605000D01*
X251195000Y-98605000D01*
X251195000Y-98855000D01*
G37*
X251195000Y-98855000D02*
X252945000Y-98855000D01*
X252945000Y-98605000D01*
X251195000Y-98605000D01*
X251195000Y-98855000D01*
G36*
X245395000Y-98855000D02*
G01*
X247145000Y-98855000D01*
X247145000Y-98605000D01*
X245395000Y-98605000D01*
X245395000Y-98855000D01*
G37*
X245395000Y-98855000D02*
X247145000Y-98855000D01*
X247145000Y-98605000D01*
X245395000Y-98605000D01*
X245395000Y-98855000D01*
G36*
X251195000Y-99505000D02*
G01*
X252945000Y-99505000D01*
X252945000Y-99255000D01*
X251195000Y-99255000D01*
X251195000Y-99505000D01*
G37*
X251195000Y-99505000D02*
X252945000Y-99505000D01*
X252945000Y-99255000D01*
X251195000Y-99255000D01*
X251195000Y-99505000D01*
G36*
X245395000Y-99505000D02*
G01*
X247145000Y-99505000D01*
X247145000Y-99255000D01*
X245395000Y-99255000D01*
X245395000Y-99505000D01*
G37*
X245395000Y-99505000D02*
X247145000Y-99505000D01*
X247145000Y-99255000D01*
X245395000Y-99255000D01*
X245395000Y-99505000D01*
G36*
X251195000Y-100155000D02*
G01*
X252945000Y-100155000D01*
X252945000Y-99905000D01*
X251195000Y-99905000D01*
X251195000Y-100155000D01*
G37*
X251195000Y-100155000D02*
X252945000Y-100155000D01*
X252945000Y-99905000D01*
X251195000Y-99905000D01*
X251195000Y-100155000D01*
G36*
X245395000Y-100155000D02*
G01*
X247145000Y-100155000D01*
X247145000Y-99905000D01*
X245395000Y-99905000D01*
X245395000Y-100155000D01*
G37*
X245395000Y-100155000D02*
X247145000Y-100155000D01*
X247145000Y-99905000D01*
X245395000Y-99905000D01*
X245395000Y-100155000D01*
G36*
X251195000Y-100805000D02*
G01*
X252945000Y-100805000D01*
X252945000Y-100555000D01*
X251195000Y-100555000D01*
X251195000Y-100805000D01*
G37*
X251195000Y-100805000D02*
X252945000Y-100805000D01*
X252945000Y-100555000D01*
X251195000Y-100555000D01*
X251195000Y-100805000D01*
G36*
X245395000Y-100805000D02*
G01*
X247145000Y-100805000D01*
X247145000Y-100555000D01*
X245395000Y-100555000D01*
X245395000Y-100805000D01*
G37*
X245395000Y-100805000D02*
X247145000Y-100805000D01*
X247145000Y-100555000D01*
X245395000Y-100555000D01*
X245395000Y-100805000D01*
G36*
X251195000Y-101455000D02*
G01*
X252945000Y-101455000D01*
X252945000Y-101205000D01*
X251195000Y-101205000D01*
X251195000Y-101455000D01*
G37*
X251195000Y-101455000D02*
X252945000Y-101455000D01*
X252945000Y-101205000D01*
X251195000Y-101205000D01*
X251195000Y-101455000D01*
G36*
X245395000Y-101455000D02*
G01*
X247145000Y-101455000D01*
X247145000Y-101205000D01*
X245395000Y-101205000D01*
X245395000Y-101455000D01*
G37*
X245395000Y-101455000D02*
X247145000Y-101455000D01*
X247145000Y-101205000D01*
X245395000Y-101205000D01*
X245395000Y-101455000D01*
G36*
X251195000Y-102105000D02*
G01*
X252945000Y-102105000D01*
X252945000Y-101855000D01*
X251195000Y-101855000D01*
X251195000Y-102105000D01*
G37*
X251195000Y-102105000D02*
X252945000Y-102105000D01*
X252945000Y-101855000D01*
X251195000Y-101855000D01*
X251195000Y-102105000D01*
G36*
X245395000Y-102105000D02*
G01*
X247145000Y-102105000D01*
X247145000Y-101855000D01*
X245395000Y-101855000D01*
X245395000Y-102105000D01*
G37*
X245395000Y-102105000D02*
X247145000Y-102105000D01*
X247145000Y-101855000D01*
X245395000Y-101855000D01*
X245395000Y-102105000D01*
G36*
X251195000Y-102755000D02*
G01*
X252945000Y-102755000D01*
X252945000Y-102505000D01*
X251195000Y-102505000D01*
X251195000Y-102755000D01*
G37*
X251195000Y-102755000D02*
X252945000Y-102755000D01*
X252945000Y-102505000D01*
X251195000Y-102505000D01*
X251195000Y-102755000D01*
G36*
X245390000Y-102755000D02*
G01*
X247145000Y-102755000D01*
X247145000Y-102505000D01*
X245390000Y-102505000D01*
X245390000Y-102755000D01*
G37*
X245390000Y-102755000D02*
X247145000Y-102755000D01*
X247145000Y-102505000D01*
X245390000Y-102505000D01*
X245390000Y-102755000D01*
G36*
X247970000Y-101635000D02*
G01*
X250370000Y-101635000D01*
X250370000Y-95175000D01*
X247970000Y-95175000D01*
X247970000Y-101635000D01*
G37*
X247970000Y-101635000D02*
X250370000Y-101635000D01*
X250370000Y-95175000D01*
X247970000Y-95175000D01*
X247970000Y-101635000D01*
G36*
X181320000Y-101635000D02*
G01*
X183720000Y-101635000D01*
X183720000Y-95175000D01*
X181320000Y-95175000D01*
X181320000Y-101635000D01*
G37*
X181320000Y-101635000D02*
X183720000Y-101635000D01*
X183720000Y-95175000D01*
X181320000Y-95175000D01*
X181320000Y-101635000D01*
G36*
X178740000Y-102755000D02*
G01*
X180495000Y-102755000D01*
X180495000Y-102505000D01*
X178740000Y-102505000D01*
X178740000Y-102755000D01*
G37*
X178740000Y-102755000D02*
X180495000Y-102755000D01*
X180495000Y-102505000D01*
X178740000Y-102505000D01*
X178740000Y-102755000D01*
G36*
X184545000Y-102755000D02*
G01*
X186295000Y-102755000D01*
X186295000Y-102505000D01*
X184545000Y-102505000D01*
X184545000Y-102755000D01*
G37*
X184545000Y-102755000D02*
X186295000Y-102755000D01*
X186295000Y-102505000D01*
X184545000Y-102505000D01*
X184545000Y-102755000D01*
G36*
X178745000Y-102105000D02*
G01*
X180495000Y-102105000D01*
X180495000Y-101855000D01*
X178745000Y-101855000D01*
X178745000Y-102105000D01*
G37*
X178745000Y-102105000D02*
X180495000Y-102105000D01*
X180495000Y-101855000D01*
X178745000Y-101855000D01*
X178745000Y-102105000D01*
G36*
X184545000Y-102105000D02*
G01*
X186295000Y-102105000D01*
X186295000Y-101855000D01*
X184545000Y-101855000D01*
X184545000Y-102105000D01*
G37*
X184545000Y-102105000D02*
X186295000Y-102105000D01*
X186295000Y-101855000D01*
X184545000Y-101855000D01*
X184545000Y-102105000D01*
G36*
X178745000Y-101455000D02*
G01*
X180495000Y-101455000D01*
X180495000Y-101205000D01*
X178745000Y-101205000D01*
X178745000Y-101455000D01*
G37*
X178745000Y-101455000D02*
X180495000Y-101455000D01*
X180495000Y-101205000D01*
X178745000Y-101205000D01*
X178745000Y-101455000D01*
G36*
X184545000Y-101455000D02*
G01*
X186295000Y-101455000D01*
X186295000Y-101205000D01*
X184545000Y-101205000D01*
X184545000Y-101455000D01*
G37*
X184545000Y-101455000D02*
X186295000Y-101455000D01*
X186295000Y-101205000D01*
X184545000Y-101205000D01*
X184545000Y-101455000D01*
G36*
X178745000Y-100805000D02*
G01*
X180495000Y-100805000D01*
X180495000Y-100555000D01*
X178745000Y-100555000D01*
X178745000Y-100805000D01*
G37*
X178745000Y-100805000D02*
X180495000Y-100805000D01*
X180495000Y-100555000D01*
X178745000Y-100555000D01*
X178745000Y-100805000D01*
G36*
X184545000Y-100805000D02*
G01*
X186295000Y-100805000D01*
X186295000Y-100555000D01*
X184545000Y-100555000D01*
X184545000Y-100805000D01*
G37*
X184545000Y-100805000D02*
X186295000Y-100805000D01*
X186295000Y-100555000D01*
X184545000Y-100555000D01*
X184545000Y-100805000D01*
G36*
X178745000Y-100155000D02*
G01*
X180495000Y-100155000D01*
X180495000Y-99905000D01*
X178745000Y-99905000D01*
X178745000Y-100155000D01*
G37*
X178745000Y-100155000D02*
X180495000Y-100155000D01*
X180495000Y-99905000D01*
X178745000Y-99905000D01*
X178745000Y-100155000D01*
G36*
X184545000Y-100155000D02*
G01*
X186295000Y-100155000D01*
X186295000Y-99905000D01*
X184545000Y-99905000D01*
X184545000Y-100155000D01*
G37*
X184545000Y-100155000D02*
X186295000Y-100155000D01*
X186295000Y-99905000D01*
X184545000Y-99905000D01*
X184545000Y-100155000D01*
G36*
X178745000Y-99505000D02*
G01*
X180495000Y-99505000D01*
X180495000Y-99255000D01*
X178745000Y-99255000D01*
X178745000Y-99505000D01*
G37*
X178745000Y-99505000D02*
X180495000Y-99505000D01*
X180495000Y-99255000D01*
X178745000Y-99255000D01*
X178745000Y-99505000D01*
G36*
X184545000Y-99505000D02*
G01*
X186295000Y-99505000D01*
X186295000Y-99255000D01*
X184545000Y-99255000D01*
X184545000Y-99505000D01*
G37*
X184545000Y-99505000D02*
X186295000Y-99505000D01*
X186295000Y-99255000D01*
X184545000Y-99255000D01*
X184545000Y-99505000D01*
G36*
X178745000Y-98855000D02*
G01*
X180495000Y-98855000D01*
X180495000Y-98605000D01*
X178745000Y-98605000D01*
X178745000Y-98855000D01*
G37*
X178745000Y-98855000D02*
X180495000Y-98855000D01*
X180495000Y-98605000D01*
X178745000Y-98605000D01*
X178745000Y-98855000D01*
G36*
X184545000Y-98855000D02*
G01*
X186295000Y-98855000D01*
X186295000Y-98605000D01*
X184545000Y-98605000D01*
X184545000Y-98855000D01*
G37*
X184545000Y-98855000D02*
X186295000Y-98855000D01*
X186295000Y-98605000D01*
X184545000Y-98605000D01*
X184545000Y-98855000D01*
G36*
X178745000Y-98205000D02*
G01*
X180495000Y-98205000D01*
X180495000Y-97955000D01*
X178745000Y-97955000D01*
X178745000Y-98205000D01*
G37*
X178745000Y-98205000D02*
X180495000Y-98205000D01*
X180495000Y-97955000D01*
X178745000Y-97955000D01*
X178745000Y-98205000D01*
G36*
X178745000Y-97555000D02*
G01*
X180495000Y-97555000D01*
X180495000Y-97305000D01*
X178745000Y-97305000D01*
X178745000Y-97555000D01*
G37*
X178745000Y-97555000D02*
X180495000Y-97555000D01*
X180495000Y-97305000D01*
X178745000Y-97305000D01*
X178745000Y-97555000D01*
G36*
X178745000Y-96905000D02*
G01*
X180495000Y-96905000D01*
X180495000Y-96655000D01*
X178745000Y-96655000D01*
X178745000Y-96905000D01*
G37*
X178745000Y-96905000D02*
X180495000Y-96905000D01*
X180495000Y-96655000D01*
X178745000Y-96655000D01*
X178745000Y-96905000D01*
G36*
X178745000Y-96255000D02*
G01*
X180495000Y-96255000D01*
X180495000Y-96005000D01*
X178745000Y-96005000D01*
X178745000Y-96255000D01*
G37*
X178745000Y-96255000D02*
X180495000Y-96255000D01*
X180495000Y-96005000D01*
X178745000Y-96005000D01*
X178745000Y-96255000D01*
G36*
X178745000Y-95605000D02*
G01*
X180495000Y-95605000D01*
X180495000Y-95355000D01*
X178745000Y-95355000D01*
X178745000Y-95605000D01*
G37*
X178745000Y-95605000D02*
X180495000Y-95605000D01*
X180495000Y-95355000D01*
X178745000Y-95355000D01*
X178745000Y-95605000D01*
G36*
X178745000Y-94955000D02*
G01*
X180495000Y-94955000D01*
X180495000Y-94705000D01*
X178745000Y-94705000D01*
X178745000Y-94955000D01*
G37*
X178745000Y-94955000D02*
X180495000Y-94955000D01*
X180495000Y-94705000D01*
X178745000Y-94705000D01*
X178745000Y-94955000D01*
G36*
X178745000Y-94305000D02*
G01*
X180495000Y-94305000D01*
X180495000Y-94055000D01*
X178745000Y-94055000D01*
X178745000Y-94305000D01*
G37*
X178745000Y-94305000D02*
X180495000Y-94305000D01*
X180495000Y-94055000D01*
X178745000Y-94055000D01*
X178745000Y-94305000D01*
G36*
X184545000Y-98205000D02*
G01*
X186295000Y-98205000D01*
X186295000Y-97955000D01*
X184545000Y-97955000D01*
X184545000Y-98205000D01*
G37*
X184545000Y-98205000D02*
X186295000Y-98205000D01*
X186295000Y-97955000D01*
X184545000Y-97955000D01*
X184545000Y-98205000D01*
G36*
X184545000Y-97555000D02*
G01*
X186295000Y-97555000D01*
X186295000Y-97305000D01*
X184545000Y-97305000D01*
X184545000Y-97555000D01*
G37*
X184545000Y-97555000D02*
X186295000Y-97555000D01*
X186295000Y-97305000D01*
X184545000Y-97305000D01*
X184545000Y-97555000D01*
G36*
X184545000Y-96905000D02*
G01*
X186295000Y-96905000D01*
X186295000Y-96655000D01*
X184545000Y-96655000D01*
X184545000Y-96905000D01*
G37*
X184545000Y-96905000D02*
X186295000Y-96905000D01*
X186295000Y-96655000D01*
X184545000Y-96655000D01*
X184545000Y-96905000D01*
G36*
X184545000Y-96255000D02*
G01*
X186295000Y-96255000D01*
X186295000Y-96005000D01*
X184545000Y-96005000D01*
X184545000Y-96255000D01*
G37*
X184545000Y-96255000D02*
X186295000Y-96255000D01*
X186295000Y-96005000D01*
X184545000Y-96005000D01*
X184545000Y-96255000D01*
G36*
X184545000Y-95605000D02*
G01*
X186295000Y-95605000D01*
X186295000Y-95355000D01*
X184545000Y-95355000D01*
X184545000Y-95605000D01*
G37*
X184545000Y-95605000D02*
X186295000Y-95605000D01*
X186295000Y-95355000D01*
X184545000Y-95355000D01*
X184545000Y-95605000D01*
G36*
X184545000Y-94955000D02*
G01*
X186295000Y-94955000D01*
X186295000Y-94705000D01*
X184545000Y-94705000D01*
X184545000Y-94955000D01*
G37*
X184545000Y-94955000D02*
X186295000Y-94955000D01*
X186295000Y-94705000D01*
X184545000Y-94705000D01*
X184545000Y-94955000D01*
G36*
X184545000Y-94305000D02*
G01*
X186295000Y-94305000D01*
X186295000Y-94055000D01*
X184545000Y-94055000D01*
X184545000Y-94305000D01*
G37*
X184545000Y-94305000D02*
X186295000Y-94305000D01*
X186295000Y-94055000D01*
X184545000Y-94055000D01*
X184545000Y-94305000D01*
D11*
G36*
X248669504Y-104981204D02*
G01*
X248693773Y-104984804D01*
X248717571Y-104990765D01*
X248740671Y-104999030D01*
X248762849Y-105009520D01*
X248783893Y-105022133D01*
X248803598Y-105036747D01*
X248821777Y-105053223D01*
X248838253Y-105071402D01*
X248852867Y-105091107D01*
X248865480Y-105112151D01*
X248875970Y-105134329D01*
X248884235Y-105157429D01*
X248890196Y-105181227D01*
X248893796Y-105205496D01*
X248895000Y-105230000D01*
X248895000Y-106480000D01*
X248893796Y-106504504D01*
X248890196Y-106528773D01*
X248884235Y-106552571D01*
X248875970Y-106575671D01*
X248865480Y-106597849D01*
X248852867Y-106618893D01*
X248838253Y-106638598D01*
X248821777Y-106656777D01*
X248803598Y-106673253D01*
X248783893Y-106687867D01*
X248762849Y-106700480D01*
X248740671Y-106710970D01*
X248717571Y-106719235D01*
X248693773Y-106725196D01*
X248669504Y-106728796D01*
X248645000Y-106730000D01*
X247720000Y-106730000D01*
X247695496Y-106728796D01*
X247671227Y-106725196D01*
X247647429Y-106719235D01*
X247624329Y-106710970D01*
X247602151Y-106700480D01*
X247581107Y-106687867D01*
X247561402Y-106673253D01*
X247543223Y-106656777D01*
X247526747Y-106638598D01*
X247512133Y-106618893D01*
X247499520Y-106597849D01*
X247489030Y-106575671D01*
X247480765Y-106552571D01*
X247474804Y-106528773D01*
X247471204Y-106504504D01*
X247470000Y-106480000D01*
X247470000Y-105230000D01*
X247471204Y-105205496D01*
X247474804Y-105181227D01*
X247480765Y-105157429D01*
X247489030Y-105134329D01*
X247499520Y-105112151D01*
X247512133Y-105091107D01*
X247526747Y-105071402D01*
X247543223Y-105053223D01*
X247561402Y-105036747D01*
X247581107Y-105022133D01*
X247602151Y-105009520D01*
X247624329Y-104999030D01*
X247647429Y-104990765D01*
X247671227Y-104984804D01*
X247695496Y-104981204D01*
X247720000Y-104980000D01*
X248645000Y-104980000D01*
X248669504Y-104981204D01*
G37*
G36*
X245694504Y-104981204D02*
G01*
X245718773Y-104984804D01*
X245742571Y-104990765D01*
X245765671Y-104999030D01*
X245787849Y-105009520D01*
X245808893Y-105022133D01*
X245828598Y-105036747D01*
X245846777Y-105053223D01*
X245863253Y-105071402D01*
X245877867Y-105091107D01*
X245890480Y-105112151D01*
X245900970Y-105134329D01*
X245909235Y-105157429D01*
X245915196Y-105181227D01*
X245918796Y-105205496D01*
X245920000Y-105230000D01*
X245920000Y-106480000D01*
X245918796Y-106504504D01*
X245915196Y-106528773D01*
X245909235Y-106552571D01*
X245900970Y-106575671D01*
X245890480Y-106597849D01*
X245877867Y-106618893D01*
X245863253Y-106638598D01*
X245846777Y-106656777D01*
X245828598Y-106673253D01*
X245808893Y-106687867D01*
X245787849Y-106700480D01*
X245765671Y-106710970D01*
X245742571Y-106719235D01*
X245718773Y-106725196D01*
X245694504Y-106728796D01*
X245670000Y-106730000D01*
X244745000Y-106730000D01*
X244720496Y-106728796D01*
X244696227Y-106725196D01*
X244672429Y-106719235D01*
X244649329Y-106710970D01*
X244627151Y-106700480D01*
X244606107Y-106687867D01*
X244586402Y-106673253D01*
X244568223Y-106656777D01*
X244551747Y-106638598D01*
X244537133Y-106618893D01*
X244524520Y-106597849D01*
X244514030Y-106575671D01*
X244505765Y-106552571D01*
X244499804Y-106528773D01*
X244496204Y-106504504D01*
X244495000Y-106480000D01*
X244495000Y-105230000D01*
X244496204Y-105205496D01*
X244499804Y-105181227D01*
X244505765Y-105157429D01*
X244514030Y-105134329D01*
X244524520Y-105112151D01*
X244537133Y-105091107D01*
X244551747Y-105071402D01*
X244568223Y-105053223D01*
X244586402Y-105036747D01*
X244606107Y-105022133D01*
X244627151Y-105009520D01*
X244649329Y-104999030D01*
X244672429Y-104990765D01*
X244696227Y-104984804D01*
X244720496Y-104981204D01*
X244745000Y-104980000D01*
X245670000Y-104980000D01*
X245694504Y-104981204D01*
G37*
G36*
X244044504Y-89906204D02*
G01*
X244068773Y-89909804D01*
X244092571Y-89915765D01*
X244115671Y-89924030D01*
X244137849Y-89934520D01*
X244158893Y-89947133D01*
X244178598Y-89961747D01*
X244196777Y-89978223D01*
X244213253Y-89996402D01*
X244227867Y-90016107D01*
X244240480Y-90037151D01*
X244250970Y-90059329D01*
X244259235Y-90082429D01*
X244265196Y-90106227D01*
X244268796Y-90130496D01*
X244270000Y-90155000D01*
X244270000Y-91080000D01*
X244268796Y-91104504D01*
X244265196Y-91128773D01*
X244259235Y-91152571D01*
X244250970Y-91175671D01*
X244240480Y-91197849D01*
X244227867Y-91218893D01*
X244213253Y-91238598D01*
X244196777Y-91256777D01*
X244178598Y-91273253D01*
X244158893Y-91287867D01*
X244137849Y-91300480D01*
X244115671Y-91310970D01*
X244092571Y-91319235D01*
X244068773Y-91325196D01*
X244044504Y-91328796D01*
X244020000Y-91330000D01*
X242770000Y-91330000D01*
X242745496Y-91328796D01*
X242721227Y-91325196D01*
X242697429Y-91319235D01*
X242674329Y-91310970D01*
X242652151Y-91300480D01*
X242631107Y-91287867D01*
X242611402Y-91273253D01*
X242593223Y-91256777D01*
X242576747Y-91238598D01*
X242562133Y-91218893D01*
X242549520Y-91197849D01*
X242539030Y-91175671D01*
X242530765Y-91152571D01*
X242524804Y-91128773D01*
X242521204Y-91104504D01*
X242520000Y-91080000D01*
X242520000Y-90155000D01*
X242521204Y-90130496D01*
X242524804Y-90106227D01*
X242530765Y-90082429D01*
X242539030Y-90059329D01*
X242549520Y-90037151D01*
X242562133Y-90016107D01*
X242576747Y-89996402D01*
X242593223Y-89978223D01*
X242611402Y-89961747D01*
X242631107Y-89947133D01*
X242652151Y-89934520D01*
X242674329Y-89924030D01*
X242697429Y-89915765D01*
X242721227Y-89909804D01*
X242745496Y-89906204D01*
X242770000Y-89905000D01*
X244020000Y-89905000D01*
X244044504Y-89906204D01*
G37*
G36*
X244044504Y-92881204D02*
G01*
X244068773Y-92884804D01*
X244092571Y-92890765D01*
X244115671Y-92899030D01*
X244137849Y-92909520D01*
X244158893Y-92922133D01*
X244178598Y-92936747D01*
X244196777Y-92953223D01*
X244213253Y-92971402D01*
X244227867Y-92991107D01*
X244240480Y-93012151D01*
X244250970Y-93034329D01*
X244259235Y-93057429D01*
X244265196Y-93081227D01*
X244268796Y-93105496D01*
X244270000Y-93130000D01*
X244270000Y-94055000D01*
X244268796Y-94079504D01*
X244265196Y-94103773D01*
X244259235Y-94127571D01*
X244250970Y-94150671D01*
X244240480Y-94172849D01*
X244227867Y-94193893D01*
X244213253Y-94213598D01*
X244196777Y-94231777D01*
X244178598Y-94248253D01*
X244158893Y-94262867D01*
X244137849Y-94275480D01*
X244115671Y-94285970D01*
X244092571Y-94294235D01*
X244068773Y-94300196D01*
X244044504Y-94303796D01*
X244020000Y-94305000D01*
X242770000Y-94305000D01*
X242745496Y-94303796D01*
X242721227Y-94300196D01*
X242697429Y-94294235D01*
X242674329Y-94285970D01*
X242652151Y-94275480D01*
X242631107Y-94262867D01*
X242611402Y-94248253D01*
X242593223Y-94231777D01*
X242576747Y-94213598D01*
X242562133Y-94193893D01*
X242549520Y-94172849D01*
X242539030Y-94150671D01*
X242530765Y-94127571D01*
X242524804Y-94103773D01*
X242521204Y-94079504D01*
X242520000Y-94055000D01*
X242520000Y-93130000D01*
X242521204Y-93105496D01*
X242524804Y-93081227D01*
X242530765Y-93057429D01*
X242539030Y-93034329D01*
X242549520Y-93012151D01*
X242562133Y-92991107D01*
X242576747Y-92971402D01*
X242593223Y-92953223D01*
X242611402Y-92936747D01*
X242631107Y-92922133D01*
X242652151Y-92909520D01*
X242674329Y-92899030D01*
X242697429Y-92890765D01*
X242721227Y-92884804D01*
X242745496Y-92881204D01*
X242770000Y-92880000D01*
X244020000Y-92880000D01*
X244044504Y-92881204D01*
G37*
G36*
X234459504Y-95661204D02*
G01*
X234483773Y-95664804D01*
X234507571Y-95670765D01*
X234530671Y-95679030D01*
X234552849Y-95689520D01*
X234573893Y-95702133D01*
X234593598Y-95716747D01*
X234611777Y-95733223D01*
X234628253Y-95751402D01*
X234642867Y-95771107D01*
X234655480Y-95792151D01*
X234665970Y-95814329D01*
X234674235Y-95837429D01*
X234680196Y-95861227D01*
X234683796Y-95885496D01*
X234685000Y-95910000D01*
X234685000Y-97160000D01*
X234683796Y-97184504D01*
X234680196Y-97208773D01*
X234674235Y-97232571D01*
X234665970Y-97255671D01*
X234655480Y-97277849D01*
X234642867Y-97298893D01*
X234628253Y-97318598D01*
X234611777Y-97336777D01*
X234593598Y-97353253D01*
X234573893Y-97367867D01*
X234552849Y-97380480D01*
X234530671Y-97390970D01*
X234507571Y-97399235D01*
X234483773Y-97405196D01*
X234459504Y-97408796D01*
X234435000Y-97410000D01*
X233510000Y-97410000D01*
X233485496Y-97408796D01*
X233461227Y-97405196D01*
X233437429Y-97399235D01*
X233414329Y-97390970D01*
X233392151Y-97380480D01*
X233371107Y-97367867D01*
X233351402Y-97353253D01*
X233333223Y-97336777D01*
X233316747Y-97318598D01*
X233302133Y-97298893D01*
X233289520Y-97277849D01*
X233279030Y-97255671D01*
X233270765Y-97232571D01*
X233264804Y-97208773D01*
X233261204Y-97184504D01*
X233260000Y-97160000D01*
X233260000Y-95910000D01*
X233261204Y-95885496D01*
X233264804Y-95861227D01*
X233270765Y-95837429D01*
X233279030Y-95814329D01*
X233289520Y-95792151D01*
X233302133Y-95771107D01*
X233316747Y-95751402D01*
X233333223Y-95733223D01*
X233351402Y-95716747D01*
X233371107Y-95702133D01*
X233392151Y-95689520D01*
X233414329Y-95679030D01*
X233437429Y-95670765D01*
X233461227Y-95664804D01*
X233485496Y-95661204D01*
X233510000Y-95660000D01*
X234435000Y-95660000D01*
X234459504Y-95661204D01*
G37*
G36*
X231484504Y-95661204D02*
G01*
X231508773Y-95664804D01*
X231532571Y-95670765D01*
X231555671Y-95679030D01*
X231577849Y-95689520D01*
X231598893Y-95702133D01*
X231618598Y-95716747D01*
X231636777Y-95733223D01*
X231653253Y-95751402D01*
X231667867Y-95771107D01*
X231680480Y-95792151D01*
X231690970Y-95814329D01*
X231699235Y-95837429D01*
X231705196Y-95861227D01*
X231708796Y-95885496D01*
X231710000Y-95910000D01*
X231710000Y-97160000D01*
X231708796Y-97184504D01*
X231705196Y-97208773D01*
X231699235Y-97232571D01*
X231690970Y-97255671D01*
X231680480Y-97277849D01*
X231667867Y-97298893D01*
X231653253Y-97318598D01*
X231636777Y-97336777D01*
X231618598Y-97353253D01*
X231598893Y-97367867D01*
X231577849Y-97380480D01*
X231555671Y-97390970D01*
X231532571Y-97399235D01*
X231508773Y-97405196D01*
X231484504Y-97408796D01*
X231460000Y-97410000D01*
X230535000Y-97410000D01*
X230510496Y-97408796D01*
X230486227Y-97405196D01*
X230462429Y-97399235D01*
X230439329Y-97390970D01*
X230417151Y-97380480D01*
X230396107Y-97367867D01*
X230376402Y-97353253D01*
X230358223Y-97336777D01*
X230341747Y-97318598D01*
X230327133Y-97298893D01*
X230314520Y-97277849D01*
X230304030Y-97255671D01*
X230295765Y-97232571D01*
X230289804Y-97208773D01*
X230286204Y-97184504D01*
X230285000Y-97160000D01*
X230285000Y-95910000D01*
X230286204Y-95885496D01*
X230289804Y-95861227D01*
X230295765Y-95837429D01*
X230304030Y-95814329D01*
X230314520Y-95792151D01*
X230327133Y-95771107D01*
X230341747Y-95751402D01*
X230358223Y-95733223D01*
X230376402Y-95716747D01*
X230396107Y-95702133D01*
X230417151Y-95689520D01*
X230439329Y-95679030D01*
X230462429Y-95670765D01*
X230486227Y-95664804D01*
X230510496Y-95661204D01*
X230535000Y-95660000D01*
X231460000Y-95660000D01*
X231484504Y-95661204D01*
G37*
G36*
X261904504Y-92361204D02*
G01*
X261928773Y-92364804D01*
X261952571Y-92370765D01*
X261975671Y-92379030D01*
X261997849Y-92389520D01*
X262018893Y-92402133D01*
X262038598Y-92416747D01*
X262056777Y-92433223D01*
X262073253Y-92451402D01*
X262087867Y-92471107D01*
X262100480Y-92492151D01*
X262110970Y-92514329D01*
X262119235Y-92537429D01*
X262125196Y-92561227D01*
X262128796Y-92585496D01*
X262130000Y-92610000D01*
X262130000Y-93860000D01*
X262128796Y-93884504D01*
X262125196Y-93908773D01*
X262119235Y-93932571D01*
X262110970Y-93955671D01*
X262100480Y-93977849D01*
X262087867Y-93998893D01*
X262073253Y-94018598D01*
X262056777Y-94036777D01*
X262038598Y-94053253D01*
X262018893Y-94067867D01*
X261997849Y-94080480D01*
X261975671Y-94090970D01*
X261952571Y-94099235D01*
X261928773Y-94105196D01*
X261904504Y-94108796D01*
X261880000Y-94110000D01*
X260955000Y-94110000D01*
X260930496Y-94108796D01*
X260906227Y-94105196D01*
X260882429Y-94099235D01*
X260859329Y-94090970D01*
X260837151Y-94080480D01*
X260816107Y-94067867D01*
X260796402Y-94053253D01*
X260778223Y-94036777D01*
X260761747Y-94018598D01*
X260747133Y-93998893D01*
X260734520Y-93977849D01*
X260724030Y-93955671D01*
X260715765Y-93932571D01*
X260709804Y-93908773D01*
X260706204Y-93884504D01*
X260705000Y-93860000D01*
X260705000Y-92610000D01*
X260706204Y-92585496D01*
X260709804Y-92561227D01*
X260715765Y-92537429D01*
X260724030Y-92514329D01*
X260734520Y-92492151D01*
X260747133Y-92471107D01*
X260761747Y-92451402D01*
X260778223Y-92433223D01*
X260796402Y-92416747D01*
X260816107Y-92402133D01*
X260837151Y-92389520D01*
X260859329Y-92379030D01*
X260882429Y-92370765D01*
X260906227Y-92364804D01*
X260930496Y-92361204D01*
X260955000Y-92360000D01*
X261880000Y-92360000D01*
X261904504Y-92361204D01*
G37*
G36*
X258929504Y-92361204D02*
G01*
X258953773Y-92364804D01*
X258977571Y-92370765D01*
X259000671Y-92379030D01*
X259022849Y-92389520D01*
X259043893Y-92402133D01*
X259063598Y-92416747D01*
X259081777Y-92433223D01*
X259098253Y-92451402D01*
X259112867Y-92471107D01*
X259125480Y-92492151D01*
X259135970Y-92514329D01*
X259144235Y-92537429D01*
X259150196Y-92561227D01*
X259153796Y-92585496D01*
X259155000Y-92610000D01*
X259155000Y-93860000D01*
X259153796Y-93884504D01*
X259150196Y-93908773D01*
X259144235Y-93932571D01*
X259135970Y-93955671D01*
X259125480Y-93977849D01*
X259112867Y-93998893D01*
X259098253Y-94018598D01*
X259081777Y-94036777D01*
X259063598Y-94053253D01*
X259043893Y-94067867D01*
X259022849Y-94080480D01*
X259000671Y-94090970D01*
X258977571Y-94099235D01*
X258953773Y-94105196D01*
X258929504Y-94108796D01*
X258905000Y-94110000D01*
X257980000Y-94110000D01*
X257955496Y-94108796D01*
X257931227Y-94105196D01*
X257907429Y-94099235D01*
X257884329Y-94090970D01*
X257862151Y-94080480D01*
X257841107Y-94067867D01*
X257821402Y-94053253D01*
X257803223Y-94036777D01*
X257786747Y-94018598D01*
X257772133Y-93998893D01*
X257759520Y-93977849D01*
X257749030Y-93955671D01*
X257740765Y-93932571D01*
X257734804Y-93908773D01*
X257731204Y-93884504D01*
X257730000Y-93860000D01*
X257730000Y-92610000D01*
X257731204Y-92585496D01*
X257734804Y-92561227D01*
X257740765Y-92537429D01*
X257749030Y-92514329D01*
X257759520Y-92492151D01*
X257772133Y-92471107D01*
X257786747Y-92451402D01*
X257803223Y-92433223D01*
X257821402Y-92416747D01*
X257841107Y-92402133D01*
X257862151Y-92389520D01*
X257884329Y-92379030D01*
X257907429Y-92370765D01*
X257931227Y-92364804D01*
X257955496Y-92361204D01*
X257980000Y-92360000D01*
X258905000Y-92360000D01*
X258929504Y-92361204D01*
G37*
G36*
X238969504Y-102906204D02*
G01*
X238993773Y-102909804D01*
X239017571Y-102915765D01*
X239040671Y-102924030D01*
X239062849Y-102934520D01*
X239083893Y-102947133D01*
X239103598Y-102961747D01*
X239121777Y-102978223D01*
X239138253Y-102996402D01*
X239152867Y-103016107D01*
X239165480Y-103037151D01*
X239175970Y-103059329D01*
X239184235Y-103082429D01*
X239190196Y-103106227D01*
X239193796Y-103130496D01*
X239195000Y-103155000D01*
X239195000Y-104405000D01*
X239193796Y-104429504D01*
X239190196Y-104453773D01*
X239184235Y-104477571D01*
X239175970Y-104500671D01*
X239165480Y-104522849D01*
X239152867Y-104543893D01*
X239138253Y-104563598D01*
X239121777Y-104581777D01*
X239103598Y-104598253D01*
X239083893Y-104612867D01*
X239062849Y-104625480D01*
X239040671Y-104635970D01*
X239017571Y-104644235D01*
X238993773Y-104650196D01*
X238969504Y-104653796D01*
X238945000Y-104655000D01*
X238020000Y-104655000D01*
X237995496Y-104653796D01*
X237971227Y-104650196D01*
X237947429Y-104644235D01*
X237924329Y-104635970D01*
X237902151Y-104625480D01*
X237881107Y-104612867D01*
X237861402Y-104598253D01*
X237843223Y-104581777D01*
X237826747Y-104563598D01*
X237812133Y-104543893D01*
X237799520Y-104522849D01*
X237789030Y-104500671D01*
X237780765Y-104477571D01*
X237774804Y-104453773D01*
X237771204Y-104429504D01*
X237770000Y-104405000D01*
X237770000Y-103155000D01*
X237771204Y-103130496D01*
X237774804Y-103106227D01*
X237780765Y-103082429D01*
X237789030Y-103059329D01*
X237799520Y-103037151D01*
X237812133Y-103016107D01*
X237826747Y-102996402D01*
X237843223Y-102978223D01*
X237861402Y-102961747D01*
X237881107Y-102947133D01*
X237902151Y-102934520D01*
X237924329Y-102924030D01*
X237947429Y-102915765D01*
X237971227Y-102909804D01*
X237995496Y-102906204D01*
X238020000Y-102905000D01*
X238945000Y-102905000D01*
X238969504Y-102906204D01*
G37*
G36*
X241944504Y-102906204D02*
G01*
X241968773Y-102909804D01*
X241992571Y-102915765D01*
X242015671Y-102924030D01*
X242037849Y-102934520D01*
X242058893Y-102947133D01*
X242078598Y-102961747D01*
X242096777Y-102978223D01*
X242113253Y-102996402D01*
X242127867Y-103016107D01*
X242140480Y-103037151D01*
X242150970Y-103059329D01*
X242159235Y-103082429D01*
X242165196Y-103106227D01*
X242168796Y-103130496D01*
X242170000Y-103155000D01*
X242170000Y-104405000D01*
X242168796Y-104429504D01*
X242165196Y-104453773D01*
X242159235Y-104477571D01*
X242150970Y-104500671D01*
X242140480Y-104522849D01*
X242127867Y-104543893D01*
X242113253Y-104563598D01*
X242096777Y-104581777D01*
X242078598Y-104598253D01*
X242058893Y-104612867D01*
X242037849Y-104625480D01*
X242015671Y-104635970D01*
X241992571Y-104644235D01*
X241968773Y-104650196D01*
X241944504Y-104653796D01*
X241920000Y-104655000D01*
X240995000Y-104655000D01*
X240970496Y-104653796D01*
X240946227Y-104650196D01*
X240922429Y-104644235D01*
X240899329Y-104635970D01*
X240877151Y-104625480D01*
X240856107Y-104612867D01*
X240836402Y-104598253D01*
X240818223Y-104581777D01*
X240801747Y-104563598D01*
X240787133Y-104543893D01*
X240774520Y-104522849D01*
X240764030Y-104500671D01*
X240755765Y-104477571D01*
X240749804Y-104453773D01*
X240746204Y-104429504D01*
X240745000Y-104405000D01*
X240745000Y-103155000D01*
X240746204Y-103130496D01*
X240749804Y-103106227D01*
X240755765Y-103082429D01*
X240764030Y-103059329D01*
X240774520Y-103037151D01*
X240787133Y-103016107D01*
X240801747Y-102996402D01*
X240818223Y-102978223D01*
X240836402Y-102961747D01*
X240856107Y-102947133D01*
X240877151Y-102934520D01*
X240899329Y-102924030D01*
X240922429Y-102915765D01*
X240946227Y-102909804D01*
X240970496Y-102906204D01*
X240995000Y-102905000D01*
X241920000Y-102905000D01*
X241944504Y-102906204D01*
G37*
G36*
X238969504Y-107606204D02*
G01*
X238993773Y-107609804D01*
X239017571Y-107615765D01*
X239040671Y-107624030D01*
X239062849Y-107634520D01*
X239083893Y-107647133D01*
X239103598Y-107661747D01*
X239121777Y-107678223D01*
X239138253Y-107696402D01*
X239152867Y-107716107D01*
X239165480Y-107737151D01*
X239175970Y-107759329D01*
X239184235Y-107782429D01*
X239190196Y-107806227D01*
X239193796Y-107830496D01*
X239195000Y-107855000D01*
X239195000Y-109105000D01*
X239193796Y-109129504D01*
X239190196Y-109153773D01*
X239184235Y-109177571D01*
X239175970Y-109200671D01*
X239165480Y-109222849D01*
X239152867Y-109243893D01*
X239138253Y-109263598D01*
X239121777Y-109281777D01*
X239103598Y-109298253D01*
X239083893Y-109312867D01*
X239062849Y-109325480D01*
X239040671Y-109335970D01*
X239017571Y-109344235D01*
X238993773Y-109350196D01*
X238969504Y-109353796D01*
X238945000Y-109355000D01*
X238020000Y-109355000D01*
X237995496Y-109353796D01*
X237971227Y-109350196D01*
X237947429Y-109344235D01*
X237924329Y-109335970D01*
X237902151Y-109325480D01*
X237881107Y-109312867D01*
X237861402Y-109298253D01*
X237843223Y-109281777D01*
X237826747Y-109263598D01*
X237812133Y-109243893D01*
X237799520Y-109222849D01*
X237789030Y-109200671D01*
X237780765Y-109177571D01*
X237774804Y-109153773D01*
X237771204Y-109129504D01*
X237770000Y-109105000D01*
X237770000Y-107855000D01*
X237771204Y-107830496D01*
X237774804Y-107806227D01*
X237780765Y-107782429D01*
X237789030Y-107759329D01*
X237799520Y-107737151D01*
X237812133Y-107716107D01*
X237826747Y-107696402D01*
X237843223Y-107678223D01*
X237861402Y-107661747D01*
X237881107Y-107647133D01*
X237902151Y-107634520D01*
X237924329Y-107624030D01*
X237947429Y-107615765D01*
X237971227Y-107609804D01*
X237995496Y-107606204D01*
X238020000Y-107605000D01*
X238945000Y-107605000D01*
X238969504Y-107606204D01*
G37*
G36*
X241944504Y-107606204D02*
G01*
X241968773Y-107609804D01*
X241992571Y-107615765D01*
X242015671Y-107624030D01*
X242037849Y-107634520D01*
X242058893Y-107647133D01*
X242078598Y-107661747D01*
X242096777Y-107678223D01*
X242113253Y-107696402D01*
X242127867Y-107716107D01*
X242140480Y-107737151D01*
X242150970Y-107759329D01*
X242159235Y-107782429D01*
X242165196Y-107806227D01*
X242168796Y-107830496D01*
X242170000Y-107855000D01*
X242170000Y-109105000D01*
X242168796Y-109129504D01*
X242165196Y-109153773D01*
X242159235Y-109177571D01*
X242150970Y-109200671D01*
X242140480Y-109222849D01*
X242127867Y-109243893D01*
X242113253Y-109263598D01*
X242096777Y-109281777D01*
X242078598Y-109298253D01*
X242058893Y-109312867D01*
X242037849Y-109325480D01*
X242015671Y-109335970D01*
X241992571Y-109344235D01*
X241968773Y-109350196D01*
X241944504Y-109353796D01*
X241920000Y-109355000D01*
X240995000Y-109355000D01*
X240970496Y-109353796D01*
X240946227Y-109350196D01*
X240922429Y-109344235D01*
X240899329Y-109335970D01*
X240877151Y-109325480D01*
X240856107Y-109312867D01*
X240836402Y-109298253D01*
X240818223Y-109281777D01*
X240801747Y-109263598D01*
X240787133Y-109243893D01*
X240774520Y-109222849D01*
X240764030Y-109200671D01*
X240755765Y-109177571D01*
X240749804Y-109153773D01*
X240746204Y-109129504D01*
X240745000Y-109105000D01*
X240745000Y-107855000D01*
X240746204Y-107830496D01*
X240749804Y-107806227D01*
X240755765Y-107782429D01*
X240764030Y-107759329D01*
X240774520Y-107737151D01*
X240787133Y-107716107D01*
X240801747Y-107696402D01*
X240818223Y-107678223D01*
X240836402Y-107661747D01*
X240856107Y-107647133D01*
X240877151Y-107634520D01*
X240899329Y-107624030D01*
X240922429Y-107615765D01*
X240946227Y-107609804D01*
X240970496Y-107606204D01*
X240995000Y-107605000D01*
X241920000Y-107605000D01*
X241944504Y-107606204D01*
G37*
G36*
X260019504Y-101491204D02*
G01*
X260043773Y-101494804D01*
X260067571Y-101500765D01*
X260090671Y-101509030D01*
X260112849Y-101519520D01*
X260133893Y-101532133D01*
X260153598Y-101546747D01*
X260171777Y-101563223D01*
X260188253Y-101581402D01*
X260202867Y-101601107D01*
X260215480Y-101622151D01*
X260225970Y-101644329D01*
X260234235Y-101667429D01*
X260240196Y-101691227D01*
X260243796Y-101715496D01*
X260245000Y-101740000D01*
X260245000Y-102665000D01*
X260243796Y-102689504D01*
X260240196Y-102713773D01*
X260234235Y-102737571D01*
X260225970Y-102760671D01*
X260215480Y-102782849D01*
X260202867Y-102803893D01*
X260188253Y-102823598D01*
X260171777Y-102841777D01*
X260153598Y-102858253D01*
X260133893Y-102872867D01*
X260112849Y-102885480D01*
X260090671Y-102895970D01*
X260067571Y-102904235D01*
X260043773Y-102910196D01*
X260019504Y-102913796D01*
X259995000Y-102915000D01*
X258745000Y-102915000D01*
X258720496Y-102913796D01*
X258696227Y-102910196D01*
X258672429Y-102904235D01*
X258649329Y-102895970D01*
X258627151Y-102885480D01*
X258606107Y-102872867D01*
X258586402Y-102858253D01*
X258568223Y-102841777D01*
X258551747Y-102823598D01*
X258537133Y-102803893D01*
X258524520Y-102782849D01*
X258514030Y-102760671D01*
X258505765Y-102737571D01*
X258499804Y-102713773D01*
X258496204Y-102689504D01*
X258495000Y-102665000D01*
X258495000Y-101740000D01*
X258496204Y-101715496D01*
X258499804Y-101691227D01*
X258505765Y-101667429D01*
X258514030Y-101644329D01*
X258524520Y-101622151D01*
X258537133Y-101601107D01*
X258551747Y-101581402D01*
X258568223Y-101563223D01*
X258586402Y-101546747D01*
X258606107Y-101532133D01*
X258627151Y-101519520D01*
X258649329Y-101509030D01*
X258672429Y-101500765D01*
X258696227Y-101494804D01*
X258720496Y-101491204D01*
X258745000Y-101490000D01*
X259995000Y-101490000D01*
X260019504Y-101491204D01*
G37*
G36*
X260019504Y-98516204D02*
G01*
X260043773Y-98519804D01*
X260067571Y-98525765D01*
X260090671Y-98534030D01*
X260112849Y-98544520D01*
X260133893Y-98557133D01*
X260153598Y-98571747D01*
X260171777Y-98588223D01*
X260188253Y-98606402D01*
X260202867Y-98626107D01*
X260215480Y-98647151D01*
X260225970Y-98669329D01*
X260234235Y-98692429D01*
X260240196Y-98716227D01*
X260243796Y-98740496D01*
X260245000Y-98765000D01*
X260245000Y-99690000D01*
X260243796Y-99714504D01*
X260240196Y-99738773D01*
X260234235Y-99762571D01*
X260225970Y-99785671D01*
X260215480Y-99807849D01*
X260202867Y-99828893D01*
X260188253Y-99848598D01*
X260171777Y-99866777D01*
X260153598Y-99883253D01*
X260133893Y-99897867D01*
X260112849Y-99910480D01*
X260090671Y-99920970D01*
X260067571Y-99929235D01*
X260043773Y-99935196D01*
X260019504Y-99938796D01*
X259995000Y-99940000D01*
X258745000Y-99940000D01*
X258720496Y-99938796D01*
X258696227Y-99935196D01*
X258672429Y-99929235D01*
X258649329Y-99920970D01*
X258627151Y-99910480D01*
X258606107Y-99897867D01*
X258586402Y-99883253D01*
X258568223Y-99866777D01*
X258551747Y-99848598D01*
X258537133Y-99828893D01*
X258524520Y-99807849D01*
X258514030Y-99785671D01*
X258505765Y-99762571D01*
X258499804Y-99738773D01*
X258496204Y-99714504D01*
X258495000Y-99690000D01*
X258495000Y-98765000D01*
X258496204Y-98740496D01*
X258499804Y-98716227D01*
X258505765Y-98692429D01*
X258514030Y-98669329D01*
X258524520Y-98647151D01*
X258537133Y-98626107D01*
X258551747Y-98606402D01*
X258568223Y-98588223D01*
X258586402Y-98571747D01*
X258606107Y-98557133D01*
X258627151Y-98544520D01*
X258649329Y-98534030D01*
X258672429Y-98525765D01*
X258696227Y-98519804D01*
X258720496Y-98516204D01*
X258745000Y-98515000D01*
X259995000Y-98515000D01*
X260019504Y-98516204D01*
G37*
G36*
X229264504Y-98261204D02*
G01*
X229288773Y-98264804D01*
X229312571Y-98270765D01*
X229335671Y-98279030D01*
X229357849Y-98289520D01*
X229378893Y-98302133D01*
X229398598Y-98316747D01*
X229416777Y-98333223D01*
X229433253Y-98351402D01*
X229447867Y-98371107D01*
X229460480Y-98392151D01*
X229470970Y-98414329D01*
X229479235Y-98437429D01*
X229485196Y-98461227D01*
X229488796Y-98485496D01*
X229490000Y-98510000D01*
X229490000Y-99760000D01*
X229488796Y-99784504D01*
X229485196Y-99808773D01*
X229479235Y-99832571D01*
X229470970Y-99855671D01*
X229460480Y-99877849D01*
X229447867Y-99898893D01*
X229433253Y-99918598D01*
X229416777Y-99936777D01*
X229398598Y-99953253D01*
X229378893Y-99967867D01*
X229357849Y-99980480D01*
X229335671Y-99990970D01*
X229312571Y-99999235D01*
X229288773Y-100005196D01*
X229264504Y-100008796D01*
X229240000Y-100010000D01*
X228315000Y-100010000D01*
X228290496Y-100008796D01*
X228266227Y-100005196D01*
X228242429Y-99999235D01*
X228219329Y-99990970D01*
X228197151Y-99980480D01*
X228176107Y-99967867D01*
X228156402Y-99953253D01*
X228138223Y-99936777D01*
X228121747Y-99918598D01*
X228107133Y-99898893D01*
X228094520Y-99877849D01*
X228084030Y-99855671D01*
X228075765Y-99832571D01*
X228069804Y-99808773D01*
X228066204Y-99784504D01*
X228065000Y-99760000D01*
X228065000Y-98510000D01*
X228066204Y-98485496D01*
X228069804Y-98461227D01*
X228075765Y-98437429D01*
X228084030Y-98414329D01*
X228094520Y-98392151D01*
X228107133Y-98371107D01*
X228121747Y-98351402D01*
X228138223Y-98333223D01*
X228156402Y-98316747D01*
X228176107Y-98302133D01*
X228197151Y-98289520D01*
X228219329Y-98279030D01*
X228242429Y-98270765D01*
X228266227Y-98264804D01*
X228290496Y-98261204D01*
X228315000Y-98260000D01*
X229240000Y-98260000D01*
X229264504Y-98261204D01*
G37*
G36*
X226289504Y-98261204D02*
G01*
X226313773Y-98264804D01*
X226337571Y-98270765D01*
X226360671Y-98279030D01*
X226382849Y-98289520D01*
X226403893Y-98302133D01*
X226423598Y-98316747D01*
X226441777Y-98333223D01*
X226458253Y-98351402D01*
X226472867Y-98371107D01*
X226485480Y-98392151D01*
X226495970Y-98414329D01*
X226504235Y-98437429D01*
X226510196Y-98461227D01*
X226513796Y-98485496D01*
X226515000Y-98510000D01*
X226515000Y-99760000D01*
X226513796Y-99784504D01*
X226510196Y-99808773D01*
X226504235Y-99832571D01*
X226495970Y-99855671D01*
X226485480Y-99877849D01*
X226472867Y-99898893D01*
X226458253Y-99918598D01*
X226441777Y-99936777D01*
X226423598Y-99953253D01*
X226403893Y-99967867D01*
X226382849Y-99980480D01*
X226360671Y-99990970D01*
X226337571Y-99999235D01*
X226313773Y-100005196D01*
X226289504Y-100008796D01*
X226265000Y-100010000D01*
X225340000Y-100010000D01*
X225315496Y-100008796D01*
X225291227Y-100005196D01*
X225267429Y-99999235D01*
X225244329Y-99990970D01*
X225222151Y-99980480D01*
X225201107Y-99967867D01*
X225181402Y-99953253D01*
X225163223Y-99936777D01*
X225146747Y-99918598D01*
X225132133Y-99898893D01*
X225119520Y-99877849D01*
X225109030Y-99855671D01*
X225100765Y-99832571D01*
X225094804Y-99808773D01*
X225091204Y-99784504D01*
X225090000Y-99760000D01*
X225090000Y-98510000D01*
X225091204Y-98485496D01*
X225094804Y-98461227D01*
X225100765Y-98437429D01*
X225109030Y-98414329D01*
X225119520Y-98392151D01*
X225132133Y-98371107D01*
X225146747Y-98351402D01*
X225163223Y-98333223D01*
X225181402Y-98316747D01*
X225201107Y-98302133D01*
X225222151Y-98289520D01*
X225244329Y-98279030D01*
X225267429Y-98270765D01*
X225291227Y-98264804D01*
X225315496Y-98261204D01*
X225340000Y-98260000D01*
X226265000Y-98260000D01*
X226289504Y-98261204D01*
G37*
G36*
X226289504Y-95861204D02*
G01*
X226313773Y-95864804D01*
X226337571Y-95870765D01*
X226360671Y-95879030D01*
X226382849Y-95889520D01*
X226403893Y-95902133D01*
X226423598Y-95916747D01*
X226441777Y-95933223D01*
X226458253Y-95951402D01*
X226472867Y-95971107D01*
X226485480Y-95992151D01*
X226495970Y-96014329D01*
X226504235Y-96037429D01*
X226510196Y-96061227D01*
X226513796Y-96085496D01*
X226515000Y-96110000D01*
X226515000Y-97360000D01*
X226513796Y-97384504D01*
X226510196Y-97408773D01*
X226504235Y-97432571D01*
X226495970Y-97455671D01*
X226485480Y-97477849D01*
X226472867Y-97498893D01*
X226458253Y-97518598D01*
X226441777Y-97536777D01*
X226423598Y-97553253D01*
X226403893Y-97567867D01*
X226382849Y-97580480D01*
X226360671Y-97590970D01*
X226337571Y-97599235D01*
X226313773Y-97605196D01*
X226289504Y-97608796D01*
X226265000Y-97610000D01*
X225340000Y-97610000D01*
X225315496Y-97608796D01*
X225291227Y-97605196D01*
X225267429Y-97599235D01*
X225244329Y-97590970D01*
X225222151Y-97580480D01*
X225201107Y-97567867D01*
X225181402Y-97553253D01*
X225163223Y-97536777D01*
X225146747Y-97518598D01*
X225132133Y-97498893D01*
X225119520Y-97477849D01*
X225109030Y-97455671D01*
X225100765Y-97432571D01*
X225094804Y-97408773D01*
X225091204Y-97384504D01*
X225090000Y-97360000D01*
X225090000Y-96110000D01*
X225091204Y-96085496D01*
X225094804Y-96061227D01*
X225100765Y-96037429D01*
X225109030Y-96014329D01*
X225119520Y-95992151D01*
X225132133Y-95971107D01*
X225146747Y-95951402D01*
X225163223Y-95933223D01*
X225181402Y-95916747D01*
X225201107Y-95902133D01*
X225222151Y-95889520D01*
X225244329Y-95879030D01*
X225267429Y-95870765D01*
X225291227Y-95864804D01*
X225315496Y-95861204D01*
X225340000Y-95860000D01*
X226265000Y-95860000D01*
X226289504Y-95861204D01*
G37*
G36*
X229264504Y-95861204D02*
G01*
X229288773Y-95864804D01*
X229312571Y-95870765D01*
X229335671Y-95879030D01*
X229357849Y-95889520D01*
X229378893Y-95902133D01*
X229398598Y-95916747D01*
X229416777Y-95933223D01*
X229433253Y-95951402D01*
X229447867Y-95971107D01*
X229460480Y-95992151D01*
X229470970Y-96014329D01*
X229479235Y-96037429D01*
X229485196Y-96061227D01*
X229488796Y-96085496D01*
X229490000Y-96110000D01*
X229490000Y-97360000D01*
X229488796Y-97384504D01*
X229485196Y-97408773D01*
X229479235Y-97432571D01*
X229470970Y-97455671D01*
X229460480Y-97477849D01*
X229447867Y-97498893D01*
X229433253Y-97518598D01*
X229416777Y-97536777D01*
X229398598Y-97553253D01*
X229378893Y-97567867D01*
X229357849Y-97580480D01*
X229335671Y-97590970D01*
X229312571Y-97599235D01*
X229288773Y-97605196D01*
X229264504Y-97608796D01*
X229240000Y-97610000D01*
X228315000Y-97610000D01*
X228290496Y-97608796D01*
X228266227Y-97605196D01*
X228242429Y-97599235D01*
X228219329Y-97590970D01*
X228197151Y-97580480D01*
X228176107Y-97567867D01*
X228156402Y-97553253D01*
X228138223Y-97536777D01*
X228121747Y-97518598D01*
X228107133Y-97498893D01*
X228094520Y-97477849D01*
X228084030Y-97455671D01*
X228075765Y-97432571D01*
X228069804Y-97408773D01*
X228066204Y-97384504D01*
X228065000Y-97360000D01*
X228065000Y-96110000D01*
X228066204Y-96085496D01*
X228069804Y-96061227D01*
X228075765Y-96037429D01*
X228084030Y-96014329D01*
X228094520Y-95992151D01*
X228107133Y-95971107D01*
X228121747Y-95951402D01*
X228138223Y-95933223D01*
X228156402Y-95916747D01*
X228176107Y-95902133D01*
X228197151Y-95889520D01*
X228219329Y-95879030D01*
X228242429Y-95870765D01*
X228266227Y-95864804D01*
X228290496Y-95861204D01*
X228315000Y-95860000D01*
X229240000Y-95860000D01*
X229264504Y-95861204D01*
G37*
G36*
X241944504Y-105231204D02*
G01*
X241968773Y-105234804D01*
X241992571Y-105240765D01*
X242015671Y-105249030D01*
X242037849Y-105259520D01*
X242058893Y-105272133D01*
X242078598Y-105286747D01*
X242096777Y-105303223D01*
X242113253Y-105321402D01*
X242127867Y-105341107D01*
X242140480Y-105362151D01*
X242150970Y-105384329D01*
X242159235Y-105407429D01*
X242165196Y-105431227D01*
X242168796Y-105455496D01*
X242170000Y-105480000D01*
X242170000Y-106730000D01*
X242168796Y-106754504D01*
X242165196Y-106778773D01*
X242159235Y-106802571D01*
X242150970Y-106825671D01*
X242140480Y-106847849D01*
X242127867Y-106868893D01*
X242113253Y-106888598D01*
X242096777Y-106906777D01*
X242078598Y-106923253D01*
X242058893Y-106937867D01*
X242037849Y-106950480D01*
X242015671Y-106960970D01*
X241992571Y-106969235D01*
X241968773Y-106975196D01*
X241944504Y-106978796D01*
X241920000Y-106980000D01*
X240995000Y-106980000D01*
X240970496Y-106978796D01*
X240946227Y-106975196D01*
X240922429Y-106969235D01*
X240899329Y-106960970D01*
X240877151Y-106950480D01*
X240856107Y-106937867D01*
X240836402Y-106923253D01*
X240818223Y-106906777D01*
X240801747Y-106888598D01*
X240787133Y-106868893D01*
X240774520Y-106847849D01*
X240764030Y-106825671D01*
X240755765Y-106802571D01*
X240749804Y-106778773D01*
X240746204Y-106754504D01*
X240745000Y-106730000D01*
X240745000Y-105480000D01*
X240746204Y-105455496D01*
X240749804Y-105431227D01*
X240755765Y-105407429D01*
X240764030Y-105384329D01*
X240774520Y-105362151D01*
X240787133Y-105341107D01*
X240801747Y-105321402D01*
X240818223Y-105303223D01*
X240836402Y-105286747D01*
X240856107Y-105272133D01*
X240877151Y-105259520D01*
X240899329Y-105249030D01*
X240922429Y-105240765D01*
X240946227Y-105234804D01*
X240970496Y-105231204D01*
X240995000Y-105230000D01*
X241920000Y-105230000D01*
X241944504Y-105231204D01*
G37*
G36*
X238969504Y-105231204D02*
G01*
X238993773Y-105234804D01*
X239017571Y-105240765D01*
X239040671Y-105249030D01*
X239062849Y-105259520D01*
X239083893Y-105272133D01*
X239103598Y-105286747D01*
X239121777Y-105303223D01*
X239138253Y-105321402D01*
X239152867Y-105341107D01*
X239165480Y-105362151D01*
X239175970Y-105384329D01*
X239184235Y-105407429D01*
X239190196Y-105431227D01*
X239193796Y-105455496D01*
X239195000Y-105480000D01*
X239195000Y-106730000D01*
X239193796Y-106754504D01*
X239190196Y-106778773D01*
X239184235Y-106802571D01*
X239175970Y-106825671D01*
X239165480Y-106847849D01*
X239152867Y-106868893D01*
X239138253Y-106888598D01*
X239121777Y-106906777D01*
X239103598Y-106923253D01*
X239083893Y-106937867D01*
X239062849Y-106950480D01*
X239040671Y-106960970D01*
X239017571Y-106969235D01*
X238993773Y-106975196D01*
X238969504Y-106978796D01*
X238945000Y-106980000D01*
X238020000Y-106980000D01*
X237995496Y-106978796D01*
X237971227Y-106975196D01*
X237947429Y-106969235D01*
X237924329Y-106960970D01*
X237902151Y-106950480D01*
X237881107Y-106937867D01*
X237861402Y-106923253D01*
X237843223Y-106906777D01*
X237826747Y-106888598D01*
X237812133Y-106868893D01*
X237799520Y-106847849D01*
X237789030Y-106825671D01*
X237780765Y-106802571D01*
X237774804Y-106778773D01*
X237771204Y-106754504D01*
X237770000Y-106730000D01*
X237770000Y-105480000D01*
X237771204Y-105455496D01*
X237774804Y-105431227D01*
X237780765Y-105407429D01*
X237789030Y-105384329D01*
X237799520Y-105362151D01*
X237812133Y-105341107D01*
X237826747Y-105321402D01*
X237843223Y-105303223D01*
X237861402Y-105286747D01*
X237881107Y-105272133D01*
X237902151Y-105259520D01*
X237924329Y-105249030D01*
X237947429Y-105240765D01*
X237971227Y-105234804D01*
X237995496Y-105231204D01*
X238020000Y-105230000D01*
X238945000Y-105230000D01*
X238969504Y-105231204D01*
G37*
G36*
X234809504Y-100346204D02*
G01*
X234833773Y-100349804D01*
X234857571Y-100355765D01*
X234880671Y-100364030D01*
X234902849Y-100374520D01*
X234923893Y-100387133D01*
X234943598Y-100401747D01*
X234961777Y-100418223D01*
X234978253Y-100436402D01*
X234992867Y-100456107D01*
X235005480Y-100477151D01*
X235015970Y-100499329D01*
X235024235Y-100522429D01*
X235030196Y-100546227D01*
X235033796Y-100570496D01*
X235035000Y-100595000D01*
X235035000Y-101845000D01*
X235033796Y-101869504D01*
X235030196Y-101893773D01*
X235024235Y-101917571D01*
X235015970Y-101940671D01*
X235005480Y-101962849D01*
X234992867Y-101983893D01*
X234978253Y-102003598D01*
X234961777Y-102021777D01*
X234943598Y-102038253D01*
X234923893Y-102052867D01*
X234902849Y-102065480D01*
X234880671Y-102075970D01*
X234857571Y-102084235D01*
X234833773Y-102090196D01*
X234809504Y-102093796D01*
X234785000Y-102095000D01*
X233860000Y-102095000D01*
X233835496Y-102093796D01*
X233811227Y-102090196D01*
X233787429Y-102084235D01*
X233764329Y-102075970D01*
X233742151Y-102065480D01*
X233721107Y-102052867D01*
X233701402Y-102038253D01*
X233683223Y-102021777D01*
X233666747Y-102003598D01*
X233652133Y-101983893D01*
X233639520Y-101962849D01*
X233629030Y-101940671D01*
X233620765Y-101917571D01*
X233614804Y-101893773D01*
X233611204Y-101869504D01*
X233610000Y-101845000D01*
X233610000Y-100595000D01*
X233611204Y-100570496D01*
X233614804Y-100546227D01*
X233620765Y-100522429D01*
X233629030Y-100499329D01*
X233639520Y-100477151D01*
X233652133Y-100456107D01*
X233666747Y-100436402D01*
X233683223Y-100418223D01*
X233701402Y-100401747D01*
X233721107Y-100387133D01*
X233742151Y-100374520D01*
X233764329Y-100364030D01*
X233787429Y-100355765D01*
X233811227Y-100349804D01*
X233835496Y-100346204D01*
X233860000Y-100345000D01*
X234785000Y-100345000D01*
X234809504Y-100346204D01*
G37*
G36*
X231834504Y-100346204D02*
G01*
X231858773Y-100349804D01*
X231882571Y-100355765D01*
X231905671Y-100364030D01*
X231927849Y-100374520D01*
X231948893Y-100387133D01*
X231968598Y-100401747D01*
X231986777Y-100418223D01*
X232003253Y-100436402D01*
X232017867Y-100456107D01*
X232030480Y-100477151D01*
X232040970Y-100499329D01*
X232049235Y-100522429D01*
X232055196Y-100546227D01*
X232058796Y-100570496D01*
X232060000Y-100595000D01*
X232060000Y-101845000D01*
X232058796Y-101869504D01*
X232055196Y-101893773D01*
X232049235Y-101917571D01*
X232040970Y-101940671D01*
X232030480Y-101962849D01*
X232017867Y-101983893D01*
X232003253Y-102003598D01*
X231986777Y-102021777D01*
X231968598Y-102038253D01*
X231948893Y-102052867D01*
X231927849Y-102065480D01*
X231905671Y-102075970D01*
X231882571Y-102084235D01*
X231858773Y-102090196D01*
X231834504Y-102093796D01*
X231810000Y-102095000D01*
X230885000Y-102095000D01*
X230860496Y-102093796D01*
X230836227Y-102090196D01*
X230812429Y-102084235D01*
X230789329Y-102075970D01*
X230767151Y-102065480D01*
X230746107Y-102052867D01*
X230726402Y-102038253D01*
X230708223Y-102021777D01*
X230691747Y-102003598D01*
X230677133Y-101983893D01*
X230664520Y-101962849D01*
X230654030Y-101940671D01*
X230645765Y-101917571D01*
X230639804Y-101893773D01*
X230636204Y-101869504D01*
X230635000Y-101845000D01*
X230635000Y-100595000D01*
X230636204Y-100570496D01*
X230639804Y-100546227D01*
X230645765Y-100522429D01*
X230654030Y-100499329D01*
X230664520Y-100477151D01*
X230677133Y-100456107D01*
X230691747Y-100436402D01*
X230708223Y-100418223D01*
X230726402Y-100401747D01*
X230746107Y-100387133D01*
X230767151Y-100374520D01*
X230789329Y-100364030D01*
X230812429Y-100355765D01*
X230836227Y-100349804D01*
X230860496Y-100346204D01*
X230885000Y-100345000D01*
X231810000Y-100345000D01*
X231834504Y-100346204D01*
G37*
G36*
X251144504Y-81856204D02*
G01*
X251168773Y-81859804D01*
X251192571Y-81865765D01*
X251215671Y-81874030D01*
X251237849Y-81884520D01*
X251258893Y-81897133D01*
X251278598Y-81911747D01*
X251296777Y-81928223D01*
X251313253Y-81946402D01*
X251327867Y-81966107D01*
X251340480Y-81987151D01*
X251350970Y-82009329D01*
X251359235Y-82032429D01*
X251365196Y-82056227D01*
X251368796Y-82080496D01*
X251370000Y-82105000D01*
X251370000Y-83355000D01*
X251368796Y-83379504D01*
X251365196Y-83403773D01*
X251359235Y-83427571D01*
X251350970Y-83450671D01*
X251340480Y-83472849D01*
X251327867Y-83493893D01*
X251313253Y-83513598D01*
X251296777Y-83531777D01*
X251278598Y-83548253D01*
X251258893Y-83562867D01*
X251237849Y-83575480D01*
X251215671Y-83585970D01*
X251192571Y-83594235D01*
X251168773Y-83600196D01*
X251144504Y-83603796D01*
X251120000Y-83605000D01*
X250195000Y-83605000D01*
X250170496Y-83603796D01*
X250146227Y-83600196D01*
X250122429Y-83594235D01*
X250099329Y-83585970D01*
X250077151Y-83575480D01*
X250056107Y-83562867D01*
X250036402Y-83548253D01*
X250018223Y-83531777D01*
X250001747Y-83513598D01*
X249987133Y-83493893D01*
X249974520Y-83472849D01*
X249964030Y-83450671D01*
X249955765Y-83427571D01*
X249949804Y-83403773D01*
X249946204Y-83379504D01*
X249945000Y-83355000D01*
X249945000Y-82105000D01*
X249946204Y-82080496D01*
X249949804Y-82056227D01*
X249955765Y-82032429D01*
X249964030Y-82009329D01*
X249974520Y-81987151D01*
X249987133Y-81966107D01*
X250001747Y-81946402D01*
X250018223Y-81928223D01*
X250036402Y-81911747D01*
X250056107Y-81897133D01*
X250077151Y-81884520D01*
X250099329Y-81874030D01*
X250122429Y-81865765D01*
X250146227Y-81859804D01*
X250170496Y-81856204D01*
X250195000Y-81855000D01*
X251120000Y-81855000D01*
X251144504Y-81856204D01*
G37*
G36*
X248169504Y-81856204D02*
G01*
X248193773Y-81859804D01*
X248217571Y-81865765D01*
X248240671Y-81874030D01*
X248262849Y-81884520D01*
X248283893Y-81897133D01*
X248303598Y-81911747D01*
X248321777Y-81928223D01*
X248338253Y-81946402D01*
X248352867Y-81966107D01*
X248365480Y-81987151D01*
X248375970Y-82009329D01*
X248384235Y-82032429D01*
X248390196Y-82056227D01*
X248393796Y-82080496D01*
X248395000Y-82105000D01*
X248395000Y-83355000D01*
X248393796Y-83379504D01*
X248390196Y-83403773D01*
X248384235Y-83427571D01*
X248375970Y-83450671D01*
X248365480Y-83472849D01*
X248352867Y-83493893D01*
X248338253Y-83513598D01*
X248321777Y-83531777D01*
X248303598Y-83548253D01*
X248283893Y-83562867D01*
X248262849Y-83575480D01*
X248240671Y-83585970D01*
X248217571Y-83594235D01*
X248193773Y-83600196D01*
X248169504Y-83603796D01*
X248145000Y-83605000D01*
X247220000Y-83605000D01*
X247195496Y-83603796D01*
X247171227Y-83600196D01*
X247147429Y-83594235D01*
X247124329Y-83585970D01*
X247102151Y-83575480D01*
X247081107Y-83562867D01*
X247061402Y-83548253D01*
X247043223Y-83531777D01*
X247026747Y-83513598D01*
X247012133Y-83493893D01*
X246999520Y-83472849D01*
X246989030Y-83450671D01*
X246980765Y-83427571D01*
X246974804Y-83403773D01*
X246971204Y-83379504D01*
X246970000Y-83355000D01*
X246970000Y-82105000D01*
X246971204Y-82080496D01*
X246974804Y-82056227D01*
X246980765Y-82032429D01*
X246989030Y-82009329D01*
X246999520Y-81987151D01*
X247012133Y-81966107D01*
X247026747Y-81946402D01*
X247043223Y-81928223D01*
X247061402Y-81911747D01*
X247081107Y-81897133D01*
X247102151Y-81884520D01*
X247124329Y-81874030D01*
X247147429Y-81865765D01*
X247171227Y-81859804D01*
X247195496Y-81856204D01*
X247220000Y-81855000D01*
X248145000Y-81855000D01*
X248169504Y-81856204D01*
G37*
G36*
X249632004Y-90206204D02*
G01*
X249656273Y-90209804D01*
X249680071Y-90215765D01*
X249703171Y-90224030D01*
X249725349Y-90234520D01*
X249746393Y-90247133D01*
X249766098Y-90261747D01*
X249784277Y-90278223D01*
X249800753Y-90296402D01*
X249815367Y-90316107D01*
X249827980Y-90337151D01*
X249838470Y-90359329D01*
X249846735Y-90382429D01*
X249852696Y-90406227D01*
X249856296Y-90430496D01*
X249857500Y-90455000D01*
X249857500Y-91705000D01*
X249856296Y-91729504D01*
X249852696Y-91753773D01*
X249846735Y-91777571D01*
X249838470Y-91800671D01*
X249827980Y-91822849D01*
X249815367Y-91843893D01*
X249800753Y-91863598D01*
X249784277Y-91881777D01*
X249766098Y-91898253D01*
X249746393Y-91912867D01*
X249725349Y-91925480D01*
X249703171Y-91935970D01*
X249680071Y-91944235D01*
X249656273Y-91950196D01*
X249632004Y-91953796D01*
X249607500Y-91955000D01*
X248682500Y-91955000D01*
X248657996Y-91953796D01*
X248633727Y-91950196D01*
X248609929Y-91944235D01*
X248586829Y-91935970D01*
X248564651Y-91925480D01*
X248543607Y-91912867D01*
X248523902Y-91898253D01*
X248505723Y-91881777D01*
X248489247Y-91863598D01*
X248474633Y-91843893D01*
X248462020Y-91822849D01*
X248451530Y-91800671D01*
X248443265Y-91777571D01*
X248437304Y-91753773D01*
X248433704Y-91729504D01*
X248432500Y-91705000D01*
X248432500Y-90455000D01*
X248433704Y-90430496D01*
X248437304Y-90406227D01*
X248443265Y-90382429D01*
X248451530Y-90359329D01*
X248462020Y-90337151D01*
X248474633Y-90316107D01*
X248489247Y-90296402D01*
X248505723Y-90278223D01*
X248523902Y-90261747D01*
X248543607Y-90247133D01*
X248564651Y-90234520D01*
X248586829Y-90224030D01*
X248609929Y-90215765D01*
X248633727Y-90209804D01*
X248657996Y-90206204D01*
X248682500Y-90205000D01*
X249607500Y-90205000D01*
X249632004Y-90206204D01*
G37*
G36*
X252607004Y-90206204D02*
G01*
X252631273Y-90209804D01*
X252655071Y-90215765D01*
X252678171Y-90224030D01*
X252700349Y-90234520D01*
X252721393Y-90247133D01*
X252741098Y-90261747D01*
X252759277Y-90278223D01*
X252775753Y-90296402D01*
X252790367Y-90316107D01*
X252802980Y-90337151D01*
X252813470Y-90359329D01*
X252821735Y-90382429D01*
X252827696Y-90406227D01*
X252831296Y-90430496D01*
X252832500Y-90455000D01*
X252832500Y-91705000D01*
X252831296Y-91729504D01*
X252827696Y-91753773D01*
X252821735Y-91777571D01*
X252813470Y-91800671D01*
X252802980Y-91822849D01*
X252790367Y-91843893D01*
X252775753Y-91863598D01*
X252759277Y-91881777D01*
X252741098Y-91898253D01*
X252721393Y-91912867D01*
X252700349Y-91925480D01*
X252678171Y-91935970D01*
X252655071Y-91944235D01*
X252631273Y-91950196D01*
X252607004Y-91953796D01*
X252582500Y-91955000D01*
X251657500Y-91955000D01*
X251632996Y-91953796D01*
X251608727Y-91950196D01*
X251584929Y-91944235D01*
X251561829Y-91935970D01*
X251539651Y-91925480D01*
X251518607Y-91912867D01*
X251498902Y-91898253D01*
X251480723Y-91881777D01*
X251464247Y-91863598D01*
X251449633Y-91843893D01*
X251437020Y-91822849D01*
X251426530Y-91800671D01*
X251418265Y-91777571D01*
X251412304Y-91753773D01*
X251408704Y-91729504D01*
X251407500Y-91705000D01*
X251407500Y-90455000D01*
X251408704Y-90430496D01*
X251412304Y-90406227D01*
X251418265Y-90382429D01*
X251426530Y-90359329D01*
X251437020Y-90337151D01*
X251449633Y-90316107D01*
X251464247Y-90296402D01*
X251480723Y-90278223D01*
X251498902Y-90261747D01*
X251518607Y-90247133D01*
X251539651Y-90234520D01*
X251561829Y-90224030D01*
X251584929Y-90215765D01*
X251608727Y-90209804D01*
X251632996Y-90206204D01*
X251657500Y-90205000D01*
X252582500Y-90205000D01*
X252607004Y-90206204D01*
G37*
G36*
X262704504Y-96201204D02*
G01*
X262728773Y-96204804D01*
X262752571Y-96210765D01*
X262775671Y-96219030D01*
X262797849Y-96229520D01*
X262818893Y-96242133D01*
X262838598Y-96256747D01*
X262856777Y-96273223D01*
X262873253Y-96291402D01*
X262887867Y-96311107D01*
X262900480Y-96332151D01*
X262910970Y-96354329D01*
X262919235Y-96377429D01*
X262925196Y-96401227D01*
X262928796Y-96425496D01*
X262930000Y-96450000D01*
X262930000Y-97700000D01*
X262928796Y-97724504D01*
X262925196Y-97748773D01*
X262919235Y-97772571D01*
X262910970Y-97795671D01*
X262900480Y-97817849D01*
X262887867Y-97838893D01*
X262873253Y-97858598D01*
X262856777Y-97876777D01*
X262838598Y-97893253D01*
X262818893Y-97907867D01*
X262797849Y-97920480D01*
X262775671Y-97930970D01*
X262752571Y-97939235D01*
X262728773Y-97945196D01*
X262704504Y-97948796D01*
X262680000Y-97950000D01*
X261755000Y-97950000D01*
X261730496Y-97948796D01*
X261706227Y-97945196D01*
X261682429Y-97939235D01*
X261659329Y-97930970D01*
X261637151Y-97920480D01*
X261616107Y-97907867D01*
X261596402Y-97893253D01*
X261578223Y-97876777D01*
X261561747Y-97858598D01*
X261547133Y-97838893D01*
X261534520Y-97817849D01*
X261524030Y-97795671D01*
X261515765Y-97772571D01*
X261509804Y-97748773D01*
X261506204Y-97724504D01*
X261505000Y-97700000D01*
X261505000Y-96450000D01*
X261506204Y-96425496D01*
X261509804Y-96401227D01*
X261515765Y-96377429D01*
X261524030Y-96354329D01*
X261534520Y-96332151D01*
X261547133Y-96311107D01*
X261561747Y-96291402D01*
X261578223Y-96273223D01*
X261596402Y-96256747D01*
X261616107Y-96242133D01*
X261637151Y-96229520D01*
X261659329Y-96219030D01*
X261682429Y-96210765D01*
X261706227Y-96204804D01*
X261730496Y-96201204D01*
X261755000Y-96200000D01*
X262680000Y-96200000D01*
X262704504Y-96201204D01*
G37*
G36*
X259729504Y-96201204D02*
G01*
X259753773Y-96204804D01*
X259777571Y-96210765D01*
X259800671Y-96219030D01*
X259822849Y-96229520D01*
X259843893Y-96242133D01*
X259863598Y-96256747D01*
X259881777Y-96273223D01*
X259898253Y-96291402D01*
X259912867Y-96311107D01*
X259925480Y-96332151D01*
X259935970Y-96354329D01*
X259944235Y-96377429D01*
X259950196Y-96401227D01*
X259953796Y-96425496D01*
X259955000Y-96450000D01*
X259955000Y-97700000D01*
X259953796Y-97724504D01*
X259950196Y-97748773D01*
X259944235Y-97772571D01*
X259935970Y-97795671D01*
X259925480Y-97817849D01*
X259912867Y-97838893D01*
X259898253Y-97858598D01*
X259881777Y-97876777D01*
X259863598Y-97893253D01*
X259843893Y-97907867D01*
X259822849Y-97920480D01*
X259800671Y-97930970D01*
X259777571Y-97939235D01*
X259753773Y-97945196D01*
X259729504Y-97948796D01*
X259705000Y-97950000D01*
X258780000Y-97950000D01*
X258755496Y-97948796D01*
X258731227Y-97945196D01*
X258707429Y-97939235D01*
X258684329Y-97930970D01*
X258662151Y-97920480D01*
X258641107Y-97907867D01*
X258621402Y-97893253D01*
X258603223Y-97876777D01*
X258586747Y-97858598D01*
X258572133Y-97838893D01*
X258559520Y-97817849D01*
X258549030Y-97795671D01*
X258540765Y-97772571D01*
X258534804Y-97748773D01*
X258531204Y-97724504D01*
X258530000Y-97700000D01*
X258530000Y-96450000D01*
X258531204Y-96425496D01*
X258534804Y-96401227D01*
X258540765Y-96377429D01*
X258549030Y-96354329D01*
X258559520Y-96332151D01*
X258572133Y-96311107D01*
X258586747Y-96291402D01*
X258603223Y-96273223D01*
X258621402Y-96256747D01*
X258641107Y-96242133D01*
X258662151Y-96229520D01*
X258684329Y-96219030D01*
X258707429Y-96210765D01*
X258731227Y-96204804D01*
X258755496Y-96201204D01*
X258780000Y-96200000D01*
X259705000Y-96200000D01*
X259729504Y-96201204D01*
G37*
G36*
X236434504Y-95661204D02*
G01*
X236458773Y-95664804D01*
X236482571Y-95670765D01*
X236505671Y-95679030D01*
X236527849Y-95689520D01*
X236548893Y-95702133D01*
X236568598Y-95716747D01*
X236586777Y-95733223D01*
X236603253Y-95751402D01*
X236617867Y-95771107D01*
X236630480Y-95792151D01*
X236640970Y-95814329D01*
X236649235Y-95837429D01*
X236655196Y-95861227D01*
X236658796Y-95885496D01*
X236660000Y-95910000D01*
X236660000Y-97160000D01*
X236658796Y-97184504D01*
X236655196Y-97208773D01*
X236649235Y-97232571D01*
X236640970Y-97255671D01*
X236630480Y-97277849D01*
X236617867Y-97298893D01*
X236603253Y-97318598D01*
X236586777Y-97336777D01*
X236568598Y-97353253D01*
X236548893Y-97367867D01*
X236527849Y-97380480D01*
X236505671Y-97390970D01*
X236482571Y-97399235D01*
X236458773Y-97405196D01*
X236434504Y-97408796D01*
X236410000Y-97410000D01*
X235485000Y-97410000D01*
X235460496Y-97408796D01*
X235436227Y-97405196D01*
X235412429Y-97399235D01*
X235389329Y-97390970D01*
X235367151Y-97380480D01*
X235346107Y-97367867D01*
X235326402Y-97353253D01*
X235308223Y-97336777D01*
X235291747Y-97318598D01*
X235277133Y-97298893D01*
X235264520Y-97277849D01*
X235254030Y-97255671D01*
X235245765Y-97232571D01*
X235239804Y-97208773D01*
X235236204Y-97184504D01*
X235235000Y-97160000D01*
X235235000Y-95910000D01*
X235236204Y-95885496D01*
X235239804Y-95861227D01*
X235245765Y-95837429D01*
X235254030Y-95814329D01*
X235264520Y-95792151D01*
X235277133Y-95771107D01*
X235291747Y-95751402D01*
X235308223Y-95733223D01*
X235326402Y-95716747D01*
X235346107Y-95702133D01*
X235367151Y-95689520D01*
X235389329Y-95679030D01*
X235412429Y-95670765D01*
X235436227Y-95664804D01*
X235460496Y-95661204D01*
X235485000Y-95660000D01*
X236410000Y-95660000D01*
X236434504Y-95661204D01*
G37*
G36*
X239409504Y-95661204D02*
G01*
X239433773Y-95664804D01*
X239457571Y-95670765D01*
X239480671Y-95679030D01*
X239502849Y-95689520D01*
X239523893Y-95702133D01*
X239543598Y-95716747D01*
X239561777Y-95733223D01*
X239578253Y-95751402D01*
X239592867Y-95771107D01*
X239605480Y-95792151D01*
X239615970Y-95814329D01*
X239624235Y-95837429D01*
X239630196Y-95861227D01*
X239633796Y-95885496D01*
X239635000Y-95910000D01*
X239635000Y-97160000D01*
X239633796Y-97184504D01*
X239630196Y-97208773D01*
X239624235Y-97232571D01*
X239615970Y-97255671D01*
X239605480Y-97277849D01*
X239592867Y-97298893D01*
X239578253Y-97318598D01*
X239561777Y-97336777D01*
X239543598Y-97353253D01*
X239523893Y-97367867D01*
X239502849Y-97380480D01*
X239480671Y-97390970D01*
X239457571Y-97399235D01*
X239433773Y-97405196D01*
X239409504Y-97408796D01*
X239385000Y-97410000D01*
X238460000Y-97410000D01*
X238435496Y-97408796D01*
X238411227Y-97405196D01*
X238387429Y-97399235D01*
X238364329Y-97390970D01*
X238342151Y-97380480D01*
X238321107Y-97367867D01*
X238301402Y-97353253D01*
X238283223Y-97336777D01*
X238266747Y-97318598D01*
X238252133Y-97298893D01*
X238239520Y-97277849D01*
X238229030Y-97255671D01*
X238220765Y-97232571D01*
X238214804Y-97208773D01*
X238211204Y-97184504D01*
X238210000Y-97160000D01*
X238210000Y-95910000D01*
X238211204Y-95885496D01*
X238214804Y-95861227D01*
X238220765Y-95837429D01*
X238229030Y-95814329D01*
X238239520Y-95792151D01*
X238252133Y-95771107D01*
X238266747Y-95751402D01*
X238283223Y-95733223D01*
X238301402Y-95716747D01*
X238321107Y-95702133D01*
X238342151Y-95689520D01*
X238364329Y-95679030D01*
X238387429Y-95670765D01*
X238411227Y-95664804D01*
X238435496Y-95661204D01*
X238460000Y-95660000D01*
X239385000Y-95660000D01*
X239409504Y-95661204D01*
G37*
G36*
X236784504Y-100346204D02*
G01*
X236808773Y-100349804D01*
X236832571Y-100355765D01*
X236855671Y-100364030D01*
X236877849Y-100374520D01*
X236898893Y-100387133D01*
X236918598Y-100401747D01*
X236936777Y-100418223D01*
X236953253Y-100436402D01*
X236967867Y-100456107D01*
X236980480Y-100477151D01*
X236990970Y-100499329D01*
X236999235Y-100522429D01*
X237005196Y-100546227D01*
X237008796Y-100570496D01*
X237010000Y-100595000D01*
X237010000Y-101845000D01*
X237008796Y-101869504D01*
X237005196Y-101893773D01*
X236999235Y-101917571D01*
X236990970Y-101940671D01*
X236980480Y-101962849D01*
X236967867Y-101983893D01*
X236953253Y-102003598D01*
X236936777Y-102021777D01*
X236918598Y-102038253D01*
X236898893Y-102052867D01*
X236877849Y-102065480D01*
X236855671Y-102075970D01*
X236832571Y-102084235D01*
X236808773Y-102090196D01*
X236784504Y-102093796D01*
X236760000Y-102095000D01*
X235835000Y-102095000D01*
X235810496Y-102093796D01*
X235786227Y-102090196D01*
X235762429Y-102084235D01*
X235739329Y-102075970D01*
X235717151Y-102065480D01*
X235696107Y-102052867D01*
X235676402Y-102038253D01*
X235658223Y-102021777D01*
X235641747Y-102003598D01*
X235627133Y-101983893D01*
X235614520Y-101962849D01*
X235604030Y-101940671D01*
X235595765Y-101917571D01*
X235589804Y-101893773D01*
X235586204Y-101869504D01*
X235585000Y-101845000D01*
X235585000Y-100595000D01*
X235586204Y-100570496D01*
X235589804Y-100546227D01*
X235595765Y-100522429D01*
X235604030Y-100499329D01*
X235614520Y-100477151D01*
X235627133Y-100456107D01*
X235641747Y-100436402D01*
X235658223Y-100418223D01*
X235676402Y-100401747D01*
X235696107Y-100387133D01*
X235717151Y-100374520D01*
X235739329Y-100364030D01*
X235762429Y-100355765D01*
X235786227Y-100349804D01*
X235810496Y-100346204D01*
X235835000Y-100345000D01*
X236760000Y-100345000D01*
X236784504Y-100346204D01*
G37*
G36*
X239759504Y-100346204D02*
G01*
X239783773Y-100349804D01*
X239807571Y-100355765D01*
X239830671Y-100364030D01*
X239852849Y-100374520D01*
X239873893Y-100387133D01*
X239893598Y-100401747D01*
X239911777Y-100418223D01*
X239928253Y-100436402D01*
X239942867Y-100456107D01*
X239955480Y-100477151D01*
X239965970Y-100499329D01*
X239974235Y-100522429D01*
X239980196Y-100546227D01*
X239983796Y-100570496D01*
X239985000Y-100595000D01*
X239985000Y-101845000D01*
X239983796Y-101869504D01*
X239980196Y-101893773D01*
X239974235Y-101917571D01*
X239965970Y-101940671D01*
X239955480Y-101962849D01*
X239942867Y-101983893D01*
X239928253Y-102003598D01*
X239911777Y-102021777D01*
X239893598Y-102038253D01*
X239873893Y-102052867D01*
X239852849Y-102065480D01*
X239830671Y-102075970D01*
X239807571Y-102084235D01*
X239783773Y-102090196D01*
X239759504Y-102093796D01*
X239735000Y-102095000D01*
X238810000Y-102095000D01*
X238785496Y-102093796D01*
X238761227Y-102090196D01*
X238737429Y-102084235D01*
X238714329Y-102075970D01*
X238692151Y-102065480D01*
X238671107Y-102052867D01*
X238651402Y-102038253D01*
X238633223Y-102021777D01*
X238616747Y-102003598D01*
X238602133Y-101983893D01*
X238589520Y-101962849D01*
X238579030Y-101940671D01*
X238570765Y-101917571D01*
X238564804Y-101893773D01*
X238561204Y-101869504D01*
X238560000Y-101845000D01*
X238560000Y-100595000D01*
X238561204Y-100570496D01*
X238564804Y-100546227D01*
X238570765Y-100522429D01*
X238579030Y-100499329D01*
X238589520Y-100477151D01*
X238602133Y-100456107D01*
X238616747Y-100436402D01*
X238633223Y-100418223D01*
X238651402Y-100401747D01*
X238671107Y-100387133D01*
X238692151Y-100374520D01*
X238714329Y-100364030D01*
X238737429Y-100355765D01*
X238761227Y-100349804D01*
X238785496Y-100346204D01*
X238810000Y-100345000D01*
X239735000Y-100345000D01*
X239759504Y-100346204D01*
G37*
G36*
X173109504Y-100346204D02*
G01*
X173133773Y-100349804D01*
X173157571Y-100355765D01*
X173180671Y-100364030D01*
X173202849Y-100374520D01*
X173223893Y-100387133D01*
X173243598Y-100401747D01*
X173261777Y-100418223D01*
X173278253Y-100436402D01*
X173292867Y-100456107D01*
X173305480Y-100477151D01*
X173315970Y-100499329D01*
X173324235Y-100522429D01*
X173330196Y-100546227D01*
X173333796Y-100570496D01*
X173335000Y-100595000D01*
X173335000Y-101845000D01*
X173333796Y-101869504D01*
X173330196Y-101893773D01*
X173324235Y-101917571D01*
X173315970Y-101940671D01*
X173305480Y-101962849D01*
X173292867Y-101983893D01*
X173278253Y-102003598D01*
X173261777Y-102021777D01*
X173243598Y-102038253D01*
X173223893Y-102052867D01*
X173202849Y-102065480D01*
X173180671Y-102075970D01*
X173157571Y-102084235D01*
X173133773Y-102090196D01*
X173109504Y-102093796D01*
X173085000Y-102095000D01*
X172160000Y-102095000D01*
X172135496Y-102093796D01*
X172111227Y-102090196D01*
X172087429Y-102084235D01*
X172064329Y-102075970D01*
X172042151Y-102065480D01*
X172021107Y-102052867D01*
X172001402Y-102038253D01*
X171983223Y-102021777D01*
X171966747Y-102003598D01*
X171952133Y-101983893D01*
X171939520Y-101962849D01*
X171929030Y-101940671D01*
X171920765Y-101917571D01*
X171914804Y-101893773D01*
X171911204Y-101869504D01*
X171910000Y-101845000D01*
X171910000Y-100595000D01*
X171911204Y-100570496D01*
X171914804Y-100546227D01*
X171920765Y-100522429D01*
X171929030Y-100499329D01*
X171939520Y-100477151D01*
X171952133Y-100456107D01*
X171966747Y-100436402D01*
X171983223Y-100418223D01*
X172001402Y-100401747D01*
X172021107Y-100387133D01*
X172042151Y-100374520D01*
X172064329Y-100364030D01*
X172087429Y-100355765D01*
X172111227Y-100349804D01*
X172135496Y-100346204D01*
X172160000Y-100345000D01*
X173085000Y-100345000D01*
X173109504Y-100346204D01*
G37*
G36*
X170134504Y-100346204D02*
G01*
X170158773Y-100349804D01*
X170182571Y-100355765D01*
X170205671Y-100364030D01*
X170227849Y-100374520D01*
X170248893Y-100387133D01*
X170268598Y-100401747D01*
X170286777Y-100418223D01*
X170303253Y-100436402D01*
X170317867Y-100456107D01*
X170330480Y-100477151D01*
X170340970Y-100499329D01*
X170349235Y-100522429D01*
X170355196Y-100546227D01*
X170358796Y-100570496D01*
X170360000Y-100595000D01*
X170360000Y-101845000D01*
X170358796Y-101869504D01*
X170355196Y-101893773D01*
X170349235Y-101917571D01*
X170340970Y-101940671D01*
X170330480Y-101962849D01*
X170317867Y-101983893D01*
X170303253Y-102003598D01*
X170286777Y-102021777D01*
X170268598Y-102038253D01*
X170248893Y-102052867D01*
X170227849Y-102065480D01*
X170205671Y-102075970D01*
X170182571Y-102084235D01*
X170158773Y-102090196D01*
X170134504Y-102093796D01*
X170110000Y-102095000D01*
X169185000Y-102095000D01*
X169160496Y-102093796D01*
X169136227Y-102090196D01*
X169112429Y-102084235D01*
X169089329Y-102075970D01*
X169067151Y-102065480D01*
X169046107Y-102052867D01*
X169026402Y-102038253D01*
X169008223Y-102021777D01*
X168991747Y-102003598D01*
X168977133Y-101983893D01*
X168964520Y-101962849D01*
X168954030Y-101940671D01*
X168945765Y-101917571D01*
X168939804Y-101893773D01*
X168936204Y-101869504D01*
X168935000Y-101845000D01*
X168935000Y-100595000D01*
X168936204Y-100570496D01*
X168939804Y-100546227D01*
X168945765Y-100522429D01*
X168954030Y-100499329D01*
X168964520Y-100477151D01*
X168977133Y-100456107D01*
X168991747Y-100436402D01*
X169008223Y-100418223D01*
X169026402Y-100401747D01*
X169046107Y-100387133D01*
X169067151Y-100374520D01*
X169089329Y-100364030D01*
X169112429Y-100355765D01*
X169136227Y-100349804D01*
X169160496Y-100346204D01*
X169185000Y-100345000D01*
X170110000Y-100345000D01*
X170134504Y-100346204D01*
G37*
G36*
X172759504Y-95661204D02*
G01*
X172783773Y-95664804D01*
X172807571Y-95670765D01*
X172830671Y-95679030D01*
X172852849Y-95689520D01*
X172873893Y-95702133D01*
X172893598Y-95716747D01*
X172911777Y-95733223D01*
X172928253Y-95751402D01*
X172942867Y-95771107D01*
X172955480Y-95792151D01*
X172965970Y-95814329D01*
X172974235Y-95837429D01*
X172980196Y-95861227D01*
X172983796Y-95885496D01*
X172985000Y-95910000D01*
X172985000Y-97160000D01*
X172983796Y-97184504D01*
X172980196Y-97208773D01*
X172974235Y-97232571D01*
X172965970Y-97255671D01*
X172955480Y-97277849D01*
X172942867Y-97298893D01*
X172928253Y-97318598D01*
X172911777Y-97336777D01*
X172893598Y-97353253D01*
X172873893Y-97367867D01*
X172852849Y-97380480D01*
X172830671Y-97390970D01*
X172807571Y-97399235D01*
X172783773Y-97405196D01*
X172759504Y-97408796D01*
X172735000Y-97410000D01*
X171810000Y-97410000D01*
X171785496Y-97408796D01*
X171761227Y-97405196D01*
X171737429Y-97399235D01*
X171714329Y-97390970D01*
X171692151Y-97380480D01*
X171671107Y-97367867D01*
X171651402Y-97353253D01*
X171633223Y-97336777D01*
X171616747Y-97318598D01*
X171602133Y-97298893D01*
X171589520Y-97277849D01*
X171579030Y-97255671D01*
X171570765Y-97232571D01*
X171564804Y-97208773D01*
X171561204Y-97184504D01*
X171560000Y-97160000D01*
X171560000Y-95910000D01*
X171561204Y-95885496D01*
X171564804Y-95861227D01*
X171570765Y-95837429D01*
X171579030Y-95814329D01*
X171589520Y-95792151D01*
X171602133Y-95771107D01*
X171616747Y-95751402D01*
X171633223Y-95733223D01*
X171651402Y-95716747D01*
X171671107Y-95702133D01*
X171692151Y-95689520D01*
X171714329Y-95679030D01*
X171737429Y-95670765D01*
X171761227Y-95664804D01*
X171785496Y-95661204D01*
X171810000Y-95660000D01*
X172735000Y-95660000D01*
X172759504Y-95661204D01*
G37*
G36*
X169784504Y-95661204D02*
G01*
X169808773Y-95664804D01*
X169832571Y-95670765D01*
X169855671Y-95679030D01*
X169877849Y-95689520D01*
X169898893Y-95702133D01*
X169918598Y-95716747D01*
X169936777Y-95733223D01*
X169953253Y-95751402D01*
X169967867Y-95771107D01*
X169980480Y-95792151D01*
X169990970Y-95814329D01*
X169999235Y-95837429D01*
X170005196Y-95861227D01*
X170008796Y-95885496D01*
X170010000Y-95910000D01*
X170010000Y-97160000D01*
X170008796Y-97184504D01*
X170005196Y-97208773D01*
X169999235Y-97232571D01*
X169990970Y-97255671D01*
X169980480Y-97277849D01*
X169967867Y-97298893D01*
X169953253Y-97318598D01*
X169936777Y-97336777D01*
X169918598Y-97353253D01*
X169898893Y-97367867D01*
X169877849Y-97380480D01*
X169855671Y-97390970D01*
X169832571Y-97399235D01*
X169808773Y-97405196D01*
X169784504Y-97408796D01*
X169760000Y-97410000D01*
X168835000Y-97410000D01*
X168810496Y-97408796D01*
X168786227Y-97405196D01*
X168762429Y-97399235D01*
X168739329Y-97390970D01*
X168717151Y-97380480D01*
X168696107Y-97367867D01*
X168676402Y-97353253D01*
X168658223Y-97336777D01*
X168641747Y-97318598D01*
X168627133Y-97298893D01*
X168614520Y-97277849D01*
X168604030Y-97255671D01*
X168595765Y-97232571D01*
X168589804Y-97208773D01*
X168586204Y-97184504D01*
X168585000Y-97160000D01*
X168585000Y-95910000D01*
X168586204Y-95885496D01*
X168589804Y-95861227D01*
X168595765Y-95837429D01*
X168604030Y-95814329D01*
X168614520Y-95792151D01*
X168627133Y-95771107D01*
X168641747Y-95751402D01*
X168658223Y-95733223D01*
X168676402Y-95716747D01*
X168696107Y-95702133D01*
X168717151Y-95689520D01*
X168739329Y-95679030D01*
X168762429Y-95670765D01*
X168786227Y-95664804D01*
X168810496Y-95661204D01*
X168835000Y-95660000D01*
X169760000Y-95660000D01*
X169784504Y-95661204D01*
G37*
G36*
X193369504Y-98516204D02*
G01*
X193393773Y-98519804D01*
X193417571Y-98525765D01*
X193440671Y-98534030D01*
X193462849Y-98544520D01*
X193483893Y-98557133D01*
X193503598Y-98571747D01*
X193521777Y-98588223D01*
X193538253Y-98606402D01*
X193552867Y-98626107D01*
X193565480Y-98647151D01*
X193575970Y-98669329D01*
X193584235Y-98692429D01*
X193590196Y-98716227D01*
X193593796Y-98740496D01*
X193595000Y-98765000D01*
X193595000Y-99690000D01*
X193593796Y-99714504D01*
X193590196Y-99738773D01*
X193584235Y-99762571D01*
X193575970Y-99785671D01*
X193565480Y-99807849D01*
X193552867Y-99828893D01*
X193538253Y-99848598D01*
X193521777Y-99866777D01*
X193503598Y-99883253D01*
X193483893Y-99897867D01*
X193462849Y-99910480D01*
X193440671Y-99920970D01*
X193417571Y-99929235D01*
X193393773Y-99935196D01*
X193369504Y-99938796D01*
X193345000Y-99940000D01*
X192095000Y-99940000D01*
X192070496Y-99938796D01*
X192046227Y-99935196D01*
X192022429Y-99929235D01*
X191999329Y-99920970D01*
X191977151Y-99910480D01*
X191956107Y-99897867D01*
X191936402Y-99883253D01*
X191918223Y-99866777D01*
X191901747Y-99848598D01*
X191887133Y-99828893D01*
X191874520Y-99807849D01*
X191864030Y-99785671D01*
X191855765Y-99762571D01*
X191849804Y-99738773D01*
X191846204Y-99714504D01*
X191845000Y-99690000D01*
X191845000Y-98765000D01*
X191846204Y-98740496D01*
X191849804Y-98716227D01*
X191855765Y-98692429D01*
X191864030Y-98669329D01*
X191874520Y-98647151D01*
X191887133Y-98626107D01*
X191901747Y-98606402D01*
X191918223Y-98588223D01*
X191936402Y-98571747D01*
X191956107Y-98557133D01*
X191977151Y-98544520D01*
X191999329Y-98534030D01*
X192022429Y-98525765D01*
X192046227Y-98519804D01*
X192070496Y-98516204D01*
X192095000Y-98515000D01*
X193345000Y-98515000D01*
X193369504Y-98516204D01*
G37*
G36*
X193369504Y-101491204D02*
G01*
X193393773Y-101494804D01*
X193417571Y-101500765D01*
X193440671Y-101509030D01*
X193462849Y-101519520D01*
X193483893Y-101532133D01*
X193503598Y-101546747D01*
X193521777Y-101563223D01*
X193538253Y-101581402D01*
X193552867Y-101601107D01*
X193565480Y-101622151D01*
X193575970Y-101644329D01*
X193584235Y-101667429D01*
X193590196Y-101691227D01*
X193593796Y-101715496D01*
X193595000Y-101740000D01*
X193595000Y-102665000D01*
X193593796Y-102689504D01*
X193590196Y-102713773D01*
X193584235Y-102737571D01*
X193575970Y-102760671D01*
X193565480Y-102782849D01*
X193552867Y-102803893D01*
X193538253Y-102823598D01*
X193521777Y-102841777D01*
X193503598Y-102858253D01*
X193483893Y-102872867D01*
X193462849Y-102885480D01*
X193440671Y-102895970D01*
X193417571Y-102904235D01*
X193393773Y-102910196D01*
X193369504Y-102913796D01*
X193345000Y-102915000D01*
X192095000Y-102915000D01*
X192070496Y-102913796D01*
X192046227Y-102910196D01*
X192022429Y-102904235D01*
X191999329Y-102895970D01*
X191977151Y-102885480D01*
X191956107Y-102872867D01*
X191936402Y-102858253D01*
X191918223Y-102841777D01*
X191901747Y-102823598D01*
X191887133Y-102803893D01*
X191874520Y-102782849D01*
X191864030Y-102760671D01*
X191855765Y-102737571D01*
X191849804Y-102713773D01*
X191846204Y-102689504D01*
X191845000Y-102665000D01*
X191845000Y-101740000D01*
X191846204Y-101715496D01*
X191849804Y-101691227D01*
X191855765Y-101667429D01*
X191864030Y-101644329D01*
X191874520Y-101622151D01*
X191887133Y-101601107D01*
X191901747Y-101581402D01*
X191918223Y-101563223D01*
X191936402Y-101546747D01*
X191956107Y-101532133D01*
X191977151Y-101519520D01*
X191999329Y-101509030D01*
X192022429Y-101500765D01*
X192046227Y-101494804D01*
X192070496Y-101491204D01*
X192095000Y-101490000D01*
X193345000Y-101490000D01*
X193369504Y-101491204D01*
G37*
G36*
X193079504Y-96201204D02*
G01*
X193103773Y-96204804D01*
X193127571Y-96210765D01*
X193150671Y-96219030D01*
X193172849Y-96229520D01*
X193193893Y-96242133D01*
X193213598Y-96256747D01*
X193231777Y-96273223D01*
X193248253Y-96291402D01*
X193262867Y-96311107D01*
X193275480Y-96332151D01*
X193285970Y-96354329D01*
X193294235Y-96377429D01*
X193300196Y-96401227D01*
X193303796Y-96425496D01*
X193305000Y-96450000D01*
X193305000Y-97700000D01*
X193303796Y-97724504D01*
X193300196Y-97748773D01*
X193294235Y-97772571D01*
X193285970Y-97795671D01*
X193275480Y-97817849D01*
X193262867Y-97838893D01*
X193248253Y-97858598D01*
X193231777Y-97876777D01*
X193213598Y-97893253D01*
X193193893Y-97907867D01*
X193172849Y-97920480D01*
X193150671Y-97930970D01*
X193127571Y-97939235D01*
X193103773Y-97945196D01*
X193079504Y-97948796D01*
X193055000Y-97950000D01*
X192130000Y-97950000D01*
X192105496Y-97948796D01*
X192081227Y-97945196D01*
X192057429Y-97939235D01*
X192034329Y-97930970D01*
X192012151Y-97920480D01*
X191991107Y-97907867D01*
X191971402Y-97893253D01*
X191953223Y-97876777D01*
X191936747Y-97858598D01*
X191922133Y-97838893D01*
X191909520Y-97817849D01*
X191899030Y-97795671D01*
X191890765Y-97772571D01*
X191884804Y-97748773D01*
X191881204Y-97724504D01*
X191880000Y-97700000D01*
X191880000Y-96450000D01*
X191881204Y-96425496D01*
X191884804Y-96401227D01*
X191890765Y-96377429D01*
X191899030Y-96354329D01*
X191909520Y-96332151D01*
X191922133Y-96311107D01*
X191936747Y-96291402D01*
X191953223Y-96273223D01*
X191971402Y-96256747D01*
X191991107Y-96242133D01*
X192012151Y-96229520D01*
X192034329Y-96219030D01*
X192057429Y-96210765D01*
X192081227Y-96204804D01*
X192105496Y-96201204D01*
X192130000Y-96200000D01*
X193055000Y-96200000D01*
X193079504Y-96201204D01*
G37*
G36*
X196054504Y-96201204D02*
G01*
X196078773Y-96204804D01*
X196102571Y-96210765D01*
X196125671Y-96219030D01*
X196147849Y-96229520D01*
X196168893Y-96242133D01*
X196188598Y-96256747D01*
X196206777Y-96273223D01*
X196223253Y-96291402D01*
X196237867Y-96311107D01*
X196250480Y-96332151D01*
X196260970Y-96354329D01*
X196269235Y-96377429D01*
X196275196Y-96401227D01*
X196278796Y-96425496D01*
X196280000Y-96450000D01*
X196280000Y-97700000D01*
X196278796Y-97724504D01*
X196275196Y-97748773D01*
X196269235Y-97772571D01*
X196260970Y-97795671D01*
X196250480Y-97817849D01*
X196237867Y-97838893D01*
X196223253Y-97858598D01*
X196206777Y-97876777D01*
X196188598Y-97893253D01*
X196168893Y-97907867D01*
X196147849Y-97920480D01*
X196125671Y-97930970D01*
X196102571Y-97939235D01*
X196078773Y-97945196D01*
X196054504Y-97948796D01*
X196030000Y-97950000D01*
X195105000Y-97950000D01*
X195080496Y-97948796D01*
X195056227Y-97945196D01*
X195032429Y-97939235D01*
X195009329Y-97930970D01*
X194987151Y-97920480D01*
X194966107Y-97907867D01*
X194946402Y-97893253D01*
X194928223Y-97876777D01*
X194911747Y-97858598D01*
X194897133Y-97838893D01*
X194884520Y-97817849D01*
X194874030Y-97795671D01*
X194865765Y-97772571D01*
X194859804Y-97748773D01*
X194856204Y-97724504D01*
X194855000Y-97700000D01*
X194855000Y-96450000D01*
X194856204Y-96425496D01*
X194859804Y-96401227D01*
X194865765Y-96377429D01*
X194874030Y-96354329D01*
X194884520Y-96332151D01*
X194897133Y-96311107D01*
X194911747Y-96291402D01*
X194928223Y-96273223D01*
X194946402Y-96256747D01*
X194966107Y-96242133D01*
X194987151Y-96229520D01*
X195009329Y-96219030D01*
X195032429Y-96210765D01*
X195056227Y-96204804D01*
X195080496Y-96201204D01*
X195105000Y-96200000D01*
X196030000Y-96200000D01*
X196054504Y-96201204D01*
G37*
G36*
X192279504Y-92361204D02*
G01*
X192303773Y-92364804D01*
X192327571Y-92370765D01*
X192350671Y-92379030D01*
X192372849Y-92389520D01*
X192393893Y-92402133D01*
X192413598Y-92416747D01*
X192431777Y-92433223D01*
X192448253Y-92451402D01*
X192462867Y-92471107D01*
X192475480Y-92492151D01*
X192485970Y-92514329D01*
X192494235Y-92537429D01*
X192500196Y-92561227D01*
X192503796Y-92585496D01*
X192505000Y-92610000D01*
X192505000Y-93860000D01*
X192503796Y-93884504D01*
X192500196Y-93908773D01*
X192494235Y-93932571D01*
X192485970Y-93955671D01*
X192475480Y-93977849D01*
X192462867Y-93998893D01*
X192448253Y-94018598D01*
X192431777Y-94036777D01*
X192413598Y-94053253D01*
X192393893Y-94067867D01*
X192372849Y-94080480D01*
X192350671Y-94090970D01*
X192327571Y-94099235D01*
X192303773Y-94105196D01*
X192279504Y-94108796D01*
X192255000Y-94110000D01*
X191330000Y-94110000D01*
X191305496Y-94108796D01*
X191281227Y-94105196D01*
X191257429Y-94099235D01*
X191234329Y-94090970D01*
X191212151Y-94080480D01*
X191191107Y-94067867D01*
X191171402Y-94053253D01*
X191153223Y-94036777D01*
X191136747Y-94018598D01*
X191122133Y-93998893D01*
X191109520Y-93977849D01*
X191099030Y-93955671D01*
X191090765Y-93932571D01*
X191084804Y-93908773D01*
X191081204Y-93884504D01*
X191080000Y-93860000D01*
X191080000Y-92610000D01*
X191081204Y-92585496D01*
X191084804Y-92561227D01*
X191090765Y-92537429D01*
X191099030Y-92514329D01*
X191109520Y-92492151D01*
X191122133Y-92471107D01*
X191136747Y-92451402D01*
X191153223Y-92433223D01*
X191171402Y-92416747D01*
X191191107Y-92402133D01*
X191212151Y-92389520D01*
X191234329Y-92379030D01*
X191257429Y-92370765D01*
X191281227Y-92364804D01*
X191305496Y-92361204D01*
X191330000Y-92360000D01*
X192255000Y-92360000D01*
X192279504Y-92361204D01*
G37*
G36*
X195254504Y-92361204D02*
G01*
X195278773Y-92364804D01*
X195302571Y-92370765D01*
X195325671Y-92379030D01*
X195347849Y-92389520D01*
X195368893Y-92402133D01*
X195388598Y-92416747D01*
X195406777Y-92433223D01*
X195423253Y-92451402D01*
X195437867Y-92471107D01*
X195450480Y-92492151D01*
X195460970Y-92514329D01*
X195469235Y-92537429D01*
X195475196Y-92561227D01*
X195478796Y-92585496D01*
X195480000Y-92610000D01*
X195480000Y-93860000D01*
X195478796Y-93884504D01*
X195475196Y-93908773D01*
X195469235Y-93932571D01*
X195460970Y-93955671D01*
X195450480Y-93977849D01*
X195437867Y-93998893D01*
X195423253Y-94018598D01*
X195406777Y-94036777D01*
X195388598Y-94053253D01*
X195368893Y-94067867D01*
X195347849Y-94080480D01*
X195325671Y-94090970D01*
X195302571Y-94099235D01*
X195278773Y-94105196D01*
X195254504Y-94108796D01*
X195230000Y-94110000D01*
X194305000Y-94110000D01*
X194280496Y-94108796D01*
X194256227Y-94105196D01*
X194232429Y-94099235D01*
X194209329Y-94090970D01*
X194187151Y-94080480D01*
X194166107Y-94067867D01*
X194146402Y-94053253D01*
X194128223Y-94036777D01*
X194111747Y-94018598D01*
X194097133Y-93998893D01*
X194084520Y-93977849D01*
X194074030Y-93955671D01*
X194065765Y-93932571D01*
X194059804Y-93908773D01*
X194056204Y-93884504D01*
X194055000Y-93860000D01*
X194055000Y-92610000D01*
X194056204Y-92585496D01*
X194059804Y-92561227D01*
X194065765Y-92537429D01*
X194074030Y-92514329D01*
X194084520Y-92492151D01*
X194097133Y-92471107D01*
X194111747Y-92451402D01*
X194128223Y-92433223D01*
X194146402Y-92416747D01*
X194166107Y-92402133D01*
X194187151Y-92389520D01*
X194209329Y-92379030D01*
X194232429Y-92370765D01*
X194256227Y-92364804D01*
X194280496Y-92361204D01*
X194305000Y-92360000D01*
X195230000Y-92360000D01*
X195254504Y-92361204D01*
G37*
G36*
X185957004Y-90206204D02*
G01*
X185981273Y-90209804D01*
X186005071Y-90215765D01*
X186028171Y-90224030D01*
X186050349Y-90234520D01*
X186071393Y-90247133D01*
X186091098Y-90261747D01*
X186109277Y-90278223D01*
X186125753Y-90296402D01*
X186140367Y-90316107D01*
X186152980Y-90337151D01*
X186163470Y-90359329D01*
X186171735Y-90382429D01*
X186177696Y-90406227D01*
X186181296Y-90430496D01*
X186182500Y-90455000D01*
X186182500Y-91705000D01*
X186181296Y-91729504D01*
X186177696Y-91753773D01*
X186171735Y-91777571D01*
X186163470Y-91800671D01*
X186152980Y-91822849D01*
X186140367Y-91843893D01*
X186125753Y-91863598D01*
X186109277Y-91881777D01*
X186091098Y-91898253D01*
X186071393Y-91912867D01*
X186050349Y-91925480D01*
X186028171Y-91935970D01*
X186005071Y-91944235D01*
X185981273Y-91950196D01*
X185957004Y-91953796D01*
X185932500Y-91955000D01*
X185007500Y-91955000D01*
X184982996Y-91953796D01*
X184958727Y-91950196D01*
X184934929Y-91944235D01*
X184911829Y-91935970D01*
X184889651Y-91925480D01*
X184868607Y-91912867D01*
X184848902Y-91898253D01*
X184830723Y-91881777D01*
X184814247Y-91863598D01*
X184799633Y-91843893D01*
X184787020Y-91822849D01*
X184776530Y-91800671D01*
X184768265Y-91777571D01*
X184762304Y-91753773D01*
X184758704Y-91729504D01*
X184757500Y-91705000D01*
X184757500Y-90455000D01*
X184758704Y-90430496D01*
X184762304Y-90406227D01*
X184768265Y-90382429D01*
X184776530Y-90359329D01*
X184787020Y-90337151D01*
X184799633Y-90316107D01*
X184814247Y-90296402D01*
X184830723Y-90278223D01*
X184848902Y-90261747D01*
X184868607Y-90247133D01*
X184889651Y-90234520D01*
X184911829Y-90224030D01*
X184934929Y-90215765D01*
X184958727Y-90209804D01*
X184982996Y-90206204D01*
X185007500Y-90205000D01*
X185932500Y-90205000D01*
X185957004Y-90206204D01*
G37*
G36*
X182982004Y-90206204D02*
G01*
X183006273Y-90209804D01*
X183030071Y-90215765D01*
X183053171Y-90224030D01*
X183075349Y-90234520D01*
X183096393Y-90247133D01*
X183116098Y-90261747D01*
X183134277Y-90278223D01*
X183150753Y-90296402D01*
X183165367Y-90316107D01*
X183177980Y-90337151D01*
X183188470Y-90359329D01*
X183196735Y-90382429D01*
X183202696Y-90406227D01*
X183206296Y-90430496D01*
X183207500Y-90455000D01*
X183207500Y-91705000D01*
X183206296Y-91729504D01*
X183202696Y-91753773D01*
X183196735Y-91777571D01*
X183188470Y-91800671D01*
X183177980Y-91822849D01*
X183165367Y-91843893D01*
X183150753Y-91863598D01*
X183134277Y-91881777D01*
X183116098Y-91898253D01*
X183096393Y-91912867D01*
X183075349Y-91925480D01*
X183053171Y-91935970D01*
X183030071Y-91944235D01*
X183006273Y-91950196D01*
X182982004Y-91953796D01*
X182957500Y-91955000D01*
X182032500Y-91955000D01*
X182007996Y-91953796D01*
X181983727Y-91950196D01*
X181959929Y-91944235D01*
X181936829Y-91935970D01*
X181914651Y-91925480D01*
X181893607Y-91912867D01*
X181873902Y-91898253D01*
X181855723Y-91881777D01*
X181839247Y-91863598D01*
X181824633Y-91843893D01*
X181812020Y-91822849D01*
X181801530Y-91800671D01*
X181793265Y-91777571D01*
X181787304Y-91753773D01*
X181783704Y-91729504D01*
X181782500Y-91705000D01*
X181782500Y-90455000D01*
X181783704Y-90430496D01*
X181787304Y-90406227D01*
X181793265Y-90382429D01*
X181801530Y-90359329D01*
X181812020Y-90337151D01*
X181824633Y-90316107D01*
X181839247Y-90296402D01*
X181855723Y-90278223D01*
X181873902Y-90261747D01*
X181893607Y-90247133D01*
X181914651Y-90234520D01*
X181936829Y-90224030D01*
X181959929Y-90215765D01*
X181983727Y-90209804D01*
X182007996Y-90206204D01*
X182032500Y-90205000D01*
X182957500Y-90205000D01*
X182982004Y-90206204D01*
G37*
G36*
X175294504Y-102906204D02*
G01*
X175318773Y-102909804D01*
X175342571Y-102915765D01*
X175365671Y-102924030D01*
X175387849Y-102934520D01*
X175408893Y-102947133D01*
X175428598Y-102961747D01*
X175446777Y-102978223D01*
X175463253Y-102996402D01*
X175477867Y-103016107D01*
X175490480Y-103037151D01*
X175500970Y-103059329D01*
X175509235Y-103082429D01*
X175515196Y-103106227D01*
X175518796Y-103130496D01*
X175520000Y-103155000D01*
X175520000Y-104405000D01*
X175518796Y-104429504D01*
X175515196Y-104453773D01*
X175509235Y-104477571D01*
X175500970Y-104500671D01*
X175490480Y-104522849D01*
X175477867Y-104543893D01*
X175463253Y-104563598D01*
X175446777Y-104581777D01*
X175428598Y-104598253D01*
X175408893Y-104612867D01*
X175387849Y-104625480D01*
X175365671Y-104635970D01*
X175342571Y-104644235D01*
X175318773Y-104650196D01*
X175294504Y-104653796D01*
X175270000Y-104655000D01*
X174345000Y-104655000D01*
X174320496Y-104653796D01*
X174296227Y-104650196D01*
X174272429Y-104644235D01*
X174249329Y-104635970D01*
X174227151Y-104625480D01*
X174206107Y-104612867D01*
X174186402Y-104598253D01*
X174168223Y-104581777D01*
X174151747Y-104563598D01*
X174137133Y-104543893D01*
X174124520Y-104522849D01*
X174114030Y-104500671D01*
X174105765Y-104477571D01*
X174099804Y-104453773D01*
X174096204Y-104429504D01*
X174095000Y-104405000D01*
X174095000Y-103155000D01*
X174096204Y-103130496D01*
X174099804Y-103106227D01*
X174105765Y-103082429D01*
X174114030Y-103059329D01*
X174124520Y-103037151D01*
X174137133Y-103016107D01*
X174151747Y-102996402D01*
X174168223Y-102978223D01*
X174186402Y-102961747D01*
X174206107Y-102947133D01*
X174227151Y-102934520D01*
X174249329Y-102924030D01*
X174272429Y-102915765D01*
X174296227Y-102909804D01*
X174320496Y-102906204D01*
X174345000Y-102905000D01*
X175270000Y-102905000D01*
X175294504Y-102906204D01*
G37*
G36*
X172319504Y-102906204D02*
G01*
X172343773Y-102909804D01*
X172367571Y-102915765D01*
X172390671Y-102924030D01*
X172412849Y-102934520D01*
X172433893Y-102947133D01*
X172453598Y-102961747D01*
X172471777Y-102978223D01*
X172488253Y-102996402D01*
X172502867Y-103016107D01*
X172515480Y-103037151D01*
X172525970Y-103059329D01*
X172534235Y-103082429D01*
X172540196Y-103106227D01*
X172543796Y-103130496D01*
X172545000Y-103155000D01*
X172545000Y-104405000D01*
X172543796Y-104429504D01*
X172540196Y-104453773D01*
X172534235Y-104477571D01*
X172525970Y-104500671D01*
X172515480Y-104522849D01*
X172502867Y-104543893D01*
X172488253Y-104563598D01*
X172471777Y-104581777D01*
X172453598Y-104598253D01*
X172433893Y-104612867D01*
X172412849Y-104625480D01*
X172390671Y-104635970D01*
X172367571Y-104644235D01*
X172343773Y-104650196D01*
X172319504Y-104653796D01*
X172295000Y-104655000D01*
X171370000Y-104655000D01*
X171345496Y-104653796D01*
X171321227Y-104650196D01*
X171297429Y-104644235D01*
X171274329Y-104635970D01*
X171252151Y-104625480D01*
X171231107Y-104612867D01*
X171211402Y-104598253D01*
X171193223Y-104581777D01*
X171176747Y-104563598D01*
X171162133Y-104543893D01*
X171149520Y-104522849D01*
X171139030Y-104500671D01*
X171130765Y-104477571D01*
X171124804Y-104453773D01*
X171121204Y-104429504D01*
X171120000Y-104405000D01*
X171120000Y-103155000D01*
X171121204Y-103130496D01*
X171124804Y-103106227D01*
X171130765Y-103082429D01*
X171139030Y-103059329D01*
X171149520Y-103037151D01*
X171162133Y-103016107D01*
X171176747Y-102996402D01*
X171193223Y-102978223D01*
X171211402Y-102961747D01*
X171231107Y-102947133D01*
X171252151Y-102934520D01*
X171274329Y-102924030D01*
X171297429Y-102915765D01*
X171321227Y-102909804D01*
X171345496Y-102906204D01*
X171370000Y-102905000D01*
X172295000Y-102905000D01*
X172319504Y-102906204D01*
G37*
G36*
X181519504Y-81856204D02*
G01*
X181543773Y-81859804D01*
X181567571Y-81865765D01*
X181590671Y-81874030D01*
X181612849Y-81884520D01*
X181633893Y-81897133D01*
X181653598Y-81911747D01*
X181671777Y-81928223D01*
X181688253Y-81946402D01*
X181702867Y-81966107D01*
X181715480Y-81987151D01*
X181725970Y-82009329D01*
X181734235Y-82032429D01*
X181740196Y-82056227D01*
X181743796Y-82080496D01*
X181745000Y-82105000D01*
X181745000Y-83355000D01*
X181743796Y-83379504D01*
X181740196Y-83403773D01*
X181734235Y-83427571D01*
X181725970Y-83450671D01*
X181715480Y-83472849D01*
X181702867Y-83493893D01*
X181688253Y-83513598D01*
X181671777Y-83531777D01*
X181653598Y-83548253D01*
X181633893Y-83562867D01*
X181612849Y-83575480D01*
X181590671Y-83585970D01*
X181567571Y-83594235D01*
X181543773Y-83600196D01*
X181519504Y-83603796D01*
X181495000Y-83605000D01*
X180570000Y-83605000D01*
X180545496Y-83603796D01*
X180521227Y-83600196D01*
X180497429Y-83594235D01*
X180474329Y-83585970D01*
X180452151Y-83575480D01*
X180431107Y-83562867D01*
X180411402Y-83548253D01*
X180393223Y-83531777D01*
X180376747Y-83513598D01*
X180362133Y-83493893D01*
X180349520Y-83472849D01*
X180339030Y-83450671D01*
X180330765Y-83427571D01*
X180324804Y-83403773D01*
X180321204Y-83379504D01*
X180320000Y-83355000D01*
X180320000Y-82105000D01*
X180321204Y-82080496D01*
X180324804Y-82056227D01*
X180330765Y-82032429D01*
X180339030Y-82009329D01*
X180349520Y-81987151D01*
X180362133Y-81966107D01*
X180376747Y-81946402D01*
X180393223Y-81928223D01*
X180411402Y-81911747D01*
X180431107Y-81897133D01*
X180452151Y-81884520D01*
X180474329Y-81874030D01*
X180497429Y-81865765D01*
X180521227Y-81859804D01*
X180545496Y-81856204D01*
X180570000Y-81855000D01*
X181495000Y-81855000D01*
X181519504Y-81856204D01*
G37*
G36*
X184494504Y-81856204D02*
G01*
X184518773Y-81859804D01*
X184542571Y-81865765D01*
X184565671Y-81874030D01*
X184587849Y-81884520D01*
X184608893Y-81897133D01*
X184628598Y-81911747D01*
X184646777Y-81928223D01*
X184663253Y-81946402D01*
X184677867Y-81966107D01*
X184690480Y-81987151D01*
X184700970Y-82009329D01*
X184709235Y-82032429D01*
X184715196Y-82056227D01*
X184718796Y-82080496D01*
X184720000Y-82105000D01*
X184720000Y-83355000D01*
X184718796Y-83379504D01*
X184715196Y-83403773D01*
X184709235Y-83427571D01*
X184700970Y-83450671D01*
X184690480Y-83472849D01*
X184677867Y-83493893D01*
X184663253Y-83513598D01*
X184646777Y-83531777D01*
X184628598Y-83548253D01*
X184608893Y-83562867D01*
X184587849Y-83575480D01*
X184565671Y-83585970D01*
X184542571Y-83594235D01*
X184518773Y-83600196D01*
X184494504Y-83603796D01*
X184470000Y-83605000D01*
X183545000Y-83605000D01*
X183520496Y-83603796D01*
X183496227Y-83600196D01*
X183472429Y-83594235D01*
X183449329Y-83585970D01*
X183427151Y-83575480D01*
X183406107Y-83562867D01*
X183386402Y-83548253D01*
X183368223Y-83531777D01*
X183351747Y-83513598D01*
X183337133Y-83493893D01*
X183324520Y-83472849D01*
X183314030Y-83450671D01*
X183305765Y-83427571D01*
X183299804Y-83403773D01*
X183296204Y-83379504D01*
X183295000Y-83355000D01*
X183295000Y-82105000D01*
X183296204Y-82080496D01*
X183299804Y-82056227D01*
X183305765Y-82032429D01*
X183314030Y-82009329D01*
X183324520Y-81987151D01*
X183337133Y-81966107D01*
X183351747Y-81946402D01*
X183368223Y-81928223D01*
X183386402Y-81911747D01*
X183406107Y-81897133D01*
X183427151Y-81884520D01*
X183449329Y-81874030D01*
X183472429Y-81865765D01*
X183496227Y-81859804D01*
X183520496Y-81856204D01*
X183545000Y-81855000D01*
X184470000Y-81855000D01*
X184494504Y-81856204D01*
G37*
G36*
X165184504Y-100346204D02*
G01*
X165208773Y-100349804D01*
X165232571Y-100355765D01*
X165255671Y-100364030D01*
X165277849Y-100374520D01*
X165298893Y-100387133D01*
X165318598Y-100401747D01*
X165336777Y-100418223D01*
X165353253Y-100436402D01*
X165367867Y-100456107D01*
X165380480Y-100477151D01*
X165390970Y-100499329D01*
X165399235Y-100522429D01*
X165405196Y-100546227D01*
X165408796Y-100570496D01*
X165410000Y-100595000D01*
X165410000Y-101845000D01*
X165408796Y-101869504D01*
X165405196Y-101893773D01*
X165399235Y-101917571D01*
X165390970Y-101940671D01*
X165380480Y-101962849D01*
X165367867Y-101983893D01*
X165353253Y-102003598D01*
X165336777Y-102021777D01*
X165318598Y-102038253D01*
X165298893Y-102052867D01*
X165277849Y-102065480D01*
X165255671Y-102075970D01*
X165232571Y-102084235D01*
X165208773Y-102090196D01*
X165184504Y-102093796D01*
X165160000Y-102095000D01*
X164235000Y-102095000D01*
X164210496Y-102093796D01*
X164186227Y-102090196D01*
X164162429Y-102084235D01*
X164139329Y-102075970D01*
X164117151Y-102065480D01*
X164096107Y-102052867D01*
X164076402Y-102038253D01*
X164058223Y-102021777D01*
X164041747Y-102003598D01*
X164027133Y-101983893D01*
X164014520Y-101962849D01*
X164004030Y-101940671D01*
X163995765Y-101917571D01*
X163989804Y-101893773D01*
X163986204Y-101869504D01*
X163985000Y-101845000D01*
X163985000Y-100595000D01*
X163986204Y-100570496D01*
X163989804Y-100546227D01*
X163995765Y-100522429D01*
X164004030Y-100499329D01*
X164014520Y-100477151D01*
X164027133Y-100456107D01*
X164041747Y-100436402D01*
X164058223Y-100418223D01*
X164076402Y-100401747D01*
X164096107Y-100387133D01*
X164117151Y-100374520D01*
X164139329Y-100364030D01*
X164162429Y-100355765D01*
X164186227Y-100349804D01*
X164210496Y-100346204D01*
X164235000Y-100345000D01*
X165160000Y-100345000D01*
X165184504Y-100346204D01*
G37*
G36*
X168159504Y-100346204D02*
G01*
X168183773Y-100349804D01*
X168207571Y-100355765D01*
X168230671Y-100364030D01*
X168252849Y-100374520D01*
X168273893Y-100387133D01*
X168293598Y-100401747D01*
X168311777Y-100418223D01*
X168328253Y-100436402D01*
X168342867Y-100456107D01*
X168355480Y-100477151D01*
X168365970Y-100499329D01*
X168374235Y-100522429D01*
X168380196Y-100546227D01*
X168383796Y-100570496D01*
X168385000Y-100595000D01*
X168385000Y-101845000D01*
X168383796Y-101869504D01*
X168380196Y-101893773D01*
X168374235Y-101917571D01*
X168365970Y-101940671D01*
X168355480Y-101962849D01*
X168342867Y-101983893D01*
X168328253Y-102003598D01*
X168311777Y-102021777D01*
X168293598Y-102038253D01*
X168273893Y-102052867D01*
X168252849Y-102065480D01*
X168230671Y-102075970D01*
X168207571Y-102084235D01*
X168183773Y-102090196D01*
X168159504Y-102093796D01*
X168135000Y-102095000D01*
X167210000Y-102095000D01*
X167185496Y-102093796D01*
X167161227Y-102090196D01*
X167137429Y-102084235D01*
X167114329Y-102075970D01*
X167092151Y-102065480D01*
X167071107Y-102052867D01*
X167051402Y-102038253D01*
X167033223Y-102021777D01*
X167016747Y-102003598D01*
X167002133Y-101983893D01*
X166989520Y-101962849D01*
X166979030Y-101940671D01*
X166970765Y-101917571D01*
X166964804Y-101893773D01*
X166961204Y-101869504D01*
X166960000Y-101845000D01*
X166960000Y-100595000D01*
X166961204Y-100570496D01*
X166964804Y-100546227D01*
X166970765Y-100522429D01*
X166979030Y-100499329D01*
X166989520Y-100477151D01*
X167002133Y-100456107D01*
X167016747Y-100436402D01*
X167033223Y-100418223D01*
X167051402Y-100401747D01*
X167071107Y-100387133D01*
X167092151Y-100374520D01*
X167114329Y-100364030D01*
X167137429Y-100355765D01*
X167161227Y-100349804D01*
X167185496Y-100346204D01*
X167210000Y-100345000D01*
X168135000Y-100345000D01*
X168159504Y-100346204D01*
G37*
G36*
X175294504Y-107606204D02*
G01*
X175318773Y-107609804D01*
X175342571Y-107615765D01*
X175365671Y-107624030D01*
X175387849Y-107634520D01*
X175408893Y-107647133D01*
X175428598Y-107661747D01*
X175446777Y-107678223D01*
X175463253Y-107696402D01*
X175477867Y-107716107D01*
X175490480Y-107737151D01*
X175500970Y-107759329D01*
X175509235Y-107782429D01*
X175515196Y-107806227D01*
X175518796Y-107830496D01*
X175520000Y-107855000D01*
X175520000Y-109105000D01*
X175518796Y-109129504D01*
X175515196Y-109153773D01*
X175509235Y-109177571D01*
X175500970Y-109200671D01*
X175490480Y-109222849D01*
X175477867Y-109243893D01*
X175463253Y-109263598D01*
X175446777Y-109281777D01*
X175428598Y-109298253D01*
X175408893Y-109312867D01*
X175387849Y-109325480D01*
X175365671Y-109335970D01*
X175342571Y-109344235D01*
X175318773Y-109350196D01*
X175294504Y-109353796D01*
X175270000Y-109355000D01*
X174345000Y-109355000D01*
X174320496Y-109353796D01*
X174296227Y-109350196D01*
X174272429Y-109344235D01*
X174249329Y-109335970D01*
X174227151Y-109325480D01*
X174206107Y-109312867D01*
X174186402Y-109298253D01*
X174168223Y-109281777D01*
X174151747Y-109263598D01*
X174137133Y-109243893D01*
X174124520Y-109222849D01*
X174114030Y-109200671D01*
X174105765Y-109177571D01*
X174099804Y-109153773D01*
X174096204Y-109129504D01*
X174095000Y-109105000D01*
X174095000Y-107855000D01*
X174096204Y-107830496D01*
X174099804Y-107806227D01*
X174105765Y-107782429D01*
X174114030Y-107759329D01*
X174124520Y-107737151D01*
X174137133Y-107716107D01*
X174151747Y-107696402D01*
X174168223Y-107678223D01*
X174186402Y-107661747D01*
X174206107Y-107647133D01*
X174227151Y-107634520D01*
X174249329Y-107624030D01*
X174272429Y-107615765D01*
X174296227Y-107609804D01*
X174320496Y-107606204D01*
X174345000Y-107605000D01*
X175270000Y-107605000D01*
X175294504Y-107606204D01*
G37*
G36*
X172319504Y-107606204D02*
G01*
X172343773Y-107609804D01*
X172367571Y-107615765D01*
X172390671Y-107624030D01*
X172412849Y-107634520D01*
X172433893Y-107647133D01*
X172453598Y-107661747D01*
X172471777Y-107678223D01*
X172488253Y-107696402D01*
X172502867Y-107716107D01*
X172515480Y-107737151D01*
X172525970Y-107759329D01*
X172534235Y-107782429D01*
X172540196Y-107806227D01*
X172543796Y-107830496D01*
X172545000Y-107855000D01*
X172545000Y-109105000D01*
X172543796Y-109129504D01*
X172540196Y-109153773D01*
X172534235Y-109177571D01*
X172525970Y-109200671D01*
X172515480Y-109222849D01*
X172502867Y-109243893D01*
X172488253Y-109263598D01*
X172471777Y-109281777D01*
X172453598Y-109298253D01*
X172433893Y-109312867D01*
X172412849Y-109325480D01*
X172390671Y-109335970D01*
X172367571Y-109344235D01*
X172343773Y-109350196D01*
X172319504Y-109353796D01*
X172295000Y-109355000D01*
X171370000Y-109355000D01*
X171345496Y-109353796D01*
X171321227Y-109350196D01*
X171297429Y-109344235D01*
X171274329Y-109335970D01*
X171252151Y-109325480D01*
X171231107Y-109312867D01*
X171211402Y-109298253D01*
X171193223Y-109281777D01*
X171176747Y-109263598D01*
X171162133Y-109243893D01*
X171149520Y-109222849D01*
X171139030Y-109200671D01*
X171130765Y-109177571D01*
X171124804Y-109153773D01*
X171121204Y-109129504D01*
X171120000Y-109105000D01*
X171120000Y-107855000D01*
X171121204Y-107830496D01*
X171124804Y-107806227D01*
X171130765Y-107782429D01*
X171139030Y-107759329D01*
X171149520Y-107737151D01*
X171162133Y-107716107D01*
X171176747Y-107696402D01*
X171193223Y-107678223D01*
X171211402Y-107661747D01*
X171231107Y-107647133D01*
X171252151Y-107634520D01*
X171274329Y-107624030D01*
X171297429Y-107615765D01*
X171321227Y-107609804D01*
X171345496Y-107606204D01*
X171370000Y-107605000D01*
X172295000Y-107605000D01*
X172319504Y-107606204D01*
G37*
G36*
X172319504Y-105231204D02*
G01*
X172343773Y-105234804D01*
X172367571Y-105240765D01*
X172390671Y-105249030D01*
X172412849Y-105259520D01*
X172433893Y-105272133D01*
X172453598Y-105286747D01*
X172471777Y-105303223D01*
X172488253Y-105321402D01*
X172502867Y-105341107D01*
X172515480Y-105362151D01*
X172525970Y-105384329D01*
X172534235Y-105407429D01*
X172540196Y-105431227D01*
X172543796Y-105455496D01*
X172545000Y-105480000D01*
X172545000Y-106730000D01*
X172543796Y-106754504D01*
X172540196Y-106778773D01*
X172534235Y-106802571D01*
X172525970Y-106825671D01*
X172515480Y-106847849D01*
X172502867Y-106868893D01*
X172488253Y-106888598D01*
X172471777Y-106906777D01*
X172453598Y-106923253D01*
X172433893Y-106937867D01*
X172412849Y-106950480D01*
X172390671Y-106960970D01*
X172367571Y-106969235D01*
X172343773Y-106975196D01*
X172319504Y-106978796D01*
X172295000Y-106980000D01*
X171370000Y-106980000D01*
X171345496Y-106978796D01*
X171321227Y-106975196D01*
X171297429Y-106969235D01*
X171274329Y-106960970D01*
X171252151Y-106950480D01*
X171231107Y-106937867D01*
X171211402Y-106923253D01*
X171193223Y-106906777D01*
X171176747Y-106888598D01*
X171162133Y-106868893D01*
X171149520Y-106847849D01*
X171139030Y-106825671D01*
X171130765Y-106802571D01*
X171124804Y-106778773D01*
X171121204Y-106754504D01*
X171120000Y-106730000D01*
X171120000Y-105480000D01*
X171121204Y-105455496D01*
X171124804Y-105431227D01*
X171130765Y-105407429D01*
X171139030Y-105384329D01*
X171149520Y-105362151D01*
X171162133Y-105341107D01*
X171176747Y-105321402D01*
X171193223Y-105303223D01*
X171211402Y-105286747D01*
X171231107Y-105272133D01*
X171252151Y-105259520D01*
X171274329Y-105249030D01*
X171297429Y-105240765D01*
X171321227Y-105234804D01*
X171345496Y-105231204D01*
X171370000Y-105230000D01*
X172295000Y-105230000D01*
X172319504Y-105231204D01*
G37*
G36*
X175294504Y-105231204D02*
G01*
X175318773Y-105234804D01*
X175342571Y-105240765D01*
X175365671Y-105249030D01*
X175387849Y-105259520D01*
X175408893Y-105272133D01*
X175428598Y-105286747D01*
X175446777Y-105303223D01*
X175463253Y-105321402D01*
X175477867Y-105341107D01*
X175490480Y-105362151D01*
X175500970Y-105384329D01*
X175509235Y-105407429D01*
X175515196Y-105431227D01*
X175518796Y-105455496D01*
X175520000Y-105480000D01*
X175520000Y-106730000D01*
X175518796Y-106754504D01*
X175515196Y-106778773D01*
X175509235Y-106802571D01*
X175500970Y-106825671D01*
X175490480Y-106847849D01*
X175477867Y-106868893D01*
X175463253Y-106888598D01*
X175446777Y-106906777D01*
X175428598Y-106923253D01*
X175408893Y-106937867D01*
X175387849Y-106950480D01*
X175365671Y-106960970D01*
X175342571Y-106969235D01*
X175318773Y-106975196D01*
X175294504Y-106978796D01*
X175270000Y-106980000D01*
X174345000Y-106980000D01*
X174320496Y-106978796D01*
X174296227Y-106975196D01*
X174272429Y-106969235D01*
X174249329Y-106960970D01*
X174227151Y-106950480D01*
X174206107Y-106937867D01*
X174186402Y-106923253D01*
X174168223Y-106906777D01*
X174151747Y-106888598D01*
X174137133Y-106868893D01*
X174124520Y-106847849D01*
X174114030Y-106825671D01*
X174105765Y-106802571D01*
X174099804Y-106778773D01*
X174096204Y-106754504D01*
X174095000Y-106730000D01*
X174095000Y-105480000D01*
X174096204Y-105455496D01*
X174099804Y-105431227D01*
X174105765Y-105407429D01*
X174114030Y-105384329D01*
X174124520Y-105362151D01*
X174137133Y-105341107D01*
X174151747Y-105321402D01*
X174168223Y-105303223D01*
X174186402Y-105286747D01*
X174206107Y-105272133D01*
X174227151Y-105259520D01*
X174249329Y-105249030D01*
X174272429Y-105240765D01*
X174296227Y-105234804D01*
X174320496Y-105231204D01*
X174345000Y-105230000D01*
X175270000Y-105230000D01*
X175294504Y-105231204D01*
G37*
G36*
X162614504Y-95861204D02*
G01*
X162638773Y-95864804D01*
X162662571Y-95870765D01*
X162685671Y-95879030D01*
X162707849Y-95889520D01*
X162728893Y-95902133D01*
X162748598Y-95916747D01*
X162766777Y-95933223D01*
X162783253Y-95951402D01*
X162797867Y-95971107D01*
X162810480Y-95992151D01*
X162820970Y-96014329D01*
X162829235Y-96037429D01*
X162835196Y-96061227D01*
X162838796Y-96085496D01*
X162840000Y-96110000D01*
X162840000Y-97360000D01*
X162838796Y-97384504D01*
X162835196Y-97408773D01*
X162829235Y-97432571D01*
X162820970Y-97455671D01*
X162810480Y-97477849D01*
X162797867Y-97498893D01*
X162783253Y-97518598D01*
X162766777Y-97536777D01*
X162748598Y-97553253D01*
X162728893Y-97567867D01*
X162707849Y-97580480D01*
X162685671Y-97590970D01*
X162662571Y-97599235D01*
X162638773Y-97605196D01*
X162614504Y-97608796D01*
X162590000Y-97610000D01*
X161665000Y-97610000D01*
X161640496Y-97608796D01*
X161616227Y-97605196D01*
X161592429Y-97599235D01*
X161569329Y-97590970D01*
X161547151Y-97580480D01*
X161526107Y-97567867D01*
X161506402Y-97553253D01*
X161488223Y-97536777D01*
X161471747Y-97518598D01*
X161457133Y-97498893D01*
X161444520Y-97477849D01*
X161434030Y-97455671D01*
X161425765Y-97432571D01*
X161419804Y-97408773D01*
X161416204Y-97384504D01*
X161415000Y-97360000D01*
X161415000Y-96110000D01*
X161416204Y-96085496D01*
X161419804Y-96061227D01*
X161425765Y-96037429D01*
X161434030Y-96014329D01*
X161444520Y-95992151D01*
X161457133Y-95971107D01*
X161471747Y-95951402D01*
X161488223Y-95933223D01*
X161506402Y-95916747D01*
X161526107Y-95902133D01*
X161547151Y-95889520D01*
X161569329Y-95879030D01*
X161592429Y-95870765D01*
X161616227Y-95864804D01*
X161640496Y-95861204D01*
X161665000Y-95860000D01*
X162590000Y-95860000D01*
X162614504Y-95861204D01*
G37*
G36*
X159639504Y-95861204D02*
G01*
X159663773Y-95864804D01*
X159687571Y-95870765D01*
X159710671Y-95879030D01*
X159732849Y-95889520D01*
X159753893Y-95902133D01*
X159773598Y-95916747D01*
X159791777Y-95933223D01*
X159808253Y-95951402D01*
X159822867Y-95971107D01*
X159835480Y-95992151D01*
X159845970Y-96014329D01*
X159854235Y-96037429D01*
X159860196Y-96061227D01*
X159863796Y-96085496D01*
X159865000Y-96110000D01*
X159865000Y-97360000D01*
X159863796Y-97384504D01*
X159860196Y-97408773D01*
X159854235Y-97432571D01*
X159845970Y-97455671D01*
X159835480Y-97477849D01*
X159822867Y-97498893D01*
X159808253Y-97518598D01*
X159791777Y-97536777D01*
X159773598Y-97553253D01*
X159753893Y-97567867D01*
X159732849Y-97580480D01*
X159710671Y-97590970D01*
X159687571Y-97599235D01*
X159663773Y-97605196D01*
X159639504Y-97608796D01*
X159615000Y-97610000D01*
X158690000Y-97610000D01*
X158665496Y-97608796D01*
X158641227Y-97605196D01*
X158617429Y-97599235D01*
X158594329Y-97590970D01*
X158572151Y-97580480D01*
X158551107Y-97567867D01*
X158531402Y-97553253D01*
X158513223Y-97536777D01*
X158496747Y-97518598D01*
X158482133Y-97498893D01*
X158469520Y-97477849D01*
X158459030Y-97455671D01*
X158450765Y-97432571D01*
X158444804Y-97408773D01*
X158441204Y-97384504D01*
X158440000Y-97360000D01*
X158440000Y-96110000D01*
X158441204Y-96085496D01*
X158444804Y-96061227D01*
X158450765Y-96037429D01*
X158459030Y-96014329D01*
X158469520Y-95992151D01*
X158482133Y-95971107D01*
X158496747Y-95951402D01*
X158513223Y-95933223D01*
X158531402Y-95916747D01*
X158551107Y-95902133D01*
X158572151Y-95889520D01*
X158594329Y-95879030D01*
X158617429Y-95870765D01*
X158641227Y-95864804D01*
X158665496Y-95861204D01*
X158690000Y-95860000D01*
X159615000Y-95860000D01*
X159639504Y-95861204D01*
G37*
G36*
X159639504Y-98261204D02*
G01*
X159663773Y-98264804D01*
X159687571Y-98270765D01*
X159710671Y-98279030D01*
X159732849Y-98289520D01*
X159753893Y-98302133D01*
X159773598Y-98316747D01*
X159791777Y-98333223D01*
X159808253Y-98351402D01*
X159822867Y-98371107D01*
X159835480Y-98392151D01*
X159845970Y-98414329D01*
X159854235Y-98437429D01*
X159860196Y-98461227D01*
X159863796Y-98485496D01*
X159865000Y-98510000D01*
X159865000Y-99760000D01*
X159863796Y-99784504D01*
X159860196Y-99808773D01*
X159854235Y-99832571D01*
X159845970Y-99855671D01*
X159835480Y-99877849D01*
X159822867Y-99898893D01*
X159808253Y-99918598D01*
X159791777Y-99936777D01*
X159773598Y-99953253D01*
X159753893Y-99967867D01*
X159732849Y-99980480D01*
X159710671Y-99990970D01*
X159687571Y-99999235D01*
X159663773Y-100005196D01*
X159639504Y-100008796D01*
X159615000Y-100010000D01*
X158690000Y-100010000D01*
X158665496Y-100008796D01*
X158641227Y-100005196D01*
X158617429Y-99999235D01*
X158594329Y-99990970D01*
X158572151Y-99980480D01*
X158551107Y-99967867D01*
X158531402Y-99953253D01*
X158513223Y-99936777D01*
X158496747Y-99918598D01*
X158482133Y-99898893D01*
X158469520Y-99877849D01*
X158459030Y-99855671D01*
X158450765Y-99832571D01*
X158444804Y-99808773D01*
X158441204Y-99784504D01*
X158440000Y-99760000D01*
X158440000Y-98510000D01*
X158441204Y-98485496D01*
X158444804Y-98461227D01*
X158450765Y-98437429D01*
X158459030Y-98414329D01*
X158469520Y-98392151D01*
X158482133Y-98371107D01*
X158496747Y-98351402D01*
X158513223Y-98333223D01*
X158531402Y-98316747D01*
X158551107Y-98302133D01*
X158572151Y-98289520D01*
X158594329Y-98279030D01*
X158617429Y-98270765D01*
X158641227Y-98264804D01*
X158665496Y-98261204D01*
X158690000Y-98260000D01*
X159615000Y-98260000D01*
X159639504Y-98261204D01*
G37*
G36*
X162614504Y-98261204D02*
G01*
X162638773Y-98264804D01*
X162662571Y-98270765D01*
X162685671Y-98279030D01*
X162707849Y-98289520D01*
X162728893Y-98302133D01*
X162748598Y-98316747D01*
X162766777Y-98333223D01*
X162783253Y-98351402D01*
X162797867Y-98371107D01*
X162810480Y-98392151D01*
X162820970Y-98414329D01*
X162829235Y-98437429D01*
X162835196Y-98461227D01*
X162838796Y-98485496D01*
X162840000Y-98510000D01*
X162840000Y-99760000D01*
X162838796Y-99784504D01*
X162835196Y-99808773D01*
X162829235Y-99832571D01*
X162820970Y-99855671D01*
X162810480Y-99877849D01*
X162797867Y-99898893D01*
X162783253Y-99918598D01*
X162766777Y-99936777D01*
X162748598Y-99953253D01*
X162728893Y-99967867D01*
X162707849Y-99980480D01*
X162685671Y-99990970D01*
X162662571Y-99999235D01*
X162638773Y-100005196D01*
X162614504Y-100008796D01*
X162590000Y-100010000D01*
X161665000Y-100010000D01*
X161640496Y-100008796D01*
X161616227Y-100005196D01*
X161592429Y-99999235D01*
X161569329Y-99990970D01*
X161547151Y-99980480D01*
X161526107Y-99967867D01*
X161506402Y-99953253D01*
X161488223Y-99936777D01*
X161471747Y-99918598D01*
X161457133Y-99898893D01*
X161444520Y-99877849D01*
X161434030Y-99855671D01*
X161425765Y-99832571D01*
X161419804Y-99808773D01*
X161416204Y-99784504D01*
X161415000Y-99760000D01*
X161415000Y-98510000D01*
X161416204Y-98485496D01*
X161419804Y-98461227D01*
X161425765Y-98437429D01*
X161434030Y-98414329D01*
X161444520Y-98392151D01*
X161457133Y-98371107D01*
X161471747Y-98351402D01*
X161488223Y-98333223D01*
X161506402Y-98316747D01*
X161526107Y-98302133D01*
X161547151Y-98289520D01*
X161569329Y-98279030D01*
X161592429Y-98270765D01*
X161616227Y-98264804D01*
X161640496Y-98261204D01*
X161665000Y-98260000D01*
X162590000Y-98260000D01*
X162614504Y-98261204D01*
G37*
G36*
X164834504Y-95661204D02*
G01*
X164858773Y-95664804D01*
X164882571Y-95670765D01*
X164905671Y-95679030D01*
X164927849Y-95689520D01*
X164948893Y-95702133D01*
X164968598Y-95716747D01*
X164986777Y-95733223D01*
X165003253Y-95751402D01*
X165017867Y-95771107D01*
X165030480Y-95792151D01*
X165040970Y-95814329D01*
X165049235Y-95837429D01*
X165055196Y-95861227D01*
X165058796Y-95885496D01*
X165060000Y-95910000D01*
X165060000Y-97160000D01*
X165058796Y-97184504D01*
X165055196Y-97208773D01*
X165049235Y-97232571D01*
X165040970Y-97255671D01*
X165030480Y-97277849D01*
X165017867Y-97298893D01*
X165003253Y-97318598D01*
X164986777Y-97336777D01*
X164968598Y-97353253D01*
X164948893Y-97367867D01*
X164927849Y-97380480D01*
X164905671Y-97390970D01*
X164882571Y-97399235D01*
X164858773Y-97405196D01*
X164834504Y-97408796D01*
X164810000Y-97410000D01*
X163885000Y-97410000D01*
X163860496Y-97408796D01*
X163836227Y-97405196D01*
X163812429Y-97399235D01*
X163789329Y-97390970D01*
X163767151Y-97380480D01*
X163746107Y-97367867D01*
X163726402Y-97353253D01*
X163708223Y-97336777D01*
X163691747Y-97318598D01*
X163677133Y-97298893D01*
X163664520Y-97277849D01*
X163654030Y-97255671D01*
X163645765Y-97232571D01*
X163639804Y-97208773D01*
X163636204Y-97184504D01*
X163635000Y-97160000D01*
X163635000Y-95910000D01*
X163636204Y-95885496D01*
X163639804Y-95861227D01*
X163645765Y-95837429D01*
X163654030Y-95814329D01*
X163664520Y-95792151D01*
X163677133Y-95771107D01*
X163691747Y-95751402D01*
X163708223Y-95733223D01*
X163726402Y-95716747D01*
X163746107Y-95702133D01*
X163767151Y-95689520D01*
X163789329Y-95679030D01*
X163812429Y-95670765D01*
X163836227Y-95664804D01*
X163860496Y-95661204D01*
X163885000Y-95660000D01*
X164810000Y-95660000D01*
X164834504Y-95661204D01*
G37*
G36*
X167809504Y-95661204D02*
G01*
X167833773Y-95664804D01*
X167857571Y-95670765D01*
X167880671Y-95679030D01*
X167902849Y-95689520D01*
X167923893Y-95702133D01*
X167943598Y-95716747D01*
X167961777Y-95733223D01*
X167978253Y-95751402D01*
X167992867Y-95771107D01*
X168005480Y-95792151D01*
X168015970Y-95814329D01*
X168024235Y-95837429D01*
X168030196Y-95861227D01*
X168033796Y-95885496D01*
X168035000Y-95910000D01*
X168035000Y-97160000D01*
X168033796Y-97184504D01*
X168030196Y-97208773D01*
X168024235Y-97232571D01*
X168015970Y-97255671D01*
X168005480Y-97277849D01*
X167992867Y-97298893D01*
X167978253Y-97318598D01*
X167961777Y-97336777D01*
X167943598Y-97353253D01*
X167923893Y-97367867D01*
X167902849Y-97380480D01*
X167880671Y-97390970D01*
X167857571Y-97399235D01*
X167833773Y-97405196D01*
X167809504Y-97408796D01*
X167785000Y-97410000D01*
X166860000Y-97410000D01*
X166835496Y-97408796D01*
X166811227Y-97405196D01*
X166787429Y-97399235D01*
X166764329Y-97390970D01*
X166742151Y-97380480D01*
X166721107Y-97367867D01*
X166701402Y-97353253D01*
X166683223Y-97336777D01*
X166666747Y-97318598D01*
X166652133Y-97298893D01*
X166639520Y-97277849D01*
X166629030Y-97255671D01*
X166620765Y-97232571D01*
X166614804Y-97208773D01*
X166611204Y-97184504D01*
X166610000Y-97160000D01*
X166610000Y-95910000D01*
X166611204Y-95885496D01*
X166614804Y-95861227D01*
X166620765Y-95837429D01*
X166629030Y-95814329D01*
X166639520Y-95792151D01*
X166652133Y-95771107D01*
X166666747Y-95751402D01*
X166683223Y-95733223D01*
X166701402Y-95716747D01*
X166721107Y-95702133D01*
X166742151Y-95689520D01*
X166764329Y-95679030D01*
X166787429Y-95670765D01*
X166811227Y-95664804D01*
X166835496Y-95661204D01*
X166860000Y-95660000D01*
X167785000Y-95660000D01*
X167809504Y-95661204D01*
G37*
G36*
X179044504Y-104981204D02*
G01*
X179068773Y-104984804D01*
X179092571Y-104990765D01*
X179115671Y-104999030D01*
X179137849Y-105009520D01*
X179158893Y-105022133D01*
X179178598Y-105036747D01*
X179196777Y-105053223D01*
X179213253Y-105071402D01*
X179227867Y-105091107D01*
X179240480Y-105112151D01*
X179250970Y-105134329D01*
X179259235Y-105157429D01*
X179265196Y-105181227D01*
X179268796Y-105205496D01*
X179270000Y-105230000D01*
X179270000Y-106480000D01*
X179268796Y-106504504D01*
X179265196Y-106528773D01*
X179259235Y-106552571D01*
X179250970Y-106575671D01*
X179240480Y-106597849D01*
X179227867Y-106618893D01*
X179213253Y-106638598D01*
X179196777Y-106656777D01*
X179178598Y-106673253D01*
X179158893Y-106687867D01*
X179137849Y-106700480D01*
X179115671Y-106710970D01*
X179092571Y-106719235D01*
X179068773Y-106725196D01*
X179044504Y-106728796D01*
X179020000Y-106730000D01*
X178095000Y-106730000D01*
X178070496Y-106728796D01*
X178046227Y-106725196D01*
X178022429Y-106719235D01*
X177999329Y-106710970D01*
X177977151Y-106700480D01*
X177956107Y-106687867D01*
X177936402Y-106673253D01*
X177918223Y-106656777D01*
X177901747Y-106638598D01*
X177887133Y-106618893D01*
X177874520Y-106597849D01*
X177864030Y-106575671D01*
X177855765Y-106552571D01*
X177849804Y-106528773D01*
X177846204Y-106504504D01*
X177845000Y-106480000D01*
X177845000Y-105230000D01*
X177846204Y-105205496D01*
X177849804Y-105181227D01*
X177855765Y-105157429D01*
X177864030Y-105134329D01*
X177874520Y-105112151D01*
X177887133Y-105091107D01*
X177901747Y-105071402D01*
X177918223Y-105053223D01*
X177936402Y-105036747D01*
X177956107Y-105022133D01*
X177977151Y-105009520D01*
X177999329Y-104999030D01*
X178022429Y-104990765D01*
X178046227Y-104984804D01*
X178070496Y-104981204D01*
X178095000Y-104980000D01*
X179020000Y-104980000D01*
X179044504Y-104981204D01*
G37*
G36*
X182019504Y-104981204D02*
G01*
X182043773Y-104984804D01*
X182067571Y-104990765D01*
X182090671Y-104999030D01*
X182112849Y-105009520D01*
X182133893Y-105022133D01*
X182153598Y-105036747D01*
X182171777Y-105053223D01*
X182188253Y-105071402D01*
X182202867Y-105091107D01*
X182215480Y-105112151D01*
X182225970Y-105134329D01*
X182234235Y-105157429D01*
X182240196Y-105181227D01*
X182243796Y-105205496D01*
X182245000Y-105230000D01*
X182245000Y-106480000D01*
X182243796Y-106504504D01*
X182240196Y-106528773D01*
X182234235Y-106552571D01*
X182225970Y-106575671D01*
X182215480Y-106597849D01*
X182202867Y-106618893D01*
X182188253Y-106638598D01*
X182171777Y-106656777D01*
X182153598Y-106673253D01*
X182133893Y-106687867D01*
X182112849Y-106700480D01*
X182090671Y-106710970D01*
X182067571Y-106719235D01*
X182043773Y-106725196D01*
X182019504Y-106728796D01*
X181995000Y-106730000D01*
X181070000Y-106730000D01*
X181045496Y-106728796D01*
X181021227Y-106725196D01*
X180997429Y-106719235D01*
X180974329Y-106710970D01*
X180952151Y-106700480D01*
X180931107Y-106687867D01*
X180911402Y-106673253D01*
X180893223Y-106656777D01*
X180876747Y-106638598D01*
X180862133Y-106618893D01*
X180849520Y-106597849D01*
X180839030Y-106575671D01*
X180830765Y-106552571D01*
X180824804Y-106528773D01*
X180821204Y-106504504D01*
X180820000Y-106480000D01*
X180820000Y-105230000D01*
X180821204Y-105205496D01*
X180824804Y-105181227D01*
X180830765Y-105157429D01*
X180839030Y-105134329D01*
X180849520Y-105112151D01*
X180862133Y-105091107D01*
X180876747Y-105071402D01*
X180893223Y-105053223D01*
X180911402Y-105036747D01*
X180931107Y-105022133D01*
X180952151Y-105009520D01*
X180974329Y-104999030D01*
X180997429Y-104990765D01*
X181021227Y-104984804D01*
X181045496Y-104981204D01*
X181070000Y-104980000D01*
X181995000Y-104980000D01*
X182019504Y-104981204D01*
G37*
G36*
X177394504Y-92881204D02*
G01*
X177418773Y-92884804D01*
X177442571Y-92890765D01*
X177465671Y-92899030D01*
X177487849Y-92909520D01*
X177508893Y-92922133D01*
X177528598Y-92936747D01*
X177546777Y-92953223D01*
X177563253Y-92971402D01*
X177577867Y-92991107D01*
X177590480Y-93012151D01*
X177600970Y-93034329D01*
X177609235Y-93057429D01*
X177615196Y-93081227D01*
X177618796Y-93105496D01*
X177620000Y-93130000D01*
X177620000Y-94055000D01*
X177618796Y-94079504D01*
X177615196Y-94103773D01*
X177609235Y-94127571D01*
X177600970Y-94150671D01*
X177590480Y-94172849D01*
X177577867Y-94193893D01*
X177563253Y-94213598D01*
X177546777Y-94231777D01*
X177528598Y-94248253D01*
X177508893Y-94262867D01*
X177487849Y-94275480D01*
X177465671Y-94285970D01*
X177442571Y-94294235D01*
X177418773Y-94300196D01*
X177394504Y-94303796D01*
X177370000Y-94305000D01*
X176120000Y-94305000D01*
X176095496Y-94303796D01*
X176071227Y-94300196D01*
X176047429Y-94294235D01*
X176024329Y-94285970D01*
X176002151Y-94275480D01*
X175981107Y-94262867D01*
X175961402Y-94248253D01*
X175943223Y-94231777D01*
X175926747Y-94213598D01*
X175912133Y-94193893D01*
X175899520Y-94172849D01*
X175889030Y-94150671D01*
X175880765Y-94127571D01*
X175874804Y-94103773D01*
X175871204Y-94079504D01*
X175870000Y-94055000D01*
X175870000Y-93130000D01*
X175871204Y-93105496D01*
X175874804Y-93081227D01*
X175880765Y-93057429D01*
X175889030Y-93034329D01*
X175899520Y-93012151D01*
X175912133Y-92991107D01*
X175926747Y-92971402D01*
X175943223Y-92953223D01*
X175961402Y-92936747D01*
X175981107Y-92922133D01*
X176002151Y-92909520D01*
X176024329Y-92899030D01*
X176047429Y-92890765D01*
X176071227Y-92884804D01*
X176095496Y-92881204D01*
X176120000Y-92880000D01*
X177370000Y-92880000D01*
X177394504Y-92881204D01*
G37*
G36*
X177394504Y-89906204D02*
G01*
X177418773Y-89909804D01*
X177442571Y-89915765D01*
X177465671Y-89924030D01*
X177487849Y-89934520D01*
X177508893Y-89947133D01*
X177528598Y-89961747D01*
X177546777Y-89978223D01*
X177563253Y-89996402D01*
X177577867Y-90016107D01*
X177590480Y-90037151D01*
X177600970Y-90059329D01*
X177609235Y-90082429D01*
X177615196Y-90106227D01*
X177618796Y-90130496D01*
X177620000Y-90155000D01*
X177620000Y-91080000D01*
X177618796Y-91104504D01*
X177615196Y-91128773D01*
X177609235Y-91152571D01*
X177600970Y-91175671D01*
X177590480Y-91197849D01*
X177577867Y-91218893D01*
X177563253Y-91238598D01*
X177546777Y-91256777D01*
X177528598Y-91273253D01*
X177508893Y-91287867D01*
X177487849Y-91300480D01*
X177465671Y-91310970D01*
X177442571Y-91319235D01*
X177418773Y-91325196D01*
X177394504Y-91328796D01*
X177370000Y-91330000D01*
X176120000Y-91330000D01*
X176095496Y-91328796D01*
X176071227Y-91325196D01*
X176047429Y-91319235D01*
X176024329Y-91310970D01*
X176002151Y-91300480D01*
X175981107Y-91287867D01*
X175961402Y-91273253D01*
X175943223Y-91256777D01*
X175926747Y-91238598D01*
X175912133Y-91218893D01*
X175899520Y-91197849D01*
X175889030Y-91175671D01*
X175880765Y-91152571D01*
X175874804Y-91128773D01*
X175871204Y-91104504D01*
X175870000Y-91080000D01*
X175870000Y-90155000D01*
X175871204Y-90130496D01*
X175874804Y-90106227D01*
X175880765Y-90082429D01*
X175889030Y-90059329D01*
X175899520Y-90037151D01*
X175912133Y-90016107D01*
X175926747Y-89996402D01*
X175943223Y-89978223D01*
X175961402Y-89961747D01*
X175981107Y-89947133D01*
X176002151Y-89934520D01*
X176024329Y-89924030D01*
X176047429Y-89915765D01*
X176071227Y-89909804D01*
X176095496Y-89906204D01*
X176120000Y-89905000D01*
X177370000Y-89905000D01*
X177394504Y-89906204D01*
G37*
M02*
