G04 #@! TF.GenerationSoftware,KiCad,Pcbnew,(5.1.5)-3*
G04 #@! TF.CreationDate,2021-05-17T18:43:42+02:00*
G04 #@! TF.ProjectId,MK2EE,4d4b3245-452e-46b6-9963-61645f706362,1*
G04 #@! TF.SameCoordinates,Original*
G04 #@! TF.FileFunction,Legend,Bot*
G04 #@! TF.FilePolarity,Positive*
%FSLAX46Y46*%
G04 Gerber Fmt 4.6, Leading zero omitted, Abs format (unit mm)*
G04 Created by KiCad (PCBNEW (5.1.5)-3) date 2021-05-17 18:43:42*
%MOMM*%
%LPD*%
G04 APERTURE LIST*
%ADD10C,0.120000*%
%ADD11C,0.127000*%
%ADD12C,0.200000*%
%ADD13C,0.150000*%
G04 APERTURE END LIST*
D10*
X230046000Y-189290000D02*
X220696000Y-189290000D01*
X230046000Y-194930000D02*
X230046000Y-179150000D01*
X230046000Y-194930000D02*
X220696000Y-194930000D01*
X230046000Y-184790000D02*
X220696000Y-184790000D01*
X230046000Y-179150000D02*
X220696000Y-179150000D01*
X220696000Y-179150000D02*
X220696000Y-194930000D01*
X234176000Y-183230000D02*
X235446000Y-183230000D01*
X235446000Y-183230000D02*
X235446000Y-184500000D01*
X255561000Y-191560000D02*
X253151000Y-191560000D01*
X255561000Y-189150000D02*
X255561000Y-191560000D01*
X247041000Y-191260000D02*
X251151000Y-191260000D01*
X247041000Y-184740000D02*
X247041000Y-191260000D01*
X248541000Y-184740000D02*
X247041000Y-184740000D01*
X248541000Y-184340000D02*
X248541000Y-184740000D01*
X251151000Y-184340000D02*
X248541000Y-184340000D01*
X255261000Y-191260000D02*
X251151000Y-191260000D01*
X255261000Y-184740000D02*
X255261000Y-191260000D01*
X253761000Y-184740000D02*
X255261000Y-184740000D01*
X253761000Y-184340000D02*
X253761000Y-184740000D01*
X251151000Y-184340000D02*
X253761000Y-184340000D01*
X272256000Y-184810000D02*
X281606000Y-184810000D01*
X272256000Y-179170000D02*
X272256000Y-194950000D01*
X272256000Y-179170000D02*
X281606000Y-179170000D01*
X272256000Y-189310000D02*
X281606000Y-189310000D01*
X272256000Y-194950000D02*
X281606000Y-194950000D01*
X281606000Y-194950000D02*
X281606000Y-179170000D01*
X268126000Y-190870000D02*
X266856000Y-190870000D01*
X266856000Y-190870000D02*
X266856000Y-189600000D01*
X246092936Y-104945000D02*
X247297064Y-104945000D01*
X246092936Y-106765000D02*
X247297064Y-106765000D01*
X242485000Y-92707064D02*
X242485000Y-91502936D01*
X244305000Y-92707064D02*
X244305000Y-91502936D01*
X231882936Y-95625000D02*
X233087064Y-95625000D01*
X231882936Y-97445000D02*
X233087064Y-97445000D01*
X254905000Y-115995000D02*
X252495000Y-115995000D01*
X254905000Y-118405000D02*
X254905000Y-115995000D01*
X246635000Y-118345000D02*
X246355000Y-118345000D01*
X248635000Y-118345000D02*
X248355000Y-118345000D01*
X250635000Y-118345000D02*
X250355000Y-118345000D01*
X244105000Y-118345000D02*
X244635000Y-118345000D01*
X244105000Y-116295000D02*
X244105000Y-118345000D01*
X242385000Y-116295000D02*
X244105000Y-116295000D01*
X242385000Y-127765000D02*
X242385000Y-116295000D01*
X244995000Y-127765000D02*
X242385000Y-127765000D01*
X245495000Y-128265000D02*
X244995000Y-127765000D01*
X248495000Y-128265000D02*
X245495000Y-128265000D01*
X252885000Y-118345000D02*
X252355000Y-118345000D01*
X252885000Y-116295000D02*
X252885000Y-118345000D01*
X254605000Y-116295000D02*
X252885000Y-116295000D01*
X254605000Y-127765000D02*
X254605000Y-116295000D01*
X251995000Y-127765000D02*
X254605000Y-127765000D01*
X251495000Y-128265000D02*
X251995000Y-127765000D01*
X248495000Y-128265000D02*
X251495000Y-128265000D01*
X259327936Y-92325000D02*
X260532064Y-92325000D01*
X259327936Y-94145000D02*
X260532064Y-94145000D01*
X240572064Y-104690000D02*
X239367936Y-104690000D01*
X240572064Y-102870000D02*
X239367936Y-102870000D01*
X240572064Y-109390000D02*
X239367936Y-109390000D01*
X240572064Y-107570000D02*
X239367936Y-107570000D01*
X260280000Y-100112936D02*
X260280000Y-101317064D01*
X258460000Y-100112936D02*
X258460000Y-101317064D01*
X226687936Y-98225000D02*
X227892064Y-98225000D01*
X226687936Y-100045000D02*
X227892064Y-100045000D01*
X227892064Y-97645000D02*
X226687936Y-97645000D01*
X227892064Y-95825000D02*
X226687936Y-95825000D01*
X239367936Y-105195000D02*
X240572064Y-105195000D01*
X239367936Y-107015000D02*
X240572064Y-107015000D01*
X232232936Y-100310000D02*
X233437064Y-100310000D01*
X232232936Y-102130000D02*
X233437064Y-102130000D01*
X248567936Y-81820000D02*
X249772064Y-81820000D01*
X248567936Y-83640000D02*
X249772064Y-83640000D01*
X251234564Y-91990000D02*
X250030436Y-91990000D01*
X251234564Y-90170000D02*
X250030436Y-90170000D01*
X260127936Y-96165000D02*
X261332064Y-96165000D01*
X260127936Y-97985000D02*
X261332064Y-97985000D01*
D11*
X246970000Y-93235000D02*
X251370000Y-93235000D01*
X246970000Y-103575000D02*
X251370000Y-103575000D01*
D12*
X246100000Y-103965000D02*
G75*
G03X246100000Y-103965000I-100000J0D01*
G01*
D10*
X238037064Y-97445000D02*
X236832936Y-97445000D01*
X238037064Y-95625000D02*
X236832936Y-95625000D01*
X238387064Y-102130000D02*
X237182936Y-102130000D01*
X238387064Y-100310000D02*
X237182936Y-100310000D01*
X229250000Y-114310000D02*
X229250000Y-122160000D01*
X229250000Y-122160000D02*
X241190000Y-122160000D01*
X241190000Y-122160000D02*
X241190000Y-114310000D01*
X241190000Y-114310000D02*
X229250000Y-114310000D01*
X228920000Y-116430000D02*
X228920000Y-113980000D01*
X228920000Y-113980000D02*
X231250000Y-113980000D01*
X181845000Y-128265000D02*
X184845000Y-128265000D01*
X184845000Y-128265000D02*
X185345000Y-127765000D01*
X185345000Y-127765000D02*
X187955000Y-127765000D01*
X187955000Y-127765000D02*
X187955000Y-116295000D01*
X187955000Y-116295000D02*
X186235000Y-116295000D01*
X186235000Y-116295000D02*
X186235000Y-118345000D01*
X186235000Y-118345000D02*
X185705000Y-118345000D01*
X181845000Y-128265000D02*
X178845000Y-128265000D01*
X178845000Y-128265000D02*
X178345000Y-127765000D01*
X178345000Y-127765000D02*
X175735000Y-127765000D01*
X175735000Y-127765000D02*
X175735000Y-116295000D01*
X175735000Y-116295000D02*
X177455000Y-116295000D01*
X177455000Y-116295000D02*
X177455000Y-118345000D01*
X177455000Y-118345000D02*
X177985000Y-118345000D01*
X183985000Y-118345000D02*
X183705000Y-118345000D01*
X181985000Y-118345000D02*
X181705000Y-118345000D01*
X179985000Y-118345000D02*
X179705000Y-118345000D01*
X188255000Y-118405000D02*
X188255000Y-115995000D01*
X188255000Y-115995000D02*
X185845000Y-115995000D01*
X203746000Y-190870000D02*
X203746000Y-189600000D01*
X205016000Y-190870000D02*
X203746000Y-190870000D01*
X218496000Y-194950000D02*
X218496000Y-179170000D01*
X209146000Y-194950000D02*
X218496000Y-194950000D01*
X209146000Y-189310000D02*
X218496000Y-189310000D01*
X209146000Y-179170000D02*
X218496000Y-179170000D01*
X209146000Y-179170000D02*
X209146000Y-194950000D01*
X209146000Y-184810000D02*
X218496000Y-184810000D01*
X172336000Y-183230000D02*
X172336000Y-184500000D01*
X171066000Y-183230000D02*
X172336000Y-183230000D01*
X157586000Y-179150000D02*
X157586000Y-194930000D01*
X166936000Y-179150000D02*
X157586000Y-179150000D01*
X166936000Y-184790000D02*
X157586000Y-184790000D01*
X166936000Y-194930000D02*
X157586000Y-194930000D01*
X166936000Y-194930000D02*
X166936000Y-179150000D01*
X166936000Y-189290000D02*
X157586000Y-189290000D01*
X188041000Y-184340000D02*
X190651000Y-184340000D01*
X190651000Y-184340000D02*
X190651000Y-184740000D01*
X190651000Y-184740000D02*
X192151000Y-184740000D01*
X192151000Y-184740000D02*
X192151000Y-191260000D01*
X192151000Y-191260000D02*
X188041000Y-191260000D01*
X188041000Y-184340000D02*
X185431000Y-184340000D01*
X185431000Y-184340000D02*
X185431000Y-184740000D01*
X185431000Y-184740000D02*
X183931000Y-184740000D01*
X183931000Y-184740000D02*
X183931000Y-191260000D01*
X183931000Y-191260000D02*
X188041000Y-191260000D01*
X192451000Y-189150000D02*
X192451000Y-191560000D01*
X192451000Y-191560000D02*
X190041000Y-191560000D01*
X162270000Y-113980000D02*
X164600000Y-113980000D01*
X162270000Y-116430000D02*
X162270000Y-113980000D01*
X174540000Y-114310000D02*
X162600000Y-114310000D01*
X174540000Y-122160000D02*
X174540000Y-114310000D01*
X162600000Y-122160000D02*
X174540000Y-122160000D01*
X162600000Y-114310000D02*
X162600000Y-122160000D01*
D12*
X179450000Y-103965000D02*
G75*
G03X179450000Y-103965000I-100000J0D01*
G01*
D11*
X180320000Y-103575000D02*
X184720000Y-103575000D01*
X180320000Y-93235000D02*
X184720000Y-93235000D01*
D10*
X92489000Y-126874000D02*
X92489000Y-136224000D01*
X87989000Y-126874000D02*
X87989000Y-136224000D01*
X101939000Y-126874000D02*
X78539000Y-126874000D01*
X101939000Y-126874000D02*
X101939000Y-136224000D01*
X78539000Y-126874000D02*
X78539000Y-136224000D01*
X78539000Y-136224000D02*
X101939000Y-136224000D01*
X82619000Y-122744000D02*
X82619000Y-121474000D01*
X82619000Y-121474000D02*
X83889000Y-121474000D01*
X118939000Y-174454000D02*
X128289000Y-174454000D01*
X118939000Y-178954000D02*
X128289000Y-178954000D01*
X118939000Y-165004000D02*
X118939000Y-188404000D01*
X118939000Y-165004000D02*
X128289000Y-165004000D01*
X118939000Y-188404000D02*
X128289000Y-188404000D01*
X128289000Y-188404000D02*
X128289000Y-165004000D01*
X114809000Y-184324000D02*
X113539000Y-184324000D01*
X113539000Y-184324000D02*
X113539000Y-183054000D01*
X171737064Y-100310000D02*
X170532936Y-100310000D01*
X171737064Y-102130000D02*
X170532936Y-102130000D01*
X171387064Y-95625000D02*
X170182936Y-95625000D01*
X171387064Y-97445000D02*
X170182936Y-97445000D01*
X191810000Y-100112936D02*
X191810000Y-101317064D01*
X193630000Y-100112936D02*
X193630000Y-101317064D01*
X193477936Y-97985000D02*
X194682064Y-97985000D01*
X193477936Y-96165000D02*
X194682064Y-96165000D01*
X192677936Y-94145000D02*
X193882064Y-94145000D01*
X192677936Y-92325000D02*
X193882064Y-92325000D01*
X184584564Y-90170000D02*
X183380436Y-90170000D01*
X184584564Y-91990000D02*
X183380436Y-91990000D01*
X173922064Y-102870000D02*
X172717936Y-102870000D01*
X173922064Y-104690000D02*
X172717936Y-104690000D01*
X181917936Y-83640000D02*
X183122064Y-83640000D01*
X181917936Y-81820000D02*
X183122064Y-81820000D01*
X165582936Y-102130000D02*
X166787064Y-102130000D01*
X165582936Y-100310000D02*
X166787064Y-100310000D01*
X173922064Y-107570000D02*
X172717936Y-107570000D01*
X173922064Y-109390000D02*
X172717936Y-109390000D01*
X172717936Y-107015000D02*
X173922064Y-107015000D01*
X172717936Y-105195000D02*
X173922064Y-105195000D01*
X161242064Y-95825000D02*
X160037936Y-95825000D01*
X161242064Y-97645000D02*
X160037936Y-97645000D01*
X160037936Y-100045000D02*
X161242064Y-100045000D01*
X160037936Y-98225000D02*
X161242064Y-98225000D01*
X165232936Y-97445000D02*
X166437064Y-97445000D01*
X165232936Y-95625000D02*
X166437064Y-95625000D01*
X179442936Y-106765000D02*
X180647064Y-106765000D01*
X179442936Y-104945000D02*
X180647064Y-104945000D01*
X177655000Y-92707064D02*
X177655000Y-91502936D01*
X175835000Y-92707064D02*
X175835000Y-91502936D01*
D13*
X228404333Y-177602380D02*
X228404333Y-178316666D01*
X228451952Y-178459523D01*
X228547190Y-178554761D01*
X228690047Y-178602380D01*
X228785285Y-178602380D01*
X227880523Y-178602380D02*
X227690047Y-178602380D01*
X227594809Y-178554761D01*
X227547190Y-178507142D01*
X227451952Y-178364285D01*
X227404333Y-178173809D01*
X227404333Y-177792857D01*
X227451952Y-177697619D01*
X227499571Y-177650000D01*
X227594809Y-177602380D01*
X227785285Y-177602380D01*
X227880523Y-177650000D01*
X227928142Y-177697619D01*
X227975761Y-177792857D01*
X227975761Y-178030952D01*
X227928142Y-178126190D01*
X227880523Y-178173809D01*
X227785285Y-178221428D01*
X227594809Y-178221428D01*
X227499571Y-178173809D01*
X227451952Y-178126190D01*
X227404333Y-178030952D01*
X251960523Y-182702380D02*
X251960523Y-183416666D01*
X252008142Y-183559523D01*
X252103380Y-183654761D01*
X252246238Y-183702380D01*
X252341476Y-183702380D01*
X250960523Y-183702380D02*
X251531952Y-183702380D01*
X251246238Y-183702380D02*
X251246238Y-182702380D01*
X251341476Y-182845238D01*
X251436714Y-182940476D01*
X251531952Y-182988095D01*
X250341476Y-182702380D02*
X250246238Y-182702380D01*
X250151000Y-182750000D01*
X250103380Y-182797619D01*
X250055761Y-182892857D01*
X250008142Y-183083333D01*
X250008142Y-183321428D01*
X250055761Y-183511904D01*
X250103380Y-183607142D01*
X250151000Y-183654761D01*
X250246238Y-183702380D01*
X250341476Y-183702380D01*
X250436714Y-183654761D01*
X250484333Y-183607142D01*
X250531952Y-183511904D01*
X250579571Y-183321428D01*
X250579571Y-183083333D01*
X250531952Y-182892857D01*
X250484333Y-182797619D01*
X250436714Y-182750000D01*
X250341476Y-182702380D01*
X274564333Y-195402380D02*
X274564333Y-196116666D01*
X274611952Y-196259523D01*
X274707190Y-196354761D01*
X274850047Y-196402380D01*
X274945285Y-196402380D01*
X273945285Y-195830952D02*
X274040523Y-195783333D01*
X274088142Y-195735714D01*
X274135761Y-195640476D01*
X274135761Y-195592857D01*
X274088142Y-195497619D01*
X274040523Y-195450000D01*
X273945285Y-195402380D01*
X273754809Y-195402380D01*
X273659571Y-195450000D01*
X273611952Y-195497619D01*
X273564333Y-195592857D01*
X273564333Y-195640476D01*
X273611952Y-195735714D01*
X273659571Y-195783333D01*
X273754809Y-195830952D01*
X273945285Y-195830952D01*
X274040523Y-195878571D01*
X274088142Y-195926190D01*
X274135761Y-196021428D01*
X274135761Y-196211904D01*
X274088142Y-196307142D01*
X274040523Y-196354761D01*
X273945285Y-196402380D01*
X273754809Y-196402380D01*
X273659571Y-196354761D01*
X273611952Y-196307142D01*
X273564333Y-196211904D01*
X273564333Y-196021428D01*
X273611952Y-195926190D01*
X273659571Y-195878571D01*
X273754809Y-195830952D01*
X246861666Y-108127380D02*
X247195000Y-107651190D01*
X247433095Y-108127380D02*
X247433095Y-107127380D01*
X247052142Y-107127380D01*
X246956904Y-107175000D01*
X246909285Y-107222619D01*
X246861666Y-107317857D01*
X246861666Y-107460714D01*
X246909285Y-107555952D01*
X246956904Y-107603571D01*
X247052142Y-107651190D01*
X247433095Y-107651190D01*
X246528333Y-107127380D02*
X245861666Y-107127380D01*
X246290238Y-108127380D01*
X245667380Y-91938333D02*
X245191190Y-91605000D01*
X245667380Y-91366904D02*
X244667380Y-91366904D01*
X244667380Y-91747857D01*
X244715000Y-91843095D01*
X244762619Y-91890714D01*
X244857857Y-91938333D01*
X245000714Y-91938333D01*
X245095952Y-91890714D01*
X245143571Y-91843095D01*
X245191190Y-91747857D01*
X245191190Y-91366904D01*
X245095952Y-92509761D02*
X245048333Y-92414523D01*
X245000714Y-92366904D01*
X244905476Y-92319285D01*
X244857857Y-92319285D01*
X244762619Y-92366904D01*
X244715000Y-92414523D01*
X244667380Y-92509761D01*
X244667380Y-92700238D01*
X244715000Y-92795476D01*
X244762619Y-92843095D01*
X244857857Y-92890714D01*
X244905476Y-92890714D01*
X245000714Y-92843095D01*
X245048333Y-92795476D01*
X245095952Y-92700238D01*
X245095952Y-92509761D01*
X245143571Y-92414523D01*
X245191190Y-92366904D01*
X245286428Y-92319285D01*
X245476904Y-92319285D01*
X245572142Y-92366904D01*
X245619761Y-92414523D01*
X245667380Y-92509761D01*
X245667380Y-92700238D01*
X245619761Y-92795476D01*
X245572142Y-92843095D01*
X245476904Y-92890714D01*
X245286428Y-92890714D01*
X245191190Y-92843095D01*
X245143571Y-92795476D01*
X245095952Y-92700238D01*
X232651666Y-98807380D02*
X232985000Y-98331190D01*
X233223095Y-98807380D02*
X233223095Y-97807380D01*
X232842142Y-97807380D01*
X232746904Y-97855000D01*
X232699285Y-97902619D01*
X232651666Y-97997857D01*
X232651666Y-98140714D01*
X232699285Y-98235952D01*
X232746904Y-98283571D01*
X232842142Y-98331190D01*
X233223095Y-98331190D01*
X231794523Y-97807380D02*
X231985000Y-97807380D01*
X232080238Y-97855000D01*
X232127857Y-97902619D01*
X232223095Y-98045476D01*
X232270714Y-98235952D01*
X232270714Y-98616904D01*
X232223095Y-98712142D01*
X232175476Y-98759761D01*
X232080238Y-98807380D01*
X231889761Y-98807380D01*
X231794523Y-98759761D01*
X231746904Y-98712142D01*
X231699285Y-98616904D01*
X231699285Y-98378809D01*
X231746904Y-98283571D01*
X231794523Y-98235952D01*
X231889761Y-98188333D01*
X232080238Y-98188333D01*
X232175476Y-98235952D01*
X232223095Y-98283571D01*
X232270714Y-98378809D01*
X248828333Y-114657380D02*
X248828333Y-115371666D01*
X248875952Y-115514523D01*
X248971190Y-115609761D01*
X249114047Y-115657380D01*
X249209285Y-115657380D01*
X248447380Y-114657380D02*
X247780714Y-114657380D01*
X248209285Y-115657380D01*
X260572857Y-95412142D02*
X260620476Y-95459761D01*
X260763333Y-95507380D01*
X260858571Y-95507380D01*
X261001428Y-95459761D01*
X261096666Y-95364523D01*
X261144285Y-95269285D01*
X261191904Y-95078809D01*
X261191904Y-94935952D01*
X261144285Y-94745476D01*
X261096666Y-94650238D01*
X261001428Y-94555000D01*
X260858571Y-94507380D01*
X260763333Y-94507380D01*
X260620476Y-94555000D01*
X260572857Y-94602619D01*
X259620476Y-95507380D02*
X260191904Y-95507380D01*
X259906190Y-95507380D02*
X259906190Y-94507380D01*
X260001428Y-94650238D01*
X260096666Y-94745476D01*
X260191904Y-94793095D01*
X259001428Y-94507380D02*
X258906190Y-94507380D01*
X258810952Y-94555000D01*
X258763333Y-94602619D01*
X258715714Y-94697857D01*
X258668095Y-94888333D01*
X258668095Y-95126428D01*
X258715714Y-95316904D01*
X258763333Y-95412142D01*
X258810952Y-95459761D01*
X258906190Y-95507380D01*
X259001428Y-95507380D01*
X259096666Y-95459761D01*
X259144285Y-95412142D01*
X259191904Y-95316904D01*
X259239523Y-95126428D01*
X259239523Y-94888333D01*
X259191904Y-94697857D01*
X259144285Y-94602619D01*
X259096666Y-94555000D01*
X259001428Y-94507380D01*
X236652857Y-104137142D02*
X236700476Y-104184761D01*
X236843333Y-104232380D01*
X236938571Y-104232380D01*
X237081428Y-104184761D01*
X237176666Y-104089523D01*
X237224285Y-103994285D01*
X237271904Y-103803809D01*
X237271904Y-103660952D01*
X237224285Y-103470476D01*
X237176666Y-103375238D01*
X237081428Y-103280000D01*
X236938571Y-103232380D01*
X236843333Y-103232380D01*
X236700476Y-103280000D01*
X236652857Y-103327619D01*
X235700476Y-104232380D02*
X236271904Y-104232380D01*
X235986190Y-104232380D02*
X235986190Y-103232380D01*
X236081428Y-103375238D01*
X236176666Y-103470476D01*
X236271904Y-103518095D01*
X235367142Y-103232380D02*
X234748095Y-103232380D01*
X235081428Y-103613333D01*
X234938571Y-103613333D01*
X234843333Y-103660952D01*
X234795714Y-103708571D01*
X234748095Y-103803809D01*
X234748095Y-104041904D01*
X234795714Y-104137142D01*
X234843333Y-104184761D01*
X234938571Y-104232380D01*
X235224285Y-104232380D01*
X235319523Y-104184761D01*
X235367142Y-104137142D01*
X236666666Y-108902380D02*
X237000000Y-108426190D01*
X237238095Y-108902380D02*
X237238095Y-107902380D01*
X236857142Y-107902380D01*
X236761904Y-107950000D01*
X236714285Y-107997619D01*
X236666666Y-108092857D01*
X236666666Y-108235714D01*
X236714285Y-108330952D01*
X236761904Y-108378571D01*
X236857142Y-108426190D01*
X237238095Y-108426190D01*
X236285714Y-107997619D02*
X236238095Y-107950000D01*
X236142857Y-107902380D01*
X235904761Y-107902380D01*
X235809523Y-107950000D01*
X235761904Y-107997619D01*
X235714285Y-108092857D01*
X235714285Y-108188095D01*
X235761904Y-108330952D01*
X236333333Y-108902380D01*
X235714285Y-108902380D01*
X257907142Y-100548333D02*
X257954761Y-100500714D01*
X258002380Y-100357857D01*
X258002380Y-100262619D01*
X257954761Y-100119761D01*
X257859523Y-100024523D01*
X257764285Y-99976904D01*
X257573809Y-99929285D01*
X257430952Y-99929285D01*
X257240476Y-99976904D01*
X257145238Y-100024523D01*
X257050000Y-100119761D01*
X257002380Y-100262619D01*
X257002380Y-100357857D01*
X257050000Y-100500714D01*
X257097619Y-100548333D01*
X257430952Y-101119761D02*
X257383333Y-101024523D01*
X257335714Y-100976904D01*
X257240476Y-100929285D01*
X257192857Y-100929285D01*
X257097619Y-100976904D01*
X257050000Y-101024523D01*
X257002380Y-101119761D01*
X257002380Y-101310238D01*
X257050000Y-101405476D01*
X257097619Y-101453095D01*
X257192857Y-101500714D01*
X257240476Y-101500714D01*
X257335714Y-101453095D01*
X257383333Y-101405476D01*
X257430952Y-101310238D01*
X257430952Y-101119761D01*
X257478571Y-101024523D01*
X257526190Y-100976904D01*
X257621428Y-100929285D01*
X257811904Y-100929285D01*
X257907142Y-100976904D01*
X257954761Y-101024523D01*
X258002380Y-101119761D01*
X258002380Y-101310238D01*
X257954761Y-101405476D01*
X257907142Y-101453095D01*
X257811904Y-101500714D01*
X257621428Y-101500714D01*
X257526190Y-101453095D01*
X257478571Y-101405476D01*
X257430952Y-101310238D01*
X227456666Y-101407380D02*
X227790000Y-100931190D01*
X228028095Y-101407380D02*
X228028095Y-100407380D01*
X227647142Y-100407380D01*
X227551904Y-100455000D01*
X227504285Y-100502619D01*
X227456666Y-100597857D01*
X227456666Y-100740714D01*
X227504285Y-100835952D01*
X227551904Y-100883571D01*
X227647142Y-100931190D01*
X228028095Y-100931190D01*
X226551904Y-100407380D02*
X227028095Y-100407380D01*
X227075714Y-100883571D01*
X227028095Y-100835952D01*
X226932857Y-100788333D01*
X226694761Y-100788333D01*
X226599523Y-100835952D01*
X226551904Y-100883571D01*
X226504285Y-100978809D01*
X226504285Y-101216904D01*
X226551904Y-101312142D01*
X226599523Y-101359761D01*
X226694761Y-101407380D01*
X226932857Y-101407380D01*
X227028095Y-101359761D01*
X227075714Y-101312142D01*
X226286666Y-95237380D02*
X226620000Y-94761190D01*
X226858095Y-95237380D02*
X226858095Y-94237380D01*
X226477142Y-94237380D01*
X226381904Y-94285000D01*
X226334285Y-94332619D01*
X226286666Y-94427857D01*
X226286666Y-94570714D01*
X226334285Y-94665952D01*
X226381904Y-94713571D01*
X226477142Y-94761190D01*
X226858095Y-94761190D01*
X225429523Y-94570714D02*
X225429523Y-95237380D01*
X225667619Y-94189761D02*
X225905714Y-94904047D01*
X225286666Y-94904047D01*
X236606666Y-106552380D02*
X236940000Y-106076190D01*
X237178095Y-106552380D02*
X237178095Y-105552380D01*
X236797142Y-105552380D01*
X236701904Y-105600000D01*
X236654285Y-105647619D01*
X236606666Y-105742857D01*
X236606666Y-105885714D01*
X236654285Y-105980952D01*
X236701904Y-106028571D01*
X236797142Y-106076190D01*
X237178095Y-106076190D01*
X236273333Y-105552380D02*
X235654285Y-105552380D01*
X235987619Y-105933333D01*
X235844761Y-105933333D01*
X235749523Y-105980952D01*
X235701904Y-106028571D01*
X235654285Y-106123809D01*
X235654285Y-106361904D01*
X235701904Y-106457142D01*
X235749523Y-106504761D01*
X235844761Y-106552380D01*
X236130476Y-106552380D01*
X236225714Y-106504761D01*
X236273333Y-106457142D01*
X233001666Y-103492380D02*
X233335000Y-103016190D01*
X233573095Y-103492380D02*
X233573095Y-102492380D01*
X233192142Y-102492380D01*
X233096904Y-102540000D01*
X233049285Y-102587619D01*
X233001666Y-102682857D01*
X233001666Y-102825714D01*
X233049285Y-102920952D01*
X233096904Y-102968571D01*
X233192142Y-103016190D01*
X233573095Y-103016190D01*
X232049285Y-103492380D02*
X232620714Y-103492380D01*
X232335000Y-103492380D02*
X232335000Y-102492380D01*
X232430238Y-102635238D01*
X232525476Y-102730476D01*
X232620714Y-102778095D01*
X249812857Y-84907142D02*
X249860476Y-84954761D01*
X250003333Y-85002380D01*
X250098571Y-85002380D01*
X250241428Y-84954761D01*
X250336666Y-84859523D01*
X250384285Y-84764285D01*
X250431904Y-84573809D01*
X250431904Y-84430952D01*
X250384285Y-84240476D01*
X250336666Y-84145238D01*
X250241428Y-84050000D01*
X250098571Y-84002380D01*
X250003333Y-84002380D01*
X249860476Y-84050000D01*
X249812857Y-84097619D01*
X248860476Y-85002380D02*
X249431904Y-85002380D01*
X249146190Y-85002380D02*
X249146190Y-84002380D01*
X249241428Y-84145238D01*
X249336666Y-84240476D01*
X249431904Y-84288095D01*
X248384285Y-85002380D02*
X248193809Y-85002380D01*
X248098571Y-84954761D01*
X248050952Y-84907142D01*
X247955714Y-84764285D01*
X247908095Y-84573809D01*
X247908095Y-84192857D01*
X247955714Y-84097619D01*
X248003333Y-84050000D01*
X248098571Y-84002380D01*
X248289047Y-84002380D01*
X248384285Y-84050000D01*
X248431904Y-84097619D01*
X248479523Y-84192857D01*
X248479523Y-84430952D01*
X248431904Y-84526190D01*
X248384285Y-84573809D01*
X248289047Y-84621428D01*
X248098571Y-84621428D01*
X248003333Y-84573809D01*
X247955714Y-84526190D01*
X247908095Y-84430952D01*
X251275357Y-89617142D02*
X251322976Y-89664761D01*
X251465833Y-89712380D01*
X251561071Y-89712380D01*
X251703928Y-89664761D01*
X251799166Y-89569523D01*
X251846785Y-89474285D01*
X251894404Y-89283809D01*
X251894404Y-89140952D01*
X251846785Y-88950476D01*
X251799166Y-88855238D01*
X251703928Y-88760000D01*
X251561071Y-88712380D01*
X251465833Y-88712380D01*
X251322976Y-88760000D01*
X251275357Y-88807619D01*
X250322976Y-89712380D02*
X250894404Y-89712380D01*
X250608690Y-89712380D02*
X250608690Y-88712380D01*
X250703928Y-88855238D01*
X250799166Y-88950476D01*
X250894404Y-88998095D01*
X249942023Y-88807619D02*
X249894404Y-88760000D01*
X249799166Y-88712380D01*
X249561071Y-88712380D01*
X249465833Y-88760000D01*
X249418214Y-88807619D01*
X249370595Y-88902857D01*
X249370595Y-88998095D01*
X249418214Y-89140952D01*
X249989642Y-89712380D01*
X249370595Y-89712380D01*
X264626666Y-97477142D02*
X264674285Y-97524761D01*
X264817142Y-97572380D01*
X264912380Y-97572380D01*
X265055238Y-97524761D01*
X265150476Y-97429523D01*
X265198095Y-97334285D01*
X265245714Y-97143809D01*
X265245714Y-97000952D01*
X265198095Y-96810476D01*
X265150476Y-96715238D01*
X265055238Y-96620000D01*
X264912380Y-96572380D01*
X264817142Y-96572380D01*
X264674285Y-96620000D01*
X264626666Y-96667619D01*
X264150476Y-97572380D02*
X263960000Y-97572380D01*
X263864761Y-97524761D01*
X263817142Y-97477142D01*
X263721904Y-97334285D01*
X263674285Y-97143809D01*
X263674285Y-96762857D01*
X263721904Y-96667619D01*
X263769523Y-96620000D01*
X263864761Y-96572380D01*
X264055238Y-96572380D01*
X264150476Y-96620000D01*
X264198095Y-96667619D01*
X264245714Y-96762857D01*
X264245714Y-97000952D01*
X264198095Y-97096190D01*
X264150476Y-97143809D01*
X264055238Y-97191428D01*
X263864761Y-97191428D01*
X263769523Y-97143809D01*
X263721904Y-97096190D01*
X263674285Y-97000952D01*
X252721904Y-104192380D02*
X252721904Y-105001904D01*
X252674285Y-105097142D01*
X252626666Y-105144761D01*
X252531428Y-105192380D01*
X252340952Y-105192380D01*
X252245714Y-105144761D01*
X252198095Y-105097142D01*
X252150476Y-105001904D01*
X252150476Y-104192380D01*
X251769523Y-104192380D02*
X251102857Y-104192380D01*
X251531428Y-105192380D01*
X237601666Y-95072142D02*
X237649285Y-95119761D01*
X237792142Y-95167380D01*
X237887380Y-95167380D01*
X238030238Y-95119761D01*
X238125476Y-95024523D01*
X238173095Y-94929285D01*
X238220714Y-94738809D01*
X238220714Y-94595952D01*
X238173095Y-94405476D01*
X238125476Y-94310238D01*
X238030238Y-94215000D01*
X237887380Y-94167380D01*
X237792142Y-94167380D01*
X237649285Y-94215000D01*
X237601666Y-94262619D01*
X237268333Y-94167380D02*
X236601666Y-94167380D01*
X237030238Y-95167380D01*
X237951666Y-99757142D02*
X237999285Y-99804761D01*
X238142142Y-99852380D01*
X238237380Y-99852380D01*
X238380238Y-99804761D01*
X238475476Y-99709523D01*
X238523095Y-99614285D01*
X238570714Y-99423809D01*
X238570714Y-99280952D01*
X238523095Y-99090476D01*
X238475476Y-98995238D01*
X238380238Y-98900000D01*
X238237380Y-98852380D01*
X238142142Y-98852380D01*
X237999285Y-98900000D01*
X237951666Y-98947619D01*
X237094523Y-98852380D02*
X237285000Y-98852380D01*
X237380238Y-98900000D01*
X237427857Y-98947619D01*
X237523095Y-99090476D01*
X237570714Y-99280952D01*
X237570714Y-99661904D01*
X237523095Y-99757142D01*
X237475476Y-99804761D01*
X237380238Y-99852380D01*
X237189761Y-99852380D01*
X237094523Y-99804761D01*
X237046904Y-99757142D01*
X236999285Y-99661904D01*
X236999285Y-99423809D01*
X237046904Y-99328571D01*
X237094523Y-99280952D01*
X237189761Y-99233333D01*
X237380238Y-99233333D01*
X237475476Y-99280952D01*
X237523095Y-99328571D01*
X237570714Y-99423809D01*
X236091904Y-112532380D02*
X236091904Y-113341904D01*
X236044285Y-113437142D01*
X235996666Y-113484761D01*
X235901428Y-113532380D01*
X235710952Y-113532380D01*
X235615714Y-113484761D01*
X235568095Y-113437142D01*
X235520476Y-113341904D01*
X235520476Y-112532380D01*
X234615714Y-112865714D02*
X234615714Y-113532380D01*
X234853809Y-112484761D02*
X235091904Y-113199047D01*
X234472857Y-113199047D01*
X182178333Y-114657380D02*
X182178333Y-115371666D01*
X182225952Y-115514523D01*
X182321190Y-115609761D01*
X182464047Y-115657380D01*
X182559285Y-115657380D01*
X181797380Y-114657380D02*
X181130714Y-114657380D01*
X181559285Y-115657380D01*
X211454333Y-195402380D02*
X211454333Y-196116666D01*
X211501952Y-196259523D01*
X211597190Y-196354761D01*
X211740047Y-196402380D01*
X211835285Y-196402380D01*
X210835285Y-195830952D02*
X210930523Y-195783333D01*
X210978142Y-195735714D01*
X211025761Y-195640476D01*
X211025761Y-195592857D01*
X210978142Y-195497619D01*
X210930523Y-195450000D01*
X210835285Y-195402380D01*
X210644809Y-195402380D01*
X210549571Y-195450000D01*
X210501952Y-195497619D01*
X210454333Y-195592857D01*
X210454333Y-195640476D01*
X210501952Y-195735714D01*
X210549571Y-195783333D01*
X210644809Y-195830952D01*
X210835285Y-195830952D01*
X210930523Y-195878571D01*
X210978142Y-195926190D01*
X211025761Y-196021428D01*
X211025761Y-196211904D01*
X210978142Y-196307142D01*
X210930523Y-196354761D01*
X210835285Y-196402380D01*
X210644809Y-196402380D01*
X210549571Y-196354761D01*
X210501952Y-196307142D01*
X210454333Y-196211904D01*
X210454333Y-196021428D01*
X210501952Y-195926190D01*
X210549571Y-195878571D01*
X210644809Y-195830952D01*
X165294333Y-177602380D02*
X165294333Y-178316666D01*
X165341952Y-178459523D01*
X165437190Y-178554761D01*
X165580047Y-178602380D01*
X165675285Y-178602380D01*
X164770523Y-178602380D02*
X164580047Y-178602380D01*
X164484809Y-178554761D01*
X164437190Y-178507142D01*
X164341952Y-178364285D01*
X164294333Y-178173809D01*
X164294333Y-177792857D01*
X164341952Y-177697619D01*
X164389571Y-177650000D01*
X164484809Y-177602380D01*
X164675285Y-177602380D01*
X164770523Y-177650000D01*
X164818142Y-177697619D01*
X164865761Y-177792857D01*
X164865761Y-178030952D01*
X164818142Y-178126190D01*
X164770523Y-178173809D01*
X164675285Y-178221428D01*
X164484809Y-178221428D01*
X164389571Y-178173809D01*
X164341952Y-178126190D01*
X164294333Y-178030952D01*
X188850523Y-182702380D02*
X188850523Y-183416666D01*
X188898142Y-183559523D01*
X188993380Y-183654761D01*
X189136238Y-183702380D01*
X189231476Y-183702380D01*
X187850523Y-183702380D02*
X188421952Y-183702380D01*
X188136238Y-183702380D02*
X188136238Y-182702380D01*
X188231476Y-182845238D01*
X188326714Y-182940476D01*
X188421952Y-182988095D01*
X187231476Y-182702380D02*
X187136238Y-182702380D01*
X187041000Y-182750000D01*
X186993380Y-182797619D01*
X186945761Y-182892857D01*
X186898142Y-183083333D01*
X186898142Y-183321428D01*
X186945761Y-183511904D01*
X186993380Y-183607142D01*
X187041000Y-183654761D01*
X187136238Y-183702380D01*
X187231476Y-183702380D01*
X187326714Y-183654761D01*
X187374333Y-183607142D01*
X187421952Y-183511904D01*
X187469571Y-183321428D01*
X187469571Y-183083333D01*
X187421952Y-182892857D01*
X187374333Y-182797619D01*
X187326714Y-182750000D01*
X187231476Y-182702380D01*
X169441904Y-112532380D02*
X169441904Y-113341904D01*
X169394285Y-113437142D01*
X169346666Y-113484761D01*
X169251428Y-113532380D01*
X169060952Y-113532380D01*
X168965714Y-113484761D01*
X168918095Y-113437142D01*
X168870476Y-113341904D01*
X168870476Y-112532380D01*
X167965714Y-112865714D02*
X167965714Y-113532380D01*
X168203809Y-112484761D02*
X168441904Y-113199047D01*
X167822857Y-113199047D01*
X186071904Y-104192380D02*
X186071904Y-105001904D01*
X186024285Y-105097142D01*
X185976666Y-105144761D01*
X185881428Y-105192380D01*
X185690952Y-105192380D01*
X185595714Y-105144761D01*
X185548095Y-105097142D01*
X185500476Y-105001904D01*
X185500476Y-104192380D01*
X185119523Y-104192380D02*
X184452857Y-104192380D01*
X184881428Y-105192380D01*
X76991380Y-128515666D02*
X77705666Y-128515666D01*
X77848523Y-128468047D01*
X77943761Y-128372809D01*
X77991380Y-128229952D01*
X77991380Y-128134714D01*
X77086619Y-128944238D02*
X77039000Y-128991857D01*
X76991380Y-129087095D01*
X76991380Y-129325190D01*
X77039000Y-129420428D01*
X77086619Y-129468047D01*
X77181857Y-129515666D01*
X77277095Y-129515666D01*
X77419952Y-129468047D01*
X77991380Y-128896619D01*
X77991380Y-129515666D01*
X171301666Y-99757142D02*
X171349285Y-99804761D01*
X171492142Y-99852380D01*
X171587380Y-99852380D01*
X171730238Y-99804761D01*
X171825476Y-99709523D01*
X171873095Y-99614285D01*
X171920714Y-99423809D01*
X171920714Y-99280952D01*
X171873095Y-99090476D01*
X171825476Y-98995238D01*
X171730238Y-98900000D01*
X171587380Y-98852380D01*
X171492142Y-98852380D01*
X171349285Y-98900000D01*
X171301666Y-98947619D01*
X170444523Y-98852380D02*
X170635000Y-98852380D01*
X170730238Y-98900000D01*
X170777857Y-98947619D01*
X170873095Y-99090476D01*
X170920714Y-99280952D01*
X170920714Y-99661904D01*
X170873095Y-99757142D01*
X170825476Y-99804761D01*
X170730238Y-99852380D01*
X170539761Y-99852380D01*
X170444523Y-99804761D01*
X170396904Y-99757142D01*
X170349285Y-99661904D01*
X170349285Y-99423809D01*
X170396904Y-99328571D01*
X170444523Y-99280952D01*
X170539761Y-99233333D01*
X170730238Y-99233333D01*
X170825476Y-99280952D01*
X170873095Y-99328571D01*
X170920714Y-99423809D01*
X170951666Y-95072142D02*
X170999285Y-95119761D01*
X171142142Y-95167380D01*
X171237380Y-95167380D01*
X171380238Y-95119761D01*
X171475476Y-95024523D01*
X171523095Y-94929285D01*
X171570714Y-94738809D01*
X171570714Y-94595952D01*
X171523095Y-94405476D01*
X171475476Y-94310238D01*
X171380238Y-94215000D01*
X171237380Y-94167380D01*
X171142142Y-94167380D01*
X170999285Y-94215000D01*
X170951666Y-94262619D01*
X170618333Y-94167380D02*
X169951666Y-94167380D01*
X170380238Y-95167380D01*
X191257142Y-100548333D02*
X191304761Y-100500714D01*
X191352380Y-100357857D01*
X191352380Y-100262619D01*
X191304761Y-100119761D01*
X191209523Y-100024523D01*
X191114285Y-99976904D01*
X190923809Y-99929285D01*
X190780952Y-99929285D01*
X190590476Y-99976904D01*
X190495238Y-100024523D01*
X190400000Y-100119761D01*
X190352380Y-100262619D01*
X190352380Y-100357857D01*
X190400000Y-100500714D01*
X190447619Y-100548333D01*
X190780952Y-101119761D02*
X190733333Y-101024523D01*
X190685714Y-100976904D01*
X190590476Y-100929285D01*
X190542857Y-100929285D01*
X190447619Y-100976904D01*
X190400000Y-101024523D01*
X190352380Y-101119761D01*
X190352380Y-101310238D01*
X190400000Y-101405476D01*
X190447619Y-101453095D01*
X190542857Y-101500714D01*
X190590476Y-101500714D01*
X190685714Y-101453095D01*
X190733333Y-101405476D01*
X190780952Y-101310238D01*
X190780952Y-101119761D01*
X190828571Y-101024523D01*
X190876190Y-100976904D01*
X190971428Y-100929285D01*
X191161904Y-100929285D01*
X191257142Y-100976904D01*
X191304761Y-101024523D01*
X191352380Y-101119761D01*
X191352380Y-101310238D01*
X191304761Y-101405476D01*
X191257142Y-101453095D01*
X191161904Y-101500714D01*
X190971428Y-101500714D01*
X190876190Y-101453095D01*
X190828571Y-101405476D01*
X190780952Y-101310238D01*
X197976666Y-97477142D02*
X198024285Y-97524761D01*
X198167142Y-97572380D01*
X198262380Y-97572380D01*
X198405238Y-97524761D01*
X198500476Y-97429523D01*
X198548095Y-97334285D01*
X198595714Y-97143809D01*
X198595714Y-97000952D01*
X198548095Y-96810476D01*
X198500476Y-96715238D01*
X198405238Y-96620000D01*
X198262380Y-96572380D01*
X198167142Y-96572380D01*
X198024285Y-96620000D01*
X197976666Y-96667619D01*
X197500476Y-97572380D02*
X197310000Y-97572380D01*
X197214761Y-97524761D01*
X197167142Y-97477142D01*
X197071904Y-97334285D01*
X197024285Y-97143809D01*
X197024285Y-96762857D01*
X197071904Y-96667619D01*
X197119523Y-96620000D01*
X197214761Y-96572380D01*
X197405238Y-96572380D01*
X197500476Y-96620000D01*
X197548095Y-96667619D01*
X197595714Y-96762857D01*
X197595714Y-97000952D01*
X197548095Y-97096190D01*
X197500476Y-97143809D01*
X197405238Y-97191428D01*
X197214761Y-97191428D01*
X197119523Y-97143809D01*
X197071904Y-97096190D01*
X197024285Y-97000952D01*
X193922857Y-95412142D02*
X193970476Y-95459761D01*
X194113333Y-95507380D01*
X194208571Y-95507380D01*
X194351428Y-95459761D01*
X194446666Y-95364523D01*
X194494285Y-95269285D01*
X194541904Y-95078809D01*
X194541904Y-94935952D01*
X194494285Y-94745476D01*
X194446666Y-94650238D01*
X194351428Y-94555000D01*
X194208571Y-94507380D01*
X194113333Y-94507380D01*
X193970476Y-94555000D01*
X193922857Y-94602619D01*
X192970476Y-95507380D02*
X193541904Y-95507380D01*
X193256190Y-95507380D02*
X193256190Y-94507380D01*
X193351428Y-94650238D01*
X193446666Y-94745476D01*
X193541904Y-94793095D01*
X192351428Y-94507380D02*
X192256190Y-94507380D01*
X192160952Y-94555000D01*
X192113333Y-94602619D01*
X192065714Y-94697857D01*
X192018095Y-94888333D01*
X192018095Y-95126428D01*
X192065714Y-95316904D01*
X192113333Y-95412142D01*
X192160952Y-95459761D01*
X192256190Y-95507380D01*
X192351428Y-95507380D01*
X192446666Y-95459761D01*
X192494285Y-95412142D01*
X192541904Y-95316904D01*
X192589523Y-95126428D01*
X192589523Y-94888333D01*
X192541904Y-94697857D01*
X192494285Y-94602619D01*
X192446666Y-94555000D01*
X192351428Y-94507380D01*
X184625357Y-89617142D02*
X184672976Y-89664761D01*
X184815833Y-89712380D01*
X184911071Y-89712380D01*
X185053928Y-89664761D01*
X185149166Y-89569523D01*
X185196785Y-89474285D01*
X185244404Y-89283809D01*
X185244404Y-89140952D01*
X185196785Y-88950476D01*
X185149166Y-88855238D01*
X185053928Y-88760000D01*
X184911071Y-88712380D01*
X184815833Y-88712380D01*
X184672976Y-88760000D01*
X184625357Y-88807619D01*
X183672976Y-89712380D02*
X184244404Y-89712380D01*
X183958690Y-89712380D02*
X183958690Y-88712380D01*
X184053928Y-88855238D01*
X184149166Y-88950476D01*
X184244404Y-88998095D01*
X183292023Y-88807619D02*
X183244404Y-88760000D01*
X183149166Y-88712380D01*
X182911071Y-88712380D01*
X182815833Y-88760000D01*
X182768214Y-88807619D01*
X182720595Y-88902857D01*
X182720595Y-88998095D01*
X182768214Y-89140952D01*
X183339642Y-89712380D01*
X182720595Y-89712380D01*
X170002857Y-104137142D02*
X170050476Y-104184761D01*
X170193333Y-104232380D01*
X170288571Y-104232380D01*
X170431428Y-104184761D01*
X170526666Y-104089523D01*
X170574285Y-103994285D01*
X170621904Y-103803809D01*
X170621904Y-103660952D01*
X170574285Y-103470476D01*
X170526666Y-103375238D01*
X170431428Y-103280000D01*
X170288571Y-103232380D01*
X170193333Y-103232380D01*
X170050476Y-103280000D01*
X170002857Y-103327619D01*
X169050476Y-104232380D02*
X169621904Y-104232380D01*
X169336190Y-104232380D02*
X169336190Y-103232380D01*
X169431428Y-103375238D01*
X169526666Y-103470476D01*
X169621904Y-103518095D01*
X168717142Y-103232380D02*
X168098095Y-103232380D01*
X168431428Y-103613333D01*
X168288571Y-103613333D01*
X168193333Y-103660952D01*
X168145714Y-103708571D01*
X168098095Y-103803809D01*
X168098095Y-104041904D01*
X168145714Y-104137142D01*
X168193333Y-104184761D01*
X168288571Y-104232380D01*
X168574285Y-104232380D01*
X168669523Y-104184761D01*
X168717142Y-104137142D01*
X183162857Y-84907142D02*
X183210476Y-84954761D01*
X183353333Y-85002380D01*
X183448571Y-85002380D01*
X183591428Y-84954761D01*
X183686666Y-84859523D01*
X183734285Y-84764285D01*
X183781904Y-84573809D01*
X183781904Y-84430952D01*
X183734285Y-84240476D01*
X183686666Y-84145238D01*
X183591428Y-84050000D01*
X183448571Y-84002380D01*
X183353333Y-84002380D01*
X183210476Y-84050000D01*
X183162857Y-84097619D01*
X182210476Y-85002380D02*
X182781904Y-85002380D01*
X182496190Y-85002380D02*
X182496190Y-84002380D01*
X182591428Y-84145238D01*
X182686666Y-84240476D01*
X182781904Y-84288095D01*
X181734285Y-85002380D02*
X181543809Y-85002380D01*
X181448571Y-84954761D01*
X181400952Y-84907142D01*
X181305714Y-84764285D01*
X181258095Y-84573809D01*
X181258095Y-84192857D01*
X181305714Y-84097619D01*
X181353333Y-84050000D01*
X181448571Y-84002380D01*
X181639047Y-84002380D01*
X181734285Y-84050000D01*
X181781904Y-84097619D01*
X181829523Y-84192857D01*
X181829523Y-84430952D01*
X181781904Y-84526190D01*
X181734285Y-84573809D01*
X181639047Y-84621428D01*
X181448571Y-84621428D01*
X181353333Y-84573809D01*
X181305714Y-84526190D01*
X181258095Y-84430952D01*
X166351666Y-103492380D02*
X166685000Y-103016190D01*
X166923095Y-103492380D02*
X166923095Y-102492380D01*
X166542142Y-102492380D01*
X166446904Y-102540000D01*
X166399285Y-102587619D01*
X166351666Y-102682857D01*
X166351666Y-102825714D01*
X166399285Y-102920952D01*
X166446904Y-102968571D01*
X166542142Y-103016190D01*
X166923095Y-103016190D01*
X165399285Y-103492380D02*
X165970714Y-103492380D01*
X165685000Y-103492380D02*
X165685000Y-102492380D01*
X165780238Y-102635238D01*
X165875476Y-102730476D01*
X165970714Y-102778095D01*
X170016666Y-108902380D02*
X170350000Y-108426190D01*
X170588095Y-108902380D02*
X170588095Y-107902380D01*
X170207142Y-107902380D01*
X170111904Y-107950000D01*
X170064285Y-107997619D01*
X170016666Y-108092857D01*
X170016666Y-108235714D01*
X170064285Y-108330952D01*
X170111904Y-108378571D01*
X170207142Y-108426190D01*
X170588095Y-108426190D01*
X169635714Y-107997619D02*
X169588095Y-107950000D01*
X169492857Y-107902380D01*
X169254761Y-107902380D01*
X169159523Y-107950000D01*
X169111904Y-107997619D01*
X169064285Y-108092857D01*
X169064285Y-108188095D01*
X169111904Y-108330952D01*
X169683333Y-108902380D01*
X169064285Y-108902380D01*
X169956666Y-106552380D02*
X170290000Y-106076190D01*
X170528095Y-106552380D02*
X170528095Y-105552380D01*
X170147142Y-105552380D01*
X170051904Y-105600000D01*
X170004285Y-105647619D01*
X169956666Y-105742857D01*
X169956666Y-105885714D01*
X170004285Y-105980952D01*
X170051904Y-106028571D01*
X170147142Y-106076190D01*
X170528095Y-106076190D01*
X169623333Y-105552380D02*
X169004285Y-105552380D01*
X169337619Y-105933333D01*
X169194761Y-105933333D01*
X169099523Y-105980952D01*
X169051904Y-106028571D01*
X169004285Y-106123809D01*
X169004285Y-106361904D01*
X169051904Y-106457142D01*
X169099523Y-106504761D01*
X169194761Y-106552380D01*
X169480476Y-106552380D01*
X169575714Y-106504761D01*
X169623333Y-106457142D01*
X159636666Y-95237380D02*
X159970000Y-94761190D01*
X160208095Y-95237380D02*
X160208095Y-94237380D01*
X159827142Y-94237380D01*
X159731904Y-94285000D01*
X159684285Y-94332619D01*
X159636666Y-94427857D01*
X159636666Y-94570714D01*
X159684285Y-94665952D01*
X159731904Y-94713571D01*
X159827142Y-94761190D01*
X160208095Y-94761190D01*
X158779523Y-94570714D02*
X158779523Y-95237380D01*
X159017619Y-94189761D02*
X159255714Y-94904047D01*
X158636666Y-94904047D01*
X160806666Y-101407380D02*
X161140000Y-100931190D01*
X161378095Y-101407380D02*
X161378095Y-100407380D01*
X160997142Y-100407380D01*
X160901904Y-100455000D01*
X160854285Y-100502619D01*
X160806666Y-100597857D01*
X160806666Y-100740714D01*
X160854285Y-100835952D01*
X160901904Y-100883571D01*
X160997142Y-100931190D01*
X161378095Y-100931190D01*
X159901904Y-100407380D02*
X160378095Y-100407380D01*
X160425714Y-100883571D01*
X160378095Y-100835952D01*
X160282857Y-100788333D01*
X160044761Y-100788333D01*
X159949523Y-100835952D01*
X159901904Y-100883571D01*
X159854285Y-100978809D01*
X159854285Y-101216904D01*
X159901904Y-101312142D01*
X159949523Y-101359761D01*
X160044761Y-101407380D01*
X160282857Y-101407380D01*
X160378095Y-101359761D01*
X160425714Y-101312142D01*
X166001666Y-98807380D02*
X166335000Y-98331190D01*
X166573095Y-98807380D02*
X166573095Y-97807380D01*
X166192142Y-97807380D01*
X166096904Y-97855000D01*
X166049285Y-97902619D01*
X166001666Y-97997857D01*
X166001666Y-98140714D01*
X166049285Y-98235952D01*
X166096904Y-98283571D01*
X166192142Y-98331190D01*
X166573095Y-98331190D01*
X165144523Y-97807380D02*
X165335000Y-97807380D01*
X165430238Y-97855000D01*
X165477857Y-97902619D01*
X165573095Y-98045476D01*
X165620714Y-98235952D01*
X165620714Y-98616904D01*
X165573095Y-98712142D01*
X165525476Y-98759761D01*
X165430238Y-98807380D01*
X165239761Y-98807380D01*
X165144523Y-98759761D01*
X165096904Y-98712142D01*
X165049285Y-98616904D01*
X165049285Y-98378809D01*
X165096904Y-98283571D01*
X165144523Y-98235952D01*
X165239761Y-98188333D01*
X165430238Y-98188333D01*
X165525476Y-98235952D01*
X165573095Y-98283571D01*
X165620714Y-98378809D01*
X180211666Y-108127380D02*
X180545000Y-107651190D01*
X180783095Y-108127380D02*
X180783095Y-107127380D01*
X180402142Y-107127380D01*
X180306904Y-107175000D01*
X180259285Y-107222619D01*
X180211666Y-107317857D01*
X180211666Y-107460714D01*
X180259285Y-107555952D01*
X180306904Y-107603571D01*
X180402142Y-107651190D01*
X180783095Y-107651190D01*
X179878333Y-107127380D02*
X179211666Y-107127380D01*
X179640238Y-108127380D01*
X179017380Y-91938333D02*
X178541190Y-91605000D01*
X179017380Y-91366904D02*
X178017380Y-91366904D01*
X178017380Y-91747857D01*
X178065000Y-91843095D01*
X178112619Y-91890714D01*
X178207857Y-91938333D01*
X178350714Y-91938333D01*
X178445952Y-91890714D01*
X178493571Y-91843095D01*
X178541190Y-91747857D01*
X178541190Y-91366904D01*
X178445952Y-92509761D02*
X178398333Y-92414523D01*
X178350714Y-92366904D01*
X178255476Y-92319285D01*
X178207857Y-92319285D01*
X178112619Y-92366904D01*
X178065000Y-92414523D01*
X178017380Y-92509761D01*
X178017380Y-92700238D01*
X178065000Y-92795476D01*
X178112619Y-92843095D01*
X178207857Y-92890714D01*
X178255476Y-92890714D01*
X178350714Y-92843095D01*
X178398333Y-92795476D01*
X178445952Y-92700238D01*
X178445952Y-92509761D01*
X178493571Y-92414523D01*
X178541190Y-92366904D01*
X178636428Y-92319285D01*
X178826904Y-92319285D01*
X178922142Y-92366904D01*
X178969761Y-92414523D01*
X179017380Y-92509761D01*
X179017380Y-92700238D01*
X178969761Y-92795476D01*
X178922142Y-92843095D01*
X178826904Y-92890714D01*
X178636428Y-92890714D01*
X178541190Y-92843095D01*
X178493571Y-92795476D01*
X178445952Y-92700238D01*
M02*
