M48
; DRILL file {KiCad (5.1.5)-3} date 17/05/2021 18:48:10
; FORMAT={-:-/ absolute / inch / decimal}
; #@! TF.CreationDate,2021-05-17T18:48:10+02:00
; #@! TF.GenerationSoftware,Kicad,Pcbnew,(5.1.5)-3
; #@! TF.FileFunction,NonPlated,1,2,NPTH
FMAT,2
INCH
T1C0.0197
T2C0.0512
T3C0.1260
T4C0.2087
%
G90
G05
T1
X5.5884Y-2.613
X5.5884Y-2.643
X5.5884Y-2.6735
X5.5884Y-2.703
X5.5884Y-2.7326
X5.6475Y-2.613
X5.6475Y-2.643
X5.6475Y-2.6735
X5.6475Y-2.703
X5.6475Y-2.7326
X9.8259Y-5.7413
X9.8259Y-5.8004
X9.8555Y-5.7413
X9.8555Y-5.8004
X9.885Y-5.7413
X9.885Y-5.8004
X9.9155Y-5.7413
X9.9155Y-5.8004
X9.9455Y-5.7413
X9.9455Y-5.8004
X8.4484Y-3.3754
X8.4484Y-3.4054
X8.4484Y-3.4359
X8.4484Y-3.4654
X8.4484Y-3.495
X8.5075Y-3.3754
X8.5075Y-3.4054
X8.5075Y-3.4359
X8.5075Y-3.4654
X8.5075Y-3.495
X7.1009Y-5.1077
X7.1009Y-5.1667
X7.1305Y-5.1077
X7.1305Y-5.1667
X7.16Y-5.1077
X7.16Y-5.1667
X7.1905Y-5.1077
X7.1905Y-5.1667
X7.2205Y-5.1077
X7.2205Y-5.1667
X3.4303Y-5.6139
X3.4303Y-5.673
X3.4598Y-5.6139
X3.4598Y-5.673
X3.4893Y-5.6139
X3.4893Y-5.673
X3.5198Y-5.6139
X3.5198Y-5.673
X3.5498Y-5.6139
X3.5498Y-5.673
X2.2832Y-5.3783
X2.2832Y-5.4374
X2.3127Y-5.3783
X2.3127Y-5.4374
X2.3422Y-5.3783
X2.3422Y-5.4374
X2.3727Y-5.3783
X2.3727Y-5.4374
X2.4027Y-5.3783
X2.4027Y-5.4374
X7.3413Y-5.7413
X7.3413Y-5.8004
X7.3708Y-5.7413
X7.3708Y-5.8004
X7.4004Y-5.7413
X7.4004Y-5.8004
X7.4308Y-5.7413
X7.4308Y-5.8004
X7.4608Y-5.7413
X7.4608Y-5.8004
X5.5884Y-4.4359
X5.5884Y-4.4659
X5.5884Y-4.4963
X5.5884Y-4.5259
X5.5884Y-4.5554
X5.6475Y-4.4359
X5.6475Y-4.4659
X5.6475Y-4.4963
X5.6475Y-4.5259
X5.6475Y-4.5554
X4.7744Y-6.8987
X4.7744Y-6.9283
X4.7744Y-6.9578
X4.7744Y-6.9883
X4.7744Y-7.0183
X4.8334Y-6.8987
X4.8334Y-6.9283
X4.8334Y-6.9578
X4.8334Y-6.9883
X4.8334Y-7.0183
X5.8246Y-3.3757
X5.8246Y-3.4057
X5.8246Y-3.4362
X5.8246Y-3.4657
X5.8246Y-3.4952
X5.8837Y-3.3757
X5.8837Y-3.4057
X5.8837Y-3.4362
X5.8837Y-3.4657
X5.8837Y-3.4952
X4.6946Y-5.3783
X4.6946Y-5.4374
X4.7241Y-5.3783
X4.7241Y-5.4374
X4.7537Y-5.3783
X4.7537Y-5.4374
X4.7841Y-5.3783
X4.7841Y-5.4374
X4.8141Y-5.3783
X4.8141Y-5.4374
X9.725Y-5.1077
X9.725Y-5.1667
X9.7545Y-5.1077
X9.7545Y-5.1667
X9.784Y-5.1077
X9.784Y-5.1667
X9.8145Y-5.1077
X9.8145Y-5.1667
X9.8445Y-5.1077
X9.8445Y-5.1667
X6.1313Y-7.2941
X6.1313Y-7.3236
X6.1313Y-7.3531
X6.1313Y-7.3836
X6.1313Y-7.4136
X6.1904Y-7.2941
X6.1904Y-7.3236
X6.1904Y-7.3531
X6.1904Y-7.3836
X6.1904Y-7.4136
X8.6157Y-7.2976
X8.6157Y-7.3271
X8.6157Y-7.3566
X8.6157Y-7.3871
X8.6157Y-7.4171
X8.6748Y-7.2976
X8.6748Y-7.3271
X8.6748Y-7.3566
X8.6748Y-7.3871
X8.6748Y-7.4171
T2
X7.8059Y-4.8476
X10.4299Y-4.8476
X9.7697Y-7.3327
X3.2865Y-6.0299
X2.8091Y-7.6033
X7.2851Y-7.3327
T3
X9.173Y-2.8732
X1.8022Y-5.0909
X6.549Y-2.8732
X5.3033Y-2.7694
X1.8022Y-1.8654
X5.3033Y-5.0909
X7.4032Y-7.7026
X7.7695Y-4.0937
X9.8878Y-7.7026
X7.4032Y-6.8756
X10.3935Y-4.0937
X9.8878Y-6.8756
T4
X3.834Y-6.3612
X2.8006Y-6.9578
X3.834Y-7.5545
T0
M30
