G04 #@! TF.GenerationSoftware,KiCad,Pcbnew,(5.1.5)-3*
G04 #@! TF.CreationDate,2021-05-17T18:43:42+02:00*
G04 #@! TF.ProjectId,MK2EE,4d4b3245-452e-46b6-9963-61645f706362,1*
G04 #@! TF.SameCoordinates,Original*
G04 #@! TF.FileFunction,Paste,Top*
G04 #@! TF.FilePolarity,Positive*
%FSLAX46Y46*%
G04 Gerber Fmt 4.6, Leading zero omitted, Abs format (unit mm)*
G04 Created by KiCad (PCBNEW (5.1.5)-3) date 2021-05-17 18:43:42*
%MOMM*%
%LPD*%
G04 APERTURE LIST*
%ADD10C,0.100000*%
%ADD11R,1.475000X0.450000*%
%ADD12R,1.570000X0.410000*%
%ADD13R,1.200000X0.800000*%
%ADD14R,1.560000X0.650000*%
%ADD15R,1.680000X3.100000*%
%ADD16R,1.680000X3.150000*%
%ADD17R,0.410000X1.570000*%
%ADD18R,0.450000X1.475000*%
G04 APERTURE END LIST*
D10*
G36*
X237450504Y-158951204D02*
G01*
X237474773Y-158954804D01*
X237498571Y-158960765D01*
X237521671Y-158969030D01*
X237543849Y-158979520D01*
X237564893Y-158992133D01*
X237584598Y-159006747D01*
X237602777Y-159023223D01*
X237619253Y-159041402D01*
X237633867Y-159061107D01*
X237646480Y-159082151D01*
X237656970Y-159104329D01*
X237665235Y-159127429D01*
X237671196Y-159151227D01*
X237674796Y-159175496D01*
X237676000Y-159200000D01*
X237676000Y-160125000D01*
X237674796Y-160149504D01*
X237671196Y-160173773D01*
X237665235Y-160197571D01*
X237656970Y-160220671D01*
X237646480Y-160242849D01*
X237633867Y-160263893D01*
X237619253Y-160283598D01*
X237602777Y-160301777D01*
X237584598Y-160318253D01*
X237564893Y-160332867D01*
X237543849Y-160345480D01*
X237521671Y-160355970D01*
X237498571Y-160364235D01*
X237474773Y-160370196D01*
X237450504Y-160373796D01*
X237426000Y-160375000D01*
X236176000Y-160375000D01*
X236151496Y-160373796D01*
X236127227Y-160370196D01*
X236103429Y-160364235D01*
X236080329Y-160355970D01*
X236058151Y-160345480D01*
X236037107Y-160332867D01*
X236017402Y-160318253D01*
X235999223Y-160301777D01*
X235982747Y-160283598D01*
X235968133Y-160263893D01*
X235955520Y-160242849D01*
X235945030Y-160220671D01*
X235936765Y-160197571D01*
X235930804Y-160173773D01*
X235927204Y-160149504D01*
X235926000Y-160125000D01*
X235926000Y-159200000D01*
X235927204Y-159175496D01*
X235930804Y-159151227D01*
X235936765Y-159127429D01*
X235945030Y-159104329D01*
X235955520Y-159082151D01*
X235968133Y-159061107D01*
X235982747Y-159041402D01*
X235999223Y-159023223D01*
X236017402Y-159006747D01*
X236037107Y-158992133D01*
X236058151Y-158979520D01*
X236080329Y-158969030D01*
X236103429Y-158960765D01*
X236127227Y-158954804D01*
X236151496Y-158951204D01*
X236176000Y-158950000D01*
X237426000Y-158950000D01*
X237450504Y-158951204D01*
G37*
G36*
X237450504Y-155976204D02*
G01*
X237474773Y-155979804D01*
X237498571Y-155985765D01*
X237521671Y-155994030D01*
X237543849Y-156004520D01*
X237564893Y-156017133D01*
X237584598Y-156031747D01*
X237602777Y-156048223D01*
X237619253Y-156066402D01*
X237633867Y-156086107D01*
X237646480Y-156107151D01*
X237656970Y-156129329D01*
X237665235Y-156152429D01*
X237671196Y-156176227D01*
X237674796Y-156200496D01*
X237676000Y-156225000D01*
X237676000Y-157150000D01*
X237674796Y-157174504D01*
X237671196Y-157198773D01*
X237665235Y-157222571D01*
X237656970Y-157245671D01*
X237646480Y-157267849D01*
X237633867Y-157288893D01*
X237619253Y-157308598D01*
X237602777Y-157326777D01*
X237584598Y-157343253D01*
X237564893Y-157357867D01*
X237543849Y-157370480D01*
X237521671Y-157380970D01*
X237498571Y-157389235D01*
X237474773Y-157395196D01*
X237450504Y-157398796D01*
X237426000Y-157400000D01*
X236176000Y-157400000D01*
X236151496Y-157398796D01*
X236127227Y-157395196D01*
X236103429Y-157389235D01*
X236080329Y-157380970D01*
X236058151Y-157370480D01*
X236037107Y-157357867D01*
X236017402Y-157343253D01*
X235999223Y-157326777D01*
X235982747Y-157308598D01*
X235968133Y-157288893D01*
X235955520Y-157267849D01*
X235945030Y-157245671D01*
X235936765Y-157222571D01*
X235930804Y-157198773D01*
X235927204Y-157174504D01*
X235926000Y-157150000D01*
X235926000Y-156225000D01*
X235927204Y-156200496D01*
X235930804Y-156176227D01*
X235936765Y-156152429D01*
X235945030Y-156129329D01*
X235955520Y-156107151D01*
X235968133Y-156086107D01*
X235982747Y-156066402D01*
X235999223Y-156048223D01*
X236017402Y-156031747D01*
X236037107Y-156017133D01*
X236058151Y-156004520D01*
X236080329Y-155994030D01*
X236103429Y-155985765D01*
X236127227Y-155979804D01*
X236151496Y-155976204D01*
X236176000Y-155975000D01*
X237426000Y-155975000D01*
X237450504Y-155976204D01*
G37*
G36*
X265600504Y-158951204D02*
G01*
X265624773Y-158954804D01*
X265648571Y-158960765D01*
X265671671Y-158969030D01*
X265693849Y-158979520D01*
X265714893Y-158992133D01*
X265734598Y-159006747D01*
X265752777Y-159023223D01*
X265769253Y-159041402D01*
X265783867Y-159061107D01*
X265796480Y-159082151D01*
X265806970Y-159104329D01*
X265815235Y-159127429D01*
X265821196Y-159151227D01*
X265824796Y-159175496D01*
X265826000Y-159200000D01*
X265826000Y-160125000D01*
X265824796Y-160149504D01*
X265821196Y-160173773D01*
X265815235Y-160197571D01*
X265806970Y-160220671D01*
X265796480Y-160242849D01*
X265783867Y-160263893D01*
X265769253Y-160283598D01*
X265752777Y-160301777D01*
X265734598Y-160318253D01*
X265714893Y-160332867D01*
X265693849Y-160345480D01*
X265671671Y-160355970D01*
X265648571Y-160364235D01*
X265624773Y-160370196D01*
X265600504Y-160373796D01*
X265576000Y-160375000D01*
X264326000Y-160375000D01*
X264301496Y-160373796D01*
X264277227Y-160370196D01*
X264253429Y-160364235D01*
X264230329Y-160355970D01*
X264208151Y-160345480D01*
X264187107Y-160332867D01*
X264167402Y-160318253D01*
X264149223Y-160301777D01*
X264132747Y-160283598D01*
X264118133Y-160263893D01*
X264105520Y-160242849D01*
X264095030Y-160220671D01*
X264086765Y-160197571D01*
X264080804Y-160173773D01*
X264077204Y-160149504D01*
X264076000Y-160125000D01*
X264076000Y-159200000D01*
X264077204Y-159175496D01*
X264080804Y-159151227D01*
X264086765Y-159127429D01*
X264095030Y-159104329D01*
X264105520Y-159082151D01*
X264118133Y-159061107D01*
X264132747Y-159041402D01*
X264149223Y-159023223D01*
X264167402Y-159006747D01*
X264187107Y-158992133D01*
X264208151Y-158979520D01*
X264230329Y-158969030D01*
X264253429Y-158960765D01*
X264277227Y-158954804D01*
X264301496Y-158951204D01*
X264326000Y-158950000D01*
X265576000Y-158950000D01*
X265600504Y-158951204D01*
G37*
G36*
X265600504Y-155976204D02*
G01*
X265624773Y-155979804D01*
X265648571Y-155985765D01*
X265671671Y-155994030D01*
X265693849Y-156004520D01*
X265714893Y-156017133D01*
X265734598Y-156031747D01*
X265752777Y-156048223D01*
X265769253Y-156066402D01*
X265783867Y-156086107D01*
X265796480Y-156107151D01*
X265806970Y-156129329D01*
X265815235Y-156152429D01*
X265821196Y-156176227D01*
X265824796Y-156200496D01*
X265826000Y-156225000D01*
X265826000Y-157150000D01*
X265824796Y-157174504D01*
X265821196Y-157198773D01*
X265815235Y-157222571D01*
X265806970Y-157245671D01*
X265796480Y-157267849D01*
X265783867Y-157288893D01*
X265769253Y-157308598D01*
X265752777Y-157326777D01*
X265734598Y-157343253D01*
X265714893Y-157357867D01*
X265693849Y-157370480D01*
X265671671Y-157380970D01*
X265648571Y-157389235D01*
X265624773Y-157395196D01*
X265600504Y-157398796D01*
X265576000Y-157400000D01*
X264326000Y-157400000D01*
X264301496Y-157398796D01*
X264277227Y-157395196D01*
X264253429Y-157389235D01*
X264230329Y-157380970D01*
X264208151Y-157370480D01*
X264187107Y-157357867D01*
X264167402Y-157343253D01*
X264149223Y-157326777D01*
X264132747Y-157308598D01*
X264118133Y-157288893D01*
X264105520Y-157267849D01*
X264095030Y-157245671D01*
X264086765Y-157222571D01*
X264080804Y-157198773D01*
X264077204Y-157174504D01*
X264076000Y-157150000D01*
X264076000Y-156225000D01*
X264077204Y-156200496D01*
X264080804Y-156176227D01*
X264086765Y-156152429D01*
X264095030Y-156129329D01*
X264105520Y-156107151D01*
X264118133Y-156086107D01*
X264132747Y-156066402D01*
X264149223Y-156048223D01*
X264167402Y-156031747D01*
X264187107Y-156017133D01*
X264208151Y-156004520D01*
X264230329Y-155994030D01*
X264253429Y-155985765D01*
X264277227Y-155979804D01*
X264301496Y-155976204D01*
X264326000Y-155975000D01*
X265576000Y-155975000D01*
X265600504Y-155976204D01*
G37*
G36*
X261900504Y-155976204D02*
G01*
X261924773Y-155979804D01*
X261948571Y-155985765D01*
X261971671Y-155994030D01*
X261993849Y-156004520D01*
X262014893Y-156017133D01*
X262034598Y-156031747D01*
X262052777Y-156048223D01*
X262069253Y-156066402D01*
X262083867Y-156086107D01*
X262096480Y-156107151D01*
X262106970Y-156129329D01*
X262115235Y-156152429D01*
X262121196Y-156176227D01*
X262124796Y-156200496D01*
X262126000Y-156225000D01*
X262126000Y-157150000D01*
X262124796Y-157174504D01*
X262121196Y-157198773D01*
X262115235Y-157222571D01*
X262106970Y-157245671D01*
X262096480Y-157267849D01*
X262083867Y-157288893D01*
X262069253Y-157308598D01*
X262052777Y-157326777D01*
X262034598Y-157343253D01*
X262014893Y-157357867D01*
X261993849Y-157370480D01*
X261971671Y-157380970D01*
X261948571Y-157389235D01*
X261924773Y-157395196D01*
X261900504Y-157398796D01*
X261876000Y-157400000D01*
X260626000Y-157400000D01*
X260601496Y-157398796D01*
X260577227Y-157395196D01*
X260553429Y-157389235D01*
X260530329Y-157380970D01*
X260508151Y-157370480D01*
X260487107Y-157357867D01*
X260467402Y-157343253D01*
X260449223Y-157326777D01*
X260432747Y-157308598D01*
X260418133Y-157288893D01*
X260405520Y-157267849D01*
X260395030Y-157245671D01*
X260386765Y-157222571D01*
X260380804Y-157198773D01*
X260377204Y-157174504D01*
X260376000Y-157150000D01*
X260376000Y-156225000D01*
X260377204Y-156200496D01*
X260380804Y-156176227D01*
X260386765Y-156152429D01*
X260395030Y-156129329D01*
X260405520Y-156107151D01*
X260418133Y-156086107D01*
X260432747Y-156066402D01*
X260449223Y-156048223D01*
X260467402Y-156031747D01*
X260487107Y-156017133D01*
X260508151Y-156004520D01*
X260530329Y-155994030D01*
X260553429Y-155985765D01*
X260577227Y-155979804D01*
X260601496Y-155976204D01*
X260626000Y-155975000D01*
X261876000Y-155975000D01*
X261900504Y-155976204D01*
G37*
G36*
X261900504Y-158951204D02*
G01*
X261924773Y-158954804D01*
X261948571Y-158960765D01*
X261971671Y-158969030D01*
X261993849Y-158979520D01*
X262014893Y-158992133D01*
X262034598Y-159006747D01*
X262052777Y-159023223D01*
X262069253Y-159041402D01*
X262083867Y-159061107D01*
X262096480Y-159082151D01*
X262106970Y-159104329D01*
X262115235Y-159127429D01*
X262121196Y-159151227D01*
X262124796Y-159175496D01*
X262126000Y-159200000D01*
X262126000Y-160125000D01*
X262124796Y-160149504D01*
X262121196Y-160173773D01*
X262115235Y-160197571D01*
X262106970Y-160220671D01*
X262096480Y-160242849D01*
X262083867Y-160263893D01*
X262069253Y-160283598D01*
X262052777Y-160301777D01*
X262034598Y-160318253D01*
X262014893Y-160332867D01*
X261993849Y-160345480D01*
X261971671Y-160355970D01*
X261948571Y-160364235D01*
X261924773Y-160370196D01*
X261900504Y-160373796D01*
X261876000Y-160375000D01*
X260626000Y-160375000D01*
X260601496Y-160373796D01*
X260577227Y-160370196D01*
X260553429Y-160364235D01*
X260530329Y-160355970D01*
X260508151Y-160345480D01*
X260487107Y-160332867D01*
X260467402Y-160318253D01*
X260449223Y-160301777D01*
X260432747Y-160283598D01*
X260418133Y-160263893D01*
X260405520Y-160242849D01*
X260395030Y-160220671D01*
X260386765Y-160197571D01*
X260380804Y-160173773D01*
X260377204Y-160149504D01*
X260376000Y-160125000D01*
X260376000Y-159200000D01*
X260377204Y-159175496D01*
X260380804Y-159151227D01*
X260386765Y-159127429D01*
X260395030Y-159104329D01*
X260405520Y-159082151D01*
X260418133Y-159061107D01*
X260432747Y-159041402D01*
X260449223Y-159023223D01*
X260467402Y-159006747D01*
X260487107Y-158992133D01*
X260508151Y-158979520D01*
X260530329Y-158969030D01*
X260553429Y-158960765D01*
X260577227Y-158954804D01*
X260601496Y-158951204D01*
X260626000Y-158950000D01*
X261876000Y-158950000D01*
X261900504Y-158951204D01*
G37*
G36*
X241150504Y-158951204D02*
G01*
X241174773Y-158954804D01*
X241198571Y-158960765D01*
X241221671Y-158969030D01*
X241243849Y-158979520D01*
X241264893Y-158992133D01*
X241284598Y-159006747D01*
X241302777Y-159023223D01*
X241319253Y-159041402D01*
X241333867Y-159061107D01*
X241346480Y-159082151D01*
X241356970Y-159104329D01*
X241365235Y-159127429D01*
X241371196Y-159151227D01*
X241374796Y-159175496D01*
X241376000Y-159200000D01*
X241376000Y-160125000D01*
X241374796Y-160149504D01*
X241371196Y-160173773D01*
X241365235Y-160197571D01*
X241356970Y-160220671D01*
X241346480Y-160242849D01*
X241333867Y-160263893D01*
X241319253Y-160283598D01*
X241302777Y-160301777D01*
X241284598Y-160318253D01*
X241264893Y-160332867D01*
X241243849Y-160345480D01*
X241221671Y-160355970D01*
X241198571Y-160364235D01*
X241174773Y-160370196D01*
X241150504Y-160373796D01*
X241126000Y-160375000D01*
X239876000Y-160375000D01*
X239851496Y-160373796D01*
X239827227Y-160370196D01*
X239803429Y-160364235D01*
X239780329Y-160355970D01*
X239758151Y-160345480D01*
X239737107Y-160332867D01*
X239717402Y-160318253D01*
X239699223Y-160301777D01*
X239682747Y-160283598D01*
X239668133Y-160263893D01*
X239655520Y-160242849D01*
X239645030Y-160220671D01*
X239636765Y-160197571D01*
X239630804Y-160173773D01*
X239627204Y-160149504D01*
X239626000Y-160125000D01*
X239626000Y-159200000D01*
X239627204Y-159175496D01*
X239630804Y-159151227D01*
X239636765Y-159127429D01*
X239645030Y-159104329D01*
X239655520Y-159082151D01*
X239668133Y-159061107D01*
X239682747Y-159041402D01*
X239699223Y-159023223D01*
X239717402Y-159006747D01*
X239737107Y-158992133D01*
X239758151Y-158979520D01*
X239780329Y-158969030D01*
X239803429Y-158960765D01*
X239827227Y-158954804D01*
X239851496Y-158951204D01*
X239876000Y-158950000D01*
X241126000Y-158950000D01*
X241150504Y-158951204D01*
G37*
G36*
X241150504Y-155976204D02*
G01*
X241174773Y-155979804D01*
X241198571Y-155985765D01*
X241221671Y-155994030D01*
X241243849Y-156004520D01*
X241264893Y-156017133D01*
X241284598Y-156031747D01*
X241302777Y-156048223D01*
X241319253Y-156066402D01*
X241333867Y-156086107D01*
X241346480Y-156107151D01*
X241356970Y-156129329D01*
X241365235Y-156152429D01*
X241371196Y-156176227D01*
X241374796Y-156200496D01*
X241376000Y-156225000D01*
X241376000Y-157150000D01*
X241374796Y-157174504D01*
X241371196Y-157198773D01*
X241365235Y-157222571D01*
X241356970Y-157245671D01*
X241346480Y-157267849D01*
X241333867Y-157288893D01*
X241319253Y-157308598D01*
X241302777Y-157326777D01*
X241284598Y-157343253D01*
X241264893Y-157357867D01*
X241243849Y-157370480D01*
X241221671Y-157380970D01*
X241198571Y-157389235D01*
X241174773Y-157395196D01*
X241150504Y-157398796D01*
X241126000Y-157400000D01*
X239876000Y-157400000D01*
X239851496Y-157398796D01*
X239827227Y-157395196D01*
X239803429Y-157389235D01*
X239780329Y-157380970D01*
X239758151Y-157370480D01*
X239737107Y-157357867D01*
X239717402Y-157343253D01*
X239699223Y-157326777D01*
X239682747Y-157308598D01*
X239668133Y-157288893D01*
X239655520Y-157267849D01*
X239645030Y-157245671D01*
X239636765Y-157222571D01*
X239630804Y-157198773D01*
X239627204Y-157174504D01*
X239626000Y-157150000D01*
X239626000Y-156225000D01*
X239627204Y-156200496D01*
X239630804Y-156176227D01*
X239636765Y-156152429D01*
X239645030Y-156129329D01*
X239655520Y-156107151D01*
X239668133Y-156086107D01*
X239682747Y-156066402D01*
X239699223Y-156048223D01*
X239717402Y-156031747D01*
X239737107Y-156017133D01*
X239758151Y-156004520D01*
X239780329Y-155994030D01*
X239803429Y-155985765D01*
X239827227Y-155979804D01*
X239851496Y-155976204D01*
X239876000Y-155975000D01*
X241126000Y-155975000D01*
X241150504Y-155976204D01*
G37*
G36*
X233725504Y-155976204D02*
G01*
X233749773Y-155979804D01*
X233773571Y-155985765D01*
X233796671Y-155994030D01*
X233818849Y-156004520D01*
X233839893Y-156017133D01*
X233859598Y-156031747D01*
X233877777Y-156048223D01*
X233894253Y-156066402D01*
X233908867Y-156086107D01*
X233921480Y-156107151D01*
X233931970Y-156129329D01*
X233940235Y-156152429D01*
X233946196Y-156176227D01*
X233949796Y-156200496D01*
X233951000Y-156225000D01*
X233951000Y-157150000D01*
X233949796Y-157174504D01*
X233946196Y-157198773D01*
X233940235Y-157222571D01*
X233931970Y-157245671D01*
X233921480Y-157267849D01*
X233908867Y-157288893D01*
X233894253Y-157308598D01*
X233877777Y-157326777D01*
X233859598Y-157343253D01*
X233839893Y-157357867D01*
X233818849Y-157370480D01*
X233796671Y-157380970D01*
X233773571Y-157389235D01*
X233749773Y-157395196D01*
X233725504Y-157398796D01*
X233701000Y-157400000D01*
X232451000Y-157400000D01*
X232426496Y-157398796D01*
X232402227Y-157395196D01*
X232378429Y-157389235D01*
X232355329Y-157380970D01*
X232333151Y-157370480D01*
X232312107Y-157357867D01*
X232292402Y-157343253D01*
X232274223Y-157326777D01*
X232257747Y-157308598D01*
X232243133Y-157288893D01*
X232230520Y-157267849D01*
X232220030Y-157245671D01*
X232211765Y-157222571D01*
X232205804Y-157198773D01*
X232202204Y-157174504D01*
X232201000Y-157150000D01*
X232201000Y-156225000D01*
X232202204Y-156200496D01*
X232205804Y-156176227D01*
X232211765Y-156152429D01*
X232220030Y-156129329D01*
X232230520Y-156107151D01*
X232243133Y-156086107D01*
X232257747Y-156066402D01*
X232274223Y-156048223D01*
X232292402Y-156031747D01*
X232312107Y-156017133D01*
X232333151Y-156004520D01*
X232355329Y-155994030D01*
X232378429Y-155985765D01*
X232402227Y-155979804D01*
X232426496Y-155976204D01*
X232451000Y-155975000D01*
X233701000Y-155975000D01*
X233725504Y-155976204D01*
G37*
G36*
X233725504Y-158951204D02*
G01*
X233749773Y-158954804D01*
X233773571Y-158960765D01*
X233796671Y-158969030D01*
X233818849Y-158979520D01*
X233839893Y-158992133D01*
X233859598Y-159006747D01*
X233877777Y-159023223D01*
X233894253Y-159041402D01*
X233908867Y-159061107D01*
X233921480Y-159082151D01*
X233931970Y-159104329D01*
X233940235Y-159127429D01*
X233946196Y-159151227D01*
X233949796Y-159175496D01*
X233951000Y-159200000D01*
X233951000Y-160125000D01*
X233949796Y-160149504D01*
X233946196Y-160173773D01*
X233940235Y-160197571D01*
X233931970Y-160220671D01*
X233921480Y-160242849D01*
X233908867Y-160263893D01*
X233894253Y-160283598D01*
X233877777Y-160301777D01*
X233859598Y-160318253D01*
X233839893Y-160332867D01*
X233818849Y-160345480D01*
X233796671Y-160355970D01*
X233773571Y-160364235D01*
X233749773Y-160370196D01*
X233725504Y-160373796D01*
X233701000Y-160375000D01*
X232451000Y-160375000D01*
X232426496Y-160373796D01*
X232402227Y-160370196D01*
X232378429Y-160364235D01*
X232355329Y-160355970D01*
X232333151Y-160345480D01*
X232312107Y-160332867D01*
X232292402Y-160318253D01*
X232274223Y-160301777D01*
X232257747Y-160283598D01*
X232243133Y-160263893D01*
X232230520Y-160242849D01*
X232220030Y-160220671D01*
X232211765Y-160197571D01*
X232205804Y-160173773D01*
X232202204Y-160149504D01*
X232201000Y-160125000D01*
X232201000Y-159200000D01*
X232202204Y-159175496D01*
X232205804Y-159151227D01*
X232211765Y-159127429D01*
X232220030Y-159104329D01*
X232230520Y-159082151D01*
X232243133Y-159061107D01*
X232257747Y-159041402D01*
X232274223Y-159023223D01*
X232292402Y-159006747D01*
X232312107Y-158992133D01*
X232333151Y-158979520D01*
X232355329Y-158969030D01*
X232378429Y-158960765D01*
X232402227Y-158954804D01*
X232426496Y-158951204D01*
X232451000Y-158950000D01*
X233701000Y-158950000D01*
X233725504Y-158951204D01*
G37*
G36*
X269325504Y-158951204D02*
G01*
X269349773Y-158954804D01*
X269373571Y-158960765D01*
X269396671Y-158969030D01*
X269418849Y-158979520D01*
X269439893Y-158992133D01*
X269459598Y-159006747D01*
X269477777Y-159023223D01*
X269494253Y-159041402D01*
X269508867Y-159061107D01*
X269521480Y-159082151D01*
X269531970Y-159104329D01*
X269540235Y-159127429D01*
X269546196Y-159151227D01*
X269549796Y-159175496D01*
X269551000Y-159200000D01*
X269551000Y-160125000D01*
X269549796Y-160149504D01*
X269546196Y-160173773D01*
X269540235Y-160197571D01*
X269531970Y-160220671D01*
X269521480Y-160242849D01*
X269508867Y-160263893D01*
X269494253Y-160283598D01*
X269477777Y-160301777D01*
X269459598Y-160318253D01*
X269439893Y-160332867D01*
X269418849Y-160345480D01*
X269396671Y-160355970D01*
X269373571Y-160364235D01*
X269349773Y-160370196D01*
X269325504Y-160373796D01*
X269301000Y-160375000D01*
X268051000Y-160375000D01*
X268026496Y-160373796D01*
X268002227Y-160370196D01*
X267978429Y-160364235D01*
X267955329Y-160355970D01*
X267933151Y-160345480D01*
X267912107Y-160332867D01*
X267892402Y-160318253D01*
X267874223Y-160301777D01*
X267857747Y-160283598D01*
X267843133Y-160263893D01*
X267830520Y-160242849D01*
X267820030Y-160220671D01*
X267811765Y-160197571D01*
X267805804Y-160173773D01*
X267802204Y-160149504D01*
X267801000Y-160125000D01*
X267801000Y-159200000D01*
X267802204Y-159175496D01*
X267805804Y-159151227D01*
X267811765Y-159127429D01*
X267820030Y-159104329D01*
X267830520Y-159082151D01*
X267843133Y-159061107D01*
X267857747Y-159041402D01*
X267874223Y-159023223D01*
X267892402Y-159006747D01*
X267912107Y-158992133D01*
X267933151Y-158979520D01*
X267955329Y-158969030D01*
X267978429Y-158960765D01*
X268002227Y-158954804D01*
X268026496Y-158951204D01*
X268051000Y-158950000D01*
X269301000Y-158950000D01*
X269325504Y-158951204D01*
G37*
G36*
X269325504Y-155976204D02*
G01*
X269349773Y-155979804D01*
X269373571Y-155985765D01*
X269396671Y-155994030D01*
X269418849Y-156004520D01*
X269439893Y-156017133D01*
X269459598Y-156031747D01*
X269477777Y-156048223D01*
X269494253Y-156066402D01*
X269508867Y-156086107D01*
X269521480Y-156107151D01*
X269531970Y-156129329D01*
X269540235Y-156152429D01*
X269546196Y-156176227D01*
X269549796Y-156200496D01*
X269551000Y-156225000D01*
X269551000Y-157150000D01*
X269549796Y-157174504D01*
X269546196Y-157198773D01*
X269540235Y-157222571D01*
X269531970Y-157245671D01*
X269521480Y-157267849D01*
X269508867Y-157288893D01*
X269494253Y-157308598D01*
X269477777Y-157326777D01*
X269459598Y-157343253D01*
X269439893Y-157357867D01*
X269418849Y-157370480D01*
X269396671Y-157380970D01*
X269373571Y-157389235D01*
X269349773Y-157395196D01*
X269325504Y-157398796D01*
X269301000Y-157400000D01*
X268051000Y-157400000D01*
X268026496Y-157398796D01*
X268002227Y-157395196D01*
X267978429Y-157389235D01*
X267955329Y-157380970D01*
X267933151Y-157370480D01*
X267912107Y-157357867D01*
X267892402Y-157343253D01*
X267874223Y-157326777D01*
X267857747Y-157308598D01*
X267843133Y-157288893D01*
X267830520Y-157267849D01*
X267820030Y-157245671D01*
X267811765Y-157222571D01*
X267805804Y-157198773D01*
X267802204Y-157174504D01*
X267801000Y-157150000D01*
X267801000Y-156225000D01*
X267802204Y-156200496D01*
X267805804Y-156176227D01*
X267811765Y-156152429D01*
X267820030Y-156129329D01*
X267830520Y-156107151D01*
X267843133Y-156086107D01*
X267857747Y-156066402D01*
X267874223Y-156048223D01*
X267892402Y-156031747D01*
X267912107Y-156017133D01*
X267933151Y-156004520D01*
X267955329Y-155994030D01*
X267978429Y-155985765D01*
X268002227Y-155979804D01*
X268026496Y-155976204D01*
X268051000Y-155975000D01*
X269301000Y-155975000D01*
X269325504Y-155976204D01*
G37*
G36*
X246050504Y-152176204D02*
G01*
X246074773Y-152179804D01*
X246098571Y-152185765D01*
X246121671Y-152194030D01*
X246143849Y-152204520D01*
X246164893Y-152217133D01*
X246184598Y-152231747D01*
X246202777Y-152248223D01*
X246219253Y-152266402D01*
X246233867Y-152286107D01*
X246246480Y-152307151D01*
X246256970Y-152329329D01*
X246265235Y-152352429D01*
X246271196Y-152376227D01*
X246274796Y-152400496D01*
X246276000Y-152425000D01*
X246276000Y-153350000D01*
X246274796Y-153374504D01*
X246271196Y-153398773D01*
X246265235Y-153422571D01*
X246256970Y-153445671D01*
X246246480Y-153467849D01*
X246233867Y-153488893D01*
X246219253Y-153508598D01*
X246202777Y-153526777D01*
X246184598Y-153543253D01*
X246164893Y-153557867D01*
X246143849Y-153570480D01*
X246121671Y-153580970D01*
X246098571Y-153589235D01*
X246074773Y-153595196D01*
X246050504Y-153598796D01*
X246026000Y-153600000D01*
X244776000Y-153600000D01*
X244751496Y-153598796D01*
X244727227Y-153595196D01*
X244703429Y-153589235D01*
X244680329Y-153580970D01*
X244658151Y-153570480D01*
X244637107Y-153557867D01*
X244617402Y-153543253D01*
X244599223Y-153526777D01*
X244582747Y-153508598D01*
X244568133Y-153488893D01*
X244555520Y-153467849D01*
X244545030Y-153445671D01*
X244536765Y-153422571D01*
X244530804Y-153398773D01*
X244527204Y-153374504D01*
X244526000Y-153350000D01*
X244526000Y-152425000D01*
X244527204Y-152400496D01*
X244530804Y-152376227D01*
X244536765Y-152352429D01*
X244545030Y-152329329D01*
X244555520Y-152307151D01*
X244568133Y-152286107D01*
X244582747Y-152266402D01*
X244599223Y-152248223D01*
X244617402Y-152231747D01*
X244637107Y-152217133D01*
X244658151Y-152204520D01*
X244680329Y-152194030D01*
X244703429Y-152185765D01*
X244727227Y-152179804D01*
X244751496Y-152176204D01*
X244776000Y-152175000D01*
X246026000Y-152175000D01*
X246050504Y-152176204D01*
G37*
G36*
X246050504Y-155151204D02*
G01*
X246074773Y-155154804D01*
X246098571Y-155160765D01*
X246121671Y-155169030D01*
X246143849Y-155179520D01*
X246164893Y-155192133D01*
X246184598Y-155206747D01*
X246202777Y-155223223D01*
X246219253Y-155241402D01*
X246233867Y-155261107D01*
X246246480Y-155282151D01*
X246256970Y-155304329D01*
X246265235Y-155327429D01*
X246271196Y-155351227D01*
X246274796Y-155375496D01*
X246276000Y-155400000D01*
X246276000Y-156325000D01*
X246274796Y-156349504D01*
X246271196Y-156373773D01*
X246265235Y-156397571D01*
X246256970Y-156420671D01*
X246246480Y-156442849D01*
X246233867Y-156463893D01*
X246219253Y-156483598D01*
X246202777Y-156501777D01*
X246184598Y-156518253D01*
X246164893Y-156532867D01*
X246143849Y-156545480D01*
X246121671Y-156555970D01*
X246098571Y-156564235D01*
X246074773Y-156570196D01*
X246050504Y-156573796D01*
X246026000Y-156575000D01*
X244776000Y-156575000D01*
X244751496Y-156573796D01*
X244727227Y-156570196D01*
X244703429Y-156564235D01*
X244680329Y-156555970D01*
X244658151Y-156545480D01*
X244637107Y-156532867D01*
X244617402Y-156518253D01*
X244599223Y-156501777D01*
X244582747Y-156483598D01*
X244568133Y-156463893D01*
X244555520Y-156442849D01*
X244545030Y-156420671D01*
X244536765Y-156397571D01*
X244530804Y-156373773D01*
X244527204Y-156349504D01*
X244526000Y-156325000D01*
X244526000Y-155400000D01*
X244527204Y-155375496D01*
X244530804Y-155351227D01*
X244536765Y-155327429D01*
X244545030Y-155304329D01*
X244555520Y-155282151D01*
X244568133Y-155261107D01*
X244582747Y-155241402D01*
X244599223Y-155223223D01*
X244617402Y-155206747D01*
X244637107Y-155192133D01*
X244658151Y-155179520D01*
X244680329Y-155169030D01*
X244703429Y-155160765D01*
X244727227Y-155154804D01*
X244751496Y-155151204D01*
X244776000Y-155150000D01*
X246026000Y-155150000D01*
X246050504Y-155151204D01*
G37*
G36*
X245825504Y-168626204D02*
G01*
X245849773Y-168629804D01*
X245873571Y-168635765D01*
X245896671Y-168644030D01*
X245918849Y-168654520D01*
X245939893Y-168667133D01*
X245959598Y-168681747D01*
X245977777Y-168698223D01*
X245994253Y-168716402D01*
X246008867Y-168736107D01*
X246021480Y-168757151D01*
X246031970Y-168779329D01*
X246040235Y-168802429D01*
X246046196Y-168826227D01*
X246049796Y-168850496D01*
X246051000Y-168875000D01*
X246051000Y-170125000D01*
X246049796Y-170149504D01*
X246046196Y-170173773D01*
X246040235Y-170197571D01*
X246031970Y-170220671D01*
X246021480Y-170242849D01*
X246008867Y-170263893D01*
X245994253Y-170283598D01*
X245977777Y-170301777D01*
X245959598Y-170318253D01*
X245939893Y-170332867D01*
X245918849Y-170345480D01*
X245896671Y-170355970D01*
X245873571Y-170364235D01*
X245849773Y-170370196D01*
X245825504Y-170373796D01*
X245801000Y-170375000D01*
X244876000Y-170375000D01*
X244851496Y-170373796D01*
X244827227Y-170370196D01*
X244803429Y-170364235D01*
X244780329Y-170355970D01*
X244758151Y-170345480D01*
X244737107Y-170332867D01*
X244717402Y-170318253D01*
X244699223Y-170301777D01*
X244682747Y-170283598D01*
X244668133Y-170263893D01*
X244655520Y-170242849D01*
X244645030Y-170220671D01*
X244636765Y-170197571D01*
X244630804Y-170173773D01*
X244627204Y-170149504D01*
X244626000Y-170125000D01*
X244626000Y-168875000D01*
X244627204Y-168850496D01*
X244630804Y-168826227D01*
X244636765Y-168802429D01*
X244645030Y-168779329D01*
X244655520Y-168757151D01*
X244668133Y-168736107D01*
X244682747Y-168716402D01*
X244699223Y-168698223D01*
X244717402Y-168681747D01*
X244737107Y-168667133D01*
X244758151Y-168654520D01*
X244780329Y-168644030D01*
X244803429Y-168635765D01*
X244827227Y-168629804D01*
X244851496Y-168626204D01*
X244876000Y-168625000D01*
X245801000Y-168625000D01*
X245825504Y-168626204D01*
G37*
G36*
X248800504Y-168626204D02*
G01*
X248824773Y-168629804D01*
X248848571Y-168635765D01*
X248871671Y-168644030D01*
X248893849Y-168654520D01*
X248914893Y-168667133D01*
X248934598Y-168681747D01*
X248952777Y-168698223D01*
X248969253Y-168716402D01*
X248983867Y-168736107D01*
X248996480Y-168757151D01*
X249006970Y-168779329D01*
X249015235Y-168802429D01*
X249021196Y-168826227D01*
X249024796Y-168850496D01*
X249026000Y-168875000D01*
X249026000Y-170125000D01*
X249024796Y-170149504D01*
X249021196Y-170173773D01*
X249015235Y-170197571D01*
X249006970Y-170220671D01*
X248996480Y-170242849D01*
X248983867Y-170263893D01*
X248969253Y-170283598D01*
X248952777Y-170301777D01*
X248934598Y-170318253D01*
X248914893Y-170332867D01*
X248893849Y-170345480D01*
X248871671Y-170355970D01*
X248848571Y-170364235D01*
X248824773Y-170370196D01*
X248800504Y-170373796D01*
X248776000Y-170375000D01*
X247851000Y-170375000D01*
X247826496Y-170373796D01*
X247802227Y-170370196D01*
X247778429Y-170364235D01*
X247755329Y-170355970D01*
X247733151Y-170345480D01*
X247712107Y-170332867D01*
X247692402Y-170318253D01*
X247674223Y-170301777D01*
X247657747Y-170283598D01*
X247643133Y-170263893D01*
X247630520Y-170242849D01*
X247620030Y-170220671D01*
X247611765Y-170197571D01*
X247605804Y-170173773D01*
X247602204Y-170149504D01*
X247601000Y-170125000D01*
X247601000Y-168875000D01*
X247602204Y-168850496D01*
X247605804Y-168826227D01*
X247611765Y-168802429D01*
X247620030Y-168779329D01*
X247630520Y-168757151D01*
X247643133Y-168736107D01*
X247657747Y-168716402D01*
X247674223Y-168698223D01*
X247692402Y-168681747D01*
X247712107Y-168667133D01*
X247733151Y-168654520D01*
X247755329Y-168644030D01*
X247778429Y-168635765D01*
X247802227Y-168629804D01*
X247826496Y-168626204D01*
X247851000Y-168625000D01*
X248776000Y-168625000D01*
X248800504Y-168626204D01*
G37*
D11*
X248051000Y-158591000D03*
X248051000Y-157941000D03*
X248051000Y-157291000D03*
X248051000Y-156641000D03*
X248051000Y-155991000D03*
X248051000Y-155341000D03*
X248051000Y-154691000D03*
X254251000Y-154691000D03*
X254251000Y-155341000D03*
X254251000Y-155991000D03*
X254251000Y-156641000D03*
X254251000Y-157291000D03*
X254251000Y-157941000D03*
X254251000Y-158591000D03*
D12*
X248306000Y-167600000D03*
X248306000Y-166950000D03*
X248306000Y-166300000D03*
X248306000Y-165650000D03*
X248306000Y-165000000D03*
X248306000Y-164350000D03*
X248306000Y-163700000D03*
X248306000Y-163050000D03*
X254046000Y-163050000D03*
X254046000Y-163700000D03*
X254046000Y-164350000D03*
X254046000Y-165000000D03*
X254046000Y-165650000D03*
X254046000Y-166300000D03*
X254046000Y-166950000D03*
X254046000Y-167600000D03*
D13*
X235701000Y-153300000D03*
X235701000Y-154500000D03*
X237901000Y-154500000D03*
X237901000Y-153300000D03*
X263926000Y-153275000D03*
X263926000Y-154475000D03*
X266126000Y-154475000D03*
X266126000Y-153275000D03*
D14*
X248595000Y-75905000D03*
X248595000Y-77805000D03*
X245895000Y-77805000D03*
X245895000Y-76855000D03*
X245895000Y-75905000D03*
D10*
G36*
X238644504Y-106781204D02*
G01*
X238668773Y-106784804D01*
X238692571Y-106790765D01*
X238715671Y-106799030D01*
X238737849Y-106809520D01*
X238758893Y-106822133D01*
X238778598Y-106836747D01*
X238796777Y-106853223D01*
X238813253Y-106871402D01*
X238827867Y-106891107D01*
X238840480Y-106912151D01*
X238850970Y-106934329D01*
X238859235Y-106957429D01*
X238865196Y-106981227D01*
X238868796Y-107005496D01*
X238870000Y-107030000D01*
X238870000Y-108130000D01*
X238868796Y-108154504D01*
X238865196Y-108178773D01*
X238859235Y-108202571D01*
X238850970Y-108225671D01*
X238840480Y-108247849D01*
X238827867Y-108268893D01*
X238813253Y-108288598D01*
X238796777Y-108306777D01*
X238778598Y-108323253D01*
X238758893Y-108337867D01*
X238737849Y-108350480D01*
X238715671Y-108360970D01*
X238692571Y-108369235D01*
X238668773Y-108375196D01*
X238644504Y-108378796D01*
X238620000Y-108380000D01*
X236520000Y-108380000D01*
X236495496Y-108378796D01*
X236471227Y-108375196D01*
X236447429Y-108369235D01*
X236424329Y-108360970D01*
X236402151Y-108350480D01*
X236381107Y-108337867D01*
X236361402Y-108323253D01*
X236343223Y-108306777D01*
X236326747Y-108288598D01*
X236312133Y-108268893D01*
X236299520Y-108247849D01*
X236289030Y-108225671D01*
X236280765Y-108202571D01*
X236274804Y-108178773D01*
X236271204Y-108154504D01*
X236270000Y-108130000D01*
X236270000Y-107030000D01*
X236271204Y-107005496D01*
X236274804Y-106981227D01*
X236280765Y-106957429D01*
X236289030Y-106934329D01*
X236299520Y-106912151D01*
X236312133Y-106891107D01*
X236326747Y-106871402D01*
X236343223Y-106853223D01*
X236361402Y-106836747D01*
X236381107Y-106822133D01*
X236402151Y-106809520D01*
X236424329Y-106799030D01*
X236447429Y-106790765D01*
X236471227Y-106784804D01*
X236495496Y-106781204D01*
X236520000Y-106780000D01*
X238620000Y-106780000D01*
X238644504Y-106781204D01*
G37*
G36*
X242244504Y-106781204D02*
G01*
X242268773Y-106784804D01*
X242292571Y-106790765D01*
X242315671Y-106799030D01*
X242337849Y-106809520D01*
X242358893Y-106822133D01*
X242378598Y-106836747D01*
X242396777Y-106853223D01*
X242413253Y-106871402D01*
X242427867Y-106891107D01*
X242440480Y-106912151D01*
X242450970Y-106934329D01*
X242459235Y-106957429D01*
X242465196Y-106981227D01*
X242468796Y-107005496D01*
X242470000Y-107030000D01*
X242470000Y-108130000D01*
X242468796Y-108154504D01*
X242465196Y-108178773D01*
X242459235Y-108202571D01*
X242450970Y-108225671D01*
X242440480Y-108247849D01*
X242427867Y-108268893D01*
X242413253Y-108288598D01*
X242396777Y-108306777D01*
X242378598Y-108323253D01*
X242358893Y-108337867D01*
X242337849Y-108350480D01*
X242315671Y-108360970D01*
X242292571Y-108369235D01*
X242268773Y-108375196D01*
X242244504Y-108378796D01*
X242220000Y-108380000D01*
X240120000Y-108380000D01*
X240095496Y-108378796D01*
X240071227Y-108375196D01*
X240047429Y-108369235D01*
X240024329Y-108360970D01*
X240002151Y-108350480D01*
X239981107Y-108337867D01*
X239961402Y-108323253D01*
X239943223Y-108306777D01*
X239926747Y-108288598D01*
X239912133Y-108268893D01*
X239899520Y-108247849D01*
X239889030Y-108225671D01*
X239880765Y-108202571D01*
X239874804Y-108178773D01*
X239871204Y-108154504D01*
X239870000Y-108130000D01*
X239870000Y-107030000D01*
X239871204Y-107005496D01*
X239874804Y-106981227D01*
X239880765Y-106957429D01*
X239889030Y-106934329D01*
X239899520Y-106912151D01*
X239912133Y-106891107D01*
X239926747Y-106871402D01*
X239943223Y-106853223D01*
X239961402Y-106836747D01*
X239981107Y-106822133D01*
X240002151Y-106809520D01*
X240024329Y-106799030D01*
X240047429Y-106790765D01*
X240071227Y-106784804D01*
X240095496Y-106781204D01*
X240120000Y-106780000D01*
X242220000Y-106780000D01*
X242244504Y-106781204D01*
G37*
G36*
X263669504Y-73931204D02*
G01*
X263693773Y-73934804D01*
X263717571Y-73940765D01*
X263740671Y-73949030D01*
X263762849Y-73959520D01*
X263783893Y-73972133D01*
X263803598Y-73986747D01*
X263821777Y-74003223D01*
X263838253Y-74021402D01*
X263852867Y-74041107D01*
X263865480Y-74062151D01*
X263875970Y-74084329D01*
X263884235Y-74107429D01*
X263890196Y-74131227D01*
X263893796Y-74155496D01*
X263895000Y-74180000D01*
X263895000Y-77180000D01*
X263893796Y-77204504D01*
X263890196Y-77228773D01*
X263884235Y-77252571D01*
X263875970Y-77275671D01*
X263865480Y-77297849D01*
X263852867Y-77318893D01*
X263838253Y-77338598D01*
X263821777Y-77356777D01*
X263803598Y-77373253D01*
X263783893Y-77387867D01*
X263762849Y-77400480D01*
X263740671Y-77410970D01*
X263717571Y-77419235D01*
X263693773Y-77425196D01*
X263669504Y-77428796D01*
X263645000Y-77430000D01*
X262545000Y-77430000D01*
X262520496Y-77428796D01*
X262496227Y-77425196D01*
X262472429Y-77419235D01*
X262449329Y-77410970D01*
X262427151Y-77400480D01*
X262406107Y-77387867D01*
X262386402Y-77373253D01*
X262368223Y-77356777D01*
X262351747Y-77338598D01*
X262337133Y-77318893D01*
X262324520Y-77297849D01*
X262314030Y-77275671D01*
X262305765Y-77252571D01*
X262299804Y-77228773D01*
X262296204Y-77204504D01*
X262295000Y-77180000D01*
X262295000Y-74180000D01*
X262296204Y-74155496D01*
X262299804Y-74131227D01*
X262305765Y-74107429D01*
X262314030Y-74084329D01*
X262324520Y-74062151D01*
X262337133Y-74041107D01*
X262351747Y-74021402D01*
X262368223Y-74003223D01*
X262386402Y-73986747D01*
X262406107Y-73972133D01*
X262427151Y-73959520D01*
X262449329Y-73949030D01*
X262472429Y-73940765D01*
X262496227Y-73934804D01*
X262520496Y-73931204D01*
X262545000Y-73930000D01*
X263645000Y-73930000D01*
X263669504Y-73931204D01*
G37*
G36*
X263669504Y-68531204D02*
G01*
X263693773Y-68534804D01*
X263717571Y-68540765D01*
X263740671Y-68549030D01*
X263762849Y-68559520D01*
X263783893Y-68572133D01*
X263803598Y-68586747D01*
X263821777Y-68603223D01*
X263838253Y-68621402D01*
X263852867Y-68641107D01*
X263865480Y-68662151D01*
X263875970Y-68684329D01*
X263884235Y-68707429D01*
X263890196Y-68731227D01*
X263893796Y-68755496D01*
X263895000Y-68780000D01*
X263895000Y-71780000D01*
X263893796Y-71804504D01*
X263890196Y-71828773D01*
X263884235Y-71852571D01*
X263875970Y-71875671D01*
X263865480Y-71897849D01*
X263852867Y-71918893D01*
X263838253Y-71938598D01*
X263821777Y-71956777D01*
X263803598Y-71973253D01*
X263783893Y-71987867D01*
X263762849Y-72000480D01*
X263740671Y-72010970D01*
X263717571Y-72019235D01*
X263693773Y-72025196D01*
X263669504Y-72028796D01*
X263645000Y-72030000D01*
X262545000Y-72030000D01*
X262520496Y-72028796D01*
X262496227Y-72025196D01*
X262472429Y-72019235D01*
X262449329Y-72010970D01*
X262427151Y-72000480D01*
X262406107Y-71987867D01*
X262386402Y-71973253D01*
X262368223Y-71956777D01*
X262351747Y-71938598D01*
X262337133Y-71918893D01*
X262324520Y-71897849D01*
X262314030Y-71875671D01*
X262305765Y-71852571D01*
X262299804Y-71828773D01*
X262296204Y-71804504D01*
X262295000Y-71780000D01*
X262295000Y-68780000D01*
X262296204Y-68755496D01*
X262299804Y-68731227D01*
X262305765Y-68707429D01*
X262314030Y-68684329D01*
X262324520Y-68662151D01*
X262337133Y-68641107D01*
X262351747Y-68621402D01*
X262368223Y-68603223D01*
X262386402Y-68586747D01*
X262406107Y-68572133D01*
X262427151Y-68559520D01*
X262449329Y-68549030D01*
X262472429Y-68540765D01*
X262496227Y-68534804D01*
X262520496Y-68531204D01*
X262545000Y-68530000D01*
X263645000Y-68530000D01*
X263669504Y-68531204D01*
G37*
D15*
X232955000Y-100980000D03*
D16*
X237735000Y-100980000D03*
D10*
G36*
X234669504Y-106831204D02*
G01*
X234693773Y-106834804D01*
X234717571Y-106840765D01*
X234740671Y-106849030D01*
X234762849Y-106859520D01*
X234783893Y-106872133D01*
X234803598Y-106886747D01*
X234821777Y-106903223D01*
X234838253Y-106921402D01*
X234852867Y-106941107D01*
X234865480Y-106962151D01*
X234875970Y-106984329D01*
X234884235Y-107007429D01*
X234890196Y-107031227D01*
X234893796Y-107055496D01*
X234895000Y-107080000D01*
X234895000Y-108180000D01*
X234893796Y-108204504D01*
X234890196Y-108228773D01*
X234884235Y-108252571D01*
X234875970Y-108275671D01*
X234865480Y-108297849D01*
X234852867Y-108318893D01*
X234838253Y-108338598D01*
X234821777Y-108356777D01*
X234803598Y-108373253D01*
X234783893Y-108387867D01*
X234762849Y-108400480D01*
X234740671Y-108410970D01*
X234717571Y-108419235D01*
X234693773Y-108425196D01*
X234669504Y-108428796D01*
X234645000Y-108430000D01*
X232545000Y-108430000D01*
X232520496Y-108428796D01*
X232496227Y-108425196D01*
X232472429Y-108419235D01*
X232449329Y-108410970D01*
X232427151Y-108400480D01*
X232406107Y-108387867D01*
X232386402Y-108373253D01*
X232368223Y-108356777D01*
X232351747Y-108338598D01*
X232337133Y-108318893D01*
X232324520Y-108297849D01*
X232314030Y-108275671D01*
X232305765Y-108252571D01*
X232299804Y-108228773D01*
X232296204Y-108204504D01*
X232295000Y-108180000D01*
X232295000Y-107080000D01*
X232296204Y-107055496D01*
X232299804Y-107031227D01*
X232305765Y-107007429D01*
X232314030Y-106984329D01*
X232324520Y-106962151D01*
X232337133Y-106941107D01*
X232351747Y-106921402D01*
X232368223Y-106903223D01*
X232386402Y-106886747D01*
X232406107Y-106872133D01*
X232427151Y-106859520D01*
X232449329Y-106849030D01*
X232472429Y-106840765D01*
X232496227Y-106834804D01*
X232520496Y-106831204D01*
X232545000Y-106830000D01*
X234645000Y-106830000D01*
X234669504Y-106831204D01*
G37*
G36*
X231069504Y-106831204D02*
G01*
X231093773Y-106834804D01*
X231117571Y-106840765D01*
X231140671Y-106849030D01*
X231162849Y-106859520D01*
X231183893Y-106872133D01*
X231203598Y-106886747D01*
X231221777Y-106903223D01*
X231238253Y-106921402D01*
X231252867Y-106941107D01*
X231265480Y-106962151D01*
X231275970Y-106984329D01*
X231284235Y-107007429D01*
X231290196Y-107031227D01*
X231293796Y-107055496D01*
X231295000Y-107080000D01*
X231295000Y-108180000D01*
X231293796Y-108204504D01*
X231290196Y-108228773D01*
X231284235Y-108252571D01*
X231275970Y-108275671D01*
X231265480Y-108297849D01*
X231252867Y-108318893D01*
X231238253Y-108338598D01*
X231221777Y-108356777D01*
X231203598Y-108373253D01*
X231183893Y-108387867D01*
X231162849Y-108400480D01*
X231140671Y-108410970D01*
X231117571Y-108419235D01*
X231093773Y-108425196D01*
X231069504Y-108428796D01*
X231045000Y-108430000D01*
X228945000Y-108430000D01*
X228920496Y-108428796D01*
X228896227Y-108425196D01*
X228872429Y-108419235D01*
X228849329Y-108410970D01*
X228827151Y-108400480D01*
X228806107Y-108387867D01*
X228786402Y-108373253D01*
X228768223Y-108356777D01*
X228751747Y-108338598D01*
X228737133Y-108318893D01*
X228724520Y-108297849D01*
X228714030Y-108275671D01*
X228705765Y-108252571D01*
X228699804Y-108228773D01*
X228696204Y-108204504D01*
X228695000Y-108180000D01*
X228695000Y-107080000D01*
X228696204Y-107055496D01*
X228699804Y-107031227D01*
X228705765Y-107007429D01*
X228714030Y-106984329D01*
X228724520Y-106962151D01*
X228737133Y-106941107D01*
X228751747Y-106921402D01*
X228768223Y-106903223D01*
X228786402Y-106886747D01*
X228806107Y-106872133D01*
X228827151Y-106859520D01*
X228849329Y-106849030D01*
X228872429Y-106840765D01*
X228896227Y-106834804D01*
X228920496Y-106831204D01*
X228945000Y-106830000D01*
X231045000Y-106830000D01*
X231069504Y-106831204D01*
G37*
D15*
X250780000Y-71130000D03*
D16*
X255560000Y-71130000D03*
D10*
G36*
X252969504Y-105281204D02*
G01*
X252993773Y-105284804D01*
X253017571Y-105290765D01*
X253040671Y-105299030D01*
X253062849Y-105309520D01*
X253083893Y-105322133D01*
X253103598Y-105336747D01*
X253121777Y-105353223D01*
X253138253Y-105371402D01*
X253152867Y-105391107D01*
X253165480Y-105412151D01*
X253175970Y-105434329D01*
X253184235Y-105457429D01*
X253190196Y-105481227D01*
X253193796Y-105505496D01*
X253195000Y-105530000D01*
X253195000Y-106455000D01*
X253193796Y-106479504D01*
X253190196Y-106503773D01*
X253184235Y-106527571D01*
X253175970Y-106550671D01*
X253165480Y-106572849D01*
X253152867Y-106593893D01*
X253138253Y-106613598D01*
X253121777Y-106631777D01*
X253103598Y-106648253D01*
X253083893Y-106662867D01*
X253062849Y-106675480D01*
X253040671Y-106685970D01*
X253017571Y-106694235D01*
X252993773Y-106700196D01*
X252969504Y-106703796D01*
X252945000Y-106705000D01*
X251695000Y-106705000D01*
X251670496Y-106703796D01*
X251646227Y-106700196D01*
X251622429Y-106694235D01*
X251599329Y-106685970D01*
X251577151Y-106675480D01*
X251556107Y-106662867D01*
X251536402Y-106648253D01*
X251518223Y-106631777D01*
X251501747Y-106613598D01*
X251487133Y-106593893D01*
X251474520Y-106572849D01*
X251464030Y-106550671D01*
X251455765Y-106527571D01*
X251449804Y-106503773D01*
X251446204Y-106479504D01*
X251445000Y-106455000D01*
X251445000Y-105530000D01*
X251446204Y-105505496D01*
X251449804Y-105481227D01*
X251455765Y-105457429D01*
X251464030Y-105434329D01*
X251474520Y-105412151D01*
X251487133Y-105391107D01*
X251501747Y-105371402D01*
X251518223Y-105353223D01*
X251536402Y-105336747D01*
X251556107Y-105322133D01*
X251577151Y-105309520D01*
X251599329Y-105299030D01*
X251622429Y-105290765D01*
X251646227Y-105284804D01*
X251670496Y-105281204D01*
X251695000Y-105280000D01*
X252945000Y-105280000D01*
X252969504Y-105281204D01*
G37*
G36*
X252969504Y-102306204D02*
G01*
X252993773Y-102309804D01*
X253017571Y-102315765D01*
X253040671Y-102324030D01*
X253062849Y-102334520D01*
X253083893Y-102347133D01*
X253103598Y-102361747D01*
X253121777Y-102378223D01*
X253138253Y-102396402D01*
X253152867Y-102416107D01*
X253165480Y-102437151D01*
X253175970Y-102459329D01*
X253184235Y-102482429D01*
X253190196Y-102506227D01*
X253193796Y-102530496D01*
X253195000Y-102555000D01*
X253195000Y-103480000D01*
X253193796Y-103504504D01*
X253190196Y-103528773D01*
X253184235Y-103552571D01*
X253175970Y-103575671D01*
X253165480Y-103597849D01*
X253152867Y-103618893D01*
X253138253Y-103638598D01*
X253121777Y-103656777D01*
X253103598Y-103673253D01*
X253083893Y-103687867D01*
X253062849Y-103700480D01*
X253040671Y-103710970D01*
X253017571Y-103719235D01*
X252993773Y-103725196D01*
X252969504Y-103728796D01*
X252945000Y-103730000D01*
X251695000Y-103730000D01*
X251670496Y-103728796D01*
X251646227Y-103725196D01*
X251622429Y-103719235D01*
X251599329Y-103710970D01*
X251577151Y-103700480D01*
X251556107Y-103687867D01*
X251536402Y-103673253D01*
X251518223Y-103656777D01*
X251501747Y-103638598D01*
X251487133Y-103618893D01*
X251474520Y-103597849D01*
X251464030Y-103575671D01*
X251455765Y-103552571D01*
X251449804Y-103528773D01*
X251446204Y-103504504D01*
X251445000Y-103480000D01*
X251445000Y-102555000D01*
X251446204Y-102530496D01*
X251449804Y-102506227D01*
X251455765Y-102482429D01*
X251464030Y-102459329D01*
X251474520Y-102437151D01*
X251487133Y-102416107D01*
X251501747Y-102396402D01*
X251518223Y-102378223D01*
X251536402Y-102361747D01*
X251556107Y-102347133D01*
X251577151Y-102334520D01*
X251599329Y-102324030D01*
X251622429Y-102315765D01*
X251646227Y-102309804D01*
X251670496Y-102306204D01*
X251695000Y-102305000D01*
X252945000Y-102305000D01*
X252969504Y-102306204D01*
G37*
G36*
X243379504Y-72781204D02*
G01*
X243403773Y-72784804D01*
X243427571Y-72790765D01*
X243450671Y-72799030D01*
X243472849Y-72809520D01*
X243493893Y-72822133D01*
X243513598Y-72836747D01*
X243531777Y-72853223D01*
X243548253Y-72871402D01*
X243562867Y-72891107D01*
X243575480Y-72912151D01*
X243585970Y-72934329D01*
X243594235Y-72957429D01*
X243600196Y-72981227D01*
X243603796Y-73005496D01*
X243605000Y-73030000D01*
X243605000Y-74280000D01*
X243603796Y-74304504D01*
X243600196Y-74328773D01*
X243594235Y-74352571D01*
X243585970Y-74375671D01*
X243575480Y-74397849D01*
X243562867Y-74418893D01*
X243548253Y-74438598D01*
X243531777Y-74456777D01*
X243513598Y-74473253D01*
X243493893Y-74487867D01*
X243472849Y-74500480D01*
X243450671Y-74510970D01*
X243427571Y-74519235D01*
X243403773Y-74525196D01*
X243379504Y-74528796D01*
X243355000Y-74530000D01*
X242430000Y-74530000D01*
X242405496Y-74528796D01*
X242381227Y-74525196D01*
X242357429Y-74519235D01*
X242334329Y-74510970D01*
X242312151Y-74500480D01*
X242291107Y-74487867D01*
X242271402Y-74473253D01*
X242253223Y-74456777D01*
X242236747Y-74438598D01*
X242222133Y-74418893D01*
X242209520Y-74397849D01*
X242199030Y-74375671D01*
X242190765Y-74352571D01*
X242184804Y-74328773D01*
X242181204Y-74304504D01*
X242180000Y-74280000D01*
X242180000Y-73030000D01*
X242181204Y-73005496D01*
X242184804Y-72981227D01*
X242190765Y-72957429D01*
X242199030Y-72934329D01*
X242209520Y-72912151D01*
X242222133Y-72891107D01*
X242236747Y-72871402D01*
X242253223Y-72853223D01*
X242271402Y-72836747D01*
X242291107Y-72822133D01*
X242312151Y-72809520D01*
X242334329Y-72799030D01*
X242357429Y-72790765D01*
X242381227Y-72784804D01*
X242405496Y-72781204D01*
X242430000Y-72780000D01*
X243355000Y-72780000D01*
X243379504Y-72781204D01*
G37*
G36*
X246354504Y-72781204D02*
G01*
X246378773Y-72784804D01*
X246402571Y-72790765D01*
X246425671Y-72799030D01*
X246447849Y-72809520D01*
X246468893Y-72822133D01*
X246488598Y-72836747D01*
X246506777Y-72853223D01*
X246523253Y-72871402D01*
X246537867Y-72891107D01*
X246550480Y-72912151D01*
X246560970Y-72934329D01*
X246569235Y-72957429D01*
X246575196Y-72981227D01*
X246578796Y-73005496D01*
X246580000Y-73030000D01*
X246580000Y-74280000D01*
X246578796Y-74304504D01*
X246575196Y-74328773D01*
X246569235Y-74352571D01*
X246560970Y-74375671D01*
X246550480Y-74397849D01*
X246537867Y-74418893D01*
X246523253Y-74438598D01*
X246506777Y-74456777D01*
X246488598Y-74473253D01*
X246468893Y-74487867D01*
X246447849Y-74500480D01*
X246425671Y-74510970D01*
X246402571Y-74519235D01*
X246378773Y-74525196D01*
X246354504Y-74528796D01*
X246330000Y-74530000D01*
X245405000Y-74530000D01*
X245380496Y-74528796D01*
X245356227Y-74525196D01*
X245332429Y-74519235D01*
X245309329Y-74510970D01*
X245287151Y-74500480D01*
X245266107Y-74487867D01*
X245246402Y-74473253D01*
X245228223Y-74456777D01*
X245211747Y-74438598D01*
X245197133Y-74418893D01*
X245184520Y-74397849D01*
X245174030Y-74375671D01*
X245165765Y-74352571D01*
X245159804Y-74328773D01*
X245156204Y-74304504D01*
X245155000Y-74280000D01*
X245155000Y-73030000D01*
X245156204Y-73005496D01*
X245159804Y-72981227D01*
X245165765Y-72957429D01*
X245174030Y-72934329D01*
X245184520Y-72912151D01*
X245197133Y-72891107D01*
X245211747Y-72871402D01*
X245228223Y-72853223D01*
X245246402Y-72836747D01*
X245266107Y-72822133D01*
X245287151Y-72809520D01*
X245309329Y-72799030D01*
X245332429Y-72790765D01*
X245356227Y-72784804D01*
X245380496Y-72781204D01*
X245405000Y-72780000D01*
X246330000Y-72780000D01*
X246354504Y-72781204D01*
G37*
G36*
X254244504Y-74881204D02*
G01*
X254268773Y-74884804D01*
X254292571Y-74890765D01*
X254315671Y-74899030D01*
X254337849Y-74909520D01*
X254358893Y-74922133D01*
X254378598Y-74936747D01*
X254396777Y-74953223D01*
X254413253Y-74971402D01*
X254427867Y-74991107D01*
X254440480Y-75012151D01*
X254450970Y-75034329D01*
X254459235Y-75057429D01*
X254465196Y-75081227D01*
X254468796Y-75105496D01*
X254470000Y-75130000D01*
X254470000Y-76055000D01*
X254468796Y-76079504D01*
X254465196Y-76103773D01*
X254459235Y-76127571D01*
X254450970Y-76150671D01*
X254440480Y-76172849D01*
X254427867Y-76193893D01*
X254413253Y-76213598D01*
X254396777Y-76231777D01*
X254378598Y-76248253D01*
X254358893Y-76262867D01*
X254337849Y-76275480D01*
X254315671Y-76285970D01*
X254292571Y-76294235D01*
X254268773Y-76300196D01*
X254244504Y-76303796D01*
X254220000Y-76305000D01*
X252970000Y-76305000D01*
X252945496Y-76303796D01*
X252921227Y-76300196D01*
X252897429Y-76294235D01*
X252874329Y-76285970D01*
X252852151Y-76275480D01*
X252831107Y-76262867D01*
X252811402Y-76248253D01*
X252793223Y-76231777D01*
X252776747Y-76213598D01*
X252762133Y-76193893D01*
X252749520Y-76172849D01*
X252739030Y-76150671D01*
X252730765Y-76127571D01*
X252724804Y-76103773D01*
X252721204Y-76079504D01*
X252720000Y-76055000D01*
X252720000Y-75130000D01*
X252721204Y-75105496D01*
X252724804Y-75081227D01*
X252730765Y-75057429D01*
X252739030Y-75034329D01*
X252749520Y-75012151D01*
X252762133Y-74991107D01*
X252776747Y-74971402D01*
X252793223Y-74953223D01*
X252811402Y-74936747D01*
X252831107Y-74922133D01*
X252852151Y-74909520D01*
X252874329Y-74899030D01*
X252897429Y-74890765D01*
X252921227Y-74884804D01*
X252945496Y-74881204D01*
X252970000Y-74880000D01*
X254220000Y-74880000D01*
X254244504Y-74881204D01*
G37*
G36*
X254244504Y-77856204D02*
G01*
X254268773Y-77859804D01*
X254292571Y-77865765D01*
X254315671Y-77874030D01*
X254337849Y-77884520D01*
X254358893Y-77897133D01*
X254378598Y-77911747D01*
X254396777Y-77928223D01*
X254413253Y-77946402D01*
X254427867Y-77966107D01*
X254440480Y-77987151D01*
X254450970Y-78009329D01*
X254459235Y-78032429D01*
X254465196Y-78056227D01*
X254468796Y-78080496D01*
X254470000Y-78105000D01*
X254470000Y-79030000D01*
X254468796Y-79054504D01*
X254465196Y-79078773D01*
X254459235Y-79102571D01*
X254450970Y-79125671D01*
X254440480Y-79147849D01*
X254427867Y-79168893D01*
X254413253Y-79188598D01*
X254396777Y-79206777D01*
X254378598Y-79223253D01*
X254358893Y-79237867D01*
X254337849Y-79250480D01*
X254315671Y-79260970D01*
X254292571Y-79269235D01*
X254268773Y-79275196D01*
X254244504Y-79278796D01*
X254220000Y-79280000D01*
X252970000Y-79280000D01*
X252945496Y-79278796D01*
X252921227Y-79275196D01*
X252897429Y-79269235D01*
X252874329Y-79260970D01*
X252852151Y-79250480D01*
X252831107Y-79237867D01*
X252811402Y-79223253D01*
X252793223Y-79206777D01*
X252776747Y-79188598D01*
X252762133Y-79168893D01*
X252749520Y-79147849D01*
X252739030Y-79125671D01*
X252730765Y-79102571D01*
X252724804Y-79078773D01*
X252721204Y-79054504D01*
X252720000Y-79030000D01*
X252720000Y-78105000D01*
X252721204Y-78080496D01*
X252724804Y-78056227D01*
X252730765Y-78032429D01*
X252739030Y-78009329D01*
X252749520Y-77987151D01*
X252762133Y-77966107D01*
X252776747Y-77946402D01*
X252793223Y-77928223D01*
X252811402Y-77911747D01*
X252831107Y-77897133D01*
X252852151Y-77884520D01*
X252874329Y-77874030D01*
X252897429Y-77865765D01*
X252921227Y-77859804D01*
X252945496Y-77856204D01*
X252970000Y-77855000D01*
X254220000Y-77855000D01*
X254244504Y-77856204D01*
G37*
D17*
X246870000Y-83360000D03*
X247520000Y-83360000D03*
X248170000Y-83360000D03*
X248820000Y-83360000D03*
X249470000Y-83360000D03*
X250120000Y-83360000D03*
X250770000Y-83360000D03*
X251420000Y-83360000D03*
X251420000Y-89100000D03*
X250770000Y-89100000D03*
X250120000Y-89100000D03*
X249470000Y-89100000D03*
X248820000Y-89100000D03*
X248170000Y-89100000D03*
X247520000Y-89100000D03*
X246870000Y-89100000D03*
D14*
X128889000Y-116044000D03*
X128889000Y-114144000D03*
X131589000Y-114144000D03*
X131589000Y-115094000D03*
X131589000Y-116044000D03*
D10*
G36*
X98138504Y-57445204D02*
G01*
X98162773Y-57448804D01*
X98186571Y-57454765D01*
X98209671Y-57463030D01*
X98231849Y-57473520D01*
X98252893Y-57486133D01*
X98272598Y-57500747D01*
X98290777Y-57517223D01*
X98307253Y-57535402D01*
X98321867Y-57555107D01*
X98334480Y-57576151D01*
X98344970Y-57598329D01*
X98353235Y-57621429D01*
X98359196Y-57645227D01*
X98362796Y-57669496D01*
X98364000Y-57694000D01*
X98364000Y-59794000D01*
X98362796Y-59818504D01*
X98359196Y-59842773D01*
X98353235Y-59866571D01*
X98344970Y-59889671D01*
X98334480Y-59911849D01*
X98321867Y-59932893D01*
X98307253Y-59952598D01*
X98290777Y-59970777D01*
X98272598Y-59987253D01*
X98252893Y-60001867D01*
X98231849Y-60014480D01*
X98209671Y-60024970D01*
X98186571Y-60033235D01*
X98162773Y-60039196D01*
X98138504Y-60042796D01*
X98114000Y-60044000D01*
X97014000Y-60044000D01*
X96989496Y-60042796D01*
X96965227Y-60039196D01*
X96941429Y-60033235D01*
X96918329Y-60024970D01*
X96896151Y-60014480D01*
X96875107Y-60001867D01*
X96855402Y-59987253D01*
X96837223Y-59970777D01*
X96820747Y-59952598D01*
X96806133Y-59932893D01*
X96793520Y-59911849D01*
X96783030Y-59889671D01*
X96774765Y-59866571D01*
X96768804Y-59842773D01*
X96765204Y-59818504D01*
X96764000Y-59794000D01*
X96764000Y-57694000D01*
X96765204Y-57669496D01*
X96768804Y-57645227D01*
X96774765Y-57621429D01*
X96783030Y-57598329D01*
X96793520Y-57576151D01*
X96806133Y-57555107D01*
X96820747Y-57535402D01*
X96837223Y-57517223D01*
X96855402Y-57500747D01*
X96875107Y-57486133D01*
X96896151Y-57473520D01*
X96918329Y-57463030D01*
X96941429Y-57454765D01*
X96965227Y-57448804D01*
X96989496Y-57445204D01*
X97014000Y-57444000D01*
X98114000Y-57444000D01*
X98138504Y-57445204D01*
G37*
G36*
X98138504Y-61045204D02*
G01*
X98162773Y-61048804D01*
X98186571Y-61054765D01*
X98209671Y-61063030D01*
X98231849Y-61073520D01*
X98252893Y-61086133D01*
X98272598Y-61100747D01*
X98290777Y-61117223D01*
X98307253Y-61135402D01*
X98321867Y-61155107D01*
X98334480Y-61176151D01*
X98344970Y-61198329D01*
X98353235Y-61221429D01*
X98359196Y-61245227D01*
X98362796Y-61269496D01*
X98364000Y-61294000D01*
X98364000Y-63394000D01*
X98362796Y-63418504D01*
X98359196Y-63442773D01*
X98353235Y-63466571D01*
X98344970Y-63489671D01*
X98334480Y-63511849D01*
X98321867Y-63532893D01*
X98307253Y-63552598D01*
X98290777Y-63570777D01*
X98272598Y-63587253D01*
X98252893Y-63601867D01*
X98231849Y-63614480D01*
X98209671Y-63624970D01*
X98186571Y-63633235D01*
X98162773Y-63639196D01*
X98138504Y-63642796D01*
X98114000Y-63644000D01*
X97014000Y-63644000D01*
X96989496Y-63642796D01*
X96965227Y-63639196D01*
X96941429Y-63633235D01*
X96918329Y-63624970D01*
X96896151Y-63614480D01*
X96875107Y-63601867D01*
X96855402Y-63587253D01*
X96837223Y-63570777D01*
X96820747Y-63552598D01*
X96806133Y-63532893D01*
X96793520Y-63511849D01*
X96783030Y-63489671D01*
X96774765Y-63466571D01*
X96768804Y-63442773D01*
X96765204Y-63418504D01*
X96764000Y-63394000D01*
X96764000Y-61294000D01*
X96765204Y-61269496D01*
X96768804Y-61245227D01*
X96774765Y-61221429D01*
X96783030Y-61198329D01*
X96793520Y-61176151D01*
X96806133Y-61155107D01*
X96820747Y-61135402D01*
X96837223Y-61117223D01*
X96855402Y-61100747D01*
X96875107Y-61086133D01*
X96896151Y-61073520D01*
X96918329Y-61063030D01*
X96941429Y-61054765D01*
X96965227Y-61048804D01*
X96989496Y-61045204D01*
X97014000Y-61044000D01*
X98114000Y-61044000D01*
X98138504Y-61045204D01*
G37*
G36*
X75363504Y-59570204D02*
G01*
X75387773Y-59573804D01*
X75411571Y-59579765D01*
X75434671Y-59588030D01*
X75456849Y-59598520D01*
X75477893Y-59611133D01*
X75497598Y-59625747D01*
X75515777Y-59642223D01*
X75532253Y-59660402D01*
X75546867Y-59680107D01*
X75559480Y-59701151D01*
X75569970Y-59723329D01*
X75578235Y-59746429D01*
X75584196Y-59770227D01*
X75587796Y-59794496D01*
X75589000Y-59819000D01*
X75589000Y-61919000D01*
X75587796Y-61943504D01*
X75584196Y-61967773D01*
X75578235Y-61991571D01*
X75569970Y-62014671D01*
X75559480Y-62036849D01*
X75546867Y-62057893D01*
X75532253Y-62077598D01*
X75515777Y-62095777D01*
X75497598Y-62112253D01*
X75477893Y-62126867D01*
X75456849Y-62139480D01*
X75434671Y-62149970D01*
X75411571Y-62158235D01*
X75387773Y-62164196D01*
X75363504Y-62167796D01*
X75339000Y-62169000D01*
X74239000Y-62169000D01*
X74214496Y-62167796D01*
X74190227Y-62164196D01*
X74166429Y-62158235D01*
X74143329Y-62149970D01*
X74121151Y-62139480D01*
X74100107Y-62126867D01*
X74080402Y-62112253D01*
X74062223Y-62095777D01*
X74045747Y-62077598D01*
X74031133Y-62057893D01*
X74018520Y-62036849D01*
X74008030Y-62014671D01*
X73999765Y-61991571D01*
X73993804Y-61967773D01*
X73990204Y-61943504D01*
X73989000Y-61919000D01*
X73989000Y-59819000D01*
X73990204Y-59794496D01*
X73993804Y-59770227D01*
X73999765Y-59746429D01*
X74008030Y-59723329D01*
X74018520Y-59701151D01*
X74031133Y-59680107D01*
X74045747Y-59660402D01*
X74062223Y-59642223D01*
X74080402Y-59625747D01*
X74100107Y-59611133D01*
X74121151Y-59598520D01*
X74143329Y-59588030D01*
X74166429Y-59579765D01*
X74190227Y-59573804D01*
X74214496Y-59570204D01*
X74239000Y-59569000D01*
X75339000Y-59569000D01*
X75363504Y-59570204D01*
G37*
G36*
X75363504Y-55970204D02*
G01*
X75387773Y-55973804D01*
X75411571Y-55979765D01*
X75434671Y-55988030D01*
X75456849Y-55998520D01*
X75477893Y-56011133D01*
X75497598Y-56025747D01*
X75515777Y-56042223D01*
X75532253Y-56060402D01*
X75546867Y-56080107D01*
X75559480Y-56101151D01*
X75569970Y-56123329D01*
X75578235Y-56146429D01*
X75584196Y-56170227D01*
X75587796Y-56194496D01*
X75589000Y-56219000D01*
X75589000Y-58319000D01*
X75587796Y-58343504D01*
X75584196Y-58367773D01*
X75578235Y-58391571D01*
X75569970Y-58414671D01*
X75559480Y-58436849D01*
X75546867Y-58457893D01*
X75532253Y-58477598D01*
X75515777Y-58495777D01*
X75497598Y-58512253D01*
X75477893Y-58526867D01*
X75456849Y-58539480D01*
X75434671Y-58549970D01*
X75411571Y-58558235D01*
X75387773Y-58564196D01*
X75363504Y-58567796D01*
X75339000Y-58569000D01*
X74239000Y-58569000D01*
X74214496Y-58567796D01*
X74190227Y-58564196D01*
X74166429Y-58558235D01*
X74143329Y-58549970D01*
X74121151Y-58539480D01*
X74100107Y-58526867D01*
X74080402Y-58512253D01*
X74062223Y-58495777D01*
X74045747Y-58477598D01*
X74031133Y-58457893D01*
X74018520Y-58436849D01*
X74008030Y-58414671D01*
X73999765Y-58391571D01*
X73993804Y-58367773D01*
X73990204Y-58343504D01*
X73989000Y-58319000D01*
X73989000Y-56219000D01*
X73990204Y-56194496D01*
X73993804Y-56170227D01*
X73999765Y-56146429D01*
X74008030Y-56123329D01*
X74018520Y-56101151D01*
X74031133Y-56080107D01*
X74045747Y-56060402D01*
X74062223Y-56042223D01*
X74080402Y-56025747D01*
X74100107Y-56011133D01*
X74121151Y-55998520D01*
X74143329Y-55988030D01*
X74166429Y-55979765D01*
X74190227Y-55973804D01*
X74214496Y-55970204D01*
X74239000Y-55969000D01*
X75339000Y-55969000D01*
X75363504Y-55970204D01*
G37*
G36*
X107513504Y-118095204D02*
G01*
X107537773Y-118098804D01*
X107561571Y-118104765D01*
X107584671Y-118113030D01*
X107606849Y-118123520D01*
X107627893Y-118136133D01*
X107647598Y-118150747D01*
X107665777Y-118167223D01*
X107682253Y-118185402D01*
X107696867Y-118205107D01*
X107709480Y-118226151D01*
X107719970Y-118248329D01*
X107728235Y-118271429D01*
X107734196Y-118295227D01*
X107737796Y-118319496D01*
X107739000Y-118344000D01*
X107739000Y-119444000D01*
X107737796Y-119468504D01*
X107734196Y-119492773D01*
X107728235Y-119516571D01*
X107719970Y-119539671D01*
X107709480Y-119561849D01*
X107696867Y-119582893D01*
X107682253Y-119602598D01*
X107665777Y-119620777D01*
X107647598Y-119637253D01*
X107627893Y-119651867D01*
X107606849Y-119664480D01*
X107584671Y-119674970D01*
X107561571Y-119683235D01*
X107537773Y-119689196D01*
X107513504Y-119692796D01*
X107489000Y-119694000D01*
X104489000Y-119694000D01*
X104464496Y-119692796D01*
X104440227Y-119689196D01*
X104416429Y-119683235D01*
X104393329Y-119674970D01*
X104371151Y-119664480D01*
X104350107Y-119651867D01*
X104330402Y-119637253D01*
X104312223Y-119620777D01*
X104295747Y-119602598D01*
X104281133Y-119582893D01*
X104268520Y-119561849D01*
X104258030Y-119539671D01*
X104249765Y-119516571D01*
X104243804Y-119492773D01*
X104240204Y-119468504D01*
X104239000Y-119444000D01*
X104239000Y-118344000D01*
X104240204Y-118319496D01*
X104243804Y-118295227D01*
X104249765Y-118271429D01*
X104258030Y-118248329D01*
X104268520Y-118226151D01*
X104281133Y-118205107D01*
X104295747Y-118185402D01*
X104312223Y-118167223D01*
X104330402Y-118150747D01*
X104350107Y-118136133D01*
X104371151Y-118123520D01*
X104393329Y-118113030D01*
X104416429Y-118104765D01*
X104440227Y-118098804D01*
X104464496Y-118095204D01*
X104489000Y-118094000D01*
X107489000Y-118094000D01*
X107513504Y-118095204D01*
G37*
G36*
X102113504Y-118095204D02*
G01*
X102137773Y-118098804D01*
X102161571Y-118104765D01*
X102184671Y-118113030D01*
X102206849Y-118123520D01*
X102227893Y-118136133D01*
X102247598Y-118150747D01*
X102265777Y-118167223D01*
X102282253Y-118185402D01*
X102296867Y-118205107D01*
X102309480Y-118226151D01*
X102319970Y-118248329D01*
X102328235Y-118271429D01*
X102334196Y-118295227D01*
X102337796Y-118319496D01*
X102339000Y-118344000D01*
X102339000Y-119444000D01*
X102337796Y-119468504D01*
X102334196Y-119492773D01*
X102328235Y-119516571D01*
X102319970Y-119539671D01*
X102309480Y-119561849D01*
X102296867Y-119582893D01*
X102282253Y-119602598D01*
X102265777Y-119620777D01*
X102247598Y-119637253D01*
X102227893Y-119651867D01*
X102206849Y-119664480D01*
X102184671Y-119674970D01*
X102161571Y-119683235D01*
X102137773Y-119689196D01*
X102113504Y-119692796D01*
X102089000Y-119694000D01*
X99089000Y-119694000D01*
X99064496Y-119692796D01*
X99040227Y-119689196D01*
X99016429Y-119683235D01*
X98993329Y-119674970D01*
X98971151Y-119664480D01*
X98950107Y-119651867D01*
X98930402Y-119637253D01*
X98912223Y-119620777D01*
X98895747Y-119602598D01*
X98881133Y-119582893D01*
X98868520Y-119561849D01*
X98858030Y-119539671D01*
X98849765Y-119516571D01*
X98843804Y-119492773D01*
X98840204Y-119468504D01*
X98839000Y-119444000D01*
X98839000Y-118344000D01*
X98840204Y-118319496D01*
X98843804Y-118295227D01*
X98849765Y-118271429D01*
X98858030Y-118248329D01*
X98868520Y-118226151D01*
X98881133Y-118205107D01*
X98895747Y-118185402D01*
X98912223Y-118167223D01*
X98930402Y-118150747D01*
X98950107Y-118136133D01*
X98971151Y-118123520D01*
X98993329Y-118113030D01*
X99016429Y-118104765D01*
X99040227Y-118098804D01*
X99064496Y-118095204D01*
X99089000Y-118094000D01*
X102089000Y-118094000D01*
X102113504Y-118095204D01*
G37*
G36*
X197019504Y-68531204D02*
G01*
X197043773Y-68534804D01*
X197067571Y-68540765D01*
X197090671Y-68549030D01*
X197112849Y-68559520D01*
X197133893Y-68572133D01*
X197153598Y-68586747D01*
X197171777Y-68603223D01*
X197188253Y-68621402D01*
X197202867Y-68641107D01*
X197215480Y-68662151D01*
X197225970Y-68684329D01*
X197234235Y-68707429D01*
X197240196Y-68731227D01*
X197243796Y-68755496D01*
X197245000Y-68780000D01*
X197245000Y-71780000D01*
X197243796Y-71804504D01*
X197240196Y-71828773D01*
X197234235Y-71852571D01*
X197225970Y-71875671D01*
X197215480Y-71897849D01*
X197202867Y-71918893D01*
X197188253Y-71938598D01*
X197171777Y-71956777D01*
X197153598Y-71973253D01*
X197133893Y-71987867D01*
X197112849Y-72000480D01*
X197090671Y-72010970D01*
X197067571Y-72019235D01*
X197043773Y-72025196D01*
X197019504Y-72028796D01*
X196995000Y-72030000D01*
X195895000Y-72030000D01*
X195870496Y-72028796D01*
X195846227Y-72025196D01*
X195822429Y-72019235D01*
X195799329Y-72010970D01*
X195777151Y-72000480D01*
X195756107Y-71987867D01*
X195736402Y-71973253D01*
X195718223Y-71956777D01*
X195701747Y-71938598D01*
X195687133Y-71918893D01*
X195674520Y-71897849D01*
X195664030Y-71875671D01*
X195655765Y-71852571D01*
X195649804Y-71828773D01*
X195646204Y-71804504D01*
X195645000Y-71780000D01*
X195645000Y-68780000D01*
X195646204Y-68755496D01*
X195649804Y-68731227D01*
X195655765Y-68707429D01*
X195664030Y-68684329D01*
X195674520Y-68662151D01*
X195687133Y-68641107D01*
X195701747Y-68621402D01*
X195718223Y-68603223D01*
X195736402Y-68586747D01*
X195756107Y-68572133D01*
X195777151Y-68559520D01*
X195799329Y-68549030D01*
X195822429Y-68540765D01*
X195846227Y-68534804D01*
X195870496Y-68531204D01*
X195895000Y-68530000D01*
X196995000Y-68530000D01*
X197019504Y-68531204D01*
G37*
G36*
X197019504Y-73931204D02*
G01*
X197043773Y-73934804D01*
X197067571Y-73940765D01*
X197090671Y-73949030D01*
X197112849Y-73959520D01*
X197133893Y-73972133D01*
X197153598Y-73986747D01*
X197171777Y-74003223D01*
X197188253Y-74021402D01*
X197202867Y-74041107D01*
X197215480Y-74062151D01*
X197225970Y-74084329D01*
X197234235Y-74107429D01*
X197240196Y-74131227D01*
X197243796Y-74155496D01*
X197245000Y-74180000D01*
X197245000Y-77180000D01*
X197243796Y-77204504D01*
X197240196Y-77228773D01*
X197234235Y-77252571D01*
X197225970Y-77275671D01*
X197215480Y-77297849D01*
X197202867Y-77318893D01*
X197188253Y-77338598D01*
X197171777Y-77356777D01*
X197153598Y-77373253D01*
X197133893Y-77387867D01*
X197112849Y-77400480D01*
X197090671Y-77410970D01*
X197067571Y-77419235D01*
X197043773Y-77425196D01*
X197019504Y-77428796D01*
X196995000Y-77430000D01*
X195895000Y-77430000D01*
X195870496Y-77428796D01*
X195846227Y-77425196D01*
X195822429Y-77419235D01*
X195799329Y-77410970D01*
X195777151Y-77400480D01*
X195756107Y-77387867D01*
X195736402Y-77373253D01*
X195718223Y-77356777D01*
X195701747Y-77338598D01*
X195687133Y-77318893D01*
X195674520Y-77297849D01*
X195664030Y-77275671D01*
X195655765Y-77252571D01*
X195649804Y-77228773D01*
X195646204Y-77204504D01*
X195645000Y-77180000D01*
X195645000Y-74180000D01*
X195646204Y-74155496D01*
X195649804Y-74131227D01*
X195655765Y-74107429D01*
X195664030Y-74084329D01*
X195674520Y-74062151D01*
X195687133Y-74041107D01*
X195701747Y-74021402D01*
X195718223Y-74003223D01*
X195736402Y-73986747D01*
X195756107Y-73972133D01*
X195777151Y-73959520D01*
X195799329Y-73949030D01*
X195822429Y-73940765D01*
X195846227Y-73934804D01*
X195870496Y-73931204D01*
X195895000Y-73930000D01*
X196995000Y-73930000D01*
X197019504Y-73931204D01*
G37*
G36*
X164419504Y-106831204D02*
G01*
X164443773Y-106834804D01*
X164467571Y-106840765D01*
X164490671Y-106849030D01*
X164512849Y-106859520D01*
X164533893Y-106872133D01*
X164553598Y-106886747D01*
X164571777Y-106903223D01*
X164588253Y-106921402D01*
X164602867Y-106941107D01*
X164615480Y-106962151D01*
X164625970Y-106984329D01*
X164634235Y-107007429D01*
X164640196Y-107031227D01*
X164643796Y-107055496D01*
X164645000Y-107080000D01*
X164645000Y-108180000D01*
X164643796Y-108204504D01*
X164640196Y-108228773D01*
X164634235Y-108252571D01*
X164625970Y-108275671D01*
X164615480Y-108297849D01*
X164602867Y-108318893D01*
X164588253Y-108338598D01*
X164571777Y-108356777D01*
X164553598Y-108373253D01*
X164533893Y-108387867D01*
X164512849Y-108400480D01*
X164490671Y-108410970D01*
X164467571Y-108419235D01*
X164443773Y-108425196D01*
X164419504Y-108428796D01*
X164395000Y-108430000D01*
X162295000Y-108430000D01*
X162270496Y-108428796D01*
X162246227Y-108425196D01*
X162222429Y-108419235D01*
X162199329Y-108410970D01*
X162177151Y-108400480D01*
X162156107Y-108387867D01*
X162136402Y-108373253D01*
X162118223Y-108356777D01*
X162101747Y-108338598D01*
X162087133Y-108318893D01*
X162074520Y-108297849D01*
X162064030Y-108275671D01*
X162055765Y-108252571D01*
X162049804Y-108228773D01*
X162046204Y-108204504D01*
X162045000Y-108180000D01*
X162045000Y-107080000D01*
X162046204Y-107055496D01*
X162049804Y-107031227D01*
X162055765Y-107007429D01*
X162064030Y-106984329D01*
X162074520Y-106962151D01*
X162087133Y-106941107D01*
X162101747Y-106921402D01*
X162118223Y-106903223D01*
X162136402Y-106886747D01*
X162156107Y-106872133D01*
X162177151Y-106859520D01*
X162199329Y-106849030D01*
X162222429Y-106840765D01*
X162246227Y-106834804D01*
X162270496Y-106831204D01*
X162295000Y-106830000D01*
X164395000Y-106830000D01*
X164419504Y-106831204D01*
G37*
G36*
X168019504Y-106831204D02*
G01*
X168043773Y-106834804D01*
X168067571Y-106840765D01*
X168090671Y-106849030D01*
X168112849Y-106859520D01*
X168133893Y-106872133D01*
X168153598Y-106886747D01*
X168171777Y-106903223D01*
X168188253Y-106921402D01*
X168202867Y-106941107D01*
X168215480Y-106962151D01*
X168225970Y-106984329D01*
X168234235Y-107007429D01*
X168240196Y-107031227D01*
X168243796Y-107055496D01*
X168245000Y-107080000D01*
X168245000Y-108180000D01*
X168243796Y-108204504D01*
X168240196Y-108228773D01*
X168234235Y-108252571D01*
X168225970Y-108275671D01*
X168215480Y-108297849D01*
X168202867Y-108318893D01*
X168188253Y-108338598D01*
X168171777Y-108356777D01*
X168153598Y-108373253D01*
X168133893Y-108387867D01*
X168112849Y-108400480D01*
X168090671Y-108410970D01*
X168067571Y-108419235D01*
X168043773Y-108425196D01*
X168019504Y-108428796D01*
X167995000Y-108430000D01*
X165895000Y-108430000D01*
X165870496Y-108428796D01*
X165846227Y-108425196D01*
X165822429Y-108419235D01*
X165799329Y-108410970D01*
X165777151Y-108400480D01*
X165756107Y-108387867D01*
X165736402Y-108373253D01*
X165718223Y-108356777D01*
X165701747Y-108338598D01*
X165687133Y-108318893D01*
X165674520Y-108297849D01*
X165664030Y-108275671D01*
X165655765Y-108252571D01*
X165649804Y-108228773D01*
X165646204Y-108204504D01*
X165645000Y-108180000D01*
X165645000Y-107080000D01*
X165646204Y-107055496D01*
X165649804Y-107031227D01*
X165655765Y-107007429D01*
X165664030Y-106984329D01*
X165674520Y-106962151D01*
X165687133Y-106941107D01*
X165701747Y-106921402D01*
X165718223Y-106903223D01*
X165736402Y-106886747D01*
X165756107Y-106872133D01*
X165777151Y-106859520D01*
X165799329Y-106849030D01*
X165822429Y-106840765D01*
X165846227Y-106834804D01*
X165870496Y-106831204D01*
X165895000Y-106830000D01*
X167995000Y-106830000D01*
X168019504Y-106831204D01*
G37*
G36*
X175594504Y-106781204D02*
G01*
X175618773Y-106784804D01*
X175642571Y-106790765D01*
X175665671Y-106799030D01*
X175687849Y-106809520D01*
X175708893Y-106822133D01*
X175728598Y-106836747D01*
X175746777Y-106853223D01*
X175763253Y-106871402D01*
X175777867Y-106891107D01*
X175790480Y-106912151D01*
X175800970Y-106934329D01*
X175809235Y-106957429D01*
X175815196Y-106981227D01*
X175818796Y-107005496D01*
X175820000Y-107030000D01*
X175820000Y-108130000D01*
X175818796Y-108154504D01*
X175815196Y-108178773D01*
X175809235Y-108202571D01*
X175800970Y-108225671D01*
X175790480Y-108247849D01*
X175777867Y-108268893D01*
X175763253Y-108288598D01*
X175746777Y-108306777D01*
X175728598Y-108323253D01*
X175708893Y-108337867D01*
X175687849Y-108350480D01*
X175665671Y-108360970D01*
X175642571Y-108369235D01*
X175618773Y-108375196D01*
X175594504Y-108378796D01*
X175570000Y-108380000D01*
X173470000Y-108380000D01*
X173445496Y-108378796D01*
X173421227Y-108375196D01*
X173397429Y-108369235D01*
X173374329Y-108360970D01*
X173352151Y-108350480D01*
X173331107Y-108337867D01*
X173311402Y-108323253D01*
X173293223Y-108306777D01*
X173276747Y-108288598D01*
X173262133Y-108268893D01*
X173249520Y-108247849D01*
X173239030Y-108225671D01*
X173230765Y-108202571D01*
X173224804Y-108178773D01*
X173221204Y-108154504D01*
X173220000Y-108130000D01*
X173220000Y-107030000D01*
X173221204Y-107005496D01*
X173224804Y-106981227D01*
X173230765Y-106957429D01*
X173239030Y-106934329D01*
X173249520Y-106912151D01*
X173262133Y-106891107D01*
X173276747Y-106871402D01*
X173293223Y-106853223D01*
X173311402Y-106836747D01*
X173331107Y-106822133D01*
X173352151Y-106809520D01*
X173374329Y-106799030D01*
X173397429Y-106790765D01*
X173421227Y-106784804D01*
X173445496Y-106781204D01*
X173470000Y-106780000D01*
X175570000Y-106780000D01*
X175594504Y-106781204D01*
G37*
G36*
X171994504Y-106781204D02*
G01*
X172018773Y-106784804D01*
X172042571Y-106790765D01*
X172065671Y-106799030D01*
X172087849Y-106809520D01*
X172108893Y-106822133D01*
X172128598Y-106836747D01*
X172146777Y-106853223D01*
X172163253Y-106871402D01*
X172177867Y-106891107D01*
X172190480Y-106912151D01*
X172200970Y-106934329D01*
X172209235Y-106957429D01*
X172215196Y-106981227D01*
X172218796Y-107005496D01*
X172220000Y-107030000D01*
X172220000Y-108130000D01*
X172218796Y-108154504D01*
X172215196Y-108178773D01*
X172209235Y-108202571D01*
X172200970Y-108225671D01*
X172190480Y-108247849D01*
X172177867Y-108268893D01*
X172163253Y-108288598D01*
X172146777Y-108306777D01*
X172128598Y-108323253D01*
X172108893Y-108337867D01*
X172087849Y-108350480D01*
X172065671Y-108360970D01*
X172042571Y-108369235D01*
X172018773Y-108375196D01*
X171994504Y-108378796D01*
X171970000Y-108380000D01*
X169870000Y-108380000D01*
X169845496Y-108378796D01*
X169821227Y-108375196D01*
X169797429Y-108369235D01*
X169774329Y-108360970D01*
X169752151Y-108350480D01*
X169731107Y-108337867D01*
X169711402Y-108323253D01*
X169693223Y-108306777D01*
X169676747Y-108288598D01*
X169662133Y-108268893D01*
X169649520Y-108247849D01*
X169639030Y-108225671D01*
X169630765Y-108202571D01*
X169624804Y-108178773D01*
X169621204Y-108154504D01*
X169620000Y-108130000D01*
X169620000Y-107030000D01*
X169621204Y-107005496D01*
X169624804Y-106981227D01*
X169630765Y-106957429D01*
X169639030Y-106934329D01*
X169649520Y-106912151D01*
X169662133Y-106891107D01*
X169676747Y-106871402D01*
X169693223Y-106853223D01*
X169711402Y-106836747D01*
X169731107Y-106822133D01*
X169752151Y-106809520D01*
X169774329Y-106799030D01*
X169797429Y-106790765D01*
X169821227Y-106784804D01*
X169845496Y-106781204D01*
X169870000Y-106780000D01*
X171970000Y-106780000D01*
X171994504Y-106781204D01*
G37*
D15*
X124649000Y-62369000D03*
D16*
X129429000Y-62369000D03*
X171085000Y-100980000D03*
D15*
X166305000Y-100980000D03*
D16*
X188910000Y-71130000D03*
D15*
X184130000Y-71130000D03*
D13*
X174791000Y-153300000D03*
X174791000Y-154500000D03*
X172591000Y-154500000D03*
X172591000Y-153300000D03*
X203016000Y-153275000D03*
X203016000Y-154475000D03*
X200816000Y-154475000D03*
X200816000Y-153275000D03*
D17*
X180220000Y-89100000D03*
X180870000Y-89100000D03*
X181520000Y-89100000D03*
X182170000Y-89100000D03*
X182820000Y-89100000D03*
X183470000Y-89100000D03*
X184120000Y-89100000D03*
X184770000Y-89100000D03*
X184770000Y-83360000D03*
X184120000Y-83360000D03*
X183470000Y-83360000D03*
X182820000Y-83360000D03*
X182170000Y-83360000D03*
X181520000Y-83360000D03*
X180870000Y-83360000D03*
X180220000Y-83360000D03*
D11*
X191141000Y-158591000D03*
X191141000Y-157941000D03*
X191141000Y-157291000D03*
X191141000Y-156641000D03*
X191141000Y-155991000D03*
X191141000Y-155341000D03*
X191141000Y-154691000D03*
X184941000Y-154691000D03*
X184941000Y-155341000D03*
X184941000Y-155991000D03*
X184941000Y-156641000D03*
X184941000Y-157291000D03*
X184941000Y-157941000D03*
X184941000Y-158591000D03*
D12*
X190936000Y-167600000D03*
X190936000Y-166950000D03*
X190936000Y-166300000D03*
X190936000Y-165650000D03*
X190936000Y-165000000D03*
X190936000Y-164350000D03*
X190936000Y-163700000D03*
X190936000Y-163050000D03*
X185196000Y-163050000D03*
X185196000Y-163700000D03*
X185196000Y-164350000D03*
X185196000Y-165000000D03*
X185196000Y-165650000D03*
X185196000Y-166300000D03*
X185196000Y-166950000D03*
X185196000Y-167600000D03*
D18*
X86684000Y-173629000D03*
X87334000Y-173629000D03*
X87984000Y-173629000D03*
X88634000Y-173629000D03*
X89284000Y-173629000D03*
X89934000Y-173629000D03*
X90584000Y-173629000D03*
X90584000Y-179829000D03*
X89934000Y-179829000D03*
X89284000Y-179829000D03*
X88634000Y-179829000D03*
X87984000Y-179829000D03*
X87334000Y-179829000D03*
X86684000Y-179829000D03*
D17*
X96484000Y-174834000D03*
X97134000Y-174834000D03*
X97784000Y-174834000D03*
X98434000Y-174834000D03*
X99084000Y-174834000D03*
X99734000Y-174834000D03*
X100384000Y-174834000D03*
X101034000Y-174834000D03*
X101034000Y-180574000D03*
X100384000Y-180574000D03*
X99734000Y-180574000D03*
X99084000Y-180574000D03*
X98434000Y-180574000D03*
X97784000Y-180574000D03*
X97134000Y-180574000D03*
X96484000Y-180574000D03*
D10*
G36*
X134713504Y-110195204D02*
G01*
X134737773Y-110198804D01*
X134761571Y-110204765D01*
X134784671Y-110213030D01*
X134806849Y-110223520D01*
X134827893Y-110236133D01*
X134847598Y-110250747D01*
X134865777Y-110267223D01*
X134882253Y-110285402D01*
X134896867Y-110305107D01*
X134909480Y-110326151D01*
X134919970Y-110348329D01*
X134928235Y-110371429D01*
X134934196Y-110395227D01*
X134937796Y-110419496D01*
X134939000Y-110444000D01*
X134939000Y-111694000D01*
X134937796Y-111718504D01*
X134934196Y-111742773D01*
X134928235Y-111766571D01*
X134919970Y-111789671D01*
X134909480Y-111811849D01*
X134896867Y-111832893D01*
X134882253Y-111852598D01*
X134865777Y-111870777D01*
X134847598Y-111887253D01*
X134827893Y-111901867D01*
X134806849Y-111914480D01*
X134784671Y-111924970D01*
X134761571Y-111933235D01*
X134737773Y-111939196D01*
X134713504Y-111942796D01*
X134689000Y-111944000D01*
X133764000Y-111944000D01*
X133739496Y-111942796D01*
X133715227Y-111939196D01*
X133691429Y-111933235D01*
X133668329Y-111924970D01*
X133646151Y-111914480D01*
X133625107Y-111901867D01*
X133605402Y-111887253D01*
X133587223Y-111870777D01*
X133570747Y-111852598D01*
X133556133Y-111832893D01*
X133543520Y-111811849D01*
X133533030Y-111789671D01*
X133524765Y-111766571D01*
X133518804Y-111742773D01*
X133515204Y-111718504D01*
X133514000Y-111694000D01*
X133514000Y-110444000D01*
X133515204Y-110419496D01*
X133518804Y-110395227D01*
X133524765Y-110371429D01*
X133533030Y-110348329D01*
X133543520Y-110326151D01*
X133556133Y-110305107D01*
X133570747Y-110285402D01*
X133587223Y-110267223D01*
X133605402Y-110250747D01*
X133625107Y-110236133D01*
X133646151Y-110223520D01*
X133668329Y-110213030D01*
X133691429Y-110204765D01*
X133715227Y-110198804D01*
X133739496Y-110195204D01*
X133764000Y-110194000D01*
X134689000Y-110194000D01*
X134713504Y-110195204D01*
G37*
G36*
X131738504Y-110195204D02*
G01*
X131762773Y-110198804D01*
X131786571Y-110204765D01*
X131809671Y-110213030D01*
X131831849Y-110223520D01*
X131852893Y-110236133D01*
X131872598Y-110250747D01*
X131890777Y-110267223D01*
X131907253Y-110285402D01*
X131921867Y-110305107D01*
X131934480Y-110326151D01*
X131944970Y-110348329D01*
X131953235Y-110371429D01*
X131959196Y-110395227D01*
X131962796Y-110419496D01*
X131964000Y-110444000D01*
X131964000Y-111694000D01*
X131962796Y-111718504D01*
X131959196Y-111742773D01*
X131953235Y-111766571D01*
X131944970Y-111789671D01*
X131934480Y-111811849D01*
X131921867Y-111832893D01*
X131907253Y-111852598D01*
X131890777Y-111870777D01*
X131872598Y-111887253D01*
X131852893Y-111901867D01*
X131831849Y-111914480D01*
X131809671Y-111924970D01*
X131786571Y-111933235D01*
X131762773Y-111939196D01*
X131738504Y-111942796D01*
X131714000Y-111944000D01*
X130789000Y-111944000D01*
X130764496Y-111942796D01*
X130740227Y-111939196D01*
X130716429Y-111933235D01*
X130693329Y-111924970D01*
X130671151Y-111914480D01*
X130650107Y-111901867D01*
X130630402Y-111887253D01*
X130612223Y-111870777D01*
X130595747Y-111852598D01*
X130581133Y-111832893D01*
X130568520Y-111811849D01*
X130558030Y-111789671D01*
X130549765Y-111766571D01*
X130543804Y-111742773D01*
X130540204Y-111718504D01*
X130539000Y-111694000D01*
X130539000Y-110444000D01*
X130540204Y-110419496D01*
X130543804Y-110395227D01*
X130549765Y-110371429D01*
X130558030Y-110348329D01*
X130568520Y-110326151D01*
X130581133Y-110305107D01*
X130595747Y-110285402D01*
X130612223Y-110267223D01*
X130630402Y-110250747D01*
X130650107Y-110236133D01*
X130671151Y-110223520D01*
X130693329Y-110213030D01*
X130716429Y-110204765D01*
X130740227Y-110198804D01*
X130764496Y-110195204D01*
X130789000Y-110194000D01*
X131714000Y-110194000D01*
X131738504Y-110195204D01*
G37*
G36*
X132338504Y-118770204D02*
G01*
X132362773Y-118773804D01*
X132386571Y-118779765D01*
X132409671Y-118788030D01*
X132431849Y-118798520D01*
X132452893Y-118811133D01*
X132472598Y-118825747D01*
X132490777Y-118842223D01*
X132507253Y-118860402D01*
X132521867Y-118880107D01*
X132534480Y-118901151D01*
X132544970Y-118923329D01*
X132553235Y-118946429D01*
X132559196Y-118970227D01*
X132562796Y-118994496D01*
X132564000Y-119019000D01*
X132564000Y-120269000D01*
X132562796Y-120293504D01*
X132559196Y-120317773D01*
X132553235Y-120341571D01*
X132544970Y-120364671D01*
X132534480Y-120386849D01*
X132521867Y-120407893D01*
X132507253Y-120427598D01*
X132490777Y-120445777D01*
X132472598Y-120462253D01*
X132452893Y-120476867D01*
X132431849Y-120489480D01*
X132409671Y-120499970D01*
X132386571Y-120508235D01*
X132362773Y-120514196D01*
X132338504Y-120517796D01*
X132314000Y-120519000D01*
X131389000Y-120519000D01*
X131364496Y-120517796D01*
X131340227Y-120514196D01*
X131316429Y-120508235D01*
X131293329Y-120499970D01*
X131271151Y-120489480D01*
X131250107Y-120476867D01*
X131230402Y-120462253D01*
X131212223Y-120445777D01*
X131195747Y-120427598D01*
X131181133Y-120407893D01*
X131168520Y-120386849D01*
X131158030Y-120364671D01*
X131149765Y-120341571D01*
X131143804Y-120317773D01*
X131140204Y-120293504D01*
X131139000Y-120269000D01*
X131139000Y-119019000D01*
X131140204Y-118994496D01*
X131143804Y-118970227D01*
X131149765Y-118946429D01*
X131158030Y-118923329D01*
X131168520Y-118901151D01*
X131181133Y-118880107D01*
X131195747Y-118860402D01*
X131212223Y-118842223D01*
X131230402Y-118825747D01*
X131250107Y-118811133D01*
X131271151Y-118798520D01*
X131293329Y-118788030D01*
X131316429Y-118779765D01*
X131340227Y-118773804D01*
X131364496Y-118770204D01*
X131389000Y-118769000D01*
X132314000Y-118769000D01*
X132338504Y-118770204D01*
G37*
G36*
X129363504Y-118770204D02*
G01*
X129387773Y-118773804D01*
X129411571Y-118779765D01*
X129434671Y-118788030D01*
X129456849Y-118798520D01*
X129477893Y-118811133D01*
X129497598Y-118825747D01*
X129515777Y-118842223D01*
X129532253Y-118860402D01*
X129546867Y-118880107D01*
X129559480Y-118901151D01*
X129569970Y-118923329D01*
X129578235Y-118946429D01*
X129584196Y-118970227D01*
X129587796Y-118994496D01*
X129589000Y-119019000D01*
X129589000Y-120269000D01*
X129587796Y-120293504D01*
X129584196Y-120317773D01*
X129578235Y-120341571D01*
X129569970Y-120364671D01*
X129559480Y-120386849D01*
X129546867Y-120407893D01*
X129532253Y-120427598D01*
X129515777Y-120445777D01*
X129497598Y-120462253D01*
X129477893Y-120476867D01*
X129456849Y-120489480D01*
X129434671Y-120499970D01*
X129411571Y-120508235D01*
X129387773Y-120514196D01*
X129363504Y-120517796D01*
X129339000Y-120519000D01*
X128414000Y-120519000D01*
X128389496Y-120517796D01*
X128365227Y-120514196D01*
X128341429Y-120508235D01*
X128318329Y-120499970D01*
X128296151Y-120489480D01*
X128275107Y-120476867D01*
X128255402Y-120462253D01*
X128237223Y-120445777D01*
X128220747Y-120427598D01*
X128206133Y-120407893D01*
X128193520Y-120386849D01*
X128183030Y-120364671D01*
X128174765Y-120341571D01*
X128168804Y-120317773D01*
X128165204Y-120293504D01*
X128164000Y-120269000D01*
X128164000Y-119019000D01*
X128165204Y-118994496D01*
X128168804Y-118970227D01*
X128174765Y-118946429D01*
X128183030Y-118923329D01*
X128193520Y-118901151D01*
X128206133Y-118880107D01*
X128220747Y-118860402D01*
X128237223Y-118842223D01*
X128255402Y-118825747D01*
X128275107Y-118811133D01*
X128296151Y-118798520D01*
X128318329Y-118788030D01*
X128341429Y-118779765D01*
X128365227Y-118773804D01*
X128389496Y-118770204D01*
X128414000Y-118769000D01*
X129339000Y-118769000D01*
X129363504Y-118770204D01*
G37*
G36*
X186319504Y-102306204D02*
G01*
X186343773Y-102309804D01*
X186367571Y-102315765D01*
X186390671Y-102324030D01*
X186412849Y-102334520D01*
X186433893Y-102347133D01*
X186453598Y-102361747D01*
X186471777Y-102378223D01*
X186488253Y-102396402D01*
X186502867Y-102416107D01*
X186515480Y-102437151D01*
X186525970Y-102459329D01*
X186534235Y-102482429D01*
X186540196Y-102506227D01*
X186543796Y-102530496D01*
X186545000Y-102555000D01*
X186545000Y-103480000D01*
X186543796Y-103504504D01*
X186540196Y-103528773D01*
X186534235Y-103552571D01*
X186525970Y-103575671D01*
X186515480Y-103597849D01*
X186502867Y-103618893D01*
X186488253Y-103638598D01*
X186471777Y-103656777D01*
X186453598Y-103673253D01*
X186433893Y-103687867D01*
X186412849Y-103700480D01*
X186390671Y-103710970D01*
X186367571Y-103719235D01*
X186343773Y-103725196D01*
X186319504Y-103728796D01*
X186295000Y-103730000D01*
X185045000Y-103730000D01*
X185020496Y-103728796D01*
X184996227Y-103725196D01*
X184972429Y-103719235D01*
X184949329Y-103710970D01*
X184927151Y-103700480D01*
X184906107Y-103687867D01*
X184886402Y-103673253D01*
X184868223Y-103656777D01*
X184851747Y-103638598D01*
X184837133Y-103618893D01*
X184824520Y-103597849D01*
X184814030Y-103575671D01*
X184805765Y-103552571D01*
X184799804Y-103528773D01*
X184796204Y-103504504D01*
X184795000Y-103480000D01*
X184795000Y-102555000D01*
X184796204Y-102530496D01*
X184799804Y-102506227D01*
X184805765Y-102482429D01*
X184814030Y-102459329D01*
X184824520Y-102437151D01*
X184837133Y-102416107D01*
X184851747Y-102396402D01*
X184868223Y-102378223D01*
X184886402Y-102361747D01*
X184906107Y-102347133D01*
X184927151Y-102334520D01*
X184949329Y-102324030D01*
X184972429Y-102315765D01*
X184996227Y-102309804D01*
X185020496Y-102306204D01*
X185045000Y-102305000D01*
X186295000Y-102305000D01*
X186319504Y-102306204D01*
G37*
G36*
X186319504Y-105281204D02*
G01*
X186343773Y-105284804D01*
X186367571Y-105290765D01*
X186390671Y-105299030D01*
X186412849Y-105309520D01*
X186433893Y-105322133D01*
X186453598Y-105336747D01*
X186471777Y-105353223D01*
X186488253Y-105371402D01*
X186502867Y-105391107D01*
X186515480Y-105412151D01*
X186525970Y-105434329D01*
X186534235Y-105457429D01*
X186540196Y-105481227D01*
X186543796Y-105505496D01*
X186545000Y-105530000D01*
X186545000Y-106455000D01*
X186543796Y-106479504D01*
X186540196Y-106503773D01*
X186534235Y-106527571D01*
X186525970Y-106550671D01*
X186515480Y-106572849D01*
X186502867Y-106593893D01*
X186488253Y-106613598D01*
X186471777Y-106631777D01*
X186453598Y-106648253D01*
X186433893Y-106662867D01*
X186412849Y-106675480D01*
X186390671Y-106685970D01*
X186367571Y-106694235D01*
X186343773Y-106700196D01*
X186319504Y-106703796D01*
X186295000Y-106705000D01*
X185045000Y-106705000D01*
X185020496Y-106703796D01*
X184996227Y-106700196D01*
X184972429Y-106694235D01*
X184949329Y-106685970D01*
X184927151Y-106675480D01*
X184906107Y-106662867D01*
X184886402Y-106648253D01*
X184868223Y-106631777D01*
X184851747Y-106613598D01*
X184837133Y-106593893D01*
X184824520Y-106572849D01*
X184814030Y-106550671D01*
X184805765Y-106527571D01*
X184799804Y-106503773D01*
X184796204Y-106479504D01*
X184795000Y-106455000D01*
X184795000Y-105530000D01*
X184796204Y-105505496D01*
X184799804Y-105481227D01*
X184805765Y-105457429D01*
X184814030Y-105434329D01*
X184824520Y-105412151D01*
X184837133Y-105391107D01*
X184851747Y-105371402D01*
X184868223Y-105353223D01*
X184886402Y-105336747D01*
X184906107Y-105322133D01*
X184927151Y-105309520D01*
X184949329Y-105299030D01*
X184972429Y-105290765D01*
X184996227Y-105284804D01*
X185020496Y-105281204D01*
X185045000Y-105280000D01*
X186295000Y-105280000D01*
X186319504Y-105281204D01*
G37*
G36*
X179704504Y-72781204D02*
G01*
X179728773Y-72784804D01*
X179752571Y-72790765D01*
X179775671Y-72799030D01*
X179797849Y-72809520D01*
X179818893Y-72822133D01*
X179838598Y-72836747D01*
X179856777Y-72853223D01*
X179873253Y-72871402D01*
X179887867Y-72891107D01*
X179900480Y-72912151D01*
X179910970Y-72934329D01*
X179919235Y-72957429D01*
X179925196Y-72981227D01*
X179928796Y-73005496D01*
X179930000Y-73030000D01*
X179930000Y-74280000D01*
X179928796Y-74304504D01*
X179925196Y-74328773D01*
X179919235Y-74352571D01*
X179910970Y-74375671D01*
X179900480Y-74397849D01*
X179887867Y-74418893D01*
X179873253Y-74438598D01*
X179856777Y-74456777D01*
X179838598Y-74473253D01*
X179818893Y-74487867D01*
X179797849Y-74500480D01*
X179775671Y-74510970D01*
X179752571Y-74519235D01*
X179728773Y-74525196D01*
X179704504Y-74528796D01*
X179680000Y-74530000D01*
X178755000Y-74530000D01*
X178730496Y-74528796D01*
X178706227Y-74525196D01*
X178682429Y-74519235D01*
X178659329Y-74510970D01*
X178637151Y-74500480D01*
X178616107Y-74487867D01*
X178596402Y-74473253D01*
X178578223Y-74456777D01*
X178561747Y-74438598D01*
X178547133Y-74418893D01*
X178534520Y-74397849D01*
X178524030Y-74375671D01*
X178515765Y-74352571D01*
X178509804Y-74328773D01*
X178506204Y-74304504D01*
X178505000Y-74280000D01*
X178505000Y-73030000D01*
X178506204Y-73005496D01*
X178509804Y-72981227D01*
X178515765Y-72957429D01*
X178524030Y-72934329D01*
X178534520Y-72912151D01*
X178547133Y-72891107D01*
X178561747Y-72871402D01*
X178578223Y-72853223D01*
X178596402Y-72836747D01*
X178616107Y-72822133D01*
X178637151Y-72809520D01*
X178659329Y-72799030D01*
X178682429Y-72790765D01*
X178706227Y-72784804D01*
X178730496Y-72781204D01*
X178755000Y-72780000D01*
X179680000Y-72780000D01*
X179704504Y-72781204D01*
G37*
G36*
X176729504Y-72781204D02*
G01*
X176753773Y-72784804D01*
X176777571Y-72790765D01*
X176800671Y-72799030D01*
X176822849Y-72809520D01*
X176843893Y-72822133D01*
X176863598Y-72836747D01*
X176881777Y-72853223D01*
X176898253Y-72871402D01*
X176912867Y-72891107D01*
X176925480Y-72912151D01*
X176935970Y-72934329D01*
X176944235Y-72957429D01*
X176950196Y-72981227D01*
X176953796Y-73005496D01*
X176955000Y-73030000D01*
X176955000Y-74280000D01*
X176953796Y-74304504D01*
X176950196Y-74328773D01*
X176944235Y-74352571D01*
X176935970Y-74375671D01*
X176925480Y-74397849D01*
X176912867Y-74418893D01*
X176898253Y-74438598D01*
X176881777Y-74456777D01*
X176863598Y-74473253D01*
X176843893Y-74487867D01*
X176822849Y-74500480D01*
X176800671Y-74510970D01*
X176777571Y-74519235D01*
X176753773Y-74525196D01*
X176729504Y-74528796D01*
X176705000Y-74530000D01*
X175780000Y-74530000D01*
X175755496Y-74528796D01*
X175731227Y-74525196D01*
X175707429Y-74519235D01*
X175684329Y-74510970D01*
X175662151Y-74500480D01*
X175641107Y-74487867D01*
X175621402Y-74473253D01*
X175603223Y-74456777D01*
X175586747Y-74438598D01*
X175572133Y-74418893D01*
X175559520Y-74397849D01*
X175549030Y-74375671D01*
X175540765Y-74352571D01*
X175534804Y-74328773D01*
X175531204Y-74304504D01*
X175530000Y-74280000D01*
X175530000Y-73030000D01*
X175531204Y-73005496D01*
X175534804Y-72981227D01*
X175540765Y-72957429D01*
X175549030Y-72934329D01*
X175559520Y-72912151D01*
X175572133Y-72891107D01*
X175586747Y-72871402D01*
X175603223Y-72853223D01*
X175621402Y-72836747D01*
X175641107Y-72822133D01*
X175662151Y-72809520D01*
X175684329Y-72799030D01*
X175707429Y-72790765D01*
X175731227Y-72784804D01*
X175755496Y-72781204D01*
X175780000Y-72780000D01*
X176705000Y-72780000D01*
X176729504Y-72781204D01*
G37*
G36*
X187594504Y-77856204D02*
G01*
X187618773Y-77859804D01*
X187642571Y-77865765D01*
X187665671Y-77874030D01*
X187687849Y-77884520D01*
X187708893Y-77897133D01*
X187728598Y-77911747D01*
X187746777Y-77928223D01*
X187763253Y-77946402D01*
X187777867Y-77966107D01*
X187790480Y-77987151D01*
X187800970Y-78009329D01*
X187809235Y-78032429D01*
X187815196Y-78056227D01*
X187818796Y-78080496D01*
X187820000Y-78105000D01*
X187820000Y-79030000D01*
X187818796Y-79054504D01*
X187815196Y-79078773D01*
X187809235Y-79102571D01*
X187800970Y-79125671D01*
X187790480Y-79147849D01*
X187777867Y-79168893D01*
X187763253Y-79188598D01*
X187746777Y-79206777D01*
X187728598Y-79223253D01*
X187708893Y-79237867D01*
X187687849Y-79250480D01*
X187665671Y-79260970D01*
X187642571Y-79269235D01*
X187618773Y-79275196D01*
X187594504Y-79278796D01*
X187570000Y-79280000D01*
X186320000Y-79280000D01*
X186295496Y-79278796D01*
X186271227Y-79275196D01*
X186247429Y-79269235D01*
X186224329Y-79260970D01*
X186202151Y-79250480D01*
X186181107Y-79237867D01*
X186161402Y-79223253D01*
X186143223Y-79206777D01*
X186126747Y-79188598D01*
X186112133Y-79168893D01*
X186099520Y-79147849D01*
X186089030Y-79125671D01*
X186080765Y-79102571D01*
X186074804Y-79078773D01*
X186071204Y-79054504D01*
X186070000Y-79030000D01*
X186070000Y-78105000D01*
X186071204Y-78080496D01*
X186074804Y-78056227D01*
X186080765Y-78032429D01*
X186089030Y-78009329D01*
X186099520Y-77987151D01*
X186112133Y-77966107D01*
X186126747Y-77946402D01*
X186143223Y-77928223D01*
X186161402Y-77911747D01*
X186181107Y-77897133D01*
X186202151Y-77884520D01*
X186224329Y-77874030D01*
X186247429Y-77865765D01*
X186271227Y-77859804D01*
X186295496Y-77856204D01*
X186320000Y-77855000D01*
X187570000Y-77855000D01*
X187594504Y-77856204D01*
G37*
G36*
X187594504Y-74881204D02*
G01*
X187618773Y-74884804D01*
X187642571Y-74890765D01*
X187665671Y-74899030D01*
X187687849Y-74909520D01*
X187708893Y-74922133D01*
X187728598Y-74936747D01*
X187746777Y-74953223D01*
X187763253Y-74971402D01*
X187777867Y-74991107D01*
X187790480Y-75012151D01*
X187800970Y-75034329D01*
X187809235Y-75057429D01*
X187815196Y-75081227D01*
X187818796Y-75105496D01*
X187820000Y-75130000D01*
X187820000Y-76055000D01*
X187818796Y-76079504D01*
X187815196Y-76103773D01*
X187809235Y-76127571D01*
X187800970Y-76150671D01*
X187790480Y-76172849D01*
X187777867Y-76193893D01*
X187763253Y-76213598D01*
X187746777Y-76231777D01*
X187728598Y-76248253D01*
X187708893Y-76262867D01*
X187687849Y-76275480D01*
X187665671Y-76285970D01*
X187642571Y-76294235D01*
X187618773Y-76300196D01*
X187594504Y-76303796D01*
X187570000Y-76305000D01*
X186320000Y-76305000D01*
X186295496Y-76303796D01*
X186271227Y-76300196D01*
X186247429Y-76294235D01*
X186224329Y-76285970D01*
X186202151Y-76275480D01*
X186181107Y-76262867D01*
X186161402Y-76248253D01*
X186143223Y-76231777D01*
X186126747Y-76213598D01*
X186112133Y-76193893D01*
X186099520Y-76172849D01*
X186089030Y-76150671D01*
X186080765Y-76127571D01*
X186074804Y-76103773D01*
X186071204Y-76079504D01*
X186070000Y-76055000D01*
X186070000Y-75130000D01*
X186071204Y-75105496D01*
X186074804Y-75081227D01*
X186080765Y-75057429D01*
X186089030Y-75034329D01*
X186099520Y-75012151D01*
X186112133Y-74991107D01*
X186126747Y-74971402D01*
X186143223Y-74953223D01*
X186161402Y-74936747D01*
X186181107Y-74922133D01*
X186202151Y-74909520D01*
X186224329Y-74899030D01*
X186247429Y-74890765D01*
X186271227Y-74884804D01*
X186295496Y-74881204D01*
X186320000Y-74880000D01*
X187570000Y-74880000D01*
X187594504Y-74881204D01*
G37*
G36*
X185690504Y-168626204D02*
G01*
X185714773Y-168629804D01*
X185738571Y-168635765D01*
X185761671Y-168644030D01*
X185783849Y-168654520D01*
X185804893Y-168667133D01*
X185824598Y-168681747D01*
X185842777Y-168698223D01*
X185859253Y-168716402D01*
X185873867Y-168736107D01*
X185886480Y-168757151D01*
X185896970Y-168779329D01*
X185905235Y-168802429D01*
X185911196Y-168826227D01*
X185914796Y-168850496D01*
X185916000Y-168875000D01*
X185916000Y-170125000D01*
X185914796Y-170149504D01*
X185911196Y-170173773D01*
X185905235Y-170197571D01*
X185896970Y-170220671D01*
X185886480Y-170242849D01*
X185873867Y-170263893D01*
X185859253Y-170283598D01*
X185842777Y-170301777D01*
X185824598Y-170318253D01*
X185804893Y-170332867D01*
X185783849Y-170345480D01*
X185761671Y-170355970D01*
X185738571Y-170364235D01*
X185714773Y-170370196D01*
X185690504Y-170373796D01*
X185666000Y-170375000D01*
X184741000Y-170375000D01*
X184716496Y-170373796D01*
X184692227Y-170370196D01*
X184668429Y-170364235D01*
X184645329Y-170355970D01*
X184623151Y-170345480D01*
X184602107Y-170332867D01*
X184582402Y-170318253D01*
X184564223Y-170301777D01*
X184547747Y-170283598D01*
X184533133Y-170263893D01*
X184520520Y-170242849D01*
X184510030Y-170220671D01*
X184501765Y-170197571D01*
X184495804Y-170173773D01*
X184492204Y-170149504D01*
X184491000Y-170125000D01*
X184491000Y-168875000D01*
X184492204Y-168850496D01*
X184495804Y-168826227D01*
X184501765Y-168802429D01*
X184510030Y-168779329D01*
X184520520Y-168757151D01*
X184533133Y-168736107D01*
X184547747Y-168716402D01*
X184564223Y-168698223D01*
X184582402Y-168681747D01*
X184602107Y-168667133D01*
X184623151Y-168654520D01*
X184645329Y-168644030D01*
X184668429Y-168635765D01*
X184692227Y-168629804D01*
X184716496Y-168626204D01*
X184741000Y-168625000D01*
X185666000Y-168625000D01*
X185690504Y-168626204D01*
G37*
G36*
X182715504Y-168626204D02*
G01*
X182739773Y-168629804D01*
X182763571Y-168635765D01*
X182786671Y-168644030D01*
X182808849Y-168654520D01*
X182829893Y-168667133D01*
X182849598Y-168681747D01*
X182867777Y-168698223D01*
X182884253Y-168716402D01*
X182898867Y-168736107D01*
X182911480Y-168757151D01*
X182921970Y-168779329D01*
X182930235Y-168802429D01*
X182936196Y-168826227D01*
X182939796Y-168850496D01*
X182941000Y-168875000D01*
X182941000Y-170125000D01*
X182939796Y-170149504D01*
X182936196Y-170173773D01*
X182930235Y-170197571D01*
X182921970Y-170220671D01*
X182911480Y-170242849D01*
X182898867Y-170263893D01*
X182884253Y-170283598D01*
X182867777Y-170301777D01*
X182849598Y-170318253D01*
X182829893Y-170332867D01*
X182808849Y-170345480D01*
X182786671Y-170355970D01*
X182763571Y-170364235D01*
X182739773Y-170370196D01*
X182715504Y-170373796D01*
X182691000Y-170375000D01*
X181766000Y-170375000D01*
X181741496Y-170373796D01*
X181717227Y-170370196D01*
X181693429Y-170364235D01*
X181670329Y-170355970D01*
X181648151Y-170345480D01*
X181627107Y-170332867D01*
X181607402Y-170318253D01*
X181589223Y-170301777D01*
X181572747Y-170283598D01*
X181558133Y-170263893D01*
X181545520Y-170242849D01*
X181535030Y-170220671D01*
X181526765Y-170197571D01*
X181520804Y-170173773D01*
X181517204Y-170149504D01*
X181516000Y-170125000D01*
X181516000Y-168875000D01*
X181517204Y-168850496D01*
X181520804Y-168826227D01*
X181526765Y-168802429D01*
X181535030Y-168779329D01*
X181545520Y-168757151D01*
X181558133Y-168736107D01*
X181572747Y-168716402D01*
X181589223Y-168698223D01*
X181607402Y-168681747D01*
X181627107Y-168667133D01*
X181648151Y-168654520D01*
X181670329Y-168644030D01*
X181693429Y-168635765D01*
X181717227Y-168629804D01*
X181741496Y-168626204D01*
X181766000Y-168625000D01*
X182691000Y-168625000D01*
X182715504Y-168626204D01*
G37*
G36*
X182940504Y-155151204D02*
G01*
X182964773Y-155154804D01*
X182988571Y-155160765D01*
X183011671Y-155169030D01*
X183033849Y-155179520D01*
X183054893Y-155192133D01*
X183074598Y-155206747D01*
X183092777Y-155223223D01*
X183109253Y-155241402D01*
X183123867Y-155261107D01*
X183136480Y-155282151D01*
X183146970Y-155304329D01*
X183155235Y-155327429D01*
X183161196Y-155351227D01*
X183164796Y-155375496D01*
X183166000Y-155400000D01*
X183166000Y-156325000D01*
X183164796Y-156349504D01*
X183161196Y-156373773D01*
X183155235Y-156397571D01*
X183146970Y-156420671D01*
X183136480Y-156442849D01*
X183123867Y-156463893D01*
X183109253Y-156483598D01*
X183092777Y-156501777D01*
X183074598Y-156518253D01*
X183054893Y-156532867D01*
X183033849Y-156545480D01*
X183011671Y-156555970D01*
X182988571Y-156564235D01*
X182964773Y-156570196D01*
X182940504Y-156573796D01*
X182916000Y-156575000D01*
X181666000Y-156575000D01*
X181641496Y-156573796D01*
X181617227Y-156570196D01*
X181593429Y-156564235D01*
X181570329Y-156555970D01*
X181548151Y-156545480D01*
X181527107Y-156532867D01*
X181507402Y-156518253D01*
X181489223Y-156501777D01*
X181472747Y-156483598D01*
X181458133Y-156463893D01*
X181445520Y-156442849D01*
X181435030Y-156420671D01*
X181426765Y-156397571D01*
X181420804Y-156373773D01*
X181417204Y-156349504D01*
X181416000Y-156325000D01*
X181416000Y-155400000D01*
X181417204Y-155375496D01*
X181420804Y-155351227D01*
X181426765Y-155327429D01*
X181435030Y-155304329D01*
X181445520Y-155282151D01*
X181458133Y-155261107D01*
X181472747Y-155241402D01*
X181489223Y-155223223D01*
X181507402Y-155206747D01*
X181527107Y-155192133D01*
X181548151Y-155179520D01*
X181570329Y-155169030D01*
X181593429Y-155160765D01*
X181617227Y-155154804D01*
X181641496Y-155151204D01*
X181666000Y-155150000D01*
X182916000Y-155150000D01*
X182940504Y-155151204D01*
G37*
G36*
X182940504Y-152176204D02*
G01*
X182964773Y-152179804D01*
X182988571Y-152185765D01*
X183011671Y-152194030D01*
X183033849Y-152204520D01*
X183054893Y-152217133D01*
X183074598Y-152231747D01*
X183092777Y-152248223D01*
X183109253Y-152266402D01*
X183123867Y-152286107D01*
X183136480Y-152307151D01*
X183146970Y-152329329D01*
X183155235Y-152352429D01*
X183161196Y-152376227D01*
X183164796Y-152400496D01*
X183166000Y-152425000D01*
X183166000Y-153350000D01*
X183164796Y-153374504D01*
X183161196Y-153398773D01*
X183155235Y-153422571D01*
X183146970Y-153445671D01*
X183136480Y-153467849D01*
X183123867Y-153488893D01*
X183109253Y-153508598D01*
X183092777Y-153526777D01*
X183074598Y-153543253D01*
X183054893Y-153557867D01*
X183033849Y-153570480D01*
X183011671Y-153580970D01*
X182988571Y-153589235D01*
X182964773Y-153595196D01*
X182940504Y-153598796D01*
X182916000Y-153600000D01*
X181666000Y-153600000D01*
X181641496Y-153598796D01*
X181617227Y-153595196D01*
X181593429Y-153589235D01*
X181570329Y-153580970D01*
X181548151Y-153570480D01*
X181527107Y-153557867D01*
X181507402Y-153543253D01*
X181489223Y-153526777D01*
X181472747Y-153508598D01*
X181458133Y-153488893D01*
X181445520Y-153467849D01*
X181435030Y-153445671D01*
X181426765Y-153422571D01*
X181420804Y-153398773D01*
X181417204Y-153374504D01*
X181416000Y-153350000D01*
X181416000Y-152425000D01*
X181417204Y-152400496D01*
X181420804Y-152376227D01*
X181426765Y-152352429D01*
X181435030Y-152329329D01*
X181445520Y-152307151D01*
X181458133Y-152286107D01*
X181472747Y-152266402D01*
X181489223Y-152248223D01*
X181507402Y-152231747D01*
X181527107Y-152217133D01*
X181548151Y-152204520D01*
X181570329Y-152194030D01*
X181593429Y-152185765D01*
X181617227Y-152179804D01*
X181641496Y-152176204D01*
X181666000Y-152175000D01*
X182916000Y-152175000D01*
X182940504Y-152176204D01*
G37*
G36*
X95383504Y-177005204D02*
G01*
X95407773Y-177008804D01*
X95431571Y-177014765D01*
X95454671Y-177023030D01*
X95476849Y-177033520D01*
X95497893Y-177046133D01*
X95517598Y-177060747D01*
X95535777Y-177077223D01*
X95552253Y-177095402D01*
X95566867Y-177115107D01*
X95579480Y-177136151D01*
X95589970Y-177158329D01*
X95598235Y-177181429D01*
X95604196Y-177205227D01*
X95607796Y-177229496D01*
X95609000Y-177254000D01*
X95609000Y-178179000D01*
X95607796Y-178203504D01*
X95604196Y-178227773D01*
X95598235Y-178251571D01*
X95589970Y-178274671D01*
X95579480Y-178296849D01*
X95566867Y-178317893D01*
X95552253Y-178337598D01*
X95535777Y-178355777D01*
X95517598Y-178372253D01*
X95497893Y-178386867D01*
X95476849Y-178399480D01*
X95454671Y-178409970D01*
X95431571Y-178418235D01*
X95407773Y-178424196D01*
X95383504Y-178427796D01*
X95359000Y-178429000D01*
X94109000Y-178429000D01*
X94084496Y-178427796D01*
X94060227Y-178424196D01*
X94036429Y-178418235D01*
X94013329Y-178409970D01*
X93991151Y-178399480D01*
X93970107Y-178386867D01*
X93950402Y-178372253D01*
X93932223Y-178355777D01*
X93915747Y-178337598D01*
X93901133Y-178317893D01*
X93888520Y-178296849D01*
X93878030Y-178274671D01*
X93869765Y-178251571D01*
X93863804Y-178227773D01*
X93860204Y-178203504D01*
X93859000Y-178179000D01*
X93859000Y-177254000D01*
X93860204Y-177229496D01*
X93863804Y-177205227D01*
X93869765Y-177181429D01*
X93878030Y-177158329D01*
X93888520Y-177136151D01*
X93901133Y-177115107D01*
X93915747Y-177095402D01*
X93932223Y-177077223D01*
X93950402Y-177060747D01*
X93970107Y-177046133D01*
X93991151Y-177033520D01*
X94013329Y-177023030D01*
X94036429Y-177014765D01*
X94060227Y-177008804D01*
X94084496Y-177005204D01*
X94109000Y-177004000D01*
X95359000Y-177004000D01*
X95383504Y-177005204D01*
G37*
G36*
X95383504Y-174030204D02*
G01*
X95407773Y-174033804D01*
X95431571Y-174039765D01*
X95454671Y-174048030D01*
X95476849Y-174058520D01*
X95497893Y-174071133D01*
X95517598Y-174085747D01*
X95535777Y-174102223D01*
X95552253Y-174120402D01*
X95566867Y-174140107D01*
X95579480Y-174161151D01*
X95589970Y-174183329D01*
X95598235Y-174206429D01*
X95604196Y-174230227D01*
X95607796Y-174254496D01*
X95609000Y-174279000D01*
X95609000Y-175204000D01*
X95607796Y-175228504D01*
X95604196Y-175252773D01*
X95598235Y-175276571D01*
X95589970Y-175299671D01*
X95579480Y-175321849D01*
X95566867Y-175342893D01*
X95552253Y-175362598D01*
X95535777Y-175380777D01*
X95517598Y-175397253D01*
X95497893Y-175411867D01*
X95476849Y-175424480D01*
X95454671Y-175434970D01*
X95431571Y-175443235D01*
X95407773Y-175449196D01*
X95383504Y-175452796D01*
X95359000Y-175454000D01*
X94109000Y-175454000D01*
X94084496Y-175452796D01*
X94060227Y-175449196D01*
X94036429Y-175443235D01*
X94013329Y-175434970D01*
X93991151Y-175424480D01*
X93970107Y-175411867D01*
X93950402Y-175397253D01*
X93932223Y-175380777D01*
X93915747Y-175362598D01*
X93901133Y-175342893D01*
X93888520Y-175321849D01*
X93878030Y-175299671D01*
X93869765Y-175276571D01*
X93863804Y-175252773D01*
X93860204Y-175228504D01*
X93859000Y-175204000D01*
X93859000Y-174279000D01*
X93860204Y-174254496D01*
X93863804Y-174230227D01*
X93869765Y-174206429D01*
X93878030Y-174183329D01*
X93888520Y-174161151D01*
X93901133Y-174140107D01*
X93915747Y-174120402D01*
X93932223Y-174102223D01*
X93950402Y-174085747D01*
X93970107Y-174071133D01*
X93991151Y-174058520D01*
X94013329Y-174048030D01*
X94036429Y-174039765D01*
X94060227Y-174033804D01*
X94084496Y-174030204D01*
X94109000Y-174029000D01*
X95359000Y-174029000D01*
X95383504Y-174030204D01*
G37*
G36*
X85843504Y-169905204D02*
G01*
X85867773Y-169908804D01*
X85891571Y-169914765D01*
X85914671Y-169923030D01*
X85936849Y-169933520D01*
X85957893Y-169946133D01*
X85977598Y-169960747D01*
X85995777Y-169977223D01*
X86012253Y-169995402D01*
X86026867Y-170015107D01*
X86039480Y-170036151D01*
X86049970Y-170058329D01*
X86058235Y-170081429D01*
X86064196Y-170105227D01*
X86067796Y-170129496D01*
X86069000Y-170154000D01*
X86069000Y-171404000D01*
X86067796Y-171428504D01*
X86064196Y-171452773D01*
X86058235Y-171476571D01*
X86049970Y-171499671D01*
X86039480Y-171521849D01*
X86026867Y-171542893D01*
X86012253Y-171562598D01*
X85995777Y-171580777D01*
X85977598Y-171597253D01*
X85957893Y-171611867D01*
X85936849Y-171624480D01*
X85914671Y-171634970D01*
X85891571Y-171643235D01*
X85867773Y-171649196D01*
X85843504Y-171652796D01*
X85819000Y-171654000D01*
X84894000Y-171654000D01*
X84869496Y-171652796D01*
X84845227Y-171649196D01*
X84821429Y-171643235D01*
X84798329Y-171634970D01*
X84776151Y-171624480D01*
X84755107Y-171611867D01*
X84735402Y-171597253D01*
X84717223Y-171580777D01*
X84700747Y-171562598D01*
X84686133Y-171542893D01*
X84673520Y-171521849D01*
X84663030Y-171499671D01*
X84654765Y-171476571D01*
X84648804Y-171452773D01*
X84645204Y-171428504D01*
X84644000Y-171404000D01*
X84644000Y-170154000D01*
X84645204Y-170129496D01*
X84648804Y-170105227D01*
X84654765Y-170081429D01*
X84663030Y-170058329D01*
X84673520Y-170036151D01*
X84686133Y-170015107D01*
X84700747Y-169995402D01*
X84717223Y-169977223D01*
X84735402Y-169960747D01*
X84755107Y-169946133D01*
X84776151Y-169933520D01*
X84798329Y-169923030D01*
X84821429Y-169914765D01*
X84845227Y-169908804D01*
X84869496Y-169905204D01*
X84894000Y-169904000D01*
X85819000Y-169904000D01*
X85843504Y-169905204D01*
G37*
G36*
X88818504Y-169905204D02*
G01*
X88842773Y-169908804D01*
X88866571Y-169914765D01*
X88889671Y-169923030D01*
X88911849Y-169933520D01*
X88932893Y-169946133D01*
X88952598Y-169960747D01*
X88970777Y-169977223D01*
X88987253Y-169995402D01*
X89001867Y-170015107D01*
X89014480Y-170036151D01*
X89024970Y-170058329D01*
X89033235Y-170081429D01*
X89039196Y-170105227D01*
X89042796Y-170129496D01*
X89044000Y-170154000D01*
X89044000Y-171404000D01*
X89042796Y-171428504D01*
X89039196Y-171452773D01*
X89033235Y-171476571D01*
X89024970Y-171499671D01*
X89014480Y-171521849D01*
X89001867Y-171542893D01*
X88987253Y-171562598D01*
X88970777Y-171580777D01*
X88952598Y-171597253D01*
X88932893Y-171611867D01*
X88911849Y-171624480D01*
X88889671Y-171634970D01*
X88866571Y-171643235D01*
X88842773Y-171649196D01*
X88818504Y-171652796D01*
X88794000Y-171654000D01*
X87869000Y-171654000D01*
X87844496Y-171652796D01*
X87820227Y-171649196D01*
X87796429Y-171643235D01*
X87773329Y-171634970D01*
X87751151Y-171624480D01*
X87730107Y-171611867D01*
X87710402Y-171597253D01*
X87692223Y-171580777D01*
X87675747Y-171562598D01*
X87661133Y-171542893D01*
X87648520Y-171521849D01*
X87638030Y-171499671D01*
X87629765Y-171476571D01*
X87623804Y-171452773D01*
X87620204Y-171428504D01*
X87619000Y-171404000D01*
X87619000Y-170154000D01*
X87620204Y-170129496D01*
X87623804Y-170105227D01*
X87629765Y-170081429D01*
X87638030Y-170058329D01*
X87648520Y-170036151D01*
X87661133Y-170015107D01*
X87675747Y-169995402D01*
X87692223Y-169977223D01*
X87710402Y-169960747D01*
X87730107Y-169946133D01*
X87751151Y-169933520D01*
X87773329Y-169923030D01*
X87796429Y-169914765D01*
X87820227Y-169908804D01*
X87844496Y-169905204D01*
X87869000Y-169904000D01*
X88794000Y-169904000D01*
X88818504Y-169905204D01*
G37*
G36*
X174340504Y-155976204D02*
G01*
X174364773Y-155979804D01*
X174388571Y-155985765D01*
X174411671Y-155994030D01*
X174433849Y-156004520D01*
X174454893Y-156017133D01*
X174474598Y-156031747D01*
X174492777Y-156048223D01*
X174509253Y-156066402D01*
X174523867Y-156086107D01*
X174536480Y-156107151D01*
X174546970Y-156129329D01*
X174555235Y-156152429D01*
X174561196Y-156176227D01*
X174564796Y-156200496D01*
X174566000Y-156225000D01*
X174566000Y-157150000D01*
X174564796Y-157174504D01*
X174561196Y-157198773D01*
X174555235Y-157222571D01*
X174546970Y-157245671D01*
X174536480Y-157267849D01*
X174523867Y-157288893D01*
X174509253Y-157308598D01*
X174492777Y-157326777D01*
X174474598Y-157343253D01*
X174454893Y-157357867D01*
X174433849Y-157370480D01*
X174411671Y-157380970D01*
X174388571Y-157389235D01*
X174364773Y-157395196D01*
X174340504Y-157398796D01*
X174316000Y-157400000D01*
X173066000Y-157400000D01*
X173041496Y-157398796D01*
X173017227Y-157395196D01*
X172993429Y-157389235D01*
X172970329Y-157380970D01*
X172948151Y-157370480D01*
X172927107Y-157357867D01*
X172907402Y-157343253D01*
X172889223Y-157326777D01*
X172872747Y-157308598D01*
X172858133Y-157288893D01*
X172845520Y-157267849D01*
X172835030Y-157245671D01*
X172826765Y-157222571D01*
X172820804Y-157198773D01*
X172817204Y-157174504D01*
X172816000Y-157150000D01*
X172816000Y-156225000D01*
X172817204Y-156200496D01*
X172820804Y-156176227D01*
X172826765Y-156152429D01*
X172835030Y-156129329D01*
X172845520Y-156107151D01*
X172858133Y-156086107D01*
X172872747Y-156066402D01*
X172889223Y-156048223D01*
X172907402Y-156031747D01*
X172927107Y-156017133D01*
X172948151Y-156004520D01*
X172970329Y-155994030D01*
X172993429Y-155985765D01*
X173017227Y-155979804D01*
X173041496Y-155976204D01*
X173066000Y-155975000D01*
X174316000Y-155975000D01*
X174340504Y-155976204D01*
G37*
G36*
X174340504Y-158951204D02*
G01*
X174364773Y-158954804D01*
X174388571Y-158960765D01*
X174411671Y-158969030D01*
X174433849Y-158979520D01*
X174454893Y-158992133D01*
X174474598Y-159006747D01*
X174492777Y-159023223D01*
X174509253Y-159041402D01*
X174523867Y-159061107D01*
X174536480Y-159082151D01*
X174546970Y-159104329D01*
X174555235Y-159127429D01*
X174561196Y-159151227D01*
X174564796Y-159175496D01*
X174566000Y-159200000D01*
X174566000Y-160125000D01*
X174564796Y-160149504D01*
X174561196Y-160173773D01*
X174555235Y-160197571D01*
X174546970Y-160220671D01*
X174536480Y-160242849D01*
X174523867Y-160263893D01*
X174509253Y-160283598D01*
X174492777Y-160301777D01*
X174474598Y-160318253D01*
X174454893Y-160332867D01*
X174433849Y-160345480D01*
X174411671Y-160355970D01*
X174388571Y-160364235D01*
X174364773Y-160370196D01*
X174340504Y-160373796D01*
X174316000Y-160375000D01*
X173066000Y-160375000D01*
X173041496Y-160373796D01*
X173017227Y-160370196D01*
X172993429Y-160364235D01*
X172970329Y-160355970D01*
X172948151Y-160345480D01*
X172927107Y-160332867D01*
X172907402Y-160318253D01*
X172889223Y-160301777D01*
X172872747Y-160283598D01*
X172858133Y-160263893D01*
X172845520Y-160242849D01*
X172835030Y-160220671D01*
X172826765Y-160197571D01*
X172820804Y-160173773D01*
X172817204Y-160149504D01*
X172816000Y-160125000D01*
X172816000Y-159200000D01*
X172817204Y-159175496D01*
X172820804Y-159151227D01*
X172826765Y-159127429D01*
X172835030Y-159104329D01*
X172845520Y-159082151D01*
X172858133Y-159061107D01*
X172872747Y-159041402D01*
X172889223Y-159023223D01*
X172907402Y-159006747D01*
X172927107Y-158992133D01*
X172948151Y-158979520D01*
X172970329Y-158969030D01*
X172993429Y-158960765D01*
X173017227Y-158954804D01*
X173041496Y-158951204D01*
X173066000Y-158950000D01*
X174316000Y-158950000D01*
X174340504Y-158951204D01*
G37*
G36*
X178040504Y-155976204D02*
G01*
X178064773Y-155979804D01*
X178088571Y-155985765D01*
X178111671Y-155994030D01*
X178133849Y-156004520D01*
X178154893Y-156017133D01*
X178174598Y-156031747D01*
X178192777Y-156048223D01*
X178209253Y-156066402D01*
X178223867Y-156086107D01*
X178236480Y-156107151D01*
X178246970Y-156129329D01*
X178255235Y-156152429D01*
X178261196Y-156176227D01*
X178264796Y-156200496D01*
X178266000Y-156225000D01*
X178266000Y-157150000D01*
X178264796Y-157174504D01*
X178261196Y-157198773D01*
X178255235Y-157222571D01*
X178246970Y-157245671D01*
X178236480Y-157267849D01*
X178223867Y-157288893D01*
X178209253Y-157308598D01*
X178192777Y-157326777D01*
X178174598Y-157343253D01*
X178154893Y-157357867D01*
X178133849Y-157370480D01*
X178111671Y-157380970D01*
X178088571Y-157389235D01*
X178064773Y-157395196D01*
X178040504Y-157398796D01*
X178016000Y-157400000D01*
X176766000Y-157400000D01*
X176741496Y-157398796D01*
X176717227Y-157395196D01*
X176693429Y-157389235D01*
X176670329Y-157380970D01*
X176648151Y-157370480D01*
X176627107Y-157357867D01*
X176607402Y-157343253D01*
X176589223Y-157326777D01*
X176572747Y-157308598D01*
X176558133Y-157288893D01*
X176545520Y-157267849D01*
X176535030Y-157245671D01*
X176526765Y-157222571D01*
X176520804Y-157198773D01*
X176517204Y-157174504D01*
X176516000Y-157150000D01*
X176516000Y-156225000D01*
X176517204Y-156200496D01*
X176520804Y-156176227D01*
X176526765Y-156152429D01*
X176535030Y-156129329D01*
X176545520Y-156107151D01*
X176558133Y-156086107D01*
X176572747Y-156066402D01*
X176589223Y-156048223D01*
X176607402Y-156031747D01*
X176627107Y-156017133D01*
X176648151Y-156004520D01*
X176670329Y-155994030D01*
X176693429Y-155985765D01*
X176717227Y-155979804D01*
X176741496Y-155976204D01*
X176766000Y-155975000D01*
X178016000Y-155975000D01*
X178040504Y-155976204D01*
G37*
G36*
X178040504Y-158951204D02*
G01*
X178064773Y-158954804D01*
X178088571Y-158960765D01*
X178111671Y-158969030D01*
X178133849Y-158979520D01*
X178154893Y-158992133D01*
X178174598Y-159006747D01*
X178192777Y-159023223D01*
X178209253Y-159041402D01*
X178223867Y-159061107D01*
X178236480Y-159082151D01*
X178246970Y-159104329D01*
X178255235Y-159127429D01*
X178261196Y-159151227D01*
X178264796Y-159175496D01*
X178266000Y-159200000D01*
X178266000Y-160125000D01*
X178264796Y-160149504D01*
X178261196Y-160173773D01*
X178255235Y-160197571D01*
X178246970Y-160220671D01*
X178236480Y-160242849D01*
X178223867Y-160263893D01*
X178209253Y-160283598D01*
X178192777Y-160301777D01*
X178174598Y-160318253D01*
X178154893Y-160332867D01*
X178133849Y-160345480D01*
X178111671Y-160355970D01*
X178088571Y-160364235D01*
X178064773Y-160370196D01*
X178040504Y-160373796D01*
X178016000Y-160375000D01*
X176766000Y-160375000D01*
X176741496Y-160373796D01*
X176717227Y-160370196D01*
X176693429Y-160364235D01*
X176670329Y-160355970D01*
X176648151Y-160345480D01*
X176627107Y-160332867D01*
X176607402Y-160318253D01*
X176589223Y-160301777D01*
X176572747Y-160283598D01*
X176558133Y-160263893D01*
X176545520Y-160242849D01*
X176535030Y-160220671D01*
X176526765Y-160197571D01*
X176520804Y-160173773D01*
X176517204Y-160149504D01*
X176516000Y-160125000D01*
X176516000Y-159200000D01*
X176517204Y-159175496D01*
X176520804Y-159151227D01*
X176526765Y-159127429D01*
X176535030Y-159104329D01*
X176545520Y-159082151D01*
X176558133Y-159061107D01*
X176572747Y-159041402D01*
X176589223Y-159023223D01*
X176607402Y-159006747D01*
X176627107Y-158992133D01*
X176648151Y-158979520D01*
X176670329Y-158969030D01*
X176693429Y-158960765D01*
X176717227Y-158954804D01*
X176741496Y-158951204D01*
X176766000Y-158950000D01*
X178016000Y-158950000D01*
X178040504Y-158951204D01*
G37*
G36*
X170615504Y-158951204D02*
G01*
X170639773Y-158954804D01*
X170663571Y-158960765D01*
X170686671Y-158969030D01*
X170708849Y-158979520D01*
X170729893Y-158992133D01*
X170749598Y-159006747D01*
X170767777Y-159023223D01*
X170784253Y-159041402D01*
X170798867Y-159061107D01*
X170811480Y-159082151D01*
X170821970Y-159104329D01*
X170830235Y-159127429D01*
X170836196Y-159151227D01*
X170839796Y-159175496D01*
X170841000Y-159200000D01*
X170841000Y-160125000D01*
X170839796Y-160149504D01*
X170836196Y-160173773D01*
X170830235Y-160197571D01*
X170821970Y-160220671D01*
X170811480Y-160242849D01*
X170798867Y-160263893D01*
X170784253Y-160283598D01*
X170767777Y-160301777D01*
X170749598Y-160318253D01*
X170729893Y-160332867D01*
X170708849Y-160345480D01*
X170686671Y-160355970D01*
X170663571Y-160364235D01*
X170639773Y-160370196D01*
X170615504Y-160373796D01*
X170591000Y-160375000D01*
X169341000Y-160375000D01*
X169316496Y-160373796D01*
X169292227Y-160370196D01*
X169268429Y-160364235D01*
X169245329Y-160355970D01*
X169223151Y-160345480D01*
X169202107Y-160332867D01*
X169182402Y-160318253D01*
X169164223Y-160301777D01*
X169147747Y-160283598D01*
X169133133Y-160263893D01*
X169120520Y-160242849D01*
X169110030Y-160220671D01*
X169101765Y-160197571D01*
X169095804Y-160173773D01*
X169092204Y-160149504D01*
X169091000Y-160125000D01*
X169091000Y-159200000D01*
X169092204Y-159175496D01*
X169095804Y-159151227D01*
X169101765Y-159127429D01*
X169110030Y-159104329D01*
X169120520Y-159082151D01*
X169133133Y-159061107D01*
X169147747Y-159041402D01*
X169164223Y-159023223D01*
X169182402Y-159006747D01*
X169202107Y-158992133D01*
X169223151Y-158979520D01*
X169245329Y-158969030D01*
X169268429Y-158960765D01*
X169292227Y-158954804D01*
X169316496Y-158951204D01*
X169341000Y-158950000D01*
X170591000Y-158950000D01*
X170615504Y-158951204D01*
G37*
G36*
X170615504Y-155976204D02*
G01*
X170639773Y-155979804D01*
X170663571Y-155985765D01*
X170686671Y-155994030D01*
X170708849Y-156004520D01*
X170729893Y-156017133D01*
X170749598Y-156031747D01*
X170767777Y-156048223D01*
X170784253Y-156066402D01*
X170798867Y-156086107D01*
X170811480Y-156107151D01*
X170821970Y-156129329D01*
X170830235Y-156152429D01*
X170836196Y-156176227D01*
X170839796Y-156200496D01*
X170841000Y-156225000D01*
X170841000Y-157150000D01*
X170839796Y-157174504D01*
X170836196Y-157198773D01*
X170830235Y-157222571D01*
X170821970Y-157245671D01*
X170811480Y-157267849D01*
X170798867Y-157288893D01*
X170784253Y-157308598D01*
X170767777Y-157326777D01*
X170749598Y-157343253D01*
X170729893Y-157357867D01*
X170708849Y-157370480D01*
X170686671Y-157380970D01*
X170663571Y-157389235D01*
X170639773Y-157395196D01*
X170615504Y-157398796D01*
X170591000Y-157400000D01*
X169341000Y-157400000D01*
X169316496Y-157398796D01*
X169292227Y-157395196D01*
X169268429Y-157389235D01*
X169245329Y-157380970D01*
X169223151Y-157370480D01*
X169202107Y-157357867D01*
X169182402Y-157343253D01*
X169164223Y-157326777D01*
X169147747Y-157308598D01*
X169133133Y-157288893D01*
X169120520Y-157267849D01*
X169110030Y-157245671D01*
X169101765Y-157222571D01*
X169095804Y-157198773D01*
X169092204Y-157174504D01*
X169091000Y-157150000D01*
X169091000Y-156225000D01*
X169092204Y-156200496D01*
X169095804Y-156176227D01*
X169101765Y-156152429D01*
X169110030Y-156129329D01*
X169120520Y-156107151D01*
X169133133Y-156086107D01*
X169147747Y-156066402D01*
X169164223Y-156048223D01*
X169182402Y-156031747D01*
X169202107Y-156017133D01*
X169223151Y-156004520D01*
X169245329Y-155994030D01*
X169268429Y-155985765D01*
X169292227Y-155979804D01*
X169316496Y-155976204D01*
X169341000Y-155975000D01*
X170591000Y-155975000D01*
X170615504Y-155976204D01*
G37*
G36*
X202490504Y-155976204D02*
G01*
X202514773Y-155979804D01*
X202538571Y-155985765D01*
X202561671Y-155994030D01*
X202583849Y-156004520D01*
X202604893Y-156017133D01*
X202624598Y-156031747D01*
X202642777Y-156048223D01*
X202659253Y-156066402D01*
X202673867Y-156086107D01*
X202686480Y-156107151D01*
X202696970Y-156129329D01*
X202705235Y-156152429D01*
X202711196Y-156176227D01*
X202714796Y-156200496D01*
X202716000Y-156225000D01*
X202716000Y-157150000D01*
X202714796Y-157174504D01*
X202711196Y-157198773D01*
X202705235Y-157222571D01*
X202696970Y-157245671D01*
X202686480Y-157267849D01*
X202673867Y-157288893D01*
X202659253Y-157308598D01*
X202642777Y-157326777D01*
X202624598Y-157343253D01*
X202604893Y-157357867D01*
X202583849Y-157370480D01*
X202561671Y-157380970D01*
X202538571Y-157389235D01*
X202514773Y-157395196D01*
X202490504Y-157398796D01*
X202466000Y-157400000D01*
X201216000Y-157400000D01*
X201191496Y-157398796D01*
X201167227Y-157395196D01*
X201143429Y-157389235D01*
X201120329Y-157380970D01*
X201098151Y-157370480D01*
X201077107Y-157357867D01*
X201057402Y-157343253D01*
X201039223Y-157326777D01*
X201022747Y-157308598D01*
X201008133Y-157288893D01*
X200995520Y-157267849D01*
X200985030Y-157245671D01*
X200976765Y-157222571D01*
X200970804Y-157198773D01*
X200967204Y-157174504D01*
X200966000Y-157150000D01*
X200966000Y-156225000D01*
X200967204Y-156200496D01*
X200970804Y-156176227D01*
X200976765Y-156152429D01*
X200985030Y-156129329D01*
X200995520Y-156107151D01*
X201008133Y-156086107D01*
X201022747Y-156066402D01*
X201039223Y-156048223D01*
X201057402Y-156031747D01*
X201077107Y-156017133D01*
X201098151Y-156004520D01*
X201120329Y-155994030D01*
X201143429Y-155985765D01*
X201167227Y-155979804D01*
X201191496Y-155976204D01*
X201216000Y-155975000D01*
X202466000Y-155975000D01*
X202490504Y-155976204D01*
G37*
G36*
X202490504Y-158951204D02*
G01*
X202514773Y-158954804D01*
X202538571Y-158960765D01*
X202561671Y-158969030D01*
X202583849Y-158979520D01*
X202604893Y-158992133D01*
X202624598Y-159006747D01*
X202642777Y-159023223D01*
X202659253Y-159041402D01*
X202673867Y-159061107D01*
X202686480Y-159082151D01*
X202696970Y-159104329D01*
X202705235Y-159127429D01*
X202711196Y-159151227D01*
X202714796Y-159175496D01*
X202716000Y-159200000D01*
X202716000Y-160125000D01*
X202714796Y-160149504D01*
X202711196Y-160173773D01*
X202705235Y-160197571D01*
X202696970Y-160220671D01*
X202686480Y-160242849D01*
X202673867Y-160263893D01*
X202659253Y-160283598D01*
X202642777Y-160301777D01*
X202624598Y-160318253D01*
X202604893Y-160332867D01*
X202583849Y-160345480D01*
X202561671Y-160355970D01*
X202538571Y-160364235D01*
X202514773Y-160370196D01*
X202490504Y-160373796D01*
X202466000Y-160375000D01*
X201216000Y-160375000D01*
X201191496Y-160373796D01*
X201167227Y-160370196D01*
X201143429Y-160364235D01*
X201120329Y-160355970D01*
X201098151Y-160345480D01*
X201077107Y-160332867D01*
X201057402Y-160318253D01*
X201039223Y-160301777D01*
X201022747Y-160283598D01*
X201008133Y-160263893D01*
X200995520Y-160242849D01*
X200985030Y-160220671D01*
X200976765Y-160197571D01*
X200970804Y-160173773D01*
X200967204Y-160149504D01*
X200966000Y-160125000D01*
X200966000Y-159200000D01*
X200967204Y-159175496D01*
X200970804Y-159151227D01*
X200976765Y-159127429D01*
X200985030Y-159104329D01*
X200995520Y-159082151D01*
X201008133Y-159061107D01*
X201022747Y-159041402D01*
X201039223Y-159023223D01*
X201057402Y-159006747D01*
X201077107Y-158992133D01*
X201098151Y-158979520D01*
X201120329Y-158969030D01*
X201143429Y-158960765D01*
X201167227Y-158954804D01*
X201191496Y-158951204D01*
X201216000Y-158950000D01*
X202466000Y-158950000D01*
X202490504Y-158951204D01*
G37*
G36*
X206215504Y-155976204D02*
G01*
X206239773Y-155979804D01*
X206263571Y-155985765D01*
X206286671Y-155994030D01*
X206308849Y-156004520D01*
X206329893Y-156017133D01*
X206349598Y-156031747D01*
X206367777Y-156048223D01*
X206384253Y-156066402D01*
X206398867Y-156086107D01*
X206411480Y-156107151D01*
X206421970Y-156129329D01*
X206430235Y-156152429D01*
X206436196Y-156176227D01*
X206439796Y-156200496D01*
X206441000Y-156225000D01*
X206441000Y-157150000D01*
X206439796Y-157174504D01*
X206436196Y-157198773D01*
X206430235Y-157222571D01*
X206421970Y-157245671D01*
X206411480Y-157267849D01*
X206398867Y-157288893D01*
X206384253Y-157308598D01*
X206367777Y-157326777D01*
X206349598Y-157343253D01*
X206329893Y-157357867D01*
X206308849Y-157370480D01*
X206286671Y-157380970D01*
X206263571Y-157389235D01*
X206239773Y-157395196D01*
X206215504Y-157398796D01*
X206191000Y-157400000D01*
X204941000Y-157400000D01*
X204916496Y-157398796D01*
X204892227Y-157395196D01*
X204868429Y-157389235D01*
X204845329Y-157380970D01*
X204823151Y-157370480D01*
X204802107Y-157357867D01*
X204782402Y-157343253D01*
X204764223Y-157326777D01*
X204747747Y-157308598D01*
X204733133Y-157288893D01*
X204720520Y-157267849D01*
X204710030Y-157245671D01*
X204701765Y-157222571D01*
X204695804Y-157198773D01*
X204692204Y-157174504D01*
X204691000Y-157150000D01*
X204691000Y-156225000D01*
X204692204Y-156200496D01*
X204695804Y-156176227D01*
X204701765Y-156152429D01*
X204710030Y-156129329D01*
X204720520Y-156107151D01*
X204733133Y-156086107D01*
X204747747Y-156066402D01*
X204764223Y-156048223D01*
X204782402Y-156031747D01*
X204802107Y-156017133D01*
X204823151Y-156004520D01*
X204845329Y-155994030D01*
X204868429Y-155985765D01*
X204892227Y-155979804D01*
X204916496Y-155976204D01*
X204941000Y-155975000D01*
X206191000Y-155975000D01*
X206215504Y-155976204D01*
G37*
G36*
X206215504Y-158951204D02*
G01*
X206239773Y-158954804D01*
X206263571Y-158960765D01*
X206286671Y-158969030D01*
X206308849Y-158979520D01*
X206329893Y-158992133D01*
X206349598Y-159006747D01*
X206367777Y-159023223D01*
X206384253Y-159041402D01*
X206398867Y-159061107D01*
X206411480Y-159082151D01*
X206421970Y-159104329D01*
X206430235Y-159127429D01*
X206436196Y-159151227D01*
X206439796Y-159175496D01*
X206441000Y-159200000D01*
X206441000Y-160125000D01*
X206439796Y-160149504D01*
X206436196Y-160173773D01*
X206430235Y-160197571D01*
X206421970Y-160220671D01*
X206411480Y-160242849D01*
X206398867Y-160263893D01*
X206384253Y-160283598D01*
X206367777Y-160301777D01*
X206349598Y-160318253D01*
X206329893Y-160332867D01*
X206308849Y-160345480D01*
X206286671Y-160355970D01*
X206263571Y-160364235D01*
X206239773Y-160370196D01*
X206215504Y-160373796D01*
X206191000Y-160375000D01*
X204941000Y-160375000D01*
X204916496Y-160373796D01*
X204892227Y-160370196D01*
X204868429Y-160364235D01*
X204845329Y-160355970D01*
X204823151Y-160345480D01*
X204802107Y-160332867D01*
X204782402Y-160318253D01*
X204764223Y-160301777D01*
X204747747Y-160283598D01*
X204733133Y-160263893D01*
X204720520Y-160242849D01*
X204710030Y-160220671D01*
X204701765Y-160197571D01*
X204695804Y-160173773D01*
X204692204Y-160149504D01*
X204691000Y-160125000D01*
X204691000Y-159200000D01*
X204692204Y-159175496D01*
X204695804Y-159151227D01*
X204701765Y-159127429D01*
X204710030Y-159104329D01*
X204720520Y-159082151D01*
X204733133Y-159061107D01*
X204747747Y-159041402D01*
X204764223Y-159023223D01*
X204782402Y-159006747D01*
X204802107Y-158992133D01*
X204823151Y-158979520D01*
X204845329Y-158969030D01*
X204868429Y-158960765D01*
X204892227Y-158954804D01*
X204916496Y-158951204D01*
X204941000Y-158950000D01*
X206191000Y-158950000D01*
X206215504Y-158951204D01*
G37*
G36*
X198790504Y-158951204D02*
G01*
X198814773Y-158954804D01*
X198838571Y-158960765D01*
X198861671Y-158969030D01*
X198883849Y-158979520D01*
X198904893Y-158992133D01*
X198924598Y-159006747D01*
X198942777Y-159023223D01*
X198959253Y-159041402D01*
X198973867Y-159061107D01*
X198986480Y-159082151D01*
X198996970Y-159104329D01*
X199005235Y-159127429D01*
X199011196Y-159151227D01*
X199014796Y-159175496D01*
X199016000Y-159200000D01*
X199016000Y-160125000D01*
X199014796Y-160149504D01*
X199011196Y-160173773D01*
X199005235Y-160197571D01*
X198996970Y-160220671D01*
X198986480Y-160242849D01*
X198973867Y-160263893D01*
X198959253Y-160283598D01*
X198942777Y-160301777D01*
X198924598Y-160318253D01*
X198904893Y-160332867D01*
X198883849Y-160345480D01*
X198861671Y-160355970D01*
X198838571Y-160364235D01*
X198814773Y-160370196D01*
X198790504Y-160373796D01*
X198766000Y-160375000D01*
X197516000Y-160375000D01*
X197491496Y-160373796D01*
X197467227Y-160370196D01*
X197443429Y-160364235D01*
X197420329Y-160355970D01*
X197398151Y-160345480D01*
X197377107Y-160332867D01*
X197357402Y-160318253D01*
X197339223Y-160301777D01*
X197322747Y-160283598D01*
X197308133Y-160263893D01*
X197295520Y-160242849D01*
X197285030Y-160220671D01*
X197276765Y-160197571D01*
X197270804Y-160173773D01*
X197267204Y-160149504D01*
X197266000Y-160125000D01*
X197266000Y-159200000D01*
X197267204Y-159175496D01*
X197270804Y-159151227D01*
X197276765Y-159127429D01*
X197285030Y-159104329D01*
X197295520Y-159082151D01*
X197308133Y-159061107D01*
X197322747Y-159041402D01*
X197339223Y-159023223D01*
X197357402Y-159006747D01*
X197377107Y-158992133D01*
X197398151Y-158979520D01*
X197420329Y-158969030D01*
X197443429Y-158960765D01*
X197467227Y-158954804D01*
X197491496Y-158951204D01*
X197516000Y-158950000D01*
X198766000Y-158950000D01*
X198790504Y-158951204D01*
G37*
G36*
X198790504Y-155976204D02*
G01*
X198814773Y-155979804D01*
X198838571Y-155985765D01*
X198861671Y-155994030D01*
X198883849Y-156004520D01*
X198904893Y-156017133D01*
X198924598Y-156031747D01*
X198942777Y-156048223D01*
X198959253Y-156066402D01*
X198973867Y-156086107D01*
X198986480Y-156107151D01*
X198996970Y-156129329D01*
X199005235Y-156152429D01*
X199011196Y-156176227D01*
X199014796Y-156200496D01*
X199016000Y-156225000D01*
X199016000Y-157150000D01*
X199014796Y-157174504D01*
X199011196Y-157198773D01*
X199005235Y-157222571D01*
X198996970Y-157245671D01*
X198986480Y-157267849D01*
X198973867Y-157288893D01*
X198959253Y-157308598D01*
X198942777Y-157326777D01*
X198924598Y-157343253D01*
X198904893Y-157357867D01*
X198883849Y-157370480D01*
X198861671Y-157380970D01*
X198838571Y-157389235D01*
X198814773Y-157395196D01*
X198790504Y-157398796D01*
X198766000Y-157400000D01*
X197516000Y-157400000D01*
X197491496Y-157398796D01*
X197467227Y-157395196D01*
X197443429Y-157389235D01*
X197420329Y-157380970D01*
X197398151Y-157370480D01*
X197377107Y-157357867D01*
X197357402Y-157343253D01*
X197339223Y-157326777D01*
X197322747Y-157308598D01*
X197308133Y-157288893D01*
X197295520Y-157267849D01*
X197285030Y-157245671D01*
X197276765Y-157222571D01*
X197270804Y-157198773D01*
X197267204Y-157174504D01*
X197266000Y-157150000D01*
X197266000Y-156225000D01*
X197267204Y-156200496D01*
X197270804Y-156176227D01*
X197276765Y-156152429D01*
X197285030Y-156129329D01*
X197295520Y-156107151D01*
X197308133Y-156086107D01*
X197322747Y-156066402D01*
X197339223Y-156048223D01*
X197357402Y-156031747D01*
X197377107Y-156017133D01*
X197398151Y-156004520D01*
X197420329Y-155994030D01*
X197443429Y-155985765D01*
X197467227Y-155979804D01*
X197491496Y-155976204D01*
X197516000Y-155975000D01*
X198766000Y-155975000D01*
X198790504Y-155976204D01*
G37*
D14*
X179245000Y-75905000D03*
X179245000Y-76855000D03*
X179245000Y-77805000D03*
X181945000Y-77805000D03*
X181945000Y-75905000D03*
M02*
