G04 #@! TF.GenerationSoftware,KiCad,Pcbnew,(5.1.5)-3*
G04 #@! TF.CreationDate,2021-05-17T18:43:42+02:00*
G04 #@! TF.ProjectId,MK2EE,4d4b3245-452e-46b6-9963-61645f706362,1*
G04 #@! TF.SameCoordinates,Original*
G04 #@! TF.FileFunction,Other,User*
%FSLAX46Y46*%
G04 Gerber Fmt 4.6, Leading zero omitted, Abs format (unit mm)*
G04 Created by KiCad (PCBNEW (5.1.5)-3) date 2021-05-17 18:43:42*
%MOMM*%
%LPD*%
G04 APERTURE LIST*
%ADD10C,0.050000*%
G04 APERTURE END LIST*
D10*
X220696000Y-194930000D02*
X235296000Y-194930000D01*
X220696000Y-179150000D02*
X220696000Y-194930000D01*
X235296000Y-194930000D02*
X235296000Y-179150000D01*
X235296000Y-179150000D02*
X220696000Y-179150000D01*
X246651000Y-183950000D02*
X255651000Y-183950000D01*
X246651000Y-191650000D02*
X246651000Y-183950000D01*
X255651000Y-191650000D02*
X246651000Y-191650000D01*
X255651000Y-183950000D02*
X255651000Y-191650000D01*
X281606000Y-179170000D02*
X267006000Y-179170000D01*
X281606000Y-194950000D02*
X281606000Y-179170000D01*
X267006000Y-179170000D02*
X267006000Y-194950000D01*
X267006000Y-194950000D02*
X281606000Y-194950000D01*
X249145000Y-104735000D02*
X244245000Y-104735000D01*
X249145000Y-106975000D02*
X249145000Y-104735000D01*
X244245000Y-106975000D02*
X249145000Y-106975000D01*
X244245000Y-104735000D02*
X244245000Y-106975000D01*
X242275000Y-89655000D02*
X242275000Y-94555000D01*
X244515000Y-89655000D02*
X242275000Y-89655000D01*
X244515000Y-94555000D02*
X244515000Y-89655000D01*
X242275000Y-94555000D02*
X244515000Y-94555000D01*
X234935000Y-95415000D02*
X230035000Y-95415000D01*
X234935000Y-97655000D02*
X234935000Y-95415000D01*
X230035000Y-97655000D02*
X234935000Y-97655000D01*
X230035000Y-95415000D02*
X230035000Y-97655000D01*
X241995000Y-115905000D02*
X254995000Y-115905000D01*
X241995000Y-128655000D02*
X241995000Y-115905000D01*
X254995000Y-128655000D02*
X241995000Y-128655000D01*
X254995000Y-115905000D02*
X254995000Y-128655000D01*
X262380000Y-92115000D02*
X257480000Y-92115000D01*
X262380000Y-94355000D02*
X262380000Y-92115000D01*
X257480000Y-94355000D02*
X262380000Y-94355000D01*
X257480000Y-92115000D02*
X257480000Y-94355000D01*
X237520000Y-104900000D02*
X242420000Y-104900000D01*
X237520000Y-102660000D02*
X237520000Y-104900000D01*
X242420000Y-102660000D02*
X237520000Y-102660000D01*
X242420000Y-104900000D02*
X242420000Y-102660000D01*
X237520000Y-109600000D02*
X242420000Y-109600000D01*
X237520000Y-107360000D02*
X237520000Y-109600000D01*
X242420000Y-107360000D02*
X237520000Y-107360000D01*
X242420000Y-109600000D02*
X242420000Y-107360000D01*
X260490000Y-103165000D02*
X260490000Y-98265000D01*
X258250000Y-103165000D02*
X260490000Y-103165000D01*
X258250000Y-98265000D02*
X258250000Y-103165000D01*
X260490000Y-98265000D02*
X258250000Y-98265000D01*
X229740000Y-98015000D02*
X224840000Y-98015000D01*
X229740000Y-100255000D02*
X229740000Y-98015000D01*
X224840000Y-100255000D02*
X229740000Y-100255000D01*
X224840000Y-98015000D02*
X224840000Y-100255000D01*
X224840000Y-97855000D02*
X229740000Y-97855000D01*
X224840000Y-95615000D02*
X224840000Y-97855000D01*
X229740000Y-95615000D02*
X224840000Y-95615000D01*
X229740000Y-97855000D02*
X229740000Y-95615000D01*
X242420000Y-104985000D02*
X237520000Y-104985000D01*
X242420000Y-107225000D02*
X242420000Y-104985000D01*
X237520000Y-107225000D02*
X242420000Y-107225000D01*
X237520000Y-104985000D02*
X237520000Y-107225000D01*
X235285000Y-100100000D02*
X230385000Y-100100000D01*
X235285000Y-102340000D02*
X235285000Y-100100000D01*
X230385000Y-102340000D02*
X235285000Y-102340000D01*
X230385000Y-100100000D02*
X230385000Y-102340000D01*
X251620000Y-81610000D02*
X246720000Y-81610000D01*
X251620000Y-83850000D02*
X251620000Y-81610000D01*
X246720000Y-83850000D02*
X251620000Y-83850000D01*
X246720000Y-81610000D02*
X246720000Y-83850000D01*
X248182500Y-92200000D02*
X253082500Y-92200000D01*
X248182500Y-89960000D02*
X248182500Y-92200000D01*
X253082500Y-89960000D02*
X248182500Y-89960000D01*
X253082500Y-92200000D02*
X253082500Y-89960000D01*
X263180000Y-95955000D02*
X258280000Y-95955000D01*
X263180000Y-98195000D02*
X263180000Y-95955000D01*
X258280000Y-98195000D02*
X263180000Y-98195000D01*
X258280000Y-95955000D02*
X258280000Y-98195000D01*
X253820000Y-104575000D02*
X253820000Y-92235000D01*
X244520000Y-104575000D02*
X244520000Y-92235000D01*
X244520000Y-92235000D02*
X253820000Y-92235000D01*
X244520000Y-104575000D02*
X253820000Y-104575000D01*
X234985000Y-97655000D02*
X239885000Y-97655000D01*
X234985000Y-95415000D02*
X234985000Y-97655000D01*
X239885000Y-95415000D02*
X234985000Y-95415000D01*
X239885000Y-97655000D02*
X239885000Y-95415000D01*
X235335000Y-102340000D02*
X240235000Y-102340000D01*
X235335000Y-100100000D02*
X235335000Y-102340000D01*
X240235000Y-100100000D02*
X235335000Y-100100000D01*
X240235000Y-102340000D02*
X240235000Y-100100000D01*
X229120000Y-122280000D02*
X241320000Y-122280000D01*
X241320000Y-122280000D02*
X241320000Y-114180000D01*
X241320000Y-114180000D02*
X229120000Y-114180000D01*
X229120000Y-114180000D02*
X229120000Y-122280000D01*
X188345000Y-115905000D02*
X188345000Y-128655000D01*
X188345000Y-128655000D02*
X175345000Y-128655000D01*
X175345000Y-128655000D02*
X175345000Y-115905000D01*
X175345000Y-115905000D02*
X188345000Y-115905000D01*
X203896000Y-194950000D02*
X218496000Y-194950000D01*
X203896000Y-179170000D02*
X203896000Y-194950000D01*
X218496000Y-194950000D02*
X218496000Y-179170000D01*
X218496000Y-179170000D02*
X203896000Y-179170000D01*
X172186000Y-179150000D02*
X157586000Y-179150000D01*
X172186000Y-194930000D02*
X172186000Y-179150000D01*
X157586000Y-179150000D02*
X157586000Y-194930000D01*
X157586000Y-194930000D02*
X172186000Y-194930000D01*
X192541000Y-183950000D02*
X192541000Y-191650000D01*
X192541000Y-191650000D02*
X183541000Y-191650000D01*
X183541000Y-191650000D02*
X183541000Y-183950000D01*
X183541000Y-183950000D02*
X192541000Y-183950000D01*
X162470000Y-114180000D02*
X162470000Y-122280000D01*
X174670000Y-114180000D02*
X162470000Y-114180000D01*
X174670000Y-122280000D02*
X174670000Y-114180000D01*
X162470000Y-122280000D02*
X174670000Y-122280000D01*
X177870000Y-104575000D02*
X187170000Y-104575000D01*
X177870000Y-92235000D02*
X187170000Y-92235000D01*
X177870000Y-104575000D02*
X177870000Y-92235000D01*
X187170000Y-104575000D02*
X187170000Y-92235000D01*
X101939000Y-136224000D02*
X101939000Y-121624000D01*
X78539000Y-136224000D02*
X101939000Y-136224000D01*
X101939000Y-121624000D02*
X78539000Y-121624000D01*
X78539000Y-121624000D02*
X78539000Y-136224000D01*
X128289000Y-165004000D02*
X113689000Y-165004000D01*
X128289000Y-188404000D02*
X128289000Y-165004000D01*
X113689000Y-165004000D02*
X113689000Y-188404000D01*
X113689000Y-188404000D02*
X128289000Y-188404000D01*
X173585000Y-102340000D02*
X173585000Y-100100000D01*
X173585000Y-100100000D02*
X168685000Y-100100000D01*
X168685000Y-100100000D02*
X168685000Y-102340000D01*
X168685000Y-102340000D02*
X173585000Y-102340000D01*
X173235000Y-97655000D02*
X173235000Y-95415000D01*
X173235000Y-95415000D02*
X168335000Y-95415000D01*
X168335000Y-95415000D02*
X168335000Y-97655000D01*
X168335000Y-97655000D02*
X173235000Y-97655000D01*
X193840000Y-98265000D02*
X191600000Y-98265000D01*
X191600000Y-98265000D02*
X191600000Y-103165000D01*
X191600000Y-103165000D02*
X193840000Y-103165000D01*
X193840000Y-103165000D02*
X193840000Y-98265000D01*
X191630000Y-95955000D02*
X191630000Y-98195000D01*
X191630000Y-98195000D02*
X196530000Y-98195000D01*
X196530000Y-98195000D02*
X196530000Y-95955000D01*
X196530000Y-95955000D02*
X191630000Y-95955000D01*
X190830000Y-92115000D02*
X190830000Y-94355000D01*
X190830000Y-94355000D02*
X195730000Y-94355000D01*
X195730000Y-94355000D02*
X195730000Y-92115000D01*
X195730000Y-92115000D02*
X190830000Y-92115000D01*
X186432500Y-92200000D02*
X186432500Y-89960000D01*
X186432500Y-89960000D02*
X181532500Y-89960000D01*
X181532500Y-89960000D02*
X181532500Y-92200000D01*
X181532500Y-92200000D02*
X186432500Y-92200000D01*
X175770000Y-104900000D02*
X175770000Y-102660000D01*
X175770000Y-102660000D02*
X170870000Y-102660000D01*
X170870000Y-102660000D02*
X170870000Y-104900000D01*
X170870000Y-104900000D02*
X175770000Y-104900000D01*
X180070000Y-81610000D02*
X180070000Y-83850000D01*
X180070000Y-83850000D02*
X184970000Y-83850000D01*
X184970000Y-83850000D02*
X184970000Y-81610000D01*
X184970000Y-81610000D02*
X180070000Y-81610000D01*
X163735000Y-100100000D02*
X163735000Y-102340000D01*
X163735000Y-102340000D02*
X168635000Y-102340000D01*
X168635000Y-102340000D02*
X168635000Y-100100000D01*
X168635000Y-100100000D02*
X163735000Y-100100000D01*
X175770000Y-109600000D02*
X175770000Y-107360000D01*
X175770000Y-107360000D02*
X170870000Y-107360000D01*
X170870000Y-107360000D02*
X170870000Y-109600000D01*
X170870000Y-109600000D02*
X175770000Y-109600000D01*
X170870000Y-104985000D02*
X170870000Y-107225000D01*
X170870000Y-107225000D02*
X175770000Y-107225000D01*
X175770000Y-107225000D02*
X175770000Y-104985000D01*
X175770000Y-104985000D02*
X170870000Y-104985000D01*
X163090000Y-97855000D02*
X163090000Y-95615000D01*
X163090000Y-95615000D02*
X158190000Y-95615000D01*
X158190000Y-95615000D02*
X158190000Y-97855000D01*
X158190000Y-97855000D02*
X163090000Y-97855000D01*
X158190000Y-98015000D02*
X158190000Y-100255000D01*
X158190000Y-100255000D02*
X163090000Y-100255000D01*
X163090000Y-100255000D02*
X163090000Y-98015000D01*
X163090000Y-98015000D02*
X158190000Y-98015000D01*
X163385000Y-95415000D02*
X163385000Y-97655000D01*
X163385000Y-97655000D02*
X168285000Y-97655000D01*
X168285000Y-97655000D02*
X168285000Y-95415000D01*
X168285000Y-95415000D02*
X163385000Y-95415000D01*
X177595000Y-104735000D02*
X177595000Y-106975000D01*
X177595000Y-106975000D02*
X182495000Y-106975000D01*
X182495000Y-106975000D02*
X182495000Y-104735000D01*
X182495000Y-104735000D02*
X177595000Y-104735000D01*
X175625000Y-94555000D02*
X177865000Y-94555000D01*
X177865000Y-94555000D02*
X177865000Y-89655000D01*
X177865000Y-89655000D02*
X175625000Y-89655000D01*
X175625000Y-89655000D02*
X175625000Y-94555000D01*
M02*
