M48
; DRILL file {KiCad (5.1.5)-3} date 17/05/2021 18:48:10
; FORMAT={-:-/ absolute / inch / decimal}
; #@! TF.CreationDate,2021-05-17T18:48:10+02:00
; #@! TF.GenerationSoftware,Kicad,Pcbnew,(5.1.5)-3
; #@! TF.FileFunction,Plated,1,2,PTH
FMAT,2
INCH
T1C0.0118
T2C0.0150
T3C0.0197
T4C0.0300
T5C0.0315
T6C0.0394
T7C0.0400
T8C0.0402
T9C0.0669
%
G90
G05
T1
X7.1346Y-3.7207
X7.1346Y-3.7719
X7.1346Y-3.823
X7.1346Y-3.8742
X7.1346Y-3.9254
X7.1346Y-3.9766
X7.1346Y-4.0278
X7.1858Y-3.7207
X7.1858Y-3.7719
X7.1858Y-3.823
X7.1858Y-3.8742
X7.1858Y-3.9254
X7.1858Y-3.9766
X7.1858Y-4.0278
X7.237Y-3.7207
X7.237Y-3.7719
X7.237Y-3.823
X7.237Y-3.8742
X7.237Y-3.9254
X7.237Y-3.9766
X7.237Y-4.0278
X9.7587Y-3.7207
X9.7587Y-3.7719
X9.7587Y-3.823
X9.7587Y-3.8742
X9.7587Y-3.9254
X9.7587Y-3.9766
X9.7587Y-4.0278
X9.8098Y-3.7207
X9.8098Y-3.7719
X9.8098Y-3.823
X9.8098Y-3.8742
X9.8098Y-3.9254
X9.8098Y-3.9766
X9.8098Y-4.0278
X9.861Y-3.7207
X9.861Y-3.7719
X9.861Y-3.823
X9.861Y-3.8742
X9.861Y-3.9254
X9.861Y-3.9766
X9.861Y-4.0278
T2
X3.3094Y-6.9283
X3.4374Y-7.2049
X3.647Y-6.9283
X3.7927Y-6.7807
X4.0937Y-6.8232
X4.2504Y-6.8033
X4.2878Y-6.7571
X4.3832Y-6.8624
X6.2329Y-3.5839
X6.348Y-3.7254
X6.3719Y-4.0248
X6.6729Y-6.0364
X6.7124Y-3.451
X6.7685Y-4.3654
X6.803Y-3.5278
X6.836Y-3.6272
X6.8817Y-3.6719
X6.9132Y-3.3457
X6.9775Y-4.0428
X6.985Y-3.3447
X7.0538Y-6.5305
X7.1307Y-3.1774
X7.1315Y-6.752
X7.1768Y-5.9311
X7.179Y-6.2417
X7.3945Y-3.6803
X7.3974Y-3.4608
X7.423Y-3.982
X7.4267Y-3.7159
X7.4358Y-3.8102
X7.4575Y-4.0154
X7.5174Y-6.3484
X7.6522Y-6.2726
X7.6855Y-6.3072
X7.7624Y-6.0344
X8.8569Y-3.5839
X8.972Y-3.7254
X8.9959Y-4.0248
X9.1575Y-6.0364
X9.3364Y-3.451
X9.3925Y-4.3654
X9.427Y-3.5278
X9.46Y-3.6272
X9.5057Y-3.6719
X9.5372Y-3.3457
X9.5384Y-6.5305
X9.6015Y-4.0428
X9.6091Y-3.3447
X9.6162Y-6.752
X9.6615Y-5.9311
X9.6636Y-6.2417
X9.7547Y-3.1774
X10.002Y-6.3484
X10.0185Y-3.6803
X10.0215Y-3.4608
X10.047Y-3.982
X10.0507Y-3.7159
X10.0598Y-3.8102
X10.0815Y-4.0154
X10.1369Y-6.2726
X10.1701Y-6.3072
X10.2471Y-6.0344
T3
X4.345Y-5.0795
X7.6327Y-3.1715
X6.8699Y-4.4146
X7.7228Y-4.5598
X9.0598Y-4.4392
X5.2295Y-3.5618
X9.4939Y-4.4146
X7.0937Y-2.786
X6.4358Y-4.4392
X2.5941Y-6.5441
X1.7565Y-3.107
X4.907Y-2.7035
X6.7252Y-6.8409
X9.7177Y-2.786
X10.2567Y-3.1715
X9.2098Y-6.8409
X5.1767Y-2.1996
X10.3469Y-4.5598
T4
X2.9444Y-2.5362
X3.2588Y-6.7244
X3.7248Y-7.0848
X3.8441Y-2.0933
X4.3224Y-4.6828
X5.2801Y-4.4791
X5.283Y-4.5933
X5.3126Y-4.7114
X5.3883Y-4.3728
X5.411Y-4.484
X5.411Y-4.5962
X6.6248Y-3.6449
X6.711Y-3.0226
X6.7126Y-3.2128
X6.75Y-3.6571
X6.7657Y-2.8498
X6.9512Y-3.214
X6.9524Y-3.0266
X6.9539Y-2.7648
X7.2222Y-4.1744
X7.4083Y-4.078
X7.4681Y-4.3874
X7.5116Y-2.9215
X7.5264Y-3.5681
X7.8984Y-3.075
X9.2488Y-3.6449
X9.335Y-3.0226
X9.3366Y-3.2128
X9.374Y-3.6571
X9.3898Y-2.8498
X9.5752Y-3.214
X9.5764Y-3.0266
X9.578Y-2.7648
X9.8463Y-4.1744
X10.0323Y-4.078
X10.0921Y-4.3874
X10.1356Y-2.9215
X10.1504Y-3.5681
X10.5224Y-3.075
T5
X6.5087Y-4.8988
X6.5874Y-4.8988
X6.6661Y-4.8988
X6.7449Y-4.8988
X9.6652Y-4.6636
X9.7439Y-4.6636
X9.8226Y-4.6636
X9.9014Y-4.6636
X9.1327Y-4.8988
X9.2114Y-4.8988
X9.2902Y-4.8988
X9.3689Y-4.8988
X7.6484Y-4.9224
X7.7272Y-4.9224
X10.2724Y-4.9224
X10.3512Y-4.9224
X9.8485Y-7.4075
X9.9272Y-7.4075
X2.9147Y-6.3309
X2.9829Y-6.2915
X3.0511Y-6.2521
X3.1193Y-6.2128
X3.1875Y-6.1734
X3.2557Y-6.134
X7.0411Y-4.6636
X7.1199Y-4.6636
X7.1986Y-4.6636
X7.2774Y-4.6636
X2.9147Y-7.5779
X2.9829Y-7.6173
X3.0511Y-7.6567
X3.1193Y-7.696
X3.1875Y-7.7354
X3.2557Y-7.7748
X7.3638Y-7.4075
X7.4426Y-7.4075
T6
X9.1602Y-4.5839
X9.2602Y-4.5839
X9.3602Y-4.5839
X6.5362Y-4.5839
X6.6362Y-4.5839
X6.7362Y-4.5839
X3.2799Y-2.7153
X3.3799Y-2.7153
X3.4799Y-2.7153
T7
X3.3027Y-4.8324
X3.3027Y-4.9324
X3.4027Y-4.8324
X3.4027Y-4.9324
X3.5027Y-4.8324
X3.5027Y-4.9324
X3.6027Y-4.8324
X3.6027Y-4.9324
X3.7027Y-4.8324
X3.7027Y-4.9324
X3.8027Y-4.8324
X3.8027Y-4.9324
X9.1195Y-7.2638
X9.1195Y-7.3638
X9.1195Y-7.4638
X9.2195Y-7.2638
X9.2195Y-7.3638
X9.2195Y-7.4638
X8.0715Y-7.2646
X8.0715Y-7.3646
X8.0715Y-7.4646
X8.1715Y-7.2646
X8.1715Y-7.3646
X8.1715Y-7.4646
X7.9004Y-3.3841
X7.9004Y-3.4841
X7.9004Y-3.5841
X8.0004Y-3.3841
X8.0004Y-3.4841
X8.0004Y-3.5841
X10.5561Y-7.2646
X10.5561Y-7.3646
X10.5561Y-7.4646
X10.6561Y-7.2646
X10.6561Y-7.3646
X10.6561Y-7.4646
X10.5244Y-3.3841
X10.5244Y-3.4841
X10.5244Y-3.5841
X10.6244Y-3.3841
X10.6244Y-3.4841
X10.6244Y-3.5841
X6.3329Y-3.3839
X6.3329Y-3.4839
X6.3329Y-3.5839
X6.4329Y-3.3839
X6.4329Y-3.4839
X6.4329Y-3.5839
X6.6349Y-7.2638
X6.6349Y-7.3638
X6.6349Y-7.4638
X6.7349Y-7.2638
X6.7349Y-7.3638
X6.7349Y-7.4638
X8.9569Y-3.3839
X8.9569Y-3.4839
X8.9569Y-3.5839
X9.0569Y-3.3839
X9.0569Y-3.4839
X9.0569Y-3.5839
X4.52Y-6.7069
X4.52Y-6.8069
X4.52Y-6.9069
X4.52Y-7.0069
X4.52Y-7.1069
X4.52Y-7.2069
X4.62Y-6.7069
X4.62Y-6.8069
X4.62Y-6.9069
X4.62Y-7.0069
X4.62Y-7.1069
X4.62Y-7.2069
T8
X2.1004Y-2.9147
X2.1004Y-3.0147
X2.1004Y-3.1147
X2.1004Y-3.2147
X2.1004Y-3.3147
X2.1004Y-3.4147
X2.1004Y-3.5147
X2.1004Y-3.6147
X2.1004Y-3.7147
X2.1004Y-3.8147
X2.1004Y-3.9147
X2.1004Y-4.0147
X2.1004Y-4.1147
X2.1004Y-4.2147
X2.1004Y-4.3147
X2.1004Y-4.4147
X2.1004Y-4.5147
X2.1004Y-4.6147
X2.1004Y-4.7147
X2.2004Y-2.9147
X2.2004Y-3.0147
X2.2004Y-3.1147
X2.2004Y-3.2147
X2.2004Y-3.3147
X2.2004Y-3.4147
X2.2004Y-3.5147
X2.2004Y-3.6147
X2.2004Y-3.7147
X2.2004Y-3.8147
X2.2004Y-3.9147
X2.2004Y-4.0147
X2.2004Y-4.1147
X2.2004Y-4.2147
X2.2004Y-4.3147
X2.2004Y-4.4147
X2.2004Y-4.5147
X2.2004Y-4.6147
X2.2004Y-4.7147
X4.5004Y-2.9147
X4.5004Y-3.0147
X4.5004Y-3.1147
X4.5004Y-3.2147
X4.5004Y-3.3147
X4.5004Y-3.4147
X4.5004Y-3.5147
X4.5004Y-3.6147
X4.5004Y-3.7147
X4.5004Y-3.8147
X4.5004Y-3.9147
X4.5004Y-4.0147
X4.5004Y-4.1147
X4.5004Y-4.2147
X4.5004Y-4.3147
X4.5004Y-4.4147
X4.5004Y-4.5147
X4.5004Y-4.6147
X4.5004Y-4.7147
X4.6004Y-2.9147
X4.6004Y-3.0147
X4.6004Y-3.1147
X4.6004Y-3.2147
X4.6004Y-3.3147
X4.6004Y-3.4147
X4.6004Y-3.5147
X4.6004Y-3.6147
X4.6004Y-3.7147
X4.6004Y-3.8147
X4.6004Y-3.9147
X4.6004Y-4.0147
X4.6004Y-4.1147
X4.6004Y-4.2147
X4.6004Y-4.3147
X4.6004Y-4.4147
X4.6004Y-4.5147
X4.6004Y-4.6147
X4.6004Y-4.7147
T9
X4.9858Y-1.9525
X5.1157Y-1.732
X5.2456Y-1.9525
T0
M30
